<?xml version="1.0" encoding="utf-8"?>
<!-- Generator: Adobe Illustrator 21.1.0, SVG Export Plug-In . SVG Version: 6.00 Build 0)  -->
<svg version="1.1" xmlns="http://www.w3.org/2000/svg" xmlns:xlink="http://www.w3.org/1999/xlink" x="0px" y="0px"
	 viewBox="0 0 1473.9 1900" style="enable-background:new 0 0 1473.9 1900;" xml:space="preserve">
<style type="text/css">
	.st0{clip-path:url(#SVGID_2_);}
	.st1{fill:none;stroke:#FFFFFF;stroke-width:30;stroke-linecap:round;stroke-linejoin:round;stroke-miterlimit:10;}
	.st2{fill:#7F7F7F;}
	.st3{font-family:'DroidSans';}
	.st4{font-size:26px;}
	.st5{fill:#E7E8EA;stroke:#ADADAD;stroke-width:2;stroke-linecap:round;stroke-linejoin:round;stroke-miterlimit:10;}
	.st6{fill:#BDA9CD;}
	.st7{opacity:0.5;}
	.st8{fill:#8C61B3;}
	.st9{opacity:0.35;fill:#BDA9CD;}
	.st10{fill:#FFFFFF;stroke:#ADADAD;stroke-width:2;stroke-linecap:round;stroke-linejoin:round;stroke-miterlimit:10;}
	.st11{fill:#FFFFFF;}
	.st12{fill:none;stroke:#FFFFFF;stroke-width:3;stroke-linecap:round;stroke-linejoin:round;}
	.st13{font-family:'DroidSans-Bold';}
	.st14{font-size:12px;}
	.st15{font-size:16px;}
</style>
<g id="Piso_1_Base_3_">
	<g id="PIso_1_Base">
		<g>
			<defs>
				<rect id="SVGID_1_" x="-0.6" width="1475.2" height="1900"/>
			</defs>
			<use xlink:href="#SVGID_1_"  style="overflow:visible;fill:#E5E5E5;"/>
			<clipPath id="SVGID_2_">
				<use xlink:href="#SVGID_1_"  style="overflow:visible;"/>
			</clipPath>
			<g class="st0">
				<g>
					<line class="st1" x1="-1686.8" y1="1839.7" x2="2561.8" y2="1590.1"/>
					<line class="st1" x1="-1663.7" y1="1904.3" x2="2584.9" y2="1654.7"/>
				</g>
				<text transform="matrix(0.8984 -5.434200e-02 6.038000e-02 0.9982 862.6888 1697.3296)" class="st2 st3 st4">Av. Anhanguera</text>
				<path class="st1" d="M-764.8,592.9c12-4,452-32,452-32l1444-436l1544-132"/>
				<path class="st1" d="M375.2-851.1c-4,12,8,1188,8,1188"/>
				<polyline class="st1" points="675.2,-831.1 675.2,108.9 707.2,232.9 				"/>
				<path class="st1" d="M975.2-807.1c4,16,8,968,8,968"/>
				<text transform="matrix(0.8602 -0.2646 0.294 0.9558 287.8929 389.2112)" class="st2 st3 st4">Av. 24 de Outubro</text>
			</g>
		</g>
	</g>
	<g>
		<g id="Piso_1_Base_1_">
			<polygon class="st5" points="70.1,1583.1 283.5,1569.1 285.5,1583.4 791.4,1549.9 793.5,1547.4 834.3,1582.7 846.1,1569.3 
				878,1598.2 976,1486.3 987.2,1495.7 1111.8,1352.4 1075.3,1319.9 1156.9,1229 1192.6,1260.3 1317.8,1118 1306.8,1108.9 
				1405.8,996 1373.5,967.6 1384.3,955.3 1343.2,919.2 1345.3,916.8 1332.3,722.1 1316.2,473.9 1352.8,472.5 1333.5,194.8 
				986.2,216.6 1002.9,450.8 288.3,1265.5 50,1281.4 			"/>
			<path class="st6" d="M269.8,1266.9l19.3,301.8l-5.7,0.4l2,14.3l93.9-6.4l-5.1-61.7l-62.8,4.6l-1.8-21.6l11.2-12.8l396.6-25.9
				L794,1527l16.1-18.4l-49.2-43.9l-1.3-17.6l149.9-171.2c0,0,23-3.6,30.9-5.4c7.9-1.8,40.7-33.2,40.7-33.2l94.4,83.8l81.4-92
				l-95.4-83.1c0,0,37.8-57,37.4-63.2c-0.4-6.2-8.5-13.3-8.5-13.3l149.6-170.7l16.8-1.1l51.3,43.7l16.1-18.9l-77.1-67.3l-26.4-396.4
				l11.4-12.6l33.8-1.4l-2.2-26.2l-48.4-32.2L1076.9,409l-4.7-106.9l-34.6-3.7l-14.2,15.7l-2.2,121l-19.5,1l1.2,14.6l-97.8,112.1
				l13.1,11.8l25,21.9l-34.8,39.7l11.2,10.1l61.6-69.1c0,0,55.8-55.3,56.8-54.9c1.1,0.4,63.7,52.9,63.7,52.9l67.9,46.9l9.2,171.4
				l5.9,74l-63.7,81l-37.9,43.2l-64.5,36.5l-151.6,78.9l9.1,121.7l-99.9,112.8l-106.6,24.8L477.1,1398l-139.7-113.8
				c0,0-12.2-16-11.3-15.3s49.4-56.9,49.4-56.9l30.7,21.1l60.8-69.5l-11.3-10.4l-34.6,39.3l-25.6-22.4l-13.3-11.5l-93.7,106.9
				L269.8,1266.9z"/>
			<g class="st7">
				
					<rect x="414.5" y="1428.7" transform="matrix(0.6592 -0.752 0.752 0.6592 -937.1398 809.4296)" class="st8" width="19.7" height="19.7"/>
				
					<rect x="298.1" y="1316.6" transform="matrix(0.6592 -0.752 0.752 0.6592 -893.2956 681.8403)" class="st8" width="14.9" height="19.7"/>
				
					<rect x="731.4" y="1415.1" transform="matrix(0.6592 -0.752 0.752 0.6592 -818.931 1043.0314)" class="st8" width="19.7" height="19.7"/>
				
					<rect x="803.7" y="1332.6" transform="matrix(0.6592 -0.752 0.752 0.6592 -732.2396 1069.2964)" class="st8" width="19.7" height="19.7"/>
				
					<rect x="865.9" y="1261.6" transform="matrix(0.6592 -0.752 0.752 0.6592 -657.6447 1091.8964)" class="st8" width="19.7" height="19.7"/>
				
					<rect x="1071.3" y="1027.3" transform="matrix(0.6592 -0.752 0.752 0.6592 -411.395 1166.5029)" class="st8" width="19.7" height="19.7"/>
				
					<rect x="1134" y="955.7" transform="matrix(0.6592 -0.752 0.752 0.6592 -336.224 1189.2775)" class="st8" width="19.7" height="19.7"/>
				
					<rect x="1205.9" y="873.8" transform="matrix(0.6592 -0.752 0.752 0.6592 -250.1087 1215.3679)" class="st8" width="19.7" height="19.7"/>
				
					<rect x="503.8" y="1434.2" transform="matrix(-6.563210e-02 -0.9978 0.9978 -6.563210e-02 -893.6321 2051.3188)" class="st8" width="19.7" height="19.7"/>
				
					<rect x="668.9" y="1423.3" transform="matrix(-6.563210e-02 -0.9978 0.9978 -6.563210e-02 -706.8441 2204.5024)" class="st8" width="19.7" height="19.7"/>
				<g>
					
						<rect x="1178.2" y="557.5" transform="matrix(-0.6592 0.752 -0.752 -0.6592 2397.8479 47.8693)" class="st8" width="19.7" height="19.7"/>
					
						<rect x="1053.8" y="454.4" transform="matrix(-0.6592 0.752 -0.752 -0.6592 2109.9849 -27.8973)" class="st8" width="14.9" height="19.7"/>
					
						<rect x="1195.4" y="645.2" transform="matrix(-0.9978 6.563210e-02 -6.563210e-02 -0.9978 2450.8164 1229.5933)" class="st8" width="19.7" height="19.7"/>
					
						<rect x="1206.2" y="810.3" transform="matrix(-0.9978 6.563210e-02 -6.563210e-02 -0.9978 2483.3481 1558.7518)" class="st8" width="19.7" height="19.7"/>
				</g>
			</g>
			
				<ellipse transform="matrix(0.6592 -0.752 0.752 0.6592 -534.5846 1129.9325)" class="st9" cx="979.2" cy="1154.7" rx="79.1" ry="24.8"/>
			<g>
				<polygon class="st10" points="289.2,1568.7 276.3,1385.4 210,1390.2 203,1291 136.9,1295.6 142,1362.2 55.6,1366.8 70.1,1583.1 
									"/>
				<polygon class="st10" points="210.5,1390.2 207.9,1358.4 274.8,1354 276.9,1385.3 				"/>
				<polygon class="st10" points="207.7,1358.6 202.9,1290.5 270.6,1286.8 274.2,1353.5 				"/>
				<polygon class="st10" points="350.8,1311.5 320.9,1284.8 319.8,1268.9 375.6,1205.8 432.6,1256.3 408.9,1283.4 390.2,1267.1 
									"/>
				
					<rect x="350.2" y="1284.8" transform="matrix(0.6592 -0.752 0.752 0.6592 -846.2689 727.9708)" class="st10" width="59.4" height="25.5"/>
				
					<rect x="371.9" y="1283.8" transform="matrix(0.6592 -0.752 0.752 0.6592 -840.8691 761.5233)" class="st10" width="95.5" height="49.2"/>
				
					<rect x="417.7" y="1334.2" transform="matrix(0.6592 -0.752 0.752 0.6592 -871.9763 795.1781)" class="st10" width="47" height="50.7"/>
				
					<rect x="433.5" y="1192.1" transform="matrix(0.6592 -0.752 0.752 0.6592 -766.5459 762.1869)" class="st10" width="48.1" height="69.3"/>
				
					<rect x="465.2" y="1155.9" transform="matrix(0.6592 -0.752 0.752 0.6592 -728.5284 773.7051)" class="st10" width="48.1" height="69.3"/>
				<polygon class="st10" points="445.1,1394.2 474.1,1419.1 562.3,1413.1 557.6,1345.4 517.3,1310.6 507.2,1322.1 469.6,1288.7 
					437.7,1325.2 475.8,1358.6 				"/>
				<polygon class="st10" points="562.2,1413 586.6,1411.7 582.5,1344.1 557.4,1345.8 				"/>
				<polygon class="st10" points="586.6,1411.7 582.3,1344.3 598.1,1342.9 647.8,1386.5 648.8,1407.5 				"/>
				<polygon class="st10" points="648.6,1407.3 723.2,1402.6 751.1,1370.4 607.9,1243.6 649.4,1196.3 593.6,1147.4 479.4,1277 
					557.9,1345.6 597.9,1343.1 647.9,1386.7 				"/>
				
					<rect x="692.5" y="1239.9" transform="matrix(0.6592 -0.752 0.752 0.6592 -733.9859 988.9161)" class="st10" width="62.9" height="128.5"/>
				
					<rect x="773" y="1246" transform="matrix(0.6592 -0.752 0.752 0.6592 -692.7115 1028.7781)" class="st10" width="31.1" height="65.1"/>
				
					<rect x="393.8" y="1170.8" transform="matrix(0.6592 -0.752 0.752 0.6592 -756.2126 707.6687)" class="st10" width="17.5" height="34.5"/>
				<path class="st10" d="M538.5,1006.1l9.5,8.3l-14.7,16.8l6.9,6.1l-5.8,6.6l24.5,21.5l-16.1,17.6l210.9,185.9l20.5-23.4l49,42.9
					l52.9-59.3c0,0,2.8-9.8,4.4-16.1s5.3-14.1,5.3-14.1l-39.6-36l20.2-23L667,964.9l-10.3,11.7l-51.6-45.9L538.5,1006.1z"/>
				<path class="st10" d="M886,1198.8c0,0,7.4-18.1,14.2-29.5c6.8-11.5,13.4-21.9,13.4-21.9l-30.2-26.4l-37,41.9L886,1198.8z"/>
				<path class="st10" d="M913.6,1147.4c0,0,12.1-19.7,34.5-43.1c22.4-23.3,43.4-35.9,43.4-35.9l-35.6-31.2l34.6-39.1L767.5,803.2
					L644,944.4L866.8,1140l16.5-18.8L913.6,1147.4z"/>
				<path class="st10" d="M991.4,1068.6c0,0,21.5-14,33.8-19.8c8.9-4.2,13.1-5.7,13.1-5.7l1.6-1.8l-49.5-43.4l-34.4,39.3
					L991.4,1068.6z"/>
				<polygon class="st10" points="1039.9,1041.3 1111.5,959.6 839.2,720.9 767.3,803.3 				"/>
				
					<rect x="1122.9" y="868.4" transform="matrix(0.6592 -0.752 0.752 0.6592 -285.0006 1158.5916)" class="st10" width="25.5" height="50.5"/>
				
					<rect x="1062" y="818.4" transform="matrix(0.6592 -0.752 0.752 0.6592 -290.8616 1123.2747)" class="st10" width="63.4" height="128.3"/>
				<polygon class="st10" points="1117.6,861.6 1135.1,841.7 1189.6,838.1 1191.4,868.8 1162.7,901.1 				"/>
				<polygon class="st10" points="1078.8,827.3 1117.9,861.5 1135.1,841.7 1189.6,838.1 1186.5,794.4 1102.7,800.4 				"/>
				<polygon class="st10" points="1186.6,794.7 1180.5,713.1 1119.1,717.2 1034.3,642.8 921.2,773.1 977.6,822.2 1019.6,774.7 
					1078.9,827.6 1103.1,800.4 				"/>
				<polygon class="st10" points="1104.1,704 1131.6,673.1 1178,669.9 1180.7,713.3 1119.3,717.3 				"/>
				<polygon class="st10" points="1082.7,666.2 1113.6,693.3 1131.6,673.1 1178,669.9 1174.7,619.5 1145.7,594.4 				"/>
				
					<rect x="1087.6" y="595.4" transform="matrix(0.6592 -0.752 0.752 0.6592 -76.6005 1047.1071)" class="st10" width="58.6" height="25.3"/>
				
					<rect x="1068.8" y="578.9" transform="matrix(0.6592 -0.752 0.752 0.6592 -70.6087 1027.3303)" class="st10" width="58.6" height="25.3"/>
				
					<rect x="1031.1" y="545.9" transform="matrix(0.6592 -0.752 0.752 0.6592 -58.6252 987.7767)" class="st10" width="58.6" height="25.3"/>
				
					<rect x="1012.1" y="529.3" transform="matrix(0.6592 -0.752 0.752 0.6592 -52.5752 967.808)" class="st10" width="58.6" height="25.3"/>
				
					<rect x="993.3" y="512.8" transform="matrix(0.6592 -0.752 0.752 0.6592 -46.5834 948.0312)" class="st10" width="58.6" height="25.3"/>
				
					<rect x="926.4" y="629.4" transform="matrix(0.6592 -0.752 0.752 0.6592 -175.4507 941.2715)" class="st10" width="48.6" height="69.5"/>
				
					<rect x="958.4" y="592.9" transform="matrix(0.6592 -0.752 0.752 0.6592 -137.0492 952.9061)" class="st10" width="48.6" height="69.5"/>
				
					<rect x="927.9" y="562.6" transform="matrix(0.6592 -0.752 0.752 0.6592 -116.4726 901.5961)" class="st10" width="17" height="33.3"/>
				
					<rect x="972.2" y="522.9" transform="matrix(0.6592 -0.752 0.752 0.6592 -84.3507 936.3792)" class="st10" width="37.2" height="76.8"/>
				<polygon class="st10" points="974,522.1 1005.5,486.7 1021.9,485.6 1032.5,495.2 993.6,538.9 				"/>
				<polygon class="st10" points="1007.4,600.5 1082.5,666.4 1107.1,638.4 1069.2,605.2 1107.8,561.2 1089.2,544.9 1050.4,589.1 
					1031.6,572.6 				"/>
				<polygon class="st10" points="1021.2,435.2 1028.9,434.5 1039.8,422.1 1037.7,397.9 1018.7,399.4 				"/>
				<polygon class="st10" points="1018.7,399.4 1015.1,342.9 1034.5,341.5 1037.9,398.1 				"/>
				<polygon class="st10" points="1015.3,343.4 1012,293 1056.1,290.3 1057.7,314.6 1032.3,316.7 1034.5,341.5 				"/>
				<polygon class="st10" points="1059.3,339.7 1056.1,290.3 1075.3,289.4 1078.4,338.3 				"/>
				<polygon class="st10" points="1059.3,339.7 1061.1,364.5 1142.4,359.5 1136.5,271.9 1073.2,275.9 1078.5,338.1 				"/>
				<polygon class="st10" points="1063.4,395.9 1061,364.4 1080.5,363.4 1081.9,394.7 				"/>
				<polygon class="st10" points="1063.2,395.7 1064.8,419.4 1077.4,430.8 1084.4,430.2 1081.9,394.7 				"/>
				<polygon class="st10" points="1084.4,430.2 1115.4,428.3 1111.2,361.6 1080.5,363.4 				"/>
				<polygon class="st10" points="1115.3,428.1 1147,425.9 1142.4,359.2 1111.4,361.7 				"/>
				<polygon class="st10" points="1147,426.2 1263.8,418.7 1263.4,413.6 1348.5,408 1333.5,194.8 1068.8,211.6 1073.1,276.1 
					1136.3,272.1 				"/>
				<polygon class="st10" points="1220.8,458.9 1232.2,446.3 1282.6,443.6 1285.6,491.1 1302.6,490.2 1303.4,505.8 1224.6,511.3 
									"/>
				<polygon class="st10" points="1226.6,541.5 1224.7,511.2 1303.6,505.6 1305.2,536.2 				"/>
				<polygon class="st10" points="1228.9,579.1 1226.6,541.5 1305.4,536 1309.4,598.6 1280.4,600.3 1278.6,575.5 				"/>
				<polygon class="st10" points="1230.6,603.6 1228.9,579.1 1278.6,575.5 1280.2,600.2 				"/>
				<polygon class="st10" points="1232.5,628.8 1230.6,603.6 1280.7,600.3 1282.2,625.5 				"/>
				<polygon class="st10" points="1232.5,628.8 1235.1,666.3 1313.3,660.8 1309.4,598.6 1280.7,600.3 1282,625.7 				"/>
				<polygon class="st10" points="1237.2,703.4 1235.1,666 1313.3,660.8 1317.5,723.1 1289.1,725.3 1287.1,700.3 				"/>
				<polygon class="st10" points="1238.9,728.4 1237.4,703.2 1287.1,700.3 1289.1,725.3 				"/>
				<polygon class="st10" points="1238.7,728.2 1245.6,833.5 1339,827.2 1332.3,722.1 				"/>
				<polygon class="st10" points="1245.8,833.3 1247.2,855.3 1333.1,930.9 1345.3,916.8 1339.2,827.4 				"/>
				<polygon class="st10" points="1240.1,898.8 1256.9,897.7 1330.1,960.9 1287,1010.1 1205.2,938.6 				"/>
				
					<rect x="1221.3" y="931.2" transform="matrix(0.6592 -0.752 0.752 0.6592 -341.0093 1289.8324)" class="st10" width="62.2" height="179.8"/>
				
					<rect x="1168.2" y="983.5" transform="matrix(0.6592 -0.752 0.752 0.6592 -365.9581 1238.9846)" class="st10" width="31.3" height="79.5"/>
				
					<rect x="1147.8" y="1006.7" transform="matrix(0.6592 -0.752 0.752 0.6592 -390.3431 1231.5967)" class="st10" width="31.3" height="79.5"/>
				
					<rect x="1127.2" y="1030.3" transform="matrix(0.6592 -0.752 0.752 0.6592 -415.112 1224.0924)" class="st10" width="31.3" height="79.5"/>
				<polygon class="st10" points="1162.6,1107.8 1141.9,1131.4 1086.9,1083.1 1090.5,1069.5 1102.8,1055.4 				"/>
				<path class="st10" d="M1076.1,1115.4c0,0,5.5-15.2,7-19.4c1.4-4.2,3.8-12.5,3.8-12.5l55,47.9l-20.5,23.4L1076.1,1115.4z"/>
				<path class="st10" d="M1061.6,1145.9c0,0,7.1-13.2,9.2-17.8s5.4-12.8,5.4-12.8l45.1,39.6l-21.8,25.2L1061.6,1145.9z"/>
				<polygon class="st10" points="1109.8,1188.7 1233.8,1046.3 1299.5,1103.8 1289.5,1116 1306,1130.9 1192.6,1260.3 				"/>
				<path class="st10" d="M981,1237.2c0,0-12.1,8.3-18.5,12.6c-5.2,3.4-9.8,6.2-9.8,6.2l45.1,40l21.1-24.6L981,1237.2z"/>
				<path class="st10" d="M922.3,1271.1c0,0,8-3.9,14.9-7.1c6-2.7,15.6-8.1,15.6-8.1l45.2,39.9l-20.4,23.8L922.3,1271.1z"/>
				<path class="st10" d="M897,1290l12.5-14.3c0,0,4-1.3,6.8-2.3c2.8-1,6.5-2.8,6.5-2.8l54.7,48.7l-20.8,23.5L897,1290z"/>
				
					<rect x="874.7" y="1300.1" transform="matrix(0.6592 -0.752 0.752 0.6592 -698.9879 1138.0602)" class="st10" width="62.7" height="80"/>
				<polygon class="st10" points="760.9,1464.7 759.5,1447 855.5,1337.5 915.6,1389.6 895.4,1413.6 971.3,1479.7 929.4,1526.8 
					875.8,1479.1 832.6,1528.5 				"/>
				<polygon class="st10" points="1028.5,1279.8 1111.8,1352.4 998.2,1483.3 981,1468.6 971.3,1479.7 904.1,1421.5 				"/>
				<polygon class="st10" points="791.4,1549.9 803.9,1535.4 717.5,1459.6 621.5,1466.2 627.7,1560.9 				"/>
				<polygon class="st10" points="532.1,1528.4 528.2,1472 621.5,1466.2 624.8,1521.8 				"/>
				<polygon class="st10" points="500.8,1523.9 497.2,1474.2 528.2,1472 531.6,1521.9 				"/>
				<polygon class="st10" points="469.8,1526.2 466.2,1476.5 497.2,1474.2 500.6,1524.1 				"/>
				<polygon class="st10" points="406.7,1530.3 403.1,1480.6 434.1,1478.4 437.5,1528.3 				"/>
				<polygon class="st10" points="434.1,1478.4 466.3,1476.6 471.5,1555.1 439.7,1557.9 				"/>
				<polygon class="st10" points="374.2,1515.7 372.4,1482.8 403.4,1480.6 408.6,1559.5 386.6,1560.6 382.9,1515 				"/>
				<polygon class="st10" points="343.4,1518.1 341.7,1484.6 372.4,1482.8 374.2,1515.7 				"/>
				<polygon class="st10" points="311.4,1519.9 309.7,1498.3 320.9,1485.5 341.8,1484.5 343.2,1518 				"/>
			</g>
		</g>
		<g>
			<g>
				<circle class="st8" cx="479.1" cy="1209.1" r="24.2"/>
				<g>
					<g>
						<g>
							<path class="st11" d="M469.8,1199.6c1.3,0,2.3-1,2.3-2.3c0-1.3-1-2.3-2.3-2.3c-1.3,0-2.3,1-2.3,2.3
								C467.4,1198.6,468.5,1199.6,469.8,1199.6z M472.2,1200.2l-4.9,0c-1.7,0-3,1.4-3,3v7.2c0,1.4,2,1.4,2,0v-6.6h0.5v18
								c0,1.9,2.7,1.8,2.7,0v-10.5h0.5v10.5c0,1.8,2.7,1.9,2.7,0v-18h0.5v6.6c0,1.4,2,1.4,2,0v-7.1
								C475.2,1201.7,474,1200.2,472.2,1200.2z"/>
						</g>
					</g>
					<g>
						<g>
							<path class="st11" d="M496.3,1208.8l-2-6.6c-0.2-0.7-1.2-2.1-2.8-2.1h-3.2c-1.6,0-2.6,1.3-2.8,2.1l-2,6.6
								c-0.4,1.4,1.4,2,1.8,0.6l1.8-6.1h0.5l-3.1,10.8h2.9l0,7.9c0,1.4,2.2,1.4,2.2,0l0-7.9h0.6v8c0,1.4,2.2,1.4,2.2,0v-7.9h2.9
								l-3.1-10.8h0.5l1.8,6.1C494.9,1210.9,496.7,1210.3,496.3,1208.8z M489.9,1199.6c1.3,0,2.3-1,2.3-2.3c0-1.3-1-2.3-2.3-2.3
								c-1.3,0-2.3,1-2.3,2.3C487.6,1198.5,488.7,1199.6,489.9,1199.6z"/>
						</g>
					</g>
					<g>
						<path class="st11" d="M479.3,1224.8c-0.2,0-0.4-0.2-0.4-0.4v-30.5c0-0.2,0.2-0.4,0.4-0.4s0.4,0.2,0.4,0.4v30.5
							C479.8,1224.6,479.6,1224.8,479.3,1224.8z"/>
					</g>
				</g>
			</g>
			<g>
				<circle class="st8" cx="973.1" cy="647.1" r="24.2"/>
				<g>
					<g>
						<g>
							<path class="st11" d="M963.8,637.6c1.3,0,2.3-1,2.3-2.3c0-1.3-1-2.3-2.3-2.3c-1.3,0-2.3,1-2.3,2.3
								C961.4,636.6,962.5,637.6,963.8,637.6z M966.2,638.2l-4.9,0c-1.7,0-3,1.4-3,3v7.2c0,1.4,2,1.4,2,0v-6.6h0.5v18
								c0,1.9,2.7,1.8,2.7,0v-10.5h0.5v10.5c0,1.8,2.7,1.9,2.7,0v-18h0.5v6.6c0,1.4,2,1.4,2,0v-7.1
								C969.2,639.7,968,638.2,966.2,638.2z"/>
						</g>
					</g>
					<g>
						<g>
							<path class="st11" d="M990.3,646.8l-2-6.6c-0.2-0.7-1.2-2.1-2.8-2.1h-3.2c-1.6,0-2.6,1.3-2.8,2.1l-2,6.6
								c-0.4,1.4,1.4,2,1.8,0.6l1.8-6.1h0.5l-3.1,10.8h2.9l0,7.9c0,1.4,2.2,1.4,2.2,0l0-7.9h0.6v8c0,1.4,2.2,1.4,2.2,0v-7.9h2.9
								l-3.1-10.8h0.5l1.8,6.1C988.9,648.9,990.7,648.3,990.3,646.8z M983.9,637.6c1.3,0,2.3-1,2.3-2.3c0-1.3-1-2.3-2.3-2.3
								c-1.3,0-2.3,1-2.3,2.3C981.6,636.5,982.7,637.6,983.9,637.6z"/>
						</g>
					</g>
					<g>
						<path class="st11" d="M973.3,662.8c-0.2,0-0.4-0.2-0.4-0.4v-30.5c0-0.2,0.2-0.4,0.4-0.4c0.2,0,0.4,0.2,0.4,0.4v30.5
							C973.8,662.6,973.6,662.8,973.3,662.8z"/>
					</g>
				</g>
			</g>
			<g>
				<circle class="st8" cx="875.4" cy="1534.8" r="24.2"/>
				<g>
					<g>
						<path class="st11" d="M864.8,1549.1c-0.8,0-1.5-0.7-1.5-1.5v-7.4c0-0.8,0.7-1.5,1.5-1.5h6.6v-7.4c0-0.8,0.7-1.5,1.5-1.5h6.4
							v-6.3c0-0.8,0.7-1.5,1.5-1.5h8.3c0.8,0,1.5,0.7,1.5,1.5s-0.7,1.5-1.5,1.5h-6.8v6.3c0,0.8-0.7,1.5-1.5,1.5h-6.4v7.4
							c0,0.8-0.7,1.5-1.5,1.5h-6.6v5.9C866.3,1548.4,865.7,1549.1,864.8,1549.1z"/>
					</g>
				</g>
			</g>
			<g>
				<circle class="st8" cx="633.7" cy="1436" r="24.2"/>
				<g>
					<g>
						<path class="st11" d="M623.1,1450.3c-0.8,0-1.5-0.7-1.5-1.5v-7.4c0-0.8,0.7-1.5,1.5-1.5h6.6v-7.4c0-0.8,0.7-1.5,1.5-1.5h6.4
							v-6.3c0-0.8,0.7-1.5,1.5-1.5h8.3c0.8,0,1.5,0.7,1.5,1.5c0,0.8-0.7,1.5-1.5,1.5h-6.8v6.3c0,0.8-0.7,1.5-1.5,1.5h-6.4v7.4
							c0,0.8-0.7,1.5-1.5,1.5h-6.6v5.9C624.6,1449.6,623.9,1450.3,623.1,1450.3z"/>
					</g>
				</g>
			</g>
			<g>
				<circle class="st8" cx="654.2" cy="1243.5" r="24.2"/>
				<g>
					<g>
						<path class="st11" d="M643.6,1257.8c-0.8,0-1.5-0.7-1.5-1.5v-7.4c0-0.8,0.7-1.5,1.5-1.5h6.6v-7.4c0-0.8,0.7-1.5,1.5-1.5h6.4
							v-6.3c0-0.8,0.7-1.5,1.5-1.5h8.3c0.8,0,1.5,0.7,1.5,1.5c0,0.8-0.7,1.5-1.5,1.5H661v6.3c0,0.8-0.7,1.5-1.5,1.5h-6.4v7.4
							c0,0.8-0.7,1.5-1.5,1.5h-6.6v5.9C645.1,1257.2,644.4,1257.8,643.6,1257.8z"/>
					</g>
				</g>
			</g>
			<g>
				<circle class="st8" cx="1027.8" cy="819" r="24.2"/>
				<g>
					<g>
						<path class="st11" d="M1017.2,833.3c-0.8,0-1.5-0.7-1.5-1.5v-7.4c0-0.8,0.7-1.5,1.5-1.5h6.6v-7.4c0-0.8,0.7-1.5,1.5-1.5h6.4
							v-6.3c0-0.8,0.7-1.5,1.5-1.5h8.3c0.8,0,1.5,0.7,1.5,1.5c0,0.8-0.7,1.5-1.5,1.5h-6.8v6.3c0,0.8-0.7,1.5-1.5,1.5h-6.4v7.4
							c0,0.8-0.7,1.5-1.5,1.5h-6.6v5.9C1018.7,832.6,1018.1,833.3,1017.2,833.3z"/>
					</g>
				</g>
			</g>
			<g>
				<circle class="st8" cx="106.2" cy="1331" r="24.2"/>
				<g>
					<g>
						<path class="st11" d="M95.6,1345.3c-0.8,0-1.5-0.7-1.5-1.5v-7.4c0-0.8,0.7-1.5,1.5-1.5h6.6v-7.4c0-0.8,0.7-1.5,1.5-1.5h6.4
							v-6.3c0-0.8,0.7-1.5,1.5-1.5h8.3c0.8,0,1.5,0.7,1.5,1.5s-0.7,1.5-1.5,1.5H113v6.3c0,0.8-0.7,1.5-1.5,1.5h-6.4v7.4
							c0,0.8-0.7,1.5-1.5,1.5h-6.6v5.9C97.1,1344.6,96.4,1345.3,95.6,1345.3z"/>
					</g>
				</g>
			</g>
			<g>
				<circle class="st8" cx="336.2" cy="1553.5" r="24.2"/>
				<g>
					<g>
						<path class="st11" d="M325.6,1567.8c-0.8,0-1.5-0.7-1.5-1.5v-7.4c0-0.8,0.7-1.5,1.5-1.5h6.6v-7.4c0-0.8,0.7-1.5,1.5-1.5h6.4
							v-6.3c0-0.8,0.7-1.5,1.5-1.5h8.3c0.8,0,1.5,0.7,1.5,1.5c0,0.8-0.7,1.5-1.5,1.5H343v6.3c0,0.8-0.7,1.5-1.5,1.5h-6.4v7.4
							c0,0.8-0.7,1.5-1.5,1.5h-6.6v5.9C327.1,1567.2,326.4,1567.8,325.6,1567.8z"/>
					</g>
				</g>
			</g>
			<g>
				<circle class="st8" cx="1344.2" cy="1009.5" r="24.2"/>
				<g>
					<g>
						<path class="st11" d="M1333.6,1023.8c-0.8,0-1.5-0.7-1.5-1.5v-7.4c0-0.8,0.7-1.5,1.5-1.5h6.6v-7.4c0-0.8,0.7-1.5,1.5-1.5h6.4
							v-6.3c0-0.8,0.7-1.5,1.5-1.5h8.3c0.8,0,1.5,0.7,1.5,1.5c0,0.8-0.7,1.5-1.5,1.5h-6.8v6.3c0,0.8-0.7,1.5-1.5,1.5h-6.4v7.4
							c0,0.8-0.7,1.5-1.5,1.5h-6.6v5.9C1335.1,1023.2,1334.4,1023.8,1333.6,1023.8z"/>
					</g>
				</g>
			</g>
			<g>
				<circle class="st8" cx="1213.8" cy="773" r="24.2"/>
				<g>
					<g>
						<path class="st11" d="M1203.2,787.3c-0.8,0-1.5-0.7-1.5-1.5v-7.4c0-0.8,0.7-1.5,1.5-1.5h6.6v-7.4c0-0.8,0.7-1.5,1.5-1.5h6.4
							v-6.3c0-0.8,0.7-1.5,1.5-1.5h8.3c0.8,0,1.5,0.7,1.5,1.5c0,0.8-0.7,1.5-1.5,1.5h-6.8v6.3c0,0.8-0.7,1.5-1.5,1.5h-6.4v7.4
							c0,0.8-0.7,1.5-1.5,1.5h-6.6v5.9C1204.7,786.6,1204.1,787.3,1203.2,787.3z"/>
					</g>
				</g>
			</g>
			<g>
				<circle class="st8" cx="1325.7" cy="446.1" r="24.2"/>
				<g>
					<g>
						<path class="st11" d="M1315.1,460.3c-0.8,0-1.5-0.7-1.5-1.5v-7.4c0-0.8,0.7-1.5,1.5-1.5h6.6v-7.4c0-0.8,0.7-1.5,1.5-1.5h6.4
							v-6.3c0-0.8,0.7-1.5,1.5-1.5h8.3c0.8,0,1.5,0.7,1.5,1.5s-0.7,1.5-1.5,1.5h-6.8v6.3c0,0.8-0.7,1.5-1.5,1.5h-6.4v7.4
							c0,0.8-0.7,1.5-1.5,1.5h-6.6v5.9C1316.6,459.7,1315.9,460.3,1315.1,460.3z"/>
					</g>
				</g>
			</g>
			<g>
				<circle class="st8" cx="1065.8" cy="1224.1" r="24.2"/>
				<g>
					<g>
						<path class="st11" d="M1077.9,1213.1h-4.9c-1,0-2.3,0.4-3.1,1.2l-4.5,4.5l-4.2,4.1h0l-3.9,3.9c-0.4,0.4-0.4,0.4-1.1,0.4
							c0,0-2.4,0-2.4,0c-2.4,0-3.9,2.2-3.9,4s1.4,4.2,4.1,4.2c0,0,3.3,0,4.3,0c1,0,2.2-0.4,3.2-1.3l12.5-12.5
							c0.3-0.2,0.4-0.3,0.9-0.3c0,0,1.7,0,3.1,0c1.5,0,3.6-1.7,3.6-4.1C1081.6,1214.7,1079.5,1213.1,1077.9,1213.1z M1077.6,1219.1
							h-2.6c-1.1,0-1.6,0.2-2.3,0.8l-12.6,12.6c-0.5,0.5-1.2,0.7-2,0.7h-4.2c-1.1,0-2-0.9-2-2.1c0-1.2,0.9-1.8,1.8-1.8h2.9
							c0.8,0,1.4-0.2,1.9-0.7l12.8-12.8c0.5-0.5,1-0.6,1.9-0.6h4.4c1.1,0,1.8,1.2,1.8,1.9C1079.5,1217.7,1079,1219.1,1077.6,1219.1z
							"/>
					</g>
					<g>
						<g>
							<circle class="st11" cx="1063.3" cy="1212.4" r="2.1"/>
						</g>
						<g>
							<path class="st11" d="M1065.4,1218.8v-1.3c0-2.8-4.2-2.8-4.2,0v5.4h0L1065.4,1218.8z"/>
						</g>
					</g>
				</g>
			</g>
			<g>
				<circle class="st8" cx="1146.8" cy="504.5" r="24.2"/>
				<g>
					<g>
						<path class="st11" d="M1158.9,493.5h-4.9c-1,0-2.3,0.4-3.1,1.2l-4.5,4.5l-4.2,4.1h0l-3.9,3.9c-0.4,0.4-0.4,0.4-1.1,0.4
							c0,0-2.4,0-2.4,0c-2.4,0-3.9,2.2-3.9,4c0,1.8,1.4,4.2,4.1,4.2c0,0,3.3,0,4.3,0c1,0,2.2-0.4,3.2-1.3l12.5-12.5
							c0.3-0.2,0.4-0.3,0.9-0.3c0,0,1.7,0,3.1,0c1.5,0,3.6-1.7,3.6-4.1C1162.6,495.1,1160.5,493.5,1158.9,493.5z M1158.7,499.5h-2.6
							c-1.1,0-1.6,0.2-2.3,0.8l-12.6,12.6c-0.5,0.5-1.2,0.7-2,0.7h-4.2c-1.1,0-2-0.9-2-2.1c0-1.2,0.9-1.8,1.8-1.8h2.9
							c0.8,0,1.4-0.2,1.9-0.7l12.8-12.8c0.5-0.5,1-0.6,1.9-0.6h4.4c1.1,0,1.8,1.2,1.8,1.9C1160.5,498.2,1160,499.5,1158.7,499.5z"/>
					</g>
					<g>
						<g>
							<circle class="st11" cx="1144.3" cy="492.8" r="2.1"/>
						</g>
						<g>
							<path class="st11" d="M1146.4,499.2v-1.3c0-2.8-4.2-2.8-4.2,0v5.4h0L1146.4,499.2z"/>
						</g>
					</g>
				</g>
			</g>
			<g>
				<circle class="st8" cx="341.9" cy="1395.9" r="24.2"/>
				<g>
					<g>
						<path class="st11" d="M354,1384.9h-4.9c-1,0-2.3,0.4-3.1,1.2l-4.5,4.5l-4.2,4.1h0l-3.9,3.9c-0.4,0.4-0.4,0.4-1.1,0.4H330
							c-2.4,0-3.9,2.2-3.9,4c0,1.8,1.4,4.2,4.1,4.2c0,0,3.3,0,4.3,0c1,0,2.2-0.4,3.2-1.3l12.5-12.5c0.3-0.2,0.4-0.3,0.9-0.3
							c0,0,1.7,0,3.1,0c1.5,0,3.6-1.7,3.6-4.1C357.7,1386.5,355.6,1384.9,354,1384.9z M353.8,1390.9h-2.6c-1.1,0-1.6,0.2-2.3,0.8
							l-12.6,12.6c-0.5,0.5-1.2,0.7-2,0.7h-4.2c-1.1,0-2-0.9-2-2.1c0-1.2,0.9-1.8,1.8-1.8h2.9c0.8,0,1.4-0.2,1.9-0.7l12.8-12.8
							c0.5-0.5,1-0.6,1.9-0.6h4.4c1.1,0,1.8,1.2,1.8,1.9C355.6,1389.6,355.1,1390.9,353.8,1390.9z"/>
					</g>
					<g>
						<g>
							<circle class="st11" cx="339.5" cy="1384.2" r="2.1"/>
						</g>
						<g>
							<path class="st11" d="M341.6,1390.6v-1.3c0-2.8-4.2-2.8-4.2,0v5.4h0L341.6,1390.6z"/>
						</g>
					</g>
				</g>
			</g>
			<g>
				<circle class="st8" cx="421.3" cy="1171.6" r="24.2"/>
				<g>
					<g>
						<path class="st11" d="M429,1187.5h-15.6c-0.5,0-0.9-0.4-0.9-0.9V1164c0-0.5,0.4-0.9,0.9-0.9H429c0.5,0,0.9,0.4,0.9,0.9v22.6
							C429.9,1187.1,429.5,1187.5,429,1187.5z M414.3,1185.8h13.8v-20.8h-13.8V1185.8z"/>
					</g>
					<g>
						<path class="st11" d="M432.9,1187.9c-0.5,0-0.9-0.4-0.9-0.9v-26.3h-21.5v26.3c0,0.5-0.4,0.9-0.9,0.9s-0.9-0.4-0.9-0.9v-27.2
							c0-0.5,0.4-0.9,0.9-0.9h23.3c0.5,0,0.9,0.4,0.9,0.9v27.2C433.7,1187.5,433.4,1187.9,432.9,1187.9z"/>
					</g>
					<g>
						<path class="st11" d="M421.3,1187.4c-0.5,0-0.9-0.4-0.9-0.9v-22.3c0-0.5,0.4-0.9,0.9-0.9s0.9,0.4,0.9,0.9v22.3
							C422.1,1187,421.7,1187.4,421.3,1187.4z"/>
					</g>
					<g>
						<g>
							<g>
								<path class="st11" d="M425.1,1157.3c-0.3,0-0.5-0.2-0.5-0.5v-3.5c0-0.3,0.2-0.5,0.5-0.5s0.5,0.2,0.5,0.5v3.5
									C425.7,1157.1,425.4,1157.3,425.1,1157.3z"/>
							</g>
							<g>
								<g>
									<path class="st11" d="M423,1155.6c-0.1,0-0.3-0.1-0.4-0.2c-0.2-0.2-0.2-0.6,0-0.8l2-1.8c0.2-0.2,0.6-0.2,0.8,0
										c0.2,0.2,0.2,0.6,0,0.8l-2,1.8C423.3,1155.6,423.1,1155.6,423,1155.6z"/>
								</g>
								<g>
									<path class="st11" d="M427.3,1155.6c-0.1,0-0.3,0-0.4-0.1l-2-1.8c-0.2-0.2-0.2-0.5,0-0.8c0.2-0.2,0.5-0.2,0.8,0l2,1.8
										c0.2,0.2,0.2,0.5,0,0.8C427.6,1155.5,427.4,1155.6,427.3,1155.6z"/>
								</g>
							</g>
						</g>
						<g>
							<g>
								<path class="st11" d="M417.4,1157.3c-0.3,0-0.5-0.2-0.5-0.5v-3.5c0-0.3,0.2-0.5,0.5-0.5s0.5,0.2,0.5,0.5v3.5
									C417.9,1157,417.7,1157.3,417.4,1157.3z"/>
							</g>
							<g>
								<g>
									<path class="st11" d="M417.5,1157.3c-0.1,0-0.3-0.1-0.4-0.2c-0.2-0.2-0.2-0.6,0-0.8l2-1.8c0.2-0.2,0.6-0.2,0.8,0
										c0.2,0.2,0.2,0.6,0,0.8l-2,1.8C417.7,1157.3,417.6,1157.3,417.5,1157.3z"/>
								</g>
								<g>
									<path class="st11" d="M417.2,1157.3c-0.1,0-0.3,0-0.4-0.1l-2-1.8c-0.2-0.2-0.2-0.5,0-0.8c0.2-0.2,0.5-0.2,0.8,0l2,1.8
										c0.2,0.2,0.2,0.5,0,0.8C417.5,1157.3,417.4,1157.3,417.2,1157.3z"/>
								</g>
							</g>
						</g>
					</g>
				</g>
			</g>
			<g>
				<circle class="st8" cx="913.3" cy="591.6" r="24.2"/>
				<g>
					<g>
						<path class="st11" d="M921,607.5h-15.6c-0.5,0-0.9-0.4-0.9-0.9V584c0-0.5,0.4-0.9,0.9-0.9H921c0.5,0,0.9,0.4,0.9,0.9v22.6
							C921.9,607.1,921.5,607.5,921,607.5z M906.3,605.8h13.8v-20.8h-13.8V605.8z"/>
					</g>
					<g>
						<path class="st11" d="M924.9,607.9c-0.5,0-0.9-0.4-0.9-0.9v-26.3h-21.5V607c0,0.5-0.4,0.9-0.9,0.9s-0.9-0.4-0.9-0.9v-27.2
							c0-0.5,0.4-0.9,0.9-0.9h23.3c0.5,0,0.9,0.4,0.9,0.9V607C925.7,607.5,925.4,607.9,924.9,607.9z"/>
					</g>
					<g>
						<path class="st11" d="M913.3,607.4c-0.5,0-0.9-0.4-0.9-0.9v-22.3c0-0.5,0.4-0.9,0.9-0.9s0.9,0.4,0.9,0.9v22.3
							C914.1,607,913.7,607.4,913.3,607.4z"/>
					</g>
					<g>
						<g>
							<g>
								<path class="st11" d="M917.1,577.3c-0.3,0-0.5-0.2-0.5-0.5v-3.5c0-0.3,0.2-0.5,0.5-0.5c0.3,0,0.5,0.2,0.5,0.5v3.5
									C917.7,577.1,917.4,577.3,917.1,577.3z"/>
							</g>
							<g>
								<g>
									<path class="st11" d="M915,575.6c-0.1,0-0.3-0.1-0.4-0.2c-0.2-0.2-0.2-0.6,0-0.8l2-1.8c0.2-0.2,0.6-0.2,0.8,0
										c0.2,0.2,0.2,0.6,0,0.8l-2,1.8C915.3,575.6,915.1,575.6,915,575.6z"/>
								</g>
								<g>
									<path class="st11" d="M919.3,575.6c-0.1,0-0.3,0-0.4-0.1l-2-1.8c-0.2-0.2-0.2-0.5,0-0.8c0.2-0.2,0.5-0.2,0.8,0l2,1.8
										c0.2,0.2,0.2,0.5,0,0.8C919.6,575.5,919.4,575.6,919.3,575.6z"/>
								</g>
							</g>
						</g>
						<g>
							<g>
								<path class="st11" d="M909.4,577.3c-0.3,0-0.5-0.2-0.5-0.5v-3.5c0-0.3,0.2-0.5,0.5-0.5c0.3,0,0.5,0.2,0.5,0.5v3.5
									C909.9,577,909.7,577.3,909.4,577.3z"/>
							</g>
							<g>
								<g>
									<path class="st11" d="M909.5,577.3c-0.1,0-0.3-0.1-0.4-0.2c-0.2-0.2-0.2-0.6,0-0.8l2-1.8c0.2-0.2,0.6-0.2,0.8,0
										c0.2,0.2,0.2,0.6,0,0.8l-2,1.8C909.7,577.3,909.6,577.3,909.5,577.3z"/>
								</g>
								<g>
									<path class="st11" d="M909.2,577.3c-0.1,0-0.3,0-0.4-0.1l-2-1.8c-0.2-0.2-0.2-0.5,0-0.8c0.2-0.2,0.5-0.2,0.8,0l2,1.8
										c0.2,0.2,0.2,0.5,0,0.8C909.5,577.3,909.4,577.3,909.2,577.3z"/>
								</g>
							</g>
						</g>
					</g>
				</g>
			</g>
		</g>
	</g>
</g>
<g id="Piso_1_Texto">
	<g>
		<g>
			<text transform="matrix(1 0 0 1 235.881 1316.9403)"><tspan x="0" y="0" class="st12 st13 st14">NEY</tspan><tspan x="-17.5" y="12" class="st12 st13 st14">MARINHO</tspan></text>
			<text transform="matrix(1 0 0 1 357.5919 1303.4403)"><tspan x="0" y="0" class="st12 st13 st14">CIA DO</tspan><tspan x="0.7" y="12" class="st12 st13 st14">TERNO</tspan></text>
			<text transform="matrix(1 0 0 1 230.3859 1376.4403)" class="st12 st13 st14">H BOX</text>
			<text transform="matrix(1 0 0 1 303.0685 1514.9403)"><tspan x="0" y="0" class="st12 st13 st14">CAFÉ</tspan><tspan x="-13.3" y="12" class="st12 st13 st14">DONUT´S</tspan></text>
			<text transform="matrix(1 0 0 1 342.1173 1478.9403)"><tspan x="0" y="0" class="st12 st13 st14">MILK</tspan><tspan x="-3.7" y="12" class="st12 st13 st14">SHAKE</tspan><tspan x="3.3" y="24" class="st12 st13 st14">MIX</tspan></text>
			<text transform="matrix(1 0 0 1 391.2755 1483.4403)" class="st12 st13 st14">FOLHADOS</text>
			<text transform="matrix(1 0 0 1 437.3048 1506.4403)"><tspan x="0" y="0" class="st12 st13 st14">AZUL</tspan><tspan x="11.3" y="12" class="st12 st13 st14">E</tspan><tspan x="-0.7" y="24" class="st12 st13 st14">ROSA</tspan></text>
			<text transform="matrix(1 0 0 1 473.5509 1490.4403)"><tspan x="0" y="0" class="st12 st13 st14">VIA</tspan><tspan x="-1.7" y="12" class="st12 st13 st14">MIX</tspan></text>
			<text transform="matrix(1 0 0 1 502.5922 1505.4403)"><tspan x="0" y="0" class="st12 st13 st14">CINTO</tspan><tspan x="-1.3" y="12" class="st12 st13 st14">MUITO</tspan></text>
			<text transform="matrix(1 0 0 1 490.0607 1387.4403)"><tspan x="0" y="0" class="st12 st13 st14">RIVAL</tspan><tspan x="-13.7" y="12" class="st12 st13 st14">CALÇADOS</tspan></text>
			<text transform="matrix(1 0 0 1 554.1196 1488.1069)"><tspan x="0" y="0" class="st12 st13 st14">MILANO</tspan><tspan x="-6.4" y="12" class="st12 st13 st14">CALÇADOS</tspan></text>
			<text transform="matrix(1 0 0 1 639.0014 1506.7737)" class="st12 st13 st14">CONSTANCE</text>
			<text transform="matrix(1 0 0 1 823.4077 1439.7737)"><tspan x="0" y="0" class="st12 st13 st14">POLO</tspan><tspan x="-0.7" y="12" class="st12 st13 st14">WEAR</tspan></text>
			<text transform="matrix(1 0 0 1 978.3373 1398.7737)"><tspan x="0" y="0" class="st12 st13 st14">DESTROIT</tspan><tspan x="-10.8" y="12" class="st12 st13 st14">STEAK HOUSE</tspan></text>
			<text transform="matrix(1 0 0 1 871.9897 1349.7737)" class="st12 st13 st14">POLISHOP</text>
			<text transform="matrix(1 0 0 1 911.2485 1311.7737)"><tspan x="0" y="0" class="st12 st13 st14">ÓTICAS</tspan><tspan x="4.3" y="12" class="st12 st13 st14">PARIS</tspan></text>
			<text transform="matrix(1 0 0 1 969.1469 1266.7737)"><tspan x="0" y="0" class="st12 st13 st14">DOLCE</tspan><tspan x="5.9" y="12" class="st12 st13 st14">VITA</tspan></text>
			<text transform="matrix(1 0 0 1 751.7661 1286.7737)" class="st12 st13 st14">MANHATTAN</text>
			<text transform="matrix(1 0 0 1 844.7963 1162.7737)" class="st12 st13 st14">O BOTICÁRIO</text>
			<text transform="matrix(1 0 0 1 970.2485 1035.7737)"><tspan x="0" y="0" class="st12 st13 st14">ÓTICAS</tspan><tspan x="0.8" y="12" class="st12 st13 st14">BRASIL</tspan></text>
			<text transform="matrix(1 0 0 1 1147.8608 864.7736)"><tspan x="0" y="0" class="st12 st13 st14">TOP</tspan><tspan x="-3.1" y="12" class="st12 st13 st14">TENS</tspan></text>
			<text transform="matrix(1 0 0 1 1073.3706 882.7736)" class="st12 st13 st14">INOVAR</text>
			<text transform="matrix(1 0 0 1 1092.1265 765.7736)" class="st12 st13 st14">KALUNGA</text>
			<text transform="matrix(1 0 0 1 1243.5386 716.2728)"><tspan x="0" y="0" class="st12 st13 st14">CACAU</tspan><tspan x="2.2" y="12" class="st12 st13 st14">SHOW</tspan></text>
			<text transform="matrix(1 0 0 1 1132.6196 697.7736)" class="st12 st13 st14">NOBEL</text>
			<text transform="matrix(1 0 0 1 1024.1249 604.7738)" class="st12 st13 st14">CCBEU</text>
			<text transform="matrix(1 0 0 1 1087.1252 572.4397)"><tspan x="0" y="0" class="st12 st13 st14">DETALHES</tspan><tspan x="9.1" y="12" class="st12 st13 st14">CASA E</tspan><tspan x="-2.9" y="24" class="st12 st13 st14">PRESENTES</tspan></text>
			<text transform="matrix(1 0 0 1 981.3906 499.1064)"><tspan x="0" y="0" class="st12 st13 st14">CONVÉS</tspan><tspan x="-10" y="12" class="st12 st13 st14">CHOPPERIA</tspan></text>
			<text transform="matrix(1 0 0 1 995.2229 529.7731)"><tspan x="0" y="0" class="st12 st13 st14">SPECIALE</tspan><tspan x="12.3" y="12" class="st12 st13 st14">CAFÉ</tspan></text>
			<text transform="matrix(1 0 0 1 1225.4105 614.7717)"><tspan x="0" y="0" class="st12 st13 st14">AÇAILÂNDIA</tspan><tspan x="13.3" y="12" class="st12 st13 st14">FROZEN</tspan></text>
			<text transform="matrix(1 0 0 1 1121.6039 394.105)" class="st12 st13 st14">ORTOBOM</text>
			<text transform="matrix(1 0 0 1 1088.7031 345.4384)" class="st12 st13 st14">DIMED</text>
			<text transform="matrix(1 0 0 1 1047.526 378.9384)"><tspan x="0" y="0" class="st12 st13 st14">OFICINA</tspan><tspan x="-11" y="12" class="st12 st13 st14">CONSERTOS </tspan></text>
			<text transform="matrix(1 0 0 1 1087.6725 422.2717)"><tspan x="0" y="0" class="st12 st13 st14">DROGARIA</tspan><tspan x="3.4" y="12" class="st12 st13 st14">CERRADO</tspan></text>
			<text transform="matrix(1 0 0 1 1020.1748 430.1884)"><tspan x="0" y="0" class="st12 st13 st14">PRJ</tspan><tspan x="-32" y="12" class="st12 st13 st14">INFORMÁTICA</tspan></text>
			<text transform="matrix(1 0 0 1 996.793 310.6884)"><tspan x="0" y="0" class="st12 st13 st14">LOTÉRICA</tspan><tspan x="4" y="12" class="st12 st13 st14">SENA DE</tspan><tspan x="11.1" y="24" class="st12 st13 st14">OURO</tspan></text>
			<text transform="matrix(1 0 0 1 1005.7793 367.855)" class="st12 st13 st14">QUEEN</text>
			<g>
				<g>
					<text transform="matrix(1 0 0 1 1219.4082 335.4384)" class="st12 st13 st15">LASA</text>
				</g>
				<text transform="matrix(1 0 0 1 1219.4082 335.4384)" class="st12 st13 st15">LASA</text>
				<g>
					<text transform="matrix(1 0 0 1 1219.4082 335.4384)" class="st12 st13 st15">LASA</text>
				</g>
			</g>
			<text transform="matrix(1 0 0 1 1053.7563 1149.7737)"><tspan x="0" y="0" class="st12 st13 st14">CARA DE</tspan><tspan x="9.4" y="12" class="st12 st13 st14">ANJO</tspan></text>
			<text transform="matrix(1 0 0 1 1089.7329 1096.7737)" class="st12 st13 st14">CHARLOTTE</text>
			<text transform="matrix(1 0 0 1 1095.9966 1061.7737)"><tspan x="0" y="0" class="st12 st13 st14">BICHINHO</tspan><tspan x="14.2" y="12" class="st12 st13 st14">DE PÉ</tspan></text>
			<text transform="matrix(1 0 0 1 1156.9517 1026.7737)" class="st12 st13 st14">KY BRONZE</text>
			<text transform="matrix(1 0 0 1 1193.812 983.7736)"><tspan x="0" y="0" class="st12 st13 st14">KAZZU</tspan><tspan x="4.7" y="12" class="st12 st13 st14">AZZE</tspan></text>
			<text transform="matrix(1 0 0 1 1235.7896 949.7736)"><tspan x="0" y="0" class="st12 st13 st14">EXCLUSIVA</tspan><tspan x="-2.8" y="12" class="st12 st13 st14">UTILIDADES</tspan></text>
			<text transform="matrix(1 0 0 1 1186.312 1149.7737)"><tspan x="0" y="0" class="st12 st13 st14">PEIXINHO</tspan><tspan x="-11.8" y="12" class="st12 st13 st14">RESTAURANTE</tspan></text>
			<g>
				<g>
					<text transform="matrix(1 0 0 1 699.2856 1155.7737)"><tspan x="0" y="0" class="st12 st13 st15">SUPERMERCADO</tspan><tspan x="26.5" y="17" class="st12 st13 st15">CERRADO</tspan></text>
				</g>
				<text transform="matrix(1 0 0 1 699.2856 1155.7737)"><tspan x="0" y="0" class="st12 st13 st15">SUPERMERCADO</tspan><tspan x="26.5" y="17" class="st12 st13 st15">CERRADO</tspan></text>
				<g>
					<text transform="matrix(1 0 0 1 699.2856 1155.7737)"><tspan x="0" y="0" class="st12 st13 st15">SUPERMERCADO</tspan><tspan x="26.5" y="17" class="st12 st13 st15">CERRADO</tspan></text>
				</g>
			</g>
			<g>
				<g>
					<text transform="matrix(1 0 0 1 919.1528 881.7736)"><tspan x="0" y="0" class="st12 st13 st15">SMART</tspan><tspan x="14.2" y="17" class="st12 st13 st15">FIT</tspan></text>
				</g>
				<text transform="matrix(1 0 0 1 919.1528 881.7736)"><tspan x="0" y="0" class="st12 st13 st15">SMART</tspan><tspan x="14.2" y="17" class="st12 st13 st15">FIT</tspan></text>
				<g>
					<text transform="matrix(1 0 0 1 919.1528 881.7736)"><tspan x="0" y="0" class="st12 st13 st15">SMART</tspan><tspan x="14.2" y="17" class="st12 st13 st15">FIT</tspan></text>
				</g>
			</g>
			<g>
				<g>
					<text transform="matrix(1 0 0 1 790.4926 1007.7736)" class="st12 st13 st15">RIACHUELO</text>
				</g>
				<text transform="matrix(1 0 0 1 790.4926 1007.7736)" class="st12 st13 st15">RIACHUELO</text>
				<g>
					<text transform="matrix(1 0 0 1 790.4926 1007.7736)" class="st12 st13 st15">RIACHUELO</text>
				</g>
			</g>
			<text transform="matrix(1 0 0 1 548.6085 1368.2737)"><tspan x="0" y="0" class="st12 st13 st14">VITÓRIA</tspan><tspan x="8.7" y="12" class="st12 st13 st14">KRUZ</tspan></text>
			<text transform="matrix(1 0 0 1 596.8468 1390.2737)"><tspan x="0" y="0" class="st12 st13 st14">NENEM</tspan><tspan x="-4.7" y="12" class="st12 st13 st14">DE OURO</tspan></text>
			<text transform="matrix(1 0 0 1 637.1733 1354.9403)" class="st12 st13 st14">RI HAPPY</text>
			<text transform="matrix(1 0 0 1 376.838 1509.4403)"><tspan x="0" y="0" class="st12 st13 st14">TIM</tspan><tspan x="-9.1" y="12" class="st12 st13 st14">BRASIL</tspan></text>
			<text transform="matrix(1 0 0 1 153.4892 1489.661)" class="st12 st13 st15">Renner</text>
		</g>
		<g>
			<text transform="matrix(1 0 0 1 235.881 1316.9403)"><tspan x="0" y="0" class="st13 st14">NEY</tspan><tspan x="-17.5" y="12" class="st13 st14">MARINHO</tspan></text>
			<text transform="matrix(1 0 0 1 357.5919 1303.4403)"><tspan x="0" y="0" class="st13 st14">CIA DO</tspan><tspan x="0.7" y="12" class="st13 st14">TERNO</tspan></text>
			<text transform="matrix(1 0 0 1 230.3859 1376.4403)" class="st13 st14">H BOX</text>
			<text transform="matrix(1 0 0 1 303.0685 1514.9403)"><tspan x="0" y="0" class="st13 st14">CAFÉ</tspan><tspan x="-13.3" y="12" class="st13 st14">DONUT´S</tspan></text>
			<text transform="matrix(1 0 0 1 342.1173 1478.9403)"><tspan x="0" y="0" class="st13 st14">MILK</tspan><tspan x="-3.7" y="12" class="st13 st14">SHAKE</tspan><tspan x="3.3" y="24" class="st13 st14">MIX</tspan></text>
			<text transform="matrix(1 0 0 1 391.2755 1483.4403)" class="st13 st14">FOLHADOS</text>
			<text transform="matrix(1 0 0 1 437.3048 1506.4403)"><tspan x="0" y="0" class="st13 st14">AZUL</tspan><tspan x="11.3" y="12" class="st13 st14">E</tspan><tspan x="-0.7" y="24" class="st13 st14">ROSA</tspan></text>
			<text transform="matrix(1 0 0 1 473.5509 1490.4403)"><tspan x="0" y="0" class="st13 st14">VIA</tspan><tspan x="-1.7" y="12" class="st13 st14">MIX</tspan></text>
			<text transform="matrix(1 0 0 1 502.5922 1505.4403)"><tspan x="0" y="0" class="st13 st14">CINTO</tspan><tspan x="-1.3" y="12" class="st13 st14">MUITO</tspan></text>
			<text transform="matrix(1 0 0 1 490.0607 1387.4403)"><tspan x="0" y="0" class="st13 st14">RIVAL</tspan><tspan x="-13.7" y="12" class="st13 st14">CALÇADOS</tspan></text>
			<text transform="matrix(1 0 0 1 554.1196 1488.1069)"><tspan x="0" y="0" class="st13 st14">MILANO</tspan><tspan x="-6.4" y="12" class="st13 st14">CALÇADOS</tspan></text>
			<text transform="matrix(1 0 0 1 639.0014 1506.7737)" class="st13 st14">CONSTANCE</text>
			<text transform="matrix(1 0 0 1 823.4077 1439.7737)"><tspan x="0" y="0" class="st13 st14">POLO</tspan><tspan x="-0.7" y="12" class="st13 st14">WEAR</tspan></text>
			<text transform="matrix(1 0 0 1 978.3373 1398.7737)"><tspan x="0" y="0" class="st13 st14">DESTROIT</tspan><tspan x="-10.8" y="12" class="st13 st14">STEAK HOUSE</tspan></text>
			<text transform="matrix(1 0 0 1 871.9897 1349.7737)" class="st13 st14">POLISHOP</text>
			<text transform="matrix(1 0 0 1 911.2485 1311.7737)"><tspan x="0" y="0" class="st13 st14">ÓTICAS</tspan><tspan x="4.3" y="12" class="st13 st14">PARIS</tspan></text>
			<text transform="matrix(1 0 0 1 969.1469 1266.7737)"><tspan x="0" y="0" class="st13 st14">DOLCE</tspan><tspan x="5.9" y="12" class="st13 st14">VITA</tspan></text>
			<text transform="matrix(1 0 0 1 751.7661 1286.7737)" class="st13 st14">MANHATTAN</text>
			<text transform="matrix(1 0 0 1 844.7963 1162.7737)" class="st13 st14">O BOTICÁRIO</text>
			<text transform="matrix(1 0 0 1 970.2485 1035.7737)"><tspan x="0" y="0" class="st13 st14">ÓTICAS</tspan><tspan x="0.8" y="12" class="st13 st14">BRASIL</tspan></text>
			<text transform="matrix(1 0 0 1 1147.8608 864.7736)"><tspan x="0" y="0" class="st13 st14">TOP</tspan><tspan x="-3.1" y="12" class="st13 st14">TENS</tspan></text>
			<text transform="matrix(1 0 0 1 1073.3706 882.7736)" class="st13 st14">INOVAR</text>
			<text transform="matrix(1 0 0 1 1092.1265 765.7736)" class="st13 st14">KALUNGA</text>
			<text transform="matrix(1 0 0 1 1243.5386 716.2728)"><tspan x="0" y="0" class="st13 st14">CACAU</tspan><tspan x="2.2" y="12" class="st13 st14">SHOW</tspan></text>
			<text transform="matrix(1 0 0 1 1132.6196 697.7736)" class="st13 st14">NOBEL</text>
			<text transform="matrix(1 0 0 1 1024.1249 604.7738)" class="st13 st14">CCBEU</text>
			<text transform="matrix(1 0 0 1 1087.1252 572.4397)"><tspan x="0" y="0" class="st13 st14">DETALHES</tspan><tspan x="9.1" y="12" class="st13 st14">CASA E</tspan><tspan x="-2.9" y="24" class="st13 st14">PRESENTES</tspan></text>
			<text transform="matrix(1 0 0 1 981.3906 499.1064)"><tspan x="0" y="0" class="st13 st14">CONVÉS</tspan><tspan x="-10" y="12" class="st13 st14">CHOPPERIA</tspan></text>
			<text transform="matrix(1 0 0 1 995.2229 529.7731)"><tspan x="0" y="0" class="st13 st14">SPECIALE</tspan><tspan x="12.3" y="12" class="st13 st14">CAFÉ</tspan></text>
			<text transform="matrix(1 0 0 1 1225.4105 614.7717)"><tspan x="0" y="0" class="st13 st14">AÇAILÂNDIA</tspan><tspan x="13.3" y="12" class="st13 st14">FROZEN</tspan></text>
			<text transform="matrix(1 0 0 1 1121.6039 394.105)" class="st13 st14">ORTOBOM</text>
			<text transform="matrix(1 0 0 1 1088.7031 345.4384)" class="st13 st14">DIMED</text>
			<text transform="matrix(1 0 0 1 1047.526 378.9384)"><tspan x="0" y="0" class="st13 st14">OFICINA</tspan><tspan x="-11" y="12" class="st13 st14">CONSERTOS </tspan></text>
			<text transform="matrix(1 0 0 1 1087.6725 422.2717)"><tspan x="0" y="0" class="st13 st14">DROGARIA</tspan><tspan x="3.4" y="12" class="st13 st14">CERRADO</tspan></text>
			<text transform="matrix(1 0 0 1 1020.1748 430.1884)"><tspan x="0" y="0" class="st13 st14">PRJ</tspan><tspan x="-32" y="12" class="st13 st14">INFORMÁTICA</tspan></text>
			<text transform="matrix(1 0 0 1 996.793 310.6884)"><tspan x="0" y="0" class="st13 st14">LOTÉRICA</tspan><tspan x="4" y="12" class="st13 st14">SENA DE</tspan><tspan x="11.1" y="24" class="st13 st14">OURO</tspan></text>
			<text transform="matrix(1 0 0 1 1005.7793 367.855)" class="st13 st14">QUEEN</text>
			<g>
				<text transform="matrix(1 0 0 1 1219.4082 335.4384)" class="st13 st15">LASA</text>
			</g>
			<text transform="matrix(1 0 0 1 1053.7563 1149.7737)"><tspan x="0" y="0" class="st13 st14">CARA DE</tspan><tspan x="9.4" y="12" class="st13 st14">ANJO</tspan></text>
			<text transform="matrix(1 0 0 1 1089.7329 1096.7737)" class="st13 st14">CHARLOTTE</text>
			<text transform="matrix(1 0 0 1 1095.9966 1061.7737)"><tspan x="0" y="0" class="st13 st14">BICHINHO</tspan><tspan x="14.2" y="12" class="st13 st14">DE PÉ</tspan></text>
			<text transform="matrix(1 0 0 1 1156.9517 1026.7737)" class="st13 st14">KY BRONZE</text>
			<text transform="matrix(1 0 0 1 1193.812 983.7736)"><tspan x="0" y="0" class="st13 st14">KAZZU</tspan><tspan x="4.7" y="12" class="st13 st14">AZZE</tspan></text>
			<text transform="matrix(1 0 0 1 1235.7896 949.7736)"><tspan x="0" y="0" class="st13 st14">EXCLUSIVA</tspan><tspan x="-2.8" y="12" class="st13 st14">UTILIDADES</tspan></text>
			<text transform="matrix(1 0 0 1 1186.312 1149.7737)"><tspan x="0" y="0" class="st13 st14">PEIXINHO</tspan><tspan x="-11.8" y="12" class="st13 st14">RESTAURANTE</tspan></text>
			<g>
				<text transform="matrix(1 0 0 1 699.2856 1155.7737)"><tspan x="0" y="0" class="st13 st15">SUPERMERCADO</tspan><tspan x="26.5" y="17" class="st13 st15">CERRADO</tspan></text>
			</g>
			<g>
				<text transform="matrix(1 0 0 1 919.1528 881.7736)"><tspan x="0" y="0" class="st13 st15">SMART</tspan><tspan x="14.2" y="17" class="st13 st15">FIT</tspan></text>
			</g>
			<g>
				<text transform="matrix(1 0 0 1 790.4926 1007.7736)" class="st13 st15">RIACHUELO</text>
			</g>
			<text transform="matrix(1 0 0 1 548.6085 1368.2737)"><tspan x="0" y="0" class="st13 st14">VITÓRIA</tspan><tspan x="8.7" y="12" class="st13 st14">KRUZ</tspan></text>
			<text transform="matrix(1 0 0 1 596.8468 1390.2737)"><tspan x="0" y="0" class="st13 st14">NENEM</tspan><tspan x="-4.7" y="12" class="st13 st14">DE OURO</tspan></text>
			<text transform="matrix(1 0 0 1 637.1733 1354.9403)" class="st13 st14">RI HAPPY</text>
			<text transform="matrix(1 0 0 1 376.838 1509.4403)"><tspan x="0" y="0" class="st13 st14">TIM</tspan><tspan x="-9.1" y="12" class="st13 st14">BRASIL</tspan></text>
			<text transform="matrix(1 0 0 1 153.4892 1489.661)" class="st13 st15">Renner</text>
		</g>
		<g>
			<text transform="matrix(1 0 0 1 235.881 1316.9403)"><tspan x="0" y="0" class="st8 st13 st14">NEY</tspan><tspan x="-17.5" y="12" class="st8 st13 st14">MARINHO</tspan></text>
			<text transform="matrix(1 0 0 1 357.5919 1303.4403)"><tspan x="0" y="0" class="st8 st13 st14">CIA DO</tspan><tspan x="0.7" y="12" class="st8 st13 st14">TERNO</tspan></text>
			<text transform="matrix(1 0 0 1 230.3859 1376.4403)" class="st8 st13 st14">H BOX</text>
			<text transform="matrix(1 0 0 1 303.0685 1514.9403)"><tspan x="0" y="0" class="st8 st13 st14">CAFÉ</tspan><tspan x="-13.3" y="12" class="st8 st13 st14">DONUT´S</tspan></text>
			<text transform="matrix(1 0 0 1 342.1173 1478.9403)"><tspan x="0" y="0" class="st8 st13 st14">MILK</tspan><tspan x="-3.7" y="12" class="st8 st13 st14">SHAKE</tspan><tspan x="3.3" y="24" class="st8 st13 st14">MIX</tspan></text>
			<text transform="matrix(1 0 0 1 391.2755 1483.4403)" class="st8 st13 st14">FOLHADOS</text>
			<text transform="matrix(1 0 0 1 437.3048 1506.4403)"><tspan x="0" y="0" class="st8 st13 st14">AZUL</tspan><tspan x="11.3" y="12" class="st8 st13 st14">E</tspan><tspan x="-0.7" y="24" class="st8 st13 st14">ROSA</tspan></text>
			<text transform="matrix(1 0 0 1 473.5509 1490.4403)"><tspan x="0" y="0" class="st8 st13 st14">VIA</tspan><tspan x="-1.7" y="12" class="st8 st13 st14">MIX</tspan></text>
			<text transform="matrix(1 0 0 1 502.5922 1505.4403)"><tspan x="0" y="0" class="st8 st13 st14">CINTO</tspan><tspan x="-1.3" y="12" class="st8 st13 st14">MUITO</tspan></text>
			<text transform="matrix(1 0 0 1 490.0607 1387.4403)"><tspan x="0" y="0" class="st8 st13 st14">RIVAL</tspan><tspan x="-13.7" y="12" class="st8 st13 st14">CALÇADOS</tspan></text>
			<text transform="matrix(1 0 0 1 554.1196 1488.1069)"><tspan x="0" y="0" class="st8 st13 st14">MILANO</tspan><tspan x="-6.4" y="12" class="st8 st13 st14">CALÇADOS</tspan></text>
			<text transform="matrix(1 0 0 1 639.0014 1506.7737)" class="st8 st13 st14">CONSTANCE</text>
			<text transform="matrix(1 0 0 1 823.4077 1439.7737)"><tspan x="0" y="0" class="st8 st13 st14">POLO</tspan><tspan x="-0.7" y="12" class="st8 st13 st14">WEAR</tspan></text>
			<text transform="matrix(1 0 0 1 978.3373 1398.7737)"><tspan x="0" y="0" class="st8 st13 st14">DESTROIT</tspan><tspan x="-10.8" y="12" class="st8 st13 st14">STEAK HOUSE</tspan></text>
			<text transform="matrix(1 0 0 1 871.9897 1349.7737)" class="st8 st13 st14">POLISHOP</text>
			<text transform="matrix(1 0 0 1 911.2485 1311.7737)"><tspan x="0" y="0" class="st8 st13 st14">ÓTICAS</tspan><tspan x="4.3" y="12" class="st8 st13 st14">PARIS</tspan></text>
			<text transform="matrix(1 0 0 1 969.1469 1266.7737)"><tspan x="0" y="0" class="st8 st13 st14">DOLCE</tspan><tspan x="5.9" y="12" class="st8 st13 st14">VITA</tspan></text>
			<text transform="matrix(1 0 0 1 751.7661 1286.7737)" class="st8 st13 st14">MANHATTAN</text>
			<text transform="matrix(1 0 0 1 844.7963 1162.7737)" class="st8 st13 st14">O BOTICÁRIO</text>
			<text transform="matrix(1 0 0 1 970.2485 1035.7737)"><tspan x="0" y="0" class="st8 st13 st14">ÓTICAS</tspan><tspan x="0.8" y="12" class="st8 st13 st14">BRASIL</tspan></text>
			<text transform="matrix(1 0 0 1 1147.8608 864.7736)"><tspan x="0" y="0" class="st8 st13 st14">TOP</tspan><tspan x="-3.1" y="12" class="st8 st13 st14">TENS</tspan></text>
			<text transform="matrix(1 0 0 1 1073.3706 882.7736)" class="st8 st13 st14">INOVAR</text>
			<text transform="matrix(1 0 0 1 1092.1265 765.7736)" class="st8 st13 st14">KALUNGA</text>
			<text transform="matrix(1 0 0 1 1243.5386 716.2728)"><tspan x="0" y="0" class="st8 st13 st14">CACAU</tspan><tspan x="2.2" y="12" class="st8 st13 st14">SHOW</tspan></text>
			<text transform="matrix(1 0 0 1 1132.6196 697.7736)" class="st8 st13 st14">NOBEL</text>
			<text transform="matrix(1 0 0 1 1024.1249 604.7738)" class="st8 st13 st14">CCBEU</text>
			<text transform="matrix(1 0 0 1 1087.1252 572.4397)"><tspan x="0" y="0" class="st8 st13 st14">DETALHES</tspan><tspan x="9.1" y="12" class="st8 st13 st14">CASA E</tspan><tspan x="-2.9" y="24" class="st8 st13 st14">PRESENTES</tspan></text>
			<text transform="matrix(1 0 0 1 981.3906 499.1064)"><tspan x="0" y="0" class="st8 st13 st14">CONVÉS</tspan><tspan x="-10" y="12" class="st8 st13 st14">CHOPPERIA</tspan></text>
			<text transform="matrix(1 0 0 1 995.2229 529.7731)"><tspan x="0" y="0" class="st8 st13 st14">SPECIALE</tspan><tspan x="12.3" y="12" class="st8 st13 st14">CAFÉ</tspan></text>
			<text transform="matrix(1 0 0 1 1225.4105 614.7717)"><tspan x="0" y="0" class="st8 st13 st14">AÇAILÂNDIA</tspan><tspan x="13.3" y="12" class="st8 st13 st14">FROZEN</tspan></text>
			<text transform="matrix(1 0 0 1 1121.6039 394.105)" class="st8 st13 st14">ORTOBOM</text>
			<text transform="matrix(1 0 0 1 1088.7031 345.4384)" class="st8 st13 st14">DIMED</text>
			<text transform="matrix(1 0 0 1 1047.526 378.9384)"><tspan x="0" y="0" class="st8 st13 st14">OFICINA</tspan><tspan x="-11" y="12" class="st8 st13 st14">CONSERTOS </tspan></text>
			<text transform="matrix(1 0 0 1 1087.6725 422.2717)"><tspan x="0" y="0" class="st8 st13 st14">DROGARIA</tspan><tspan x="3.4" y="12" class="st8 st13 st14">CERRADO</tspan></text>
			<text transform="matrix(1 0 0 1 1020.1748 430.1884)"><tspan x="0" y="0" class="st8 st13 st14">PRJ</tspan><tspan x="-32" y="12" class="st8 st13 st14">INFORMÁTICA</tspan></text>
			<text transform="matrix(1 0 0 1 996.793 310.6884)"><tspan x="0" y="0" class="st8 st13 st14">LOTÉRICA</tspan><tspan x="4" y="12" class="st8 st13 st14">SENA DE</tspan><tspan x="11.1" y="24" class="st8 st13 st14">OURO</tspan></text>
			<text transform="matrix(1 0 0 1 1005.7793 367.855)" class="st8 st13 st14">QUEEN</text>
			<g>
				<g>
					<text transform="matrix(1 0 0 1 1219.4082 335.4384)" class="st8 st13 st15">LASA</text>
				</g>
				<text transform="matrix(1 0 0 1 1219.4082 335.4384)" class="st8 st13 st15">LASA</text>
				<g>
					<text transform="matrix(1 0 0 1 1219.4082 335.4384)" class="st8 st13 st15">LASA</text>
				</g>
			</g>
			<text transform="matrix(1 0 0 1 1053.7563 1149.7737)"><tspan x="0" y="0" class="st8 st13 st14">CARA DE</tspan><tspan x="9.4" y="12" class="st8 st13 st14">ANJO</tspan></text>
			<text transform="matrix(1 0 0 1 1089.7329 1096.7737)" class="st8 st13 st14">CHARLOTTE</text>
			<text transform="matrix(1 0 0 1 1095.9966 1061.7737)"><tspan x="0" y="0" class="st8 st13 st14">BICHINHO</tspan><tspan x="14.2" y="12" class="st8 st13 st14">DE PÉ</tspan></text>
			<text transform="matrix(1 0 0 1 1156.9517 1026.7737)" class="st8 st13 st14">KY BRONZE</text>
			<text transform="matrix(1 0 0 1 1193.812 983.7736)"><tspan x="0" y="0" class="st8 st13 st14">KAZZU</tspan><tspan x="4.7" y="12" class="st8 st13 st14">AZZE</tspan></text>
			<text transform="matrix(1 0 0 1 1235.7896 949.7736)"><tspan x="0" y="0" class="st8 st13 st14">EXCLUSIVA</tspan><tspan x="-2.8" y="12" class="st8 st13 st14">UTILIDADES</tspan></text>
			<text transform="matrix(1 0 0 1 1186.312 1149.7737)"><tspan x="0" y="0" class="st8 st13 st14">PEIXINHO</tspan><tspan x="-11.8" y="12" class="st8 st13 st14">RESTAURANTE</tspan></text>
			<g>
				<g>
					<text transform="matrix(1 0 0 1 699.2856 1155.7737)"><tspan x="0" y="0" class="st8 st13 st15">SUPERMERCADO</tspan><tspan x="26.5" y="17" class="st8 st13 st15">CERRADO</tspan></text>
				</g>
				<text transform="matrix(1 0 0 1 699.2856 1155.7737)"><tspan x="0" y="0" class="st8 st13 st15">SUPERMERCADO</tspan><tspan x="26.5" y="17" class="st8 st13 st15">CERRADO</tspan></text>
				<g>
					<text transform="matrix(1 0 0 1 699.2856 1155.7737)"><tspan x="0" y="0" class="st8 st13 st15">SUPERMERCADO</tspan><tspan x="26.5" y="17" class="st8 st13 st15">CERRADO</tspan></text>
				</g>
			</g>
			<g>
				<g>
					<text transform="matrix(1 0 0 1 919.1528 881.7736)"><tspan x="0" y="0" class="st8 st13 st15">SMART</tspan><tspan x="14.2" y="17" class="st8 st13 st15">FIT</tspan></text>
				</g>
				<text transform="matrix(1 0 0 1 919.1528 881.7736)"><tspan x="0" y="0" class="st8 st13 st15">SMART</tspan><tspan x="14.2" y="17" class="st8 st13 st15">FIT</tspan></text>
				<g>
					<text transform="matrix(1 0 0 1 919.1528 881.7736)"><tspan x="0" y="0" class="st8 st13 st15">SMART</tspan><tspan x="14.2" y="17" class="st8 st13 st15">FIT</tspan></text>
				</g>
			</g>
			<g>
				<g>
					<text transform="matrix(1 0 0 1 790.4926 1007.7736)" class="st8 st13 st15">RIACHUELO</text>
				</g>
				<text transform="matrix(1 0 0 1 790.4926 1007.7736)" class="st8 st13 st15">RIACHUELO</text>
				<g>
					<text transform="matrix(1 0 0 1 790.4926 1007.7736)" class="st8 st13 st15">RIACHUELO</text>
				</g>
			</g>
			<text transform="matrix(1 0 0 1 548.6085 1368.2737)"><tspan x="0" y="0" class="st8 st13 st14">VITÓRIA</tspan><tspan x="8.7" y="12" class="st8 st13 st14">KRUZ</tspan></text>
			<text transform="matrix(1 0 0 1 596.8468 1390.2737)"><tspan x="0" y="0" class="st8 st13 st14">NENEM</tspan><tspan x="-4.7" y="12" class="st8 st13 st14">DE OURO</tspan></text>
			<text transform="matrix(1 0 0 1 637.1733 1354.9403)" class="st8 st13 st14">RI HAPPY</text>
			<text transform="matrix(1 0 0 1 376.838 1509.4403)"><tspan x="0" y="0" class="st8 st13 st14">TIM</tspan><tspan x="-9.1" y="12" class="st8 st13 st14">BRASIL</tspan></text>
			<text transform="matrix(1 0 0 1 153.4892 1489.661)" class="st8 st13 st15">Renner</text>
		</g>
	</g>
</g>
</svg>
