<?xml version="1.0" encoding="utf-8"?>
<!-- Generator: Adobe Illustrator 21.1.0, SVG Export Plug-In . SVG Version: 6.00 Build 0)  -->
<svg version="1.1" xmlns="http://www.w3.org/2000/svg" xmlns:xlink="http://www.w3.org/1999/xlink" x="0px" y="0px"
	 viewBox="0 0 1473.9 1900" style="enable-background:new 0 0 1473.9 1900;" xml:space="preserve">
<style type="text/css">
	.st0{clip-path:url(#SVGID_2_);}
	.st1{fill:none;stroke:#FFFFFF;stroke-width:30;stroke-linecap:round;stroke-linejoin:round;stroke-miterlimit:10;}
	.st2{fill:none;stroke:#FFFFFF;stroke-width:50;stroke-linecap:round;stroke-linejoin:round;stroke-miterlimit:10;}
	.st3{fill:none;}
	.st4{fill:#7F7F7F;}
	.st5{font-family:'DroidSans';}
	.st6{font-size:26px;}
	.st7{fill:#E7E8EA;stroke:#ADADAD;stroke-width:2;stroke-linecap:round;stroke-linejoin:round;stroke-miterlimit:10;}
	.st8{fill:#BDA9CD;}
	.st9{opacity:0.5;}
	.st10{fill:#8C61B3;}
	.st11{fill:#FFFFFF;stroke:#ADADAD;stroke-width:2;stroke-linecap:round;stroke-linejoin:round;stroke-miterlimit:10;}
	.st12{fill:#FFFFFF;}
	.st13{fill:none;stroke:#FFFFFF;stroke-width:3;stroke-linecap:round;stroke-linejoin:round;}
	.st14{font-family:'DroidSans-Bold';}
	.st15{font-size:12px;}
	.st16{font-size:10px;}
	.st17{font-size:16px;}
</style>
<g id="Piso_1">
	<g id="mapa_copy">
		<g id="PIso_1_Base_copy">
		</g>
		<g>
			<defs>
				<rect id="SVGID_1_" x="-0.6" width="1475.2" height="1900"/>
			</defs>
			<use xlink:href="#SVGID_1_"  style="overflow:visible;fill:#E5E5E5;"/>
			<clipPath id="SVGID_2_">
				<use xlink:href="#SVGID_1_"  style="overflow:visible;"/>
			</clipPath>
			<g class="st0">
				<line class="st1" x1="-140.8" y1="804.9" x2="327.2" y2="0.9"/>
				<path class="st2" d="M-176.8,1696.9c0,0,364,88,544,72s748-116,1088-112c149.3,1.8,540,12,540,12"/>
				<path class="st2" d="M147.2,1952.9c0,0,640-184,1244-208c403-16,707.3,22.3,888,52"/>
				<path class="st1" d="M1567.2,1544.9c0,0-412,20-696,48s-612,112-684,128c-40.2,8.9-316,112-316,112"/>
				<path class="st1" d="M1111.2-71.1c0,0-80,88-124,88c-44,0-116-32-152,4s-84,172-84,208s-16,64-80,104s-128,48-136,132
					s8,128-44,220s-132,316-264,400s-296,348-304,396s-4,112,60,148s144,84,164,100"/>
				<path class="st1" d="M1811.2,1160.9c0,0-256,76-368,104s-1104,292-1120,296s-44,32-40,68s8,68,8,68"/>
				<path class="st2" d="M1831.2,1844.9c0,0-372-32-420-36s-156-48-156-48"/>
				<path class="st1" d="M923.2-11.1c0,0,216,532,272,636s200,240,272,304s340,224,448,308s120,116,120,116"/>
				<path class="st1" d="M999.2-63.1c0,0,188,668,352,792s724,560,724,560"/>
				<path id="SVGID_x5F_3_x5F_" class="st3" d="M991.2-63.1c0,0,188,668,352,792s724,560,724,560"/>
				<text>				<textPath  xlink:href="#SVGID_x5F_3_x5F_" startOffset="25.6635%">
<tspan  class="st4 st5 st6">Av. Raimundo Pereira de Magalhães</tspan>				</textPath>
</text>
				<path class="st1" d="M1335.2,804.9c0,0-16,64,52,136s120,116,120,116l68-44c0,0-20,24-68,44s-212-136-248-196s-276-460-312-592
					s32-152,32-152"/>
				<text transform="matrix(0.8891 -0.1394 0.1549 0.9879 809.5935 1818.7482)" class="st4 st5 st6">Av. Marginal Tietê</text>
				<text transform="matrix(0.8954 -9.066600e-02 0.1007 0.9949 817.3088 1606.5669)" class="st4 st5 st6">Av. Otaviano Alves de Lima</text>
			</g>
		</g>
	</g>
	<g id="Base_Mapa">
		<path class="st7" d="M62.5,1310.9l75.3,258l329.3-94l-2.5-8.5l16.8-4.8l2.3,8.7l352.3-101.3l-5-18l15.5-4l2.5,8l226.5-63.5
			l11,38.5l33.5-10.5l-19-68c0,0,95,29,181,12.5s119-75.5,119-75.5s34.2-51.2-1.7-117.8c-16.3-30.3-38.1-47.5-43.7-51.7
			c1-1.3,1.3-2,1.3-2s-16.6-13.5-47.7-27.3c-27.8-12.4-69.4-25.4-112.3-31.2c-26-3.5-57-3-57-3l-40-138c0,0,23.5-9.3,29-33.8
			s-12-37.3-22.7-41.7c-6-2.5-13-4.3-20.7-5c-6.5-0.6-9.7,0.3-9.7,0.3l-2-7.3l-51.5-186l-37,9.5l-75.5-263.2l-241,68.2l13.5,46
			l-58,16.5l22.5,75l-38,10.5l15.5,55l-32.5,8.5l-277.5,500.5l11,39l-16,4.5l-3-8.5l-57,15.5l10.5,36.5l-118,34l13,45l-59.5,17
			l12.5,45L62.5,1310.9z"/>
		<path class="st8" d="M376.4,1150.4l-8.2,15l13.7,7.5l54.6,194.2l17.2-2.8c0,0,52.5-11.5,61-13c8.5-1.5,60.2-12.2,73.5-16
			s73.2-19.5,80.8-20.2s139.2-41.9,139.2-41.9l16.7-5.7l127.6-39.7l129.1-54.7l8.7,1.3l17.3,2.3l70.4,13l67-26l27.8-79.2l-29.5-30.8
			l-59-25.2l-118.5-15.8l-16.5-44.2l3-5.1l-6.7,2l-4.3-19.3l-12-69.8l-13.5-55l42.8,12.2l41.8-16.2c0,0,30-13.8,30.2-42.8
			s-32.2-36.5-42.5-37.8s-18.8,0.5-18.8,0.5l-61,8.8l-55-104.6l-6.3-17l-27.2-85.9l-13.2-9.5l-124.8,26.8l-79.2,44.5l0.4,28.8
			l-8.7,18l-23.8,31.4l-89.5,157.2l-53.8,33.2l-23.7,67.8l12.4,32l-10.4,18l-105.2,167.5L376.4,1150.4z"/>
		<polygon class="st7" points="644.2,1091.9 649.2,1110.9 896.2,1055.4 846.2,894.4 839.9,895.4 819.7,823.7 806.4,827.2 
			815.2,857.4 817.2,856.9 828.9,898.7 858.2,1031.6 		"/>
		<g class="st9">
			
				<rect x="958" y="801" transform="matrix(0.2868 0.958 -0.958 0.2868 1467.7024 -349.3605)" class="st10" width="20.9" height="20.1"/>
			
				<rect x="482.9" y="1061" transform="matrix(0.8847 0.4662 -0.4662 0.8847 555.2903 -105.7693)" class="st10" width="17" height="17"/>
			<path class="st10" d="M550.5,902.2c-24.3,43-13.7,65.3-9,69c4.7,3.7,19.7,11.3,45-17.3c25.3-28.7,28-53,28-68.3s-5.2-18.2-8.3-20
				C599.2,861.6,574.8,859.2,550.5,902.2z"/>
			<polygon class="st10" points="614.8,840.9 620.5,843.9 632.2,822.6 626.8,819.6 			"/>
			
				<rect x="650.3" y="761.1" transform="matrix(0.866 0.5 -0.5 0.866 473.0869 -226.2989)" class="st10" width="17.1" height="17.1"/>
			
				<rect x="696.9" y="675.1" transform="matrix(0.866 0.5 -0.5 0.866 436.3389 -261.1534)" class="st10" width="17.1" height="17.1"/>
			
				<rect x="786.3" y="611.4" transform="matrix(0.2895 0.9572 -0.9572 0.2895 1158.1807 -320.2787)" class="st10" width="17.1" height="17.1"/>
			
				<rect x="911.3" y="642.8" transform="matrix(0.2868 0.958 -0.958 0.2868 1280.0029 -416.6521)" class="st10" width="17.1" height="17.1"/>
			
				<rect x="977.9" y="864.4" transform="matrix(0.2868 0.958 -0.958 0.2868 1539.9088 -322.4185)" class="st10" width="17.1" height="17.1"/>
			
				<rect x="1016.6" y="1011.1" transform="matrix(0.2868 0.958 -0.958 0.2868 1707.9962 -254.8537)" class="st10" width="17.1" height="17.1"/>
			
				<rect x="989.3" y="1165.8" transform="matrix(0.2868 0.958 -0.958 0.2868 1836.672 -118.3547)" class="st10" width="17.1" height="17.1"/>
			
				<rect x="930.6" y="1184.1" transform="matrix(0.2868 0.958 -0.958 0.2868 1812.3922 -49.076)" class="st10" width="17.1" height="17.1"/>
			
				<rect x="717.9" y="1246.1" transform="matrix(0.2868 0.958 -0.958 0.2868 1725.0444 202.6093)" class="st10" width="17.1" height="27.4"/>
			
				<rect x="816.2" y="1221.4" transform="matrix(0.2868 0.958 -0.958 0.2868 1768.7983 88.7783)" class="st10" width="17.1" height="21.9"/>
			
				<rect x="631.8" y="1271.4" transform="matrix(0.2868 0.958 -0.958 0.2868 1685.1996 301.1028)" class="st10" width="17.1" height="21.7"/>
			
				<rect x="508.9" y="1305.4" transform="matrix(0.2868 0.958 -0.958 0.2868 1630.8521 443.6435)" class="st10" width="17.1" height="23.3"/>
			
				<rect x="455.4" y="1319.1" transform="matrix(0.9633 -0.2684 0.2684 0.9633 -340.1938 173.4388)" class="st10" width="17.7" height="23.5"/>
			
				<rect x="879.3" y="577.4" transform="matrix(0.2895 0.9572 -0.9572 0.2895 1198.4543 -433.4023)" class="st10" width="23.8" height="26.2"/>
		</g>
		<g>
			<polygon class="st11" points="207.8,1190.9 345.2,1152.2 381.8,1172.9 407.2,1262.9 242.5,1311.6 			"/>
			<polygon class="st11" points="191.7,1177.4 231.2,1314.9 407.7,1263.4 456.2,1437.4 402.7,1452.4 412.7,1489.9 137.7,1569.4 
				63.2,1310.9 108.7,1298.4 96.2,1253.4 155.2,1236.9 142.2,1191.4 			"/>
			<polygon class="st11" points="453.7,1364.4 482.2,1358.4 498.2,1414.2 470.8,1422.2 			"/>
			<path class="st11" d="M471.2,1421.9l12.5,48l173.5-49.5l-13.5-47.5l-60,17l-13.5-51c0,0-23.9,5.7-33,7.7
				c-10.7,2.3-27.5,5.8-27.5,5.8l15.5,54.5L471.2,1421.9z"/>
			<polygon class="st11" points="482.2,1358.6 509.7,1352.4 525.2,1406.9 498.2,1414.6 			"/>
			<polygon class="st11" points="570.2,1339.2 599.8,1331.9 613.8,1381.6 583.8,1389.9 			"/>
			<polygon class="st11" points="599.8,1331.9 629.5,1324.6 643.5,1372.9 614.2,1381.2 			"/>
			<polygon class="st11" points="629.5,1324.6 659.2,1316.9 673.2,1364.6 643.5,1372.9 			"/>
			<polygon class="st11" points="659.2,1316.9 688.8,1308.6 702.5,1356.2 673.2,1364.6 			"/>
			<polygon class="st11" points="688.8,1308.6 718.5,1300.6 732.2,1347.9 702.5,1356.2 			"/>
			<polygon class="st11" points="718.5,1300.6 808.2,1273.2 836.2,1368.9 657.2,1420.6 643.2,1372.9 732.2,1347.9 			"/>
			<path class="st11" d="M824.8,1267.6l14.3,50.3l41-11.3l-15-52.3c0,0-16.3,5.3-25.3,8.3S824.8,1267.6,824.8,1267.6z"/>
			<polygon class="st11" points="865.2,1254.6 922.5,1234.9 939.2,1288.9 997.8,1271.9 1008.5,1310.2 903.8,1339.2 892.8,1302.9 
				880.2,1306.6 			"/>
			<polygon class="st11" points="922.5,1234.9 952.2,1223.9 968.5,1280.6 938.8,1289.2 			"/>
			<polygon class="st11" points="952.2,1224.2 981.2,1212.9 998.2,1271.9 968.5,1280.6 			"/>
			<polygon class="st11" points="981.2,1212.9 1038.8,1190.6 1057.2,1255.9 1025.5,1265.2 1036.5,1302.2 1008.8,1310.2 			"/>
			<polygon class="st11" points="1038.5,1190.6 1081.5,1173.2 1090.2,1174.6 1079.2,1250.2 1057.2,1255.9 			"/>
			<path class="st11" d="M1107.5,1176.9l42,5.7l-5,34.3l34,5l-3.3,27c0,0-15.7-1.7-34.7-5.3c-22.9-4.4-40.3-9.7-40.3-9.7
				L1107.5,1176.9z"/>
			<path class="st11" d="M1149.5,1182.9c0,0,19.3,1.3,36.7-4.7c17.3-6,35.7-15,35.7-15l-11.7,87.3c0,0-8.3,0-16-0.3
				c-7-0.3-19-1.3-19-1.3l3.3-27l-33.7-5L1149.5,1182.9z"/>
			<path class="st11" d="M1206.5,1268.6l14.9-104.9c0,0,26.1-17.4,27.8-43.8c1.7-26.3-15-44.8-15-44.8l17-105.9c0,0,42,11,68.7,25
				s36.7,23,36.7,23l-8,10c0,0,52.3,35,56.7,94.7c2.5,34.6-9.2,63.7-41.7,92.3c-17,15-46.3,27.7-46.3,27.7l4.7,10.3
				c0,0-28.3,11.3-62,15C1230.6,1270.4,1206.5,1268.6,1206.5,1268.6z"/>
			<path class="st11" d="M1203.8,1049.9l10-71.3c0,0,12.3,2.7,21,4.7c6.8,1.6,13.3,3.3,13.3,3.3l-14,88c0,0-10-10.7-18.3-16.7
				S1203.8,1049.9,1203.8,1049.9z"/>
			<path class="st11" d="M1179.5,973.6l-9,62c0,0,9.7,2,19.3,6.7c9.7,4.7,13.7,7.7,13.7,7.7l10.3-71.3c0,0-12.7-2.3-21-3.3
				S1179.5,973.6,1179.5,973.6z"/>
			<path class="st11" d="M1120.5,943.6l9,29.7c0,0,12-1,27.7-0.3c15.7,0.7,22.3,1,22.3,1l-8.3,61.3c0,0-25.3-3.3-35-4.7
				c-9.7-1.3-26.7-3.7-26.7-3.7l3.7-20l-15.7-57.3L1120.5,943.6z"/>
			<polygon class="st11" points="1045.5,965.6 1056.5,1019.2 1109.5,1026.9 1113.2,1007.2 1102.2,967.2 1056.8,980.6 1052.2,963.6 
							"/>
			<polygon class="st11" points="1041.2,946.2 1093.2,931.9 1077.8,877.6 1028.2,891.6 			"/>
			<path class="st11" d="M1028.2,891.9l86.7-24.3l-14.7-50.2c0,0-20.1,8.2-37.7,9.8c-10.7,1-25.2-1.9-31-4
				c-6.3-2.3-12.3-8.3-12.3-8.3l-10.7,3L1028.2,891.9z"/>
			<path class="st11" d="M999.5,784.9l9.7-2.3c0,0,8.3-22.7,30.3-33c22-10.3,37.3-10.3,37.3-10.3l-34.3-123l-38.7,11l20.7,71.7
				l-47.7,13.3L999.5,784.9z"/>
			<polygon class="st11" points="969.8,689.6 1017.8,676.2 1024.8,698.9 976.8,712.2 			"/>
			<polygon class="st11" points="953.2,641.6 1004.2,627.2 1017.8,675.9 969.5,689.6 			"/>
			<polygon class="st11" points="946.8,624.6 985.2,613.2 978.8,590.2 938.2,601.6 			"/>
			<polygon class="st11" points="938.2,601.6 929.8,578.9 972.2,566.9 978.8,590.2 			"/>
			<polygon class="st11" points="913.2,535.9 959.8,523.2 972.2,567.2 929.8,579.2 			"/>
			<polygon class="st11" points="826.2,561.9 913.5,537.6 913.5,535.9 959.8,523.2 946.5,477.2 962.5,472.2 910.2,290.2 
				790.8,324.2 829.8,461.9 808.8,500.6 			"/>
			<polygon class="st11" points="722.5,591.9 826.5,561.6 808.5,500.2 829.5,462.2 790.8,323.9 668.8,358.2 682.5,404.6 
				624.8,421.2 665.5,557.9 679.5,553.9 684.5,569.9 			"/>
			<polygon class="st11" points="702.8,629.2 722.8,591.9 684.5,569.9 682.8,565.2 668.8,569.2 682.2,618.2 			"/>
			<polygon class="st11" points="637.2,612.6 654.5,607.9 660.2,628.9 694.2,647.2 675.8,680.9 617.2,648.2 			"/>
			<polygon class="st11" points="605.8,668.9 617.2,648.6 675.8,680.9 664.5,701.2 			"/>
			<polygon class="st11" points="594.5,689.6 605.8,668.9 664.2,700.9 652.8,721.9 			"/>
			<polygon class="st11" points="583.5,709.9 594.5,689.6 653.2,721.9 641.5,741.9 			"/>
			<polygon class="st11" points="572.2,729.9 583.5,709.9 641.2,741.9 630.2,762.6 			"/>
			<polygon class="st11" points="560.8,750.6 619.2,782.9 630.2,762.9 572.2,729.9 			"/>
			<polygon class="st11" points="549.5,771.6 607.2,803.2 618.8,782.9 560.8,750.6 			"/>
			<polygon class="st11" points="538.2,791.9 549.5,771.6 607.2,803.2 595.8,823.9 			"/>
			<polygon class="st11" points="538.2,791.9 526.8,812.6 585.2,844.2 596.2,824.2 			"/>
			<path class="st11" d="M526.8,812.6l58.3,31.3l-1,1.7c0,0-7,3-13,5.7c-4,1.8-10.3,6.7-10.3,6.7l-45.3-25L526.8,812.6z"/>
			<path class="st11" d="M515.5,832.9l-12,20.7l39.7,21.7c0,0,5.3-6,10.3-10.7s7.3-6.7,7.3-6.7L515.5,832.9z"/>
			<path class="st11" d="M492.2,873.6l11.3-20l40,21.7c0,0-5.1,6.3-7.3,10c-2.7,4.3-5.7,9.3-5.7,9.3L492.2,873.6z"/>
			<path class="st11" d="M481.5,894.2l10.7-20.7l38.3,21c0,0-3.9,7.7-5.3,11c-2.3,5.3-4.3,10.7-4.3,10.7L481.5,894.2z"/>
			<path class="st11" d="M481.5,894.2l-10.7,21l45,25c0,0,0-5,1.3-10.7c1.3-5.7,3.7-13.3,3.7-13.3L481.5,894.2z"/>
			<path class="st11" d="M470.8,915.2l-11.3,21.7l56.3,32l2-2.7c0,0-2-7.7-2.3-13.3c-0.2-3.7,0.3-12.7,0.3-12.7L470.8,915.2z"/>
			<polygon class="st11" points="435.8,975.9 448.5,952.6 507.2,983.9 493.5,1007.9 			"/>
			<polygon class="st11" points="424.5,995.9 435.5,975.9 493.5,1007.9 482.2,1028.6 			"/>
			<polygon class="st11" points="413.2,1016.9 424.5,995.9 482.8,1028.6 471.2,1049.2 			"/>
			<polygon class="st11" points="401.2,1037.6 413.2,1016.9 471.2,1049.2 459.2,1069.6 			"/>
			<polygon class="st11" points="390.2,1057.9 401.2,1037.9 459.5,1069.2 448.5,1089.6 			"/>
			<polygon class="st11" points="379.2,1078.2 390.2,1057.9 448.5,1089.6 437.2,1110.2 			"/>
			<polygon class="st11" points="374.5,1085.9 379.2,1078.2 437.2,1110.6 425.8,1130.6 380.2,1105.2 			"/>
			<polygon class="st11" points="356.5,1091.6 374.5,1086.2 379.8,1104.9 426.2,1130.9 405.8,1166.2 370.5,1146.9 366.2,1130.9 
				368.8,1129.9 			"/>
			<polygon class="st11" points="469.2,1221.6 489.2,1292.2 551.5,1274.6 531.2,1203.9 			"/>
			<polygon class="st11" points="531.2,1203.9 537.2,1193.2 563.8,1207.9 580.5,1266.2 551.8,1274.2 			"/>
			<polygon class="st11" points="566.8,1217.9 596.8,1209.6 610.5,1257.9 580.5,1266.2 			"/>
			<polygon class="st11" points="596.5,1209.6 626.2,1201.6 639.8,1249.2 610.2,1257.9 			"/>
			<polygon class="st11" points="626.2,1201.6 657.8,1192.2 672.2,1239.9 639.8,1249.2 			"/>
			<polygon class="st11" points="559.2,1205.6 583.8,1164.2 645.2,1146.6 657.8,1192.2 566.8,1217.9 563.8,1207.9 			"/>
			<polygon class="st11" points="554.8,1147.2 563.2,1151.9 619.8,1136.2 611.5,1107.2 631.8,1101.9 626.2,1081.9 584.5,1092.9 			
				"/>
			<polygon class="st11" points="615.5,1121.2 625.2,1118.9 621.5,1104.9 611.8,1107.2 			"/>
			<polygon class="st11" points="619.7,1136.2 629.7,1133.7 625.2,1118.9 615.7,1121.2 			"/>
			<polygon class="st11" points="684.4,1236.4 728.4,1223.4 692.7,1097.7 648.7,1109.9 			"/>
			<polygon class="st11" points="714.9,1175.9 742.7,1168.4 756.7,1215.7 728.4,1223.7 			"/>
			<polygon class="st11" points="742.7,1168.4 774.2,1159.7 787.9,1206.9 756.7,1215.7 			"/>
			<polygon class="st11" points="774.2,1159.7 803.7,1151.2 817.2,1198.4 787.7,1207.2 			"/>
			<polygon class="st11" points="816.7,1198.4 942.7,1162.4 928.8,1114.9 915.7,1069.9 891.9,1076.7 882.7,1043.9 692.4,1097.9 
				714.9,1175.9 803.7,1151.4 			"/>
			<path class="st11" d="M928.9,1115.2l13.5,47.5c0,0,32.5-5.2,47.2-23.8c17.8-22.2,15.2-45.5,15.2-45.5L928.9,1115.2z"/>
			<path class="st11" d="M915.7,1069.9l13.2,45.2l76-21.8c0,0,2.1-10.7-0.8-29c-2-12.8-4.8-18.5-4.8-18.5L915.7,1069.9z"/>
			<polygon class="st11" points="879.2,1032.2 986.7,1000.9 999.4,1046.2 891.9,1076.7 			"/>
			<polygon class="st11" points="859.7,964.9 967.9,934.4 986.9,1000.9 878.9,1032.2 			"/>
			<polygon class="st11" points="859.9,964.7 967.9,934.4 948.2,865.4 899.9,879.7 899.2,877.7 839.9,895.2 			"/>
			<polygon class="st11" points="887.2,834.9 899.9,879.9 948.2,865.4 935.4,820.7 			"/>
			<polygon class="st11" points="878.9,806.7 886.9,834.9 935.4,820.7 927.2,792.2 			"/>
			<polygon class="st11" points="829.7,820.4 837.9,849.9 827.9,852.7 839.9,895.4 899.4,877.9 879.4,806.7 			"/>
			<polygon class="st11" points="823.7,838.2 827.9,852.9 838.2,849.9 833.9,835.2 			"/>
			<polygon class="st11" points="819.7,823.7 823.7,838.2 833.9,835.4 829.9,820.7 			"/>
			<polygon class="st11" points="828.9,898.7 766.9,916.4 747.4,847.2 798.2,833.2 805.9,859.9 816.9,856.7 			"/>
			<polygon class="st11" points="797.2,829.9 801.9,845.2 810.9,842.4 806.4,827.2 			"/>
			<polygon class="st11" points="801.7,844.9 811.2,842.4 815.2,857.4 806.2,859.9 			"/>
			<polygon class="st11" points="815.7,757.7 828.4,803.9 922.9,776.9 909.7,730.7 			"/>
			<polygon class="st11" points="835.2,703.4 848.2,748.4 909.9,730.4 896.7,686.2 			"/>
			<polygon class="st11" points="850.7,672.7 857.7,696.9 896.7,686.2 890.2,661.7 			"/>
			<polygon class="st11" points="844.4,649.4 850.7,672.7 890.2,661.7 883.2,638.2 			"/>
			<polygon class="st11" points="821.4,655.7 844.4,649.7 857.7,696.9 835.2,703.4 			"/>
			<polygon class="st11" points="787.7,665.4 821.9,655.7 848.2,748.4 788.7,765.7 783.9,748.4 809.7,741.4 			"/>
			<polygon class="st11" points="762.7,672.9 788.2,665.7 809.7,741.2 783.9,748.4 			"/>
			<polygon class="st11" points="712.7,728.2 739.7,679.4 762.7,672.7 785.9,754.4 768.7,759.4 			"/>
			<polygon class="st11" points="712.9,727.9 701.7,748.4 758.2,780.2 769.2,759.9 			"/>
			<polygon class="st11" points="701.9,748.4 678.7,790.2 735.2,820.9 757.9,780.2 			"/>
			<polygon class="st11" points="769.2,759.7 785.4,754.9 788.7,765.7 791.2,765.2 803.2,810.7 760.2,823.7 756.9,812.4 
				741.4,816.9 739.9,812.7 			"/>
			<polygon class="st11" points="678.7,790.2 665.2,814.4 736.2,853.9 748.2,850.7 740.9,824.4 735.4,820.9 			"/>
			<polygon class="st11" points="664.9,814.2 633.2,871.4 732.2,926.2 766.9,916.4 748.2,850.4 736.2,853.9 			"/>
			<path class="st11" d="M632.7,871.7c0,0,5.8,26.8-3.2,50.5c-10.4,27.4-17,35.8-26.2,45.5c-9.1,9.6-14.2,13-14.2,13l43.8,24.8
				l-12.5,22.3l6.2,3.8l19.8,67.2l221.5-63l-38.8-137l-96.5,27.2L632.7,871.7z"/>
			<path class="st11" d="M563.4,996.7l1.8-3.5c0,0,10.8-4,15.5-7s8.2-5.2,8.2-5.2l43.8,24.2l-12.8,23L563.4,996.7z"/>
			<polygon class="st11" points="541.9,1035.2 555.7,1011.2 611.7,1043.4 598.7,1066.2 			"/>
			<polygon class="st11" points="519.7,1075.7 541.9,1035.2 598.4,1065.9 576.4,1107.4 			"/>
			<polygon class="st11" points="507.9,1097.7 519.7,1075.7 576.4,1107.2 564.7,1128.9 			"/>
			<polygon class="st11" points="496.9,1117.2 507.9,1097.7 564.9,1128.9 554.2,1148.7 			"/>
			<polygon class="st11" points="485.7,1137.2 497.2,1117.2 554.4,1149.2 542.9,1169.7 			"/>
			<polygon class="st11" points="474.4,1157.7 485.7,1137.2 542.9,1169.7 531.2,1189.6 			"/>
			<polygon class="st11" points="474.7,1157.9 459.2,1185.9 469.2,1221.6 531.2,1203.9 537.2,1193.2 			"/>
		</g>
		<g>
			<g>
				<circle class="st10" cx="1035.8" cy="560" r="24.2"/>
				<g>
					<g>
						<path class="st12" d="M1025.2,574.3c-0.8,0-1.5-0.7-1.5-1.5v-7.4c0-0.8,0.7-1.5,1.5-1.5h6.6v-7.4c0-0.8,0.7-1.5,1.5-1.5h6.4
							v-6.3c0-0.8,0.7-1.5,1.5-1.5h8.3c0.8,0,1.5,0.7,1.5,1.5c0,0.8-0.7,1.5-1.5,1.5h-6.8v6.3c0,0.8-0.7,1.5-1.5,1.5h-6.4v7.4
							c0,0.8-0.7,1.5-1.5,1.5h-6.6v5.9C1026.7,573.6,1026.1,574.3,1025.2,574.3z"/>
					</g>
				</g>
			</g>
			<g>
				<circle class="st10" cx="837" cy="862.5" r="24.2"/>
				<g>
					<g>
						<g>
							<path class="st12" d="M827.6,853.1c1.3,0,2.3-1,2.3-2.3c0-1.3-1-2.3-2.3-2.3c-1.3,0-2.3,1-2.3,2.3
								C825.3,852,826.3,853.1,827.6,853.1z M830.1,853.6l-4.9,0c-1.7,0-3,1.4-3,3v7.2c0,1.4,2,1.4,2,0v-6.6h0.5v18
								c0,1.9,2.7,1.8,2.7,0v-10.5h0.5v10.5c0,1.8,2.7,1.9,2.7,0v-18h0.5v6.6c0,1.4,2,1.4,2,0v-7.1
								C833.1,855.1,831.9,853.6,830.1,853.6z"/>
						</g>
					</g>
					<g>
						<g>
							<path class="st12" d="M854.2,862.3l-2-6.6c-0.2-0.7-1.2-2.1-2.8-2.1h-3.2c-1.6,0-2.6,1.3-2.8,2.1l-2,6.6
								c-0.4,1.4,1.4,2,1.8,0.6l1.8-6.1h0.5l-3.1,10.8h2.9l0,7.9c0,1.4,2.2,1.4,2.2,0l0-7.9h0.6v8c0,1.4,2.2,1.4,2.2,0v-7.9h2.9
								l-3.1-10.8h0.5l1.8,6.1C852.8,864.3,854.6,863.7,854.2,862.3z M847.8,853c1.3,0,2.3-1,2.3-2.3c0-1.3-1-2.3-2.3-2.3
								c-1.3,0-2.3,1-2.3,2.3C845.5,852,846.5,853,847.8,853z"/>
						</g>
					</g>
					<g>
						<path class="st12" d="M837.2,878.2c-0.2,0-0.4-0.2-0.4-0.4v-30.5c0-0.2,0.2-0.4,0.4-0.4c0.2,0,0.4,0.2,0.4,0.4v30.5
							C837.6,878,837.4,878.2,837.2,878.2z"/>
					</g>
				</g>
			</g>
			<g>
				<circle class="st10" cx="604.4" cy="1152.6" r="24.2"/>
				<g>
					<g>
						<g>
							<path class="st12" d="M595.1,1143.2c1.3,0,2.3-1,2.3-2.3c0-1.3-1-2.3-2.3-2.3c-1.3,0-2.3,1-2.3,2.3
								C592.7,1142.1,593.8,1143.2,595.1,1143.2z M597.5,1143.7l-4.9,0c-1.7,0-3,1.4-3,3v7.2c0,1.4,2,1.4,2,0v-6.6h0.5v18
								c0,1.9,2.7,1.8,2.7,0v-10.5h0.5v10.5c0,1.8,2.7,1.9,2.7,0v-18h0.5v6.6c0,1.4,2,1.4,2,0v-7.1
								C600.5,1145.2,599.3,1143.7,597.5,1143.7z"/>
						</g>
					</g>
					<g>
						<g>
							<path class="st12" d="M621.6,1152.4l-2-6.6c-0.2-0.7-1.2-2.1-2.8-2.1h-3.2c-1.6,0-2.6,1.3-2.8,2.1l-2,6.6
								c-0.4,1.4,1.4,2,1.8,0.6l1.8-6.1h0.5l-3.1,10.8h2.9l0,7.9c0,1.4,2.2,1.4,2.2,0l0-7.9h0.6v8c0,1.4,2.2,1.4,2.2,0v-7.9h2.9
								l-3.1-10.8h0.5l1.8,6.1C620.2,1154.4,622,1153.8,621.6,1152.4z M615.2,1143.1c1.3,0,2.3-1,2.3-2.3c0-1.3-1-2.3-2.3-2.3
								c-1.3,0-2.3,1-2.3,2.3C612.9,1142.1,613.9,1143.1,615.2,1143.1z"/>
						</g>
					</g>
					<g>
						<path class="st12" d="M604.6,1168.3c-0.2,0-0.4-0.2-0.4-0.4v-30.5c0-0.2,0.2-0.4,0.4-0.4c0.2,0,0.4,0.2,0.4,0.4v30.5
							C605.1,1168.1,604.9,1168.3,604.6,1168.3z"/>
					</g>
				</g>
			</g>
			<g>
				<circle class="st10" cx="887" cy="1337.5" r="24.2"/>
				<g>
					<g>
						<path class="st12" d="M876.4,1351.8c-0.8,0-1.5-0.7-1.5-1.5v-7.4c0-0.8,0.7-1.5,1.5-1.5h6.6v-7.4c0-0.8,0.7-1.5,1.5-1.5h6.4
							v-6.3c0-0.8,0.7-1.5,1.5-1.5h8.3c0.8,0,1.5,0.7,1.5,1.5s-0.7,1.5-1.5,1.5h-6.8v6.3c0,0.8-0.7,1.5-1.5,1.5H886v7.4
							c0,0.8-0.7,1.5-1.5,1.5h-6.6v5.9C877.9,1351.1,877.2,1351.8,876.4,1351.8z"/>
					</g>
				</g>
			</g>
			<g>
				<circle class="st10" cx="1058.4" cy="1280.6" r="24.2"/>
				<g>
					<g>
						<path class="st12" d="M1047.8,1294.9c-0.8,0-1.5-0.7-1.5-1.5v-7.4c0-0.8,0.7-1.5,1.5-1.5h6.6v-7.4c0-0.8,0.7-1.5,1.5-1.5h6.4
							v-6.3c0-0.8,0.7-1.5,1.5-1.5h8.3c0.8,0,1.5,0.7,1.5,1.5s-0.7,1.5-1.5,1.5h-6.8v6.3c0,0.8-0.7,1.5-1.5,1.5h-6.4v7.4
							c0,0.8-0.7,1.5-1.5,1.5h-6.6v5.9C1049.3,1294.2,1048.6,1294.9,1047.8,1294.9z"/>
					</g>
				</g>
			</g>
			<g>
				<circle class="st10" cx="281.4" cy="1131.1" r="24.2"/>
				<g>
					<g>
						<path class="st12" d="M270.9,1145.4c-0.8,0-1.5-0.7-1.5-1.5v-7.4c0-0.8,0.7-1.5,1.5-1.5h6.6v-7.4c0-0.8,0.7-1.5,1.5-1.5h6.4
							v-6.3c0-0.8,0.7-1.5,1.5-1.5h8.3c0.8,0,1.5,0.7,1.5,1.5c0,0.8-0.7,1.5-1.5,1.5h-6.8v6.3c0,0.8-0.7,1.5-1.5,1.5h-6.4v7.4
							c0,0.8-0.7,1.5-1.5,1.5h-6.6v5.9C272.4,1144.7,271.7,1145.4,270.9,1145.4z"/>
					</g>
				</g>
			</g>
			<g>
				<circle class="st10" cx="767.6" cy="1248.3" r="24.2"/>
				<g>
					<g>
						<path class="st12" d="M757,1262.6c-0.8,0-1.5-0.7-1.5-1.5v-7.4c0-0.8,0.7-1.5,1.5-1.5h6.6v-7.4c0-0.8,0.7-1.5,1.5-1.5h6.4
							v-6.3c0-0.8,0.7-1.5,1.5-1.5h8.3c0.8,0,1.5,0.7,1.5,1.5s-0.7,1.5-1.5,1.5h-6.8v6.3c0,0.8-0.7,1.5-1.5,1.5h-6.4v7.4
							c0,0.8-0.7,1.5-1.5,1.5h-6.6v5.9C758.5,1261.9,757.8,1262.6,757,1262.6z"/>
					</g>
				</g>
			</g>
			<g>
				<circle class="st10" cx="428.4" cy="1471.6" r="24.2"/>
				<g>
					<g>
						<path class="st12" d="M417.9,1485.9c-0.8,0-1.5-0.7-1.5-1.5v-7.4c0-0.8,0.7-1.5,1.5-1.5h6.6v-7.4c0-0.8,0.7-1.5,1.5-1.5h6.4
							v-6.3c0-0.8,0.7-1.5,1.5-1.5h8.3c0.8,0,1.5,0.7,1.5,1.5s-0.7,1.5-1.5,1.5h-6.8v6.3c0,0.8-0.7,1.5-1.5,1.5h-6.4v7.4
							c0,0.8-0.7,1.5-1.5,1.5h-6.6v5.9C419.3,1485.2,418.7,1485.9,417.9,1485.9z"/>
					</g>
				</g>
			</g>
			<g>
				<circle class="st10" cx="1100.4" cy="897.1" r="24.2"/>
				<g>
					<g>
						<path class="st12" d="M1089.8,911.4c-0.8,0-1.5-0.7-1.5-1.5v-7.4c0-0.8,0.7-1.5,1.5-1.5h6.6v-7.4c0-0.8,0.7-1.5,1.5-1.5h6.4
							v-6.3c0-0.8,0.7-1.5,1.5-1.5h8.3c0.8,0,1.5,0.7,1.5,1.5c0,0.8-0.7,1.5-1.5,1.5h-6.8v6.3c0,0.8-0.7,1.5-1.5,1.5h-6.4v7.4
							c0,0.8-0.7,1.5-1.5,1.5h-6.6v5.9C1091.3,910.7,1090.6,911.4,1089.8,911.4z"/>
					</g>
				</g>
			</g>
			<g>
				<circle class="st10" cx="637.3" cy="529.6" r="24.2"/>
				<g>
					<g>
						<path class="st12" d="M626.7,543.9c-0.8,0-1.5-0.7-1.5-1.5V535c0-0.8,0.7-1.5,1.5-1.5h6.6V526c0-0.8,0.7-1.5,1.5-1.5h6.4v-6.3
							c0-0.8,0.7-1.5,1.5-1.5h8.3c0.8,0,1.5,0.7,1.5,1.5c0,0.8-0.7,1.5-1.5,1.5h-6.8v6.3c0,0.8-0.7,1.5-1.5,1.5h-6.4v7.4
							c0,0.8-0.7,1.5-1.5,1.5h-6.6v5.9C628.2,543.2,627.5,543.9,626.7,543.9z"/>
					</g>
				</g>
			</g>
			<g>
				<circle class="st10" cx="953.7" cy="756.5" r="24.2"/>
				<g>
					<g>
						<path class="st12" d="M943.1,770.8c-0.8,0-1.5-0.7-1.5-1.5v-7.4c0-0.8,0.7-1.5,1.5-1.5h6.6v-7.4c0-0.8,0.7-1.5,1.5-1.5h6.4
							v-6.3c0-0.8,0.7-1.5,1.5-1.5h8.3c0.8,0,1.5,0.7,1.5,1.5c0,0.8-0.7,1.5-1.5,1.5h-6.8v6.3c0,0.8-0.7,1.5-1.5,1.5h-6.4v7.4
							c0,0.8-0.7,1.5-1.5,1.5h-6.6v5.9C944.6,770.1,943.9,770.8,943.1,770.8z"/>
					</g>
				</g>
			</g>
			<g>
				<circle class="st10" cx="442.3" cy="900.1" r="24.2"/>
				<g>
					<g>
						<path class="st12" d="M431.7,914.4c-0.8,0-1.5-0.7-1.5-1.5v-7.4c0-0.8,0.7-1.5,1.5-1.5h6.6v-7.4c0-0.8,0.7-1.5,1.5-1.5h6.4
							v-6.3c0-0.8,0.7-1.5,1.5-1.5h8.3c0.8,0,1.5,0.7,1.5,1.5c0,0.8-0.7,1.5-1.5,1.5h-6.8v6.3c0,0.8-0.7,1.5-1.5,1.5h-6.4v7.4
							c0,0.8-0.7,1.5-1.5,1.5h-6.6v5.9C433.2,913.7,432.5,914.4,431.7,914.4z"/>
					</g>
				</g>
			</g>
			<g>
				<circle class="st10" cx="1119.8" cy="1101.3" r="24.2"/>
				<g>
					<g>
						<path class="st12" d="M1131.9,1090.2h-4.9c-1,0-2.3,0.4-3.1,1.2l-4.5,4.5l-4.2,4.1h0l-3.9,3.9c-0.4,0.4-0.4,0.4-1.1,0.4
							c0,0-2.4,0-2.4,0c-2.4,0-3.9,2.2-3.9,4c0,1.8,1.4,4.2,4.1,4.2c0,0,3.3,0,4.3,0c1,0,2.2-0.4,3.2-1.3l12.5-12.5
							c0.3-0.2,0.4-0.3,0.9-0.3c0,0,1.7,0,3.1,0c1.5,0,3.6-1.7,3.6-4.1C1135.6,1091.9,1133.5,1090.3,1131.9,1090.2z M1131.7,1096.3
							h-2.6c-1.1,0-1.6,0.2-2.3,0.8l-12.6,12.6c-0.5,0.5-1.2,0.7-2,0.7h-4.2c-1.1,0-2-0.9-2-2.1c0-1.2,0.9-1.8,1.8-1.8h2.9
							c0.8,0,1.4-0.2,1.9-0.7l12.8-12.8c0.5-0.5,1-0.6,1.9-0.6h4.4c1.1,0,1.8,1.2,1.8,1.9C1133.5,1094.9,1133,1096.3,1131.7,1096.3z
							"/>
					</g>
					<g>
						<g>
							<circle class="st12" cx="1117.4" cy="1089.6" r="2.1"/>
						</g>
						<g>
							<path class="st12" d="M1119.4,1095.9v-1.3c0-2.8-4.2-2.8-4.2,0v5.4h0L1119.4,1095.9z"/>
						</g>
					</g>
				</g>
			</g>
			<g>
				<circle class="st10" cx="1057.1" cy="784.4" r="24.2"/>
				<g>
					<g>
						<path class="st12" d="M1069.2,773.3h-4.9c-1,0-2.3,0.4-3.1,1.2l-4.5,4.5l-4.2,4.1h0l-3.9,3.9c-0.4,0.4-0.4,0.4-1.1,0.4
							c0,0-2.4,0-2.4,0c-2.4,0-3.9,2.2-3.9,4c0,1.8,1.4,4.2,4.1,4.2c0,0,3.3,0,4.3,0c1,0,2.2-0.4,3.2-1.3l12.5-12.5
							c0.3-0.2,0.4-0.3,0.9-0.3c0,0,1.7,0,3.1,0c1.5,0,3.6-1.7,3.6-4.1C1072.9,774.9,1070.8,773.3,1069.2,773.3z M1069,779.4h-2.6
							c-1.1,0-1.6,0.2-2.3,0.8l-12.6,12.6c-0.5,0.5-1.2,0.7-2,0.7h-4.2c-1.1,0-2-0.9-2-2.1c0-1.2,0.9-1.8,1.8-1.8h2.9
							c0.8,0,1.4-0.2,1.9-0.7l12.8-12.8c0.5-0.5,1-0.6,1.9-0.6h4.4c1.1,0,1.8,1.2,1.8,1.9C1070.8,778,1070.3,779.4,1069,779.4z"/>
					</g>
					<g>
						<g>
							<circle class="st12" cx="1054.7" cy="772.7" r="2.1"/>
						</g>
						<g>
							<path class="st12" d="M1056.8,779v-1.3c0-2.8-4.2-2.8-4.2,0v5.4h0L1056.8,779z"/>
						</g>
					</g>
				</g>
			</g>
			<g>
				<circle class="st10" cx="832.8" cy="608.7" r="24.2"/>
				<g>
					<g>
						<path class="st12" d="M844.9,597.7H840c-1,0-2.3,0.4-3.1,1.2l-4.5,4.5l-4.2,4.1h0l-3.9,3.9c-0.4,0.4-0.4,0.4-1.1,0.4
							c0,0-2.4,0-2.4,0c-2.4,0-3.9,2.2-3.9,4c0,1.8,1.4,4.2,4.1,4.2c0,0,3.3,0,4.3,0c1,0,2.2-0.4,3.2-1.3l12.5-12.5
							c0.3-0.2,0.4-0.3,0.9-0.3c0,0,1.7,0,3.1,0c1.5,0,3.6-1.7,3.6-4.1C848.6,599.3,846.5,597.7,844.9,597.7z M844.7,603.7H842
							c-1.1,0-1.6,0.2-2.3,0.8l-12.6,12.6c-0.5,0.5-1.2,0.7-2,0.7H821c-1.1,0-2-0.9-2-2.1c0-1.2,0.9-1.8,1.8-1.8h2.9
							c0.8,0,1.4-0.2,1.9-0.7l12.8-12.8c0.5-0.5,1-0.6,1.9-0.6h4.4c1.1,0,1.8,1.2,1.8,1.9C846.5,602.4,846,603.7,844.7,603.7z"/>
					</g>
					<g>
						<g>
							<circle class="st12" cx="830.3" cy="597" r="2.1"/>
						</g>
						<g>
							<path class="st12" d="M832.4,603.4V602c0-2.8-4.2-2.8-4.2,0v5.4h0L832.4,603.4z"/>
						</g>
					</g>
				</g>
			</g>
			<g>
				<circle class="st10" cx="441.1" cy="1246" r="24.2"/>
				<g>
					<g>
						<path class="st12" d="M453.2,1235h-4.9c-1,0-2.3,0.4-3.1,1.2l-4.5,4.5l-4.2,4.1h0l-3.9,3.9c-0.4,0.4-0.4,0.4-1.1,0.4h-2.4
							c-2.4,0-3.9,2.2-3.9,4c0,1.8,1.4,4.2,4.1,4.2c0,0,3.3,0,4.3,0c1,0,2.2-0.4,3.2-1.3l12.5-12.5c0.3-0.2,0.4-0.3,0.9-0.3
							c0,0,1.7,0,3.1,0c1.5,0,3.6-1.7,3.6-4.1C456.9,1236.6,454.8,1235,453.2,1235z M453,1241h-2.6c-1.1,0-1.6,0.2-2.3,0.8
							l-12.6,12.6c-0.5,0.5-1.2,0.7-2,0.7h-4.2c-1.1,0-2-0.9-2-2.1c0-1.2,0.9-1.8,1.8-1.8h2.9c0.8,0,1.4-0.2,1.9-0.7l12.8-12.8
							c0.5-0.5,1-0.6,1.9-0.6h4.4c1.1,0,1.8,1.2,1.8,1.9C454.8,1239.7,454.3,1241,453,1241z"/>
					</g>
					<g>
						<g>
							<circle class="st12" cx="438.7" cy="1234.4" r="2.1"/>
						</g>
						<g>
							<path class="st12" d="M440.8,1240.7v-1.3c0-2.8-4.2-2.8-4.2,0v5.4h0L440.8,1240.7z"/>
						</g>
					</g>
				</g>
			</g>
		</g>
	</g>
</g>
<g id="Texto_1">
	<g>
		<g>
			<text transform="matrix(1 0 0 1 281.0068 1234.0381)" class="st13 st14 st15">RI HAPPY</text>
			<text transform="matrix(1 0 0 1 475.9326 1385.0381)"><tspan x="0" y="0" class="st13 st14 st15">PODEROSO</tspan><tspan x="12.1" y="12" class="st13 st14 st15">TIMÃO</tspan></text>
			<text transform="matrix(1 0 0 1 537.3232 1420.0381)" class="st13 st14 st15">POLISHOP</text>
			<text transform="matrix(1 0 0 1 567.081 1374.0381)"><tspan x="0" y="0" class="st13 st14 st15">TENNIS</tspan><tspan x="8.9" y="12" class="st13 st14 st15">ONE</tspan></text>
			<text transform="matrix(1 0 0 1 599.3456 1345.0381)"><tspan x="0" y="0" class="st13 st14 st15">CHILLI</tspan><tspan x="0.3" y="12" class="st13 st14 st15">BEANS</tspan></text>
			<text transform="matrix(1 0 0 1 475.081 1258.3713)"><tspan x="0" y="0" class="st13 st14 st15">TENNIS</tspan><tspan x="-3.7" y="12" class="st13 st14 st15">STATION</tspan></text>
			<text transform="matrix(1 0 0 1 543.6214 1233.3713)" class="st13 st14 st15">MANTEIGARIA</text>
			<text transform="matrix(1 0 0 1 612.582 1250.0381)"><tspan x="0" y="0" class="st13 st14 st15">ÓTICAS</tspan><tspan x="-1.2" y="12" class="st13 st14 st15">VENEZA</tspan></text>
			<text transform="matrix(1 0 0 1 655.6702 1173.3713)"><tspan x="0" y="0" class="st13 st14 st15">AMERICAN</tspan><tspan x="11.6" y="12" class="st13 st14 st15">HOUSE</tspan><tspan x="0.5" y="24" class="st13 st14 st15">COLCHÕES</tspan></text>
			<text transform="matrix(1 0 0 1 725.9759 1193.3713)"><tspan x="0" y="0" class="st13 st14 st15">MR.</tspan><tspan x="0" y="12" class="st13 st14 st15">CAT</tspan></text>
			<text transform="matrix(1 0 0 1 778.0345 1171.3713)"><tspan x="0" y="0" class="st13 st14 st15">ALIANÇAS</tspan><tspan x="3.1" y="12" class="st13 st14 st15">FOREVER</tspan></text>
			<text transform="matrix(1 0 0 1 813.4599 1127.3713)" class="st13 st14 st15">KALUNGA</text>
			<text transform="matrix(1 0 0 1 949.9638 1136.0381)" class="st13 st14 st15">GREGORY</text>
			<text transform="matrix(1 0 0 1 956.7412 1087.3713)" class="st13 st14 st15">OI</text>
			<text transform="matrix(1 0 0 1 1134.0358 997.3713)"><tspan x="0" y="0" class="st13 st14 st15">PET</tspan><tspan x="-5.4" y="12" class="st13 st14 st15">SHOP</tspan><tspan x="-4.5" y="24" class="st13 st14 st15">LOVE</tspan></text>
			<text transform="matrix(1 0 0 1 1073.3092 994.7047)"><tspan x="0" y="0" class="st13 st14 st15">MR.</tspan><tspan x="-10.6" y="12" class="st13 st14 st15">TENNIS</tspan></text>
			<text transform="matrix(1 0 0 1 925.6966 1043.3713)" class="st13 st14 st15">CLARO</text>
			<text transform="matrix(1 0 0 1 905.9371 990.038)" class="st13 st14 st15">ZELO</text>
			<text transform="matrix(1 0 0 1 1006.7858 931.3713)" class="st13 st14 st15">MULTICOISAS</text>
			<text transform="matrix(1 0 0 1 1034.1621 852.7047)" class="st13 st14 st15">DROGASIL</text>
			<text transform="matrix(1 0 0 1 874.3854 920.7047)"><tspan x="0" y="0" class="st13 st14 st15">GABRIELLA</tspan><tspan x="1.4" y="12" class="st13 st14 st15">CALÇADOS</tspan></text>
			<text transform="matrix(1 0 0 1 881.2741 855.3714)" class="st13 st14 st15">SAMSUNG</text>
			<text transform="matrix(1 0 0 1 889.8467 811.3713)"><tspan x="0" y="0" class="st13 st14 st15">DENY</tspan><tspan x="2.3" y="12" class="st13 st14 st15">KIDS</tspan></text>
			<text transform="matrix(1 0 0 1 836.7878 774.038)" class="st13 st14 st15">TENT BEACH</text>
			<text transform="matrix(1 0 0 1 842.1032 720.038)"><tspan x="0" y="0" class="st13 st14 st15">TIM AQUILON</tspan><tspan x="8.1" y="12" class="st13 st14 st15">CELULARES</tspan></text>
			<text transform="matrix(1 0 0 1 863.9805 678.7047)" class="st13 st14 st15">COMMCENTER</text>
			<text transform="matrix(1 0 0 1 855.0589 646.7047)"><tspan x="0" y="0" class="st13 st14 st15">ÓTICA</tspan><tspan x="-10.1" y="12" class="st13 st14 st15">MARIANA</tspan></text>
			<text transform="matrix(1 0 0 1 824.944 695.3714)" class="st13 st14 st15">ROCKLASER</text>
			<text transform="matrix(1 0 0 1 777.4079 708.7047)" class="st13 st14 st15">MALWEE</text>
			<text transform="matrix(1 0 0 1 739.7067 717.3713)"><tspan x="0" y="0" class="st13 st14 st15">LE</tspan><tspan x="-21.9" y="12" class="st13 st14 st15">POSTICHE</tspan></text>
			<text transform="matrix(1 0 0 1 996.6846 736.7047)" class="st13 st14 st15">RAGAZZO</text>
			<text transform="matrix(1 0 0 1 976.999 693.3714)"><tspan x="0" y="0" class="st13 st14 st15">NUVEM DE</tspan><tspan x="-5.8" y="12" class="st13 st14 st15">BRIGADEIRO</tspan></text>
			<text transform="matrix(1 0 0 1 969.6575 658.038)"><tspan x="0" y="0" class="st13 st14 st15">WORLD</tspan><tspan x="-0.2" y="12" class="st13 st14 st15">TENNIS</tspan></text>
			<text transform="matrix(1 0 0 1 950.7204 611.3714)" class="st13 st14 st15">BALONE</text>
			<text transform="matrix(1 0 0 1 932.3525 578.038)"><tspan x="0" y="0" class="st13 st14 st15">CHIQUINHO</tspan><tspan x="7" y="12" class="st13 st14 st15">SORVETES</tspan></text>
			<text transform="matrix(1 0 0 1 754.4928 1202.038)" class="st13 st14 st15">HAVAIANAS</text>
			<text transform="matrix(1 0 0 1 638.2372 1223.3715)" class="st13 st14 st15">SPIKES</text>
			<text transform="matrix(1 0 0 1 460.164 1196.0381)" class="st13 st14 st15">LÍQUIDO</text>
			<text transform="matrix(1 0 0 1 485.6389 1162.0381)" class="st13 st14 st15">CVC</text>
			<text transform="matrix(1 0 0 1 504.4023 1092.7047)"><tspan x="0" y="0" class="st13 st14 st15">MUNDO</tspan><tspan x="4.8" y="12" class="st13 st14 st15">VERDE</tspan></text>
			<text transform="matrix(1 0 0 1 524.1989 1072.0381)" class="st13 st14 st15">MARTINEZ</text>
			<text transform="matrix(1 0 0 1 570.0856 1009.3713)" class="st13 st14 st15">TIP TOP</text>
			<text transform="matrix(1 0 0 1 670.3847 874.038)" class="st13 st14 st15">PONTAL</text>
			<text transform="matrix(1 0 0 1 692.5335 794.038)" class="st13 st14 st15">GARBO</text>
			<text transform="matrix(1 0 0 1 577.1709 805.3713)"><tspan x="0" y="0" class="st13 st14 st15">MARRY</tspan><tspan x="5.3" y="12" class="st13 st14 st15">BABY</tspan></text>
			<text transform="matrix(1 0 0 1 580.6396 784.7047)" class="st13 st14 st15">ARF</text>
			<text transform="matrix(1 0 0 1 560.8242 756.7047)"><tspan x="0" y="0" class="st13 st14 st15">CECILIA</tspan><tspan x="-0.2" y="12" class="st13 st14 st15">BARROS</tspan></text>
			<text transform="matrix(1 0 0 1 590.7291 741.3714)" class="st13 st14 st15">FOFINHAS</text>
			<text transform="matrix(1 0 0 1 581.2487 714.7047)"><tspan x="0" y="0" class="st13 st14 st15">ÓTICAS</tspan><tspan x="-2.6" y="12" class="st13 st14 st15">CARELLI</tspan></text>
			<text transform="matrix(1 0 0 1 638.4163 707.3714)"><tspan x="0" y="0" class="st13 st14 st15">PILHAS</tspan><tspan x="4.6" y="12" class="st13 st14 st15">&amp; CIA</tspan></text>
			<text transform="matrix(1 0 0 1 611.417 677.3714)"><tspan x="0" y="0" class="st13 st14 st15">MARIA DAS</tspan><tspan x="11.8" y="12" class="st13 st14 st15">UNHAS</tspan></text>
			<text transform="matrix(1 0 0 1 666.4134 605.3714)" class="st13 st14 st15">OVERCOME</text>
			<text transform="matrix(1 0 0 1 854.5934 444.7047)" class="st13 st14 st15">CENTAURO</text>
			<text transform="matrix(1 0 0 1 725.1556 752.7047)"><tspan x="0" y="0" class="st13 st14 st15">JK</tspan><tspan x="-23.1" y="12" class="st13 st14 st15">ALIANÇAS</tspan></text>
			<text transform="matrix(1 0 0 1 497.2044 923.3713)"><tspan x="0" y="0" class="st13 st14 st15">CACAU</tspan><tspan x="2.2" y="12" class="st13 st14 st15">SHOW</tspan></text>
			<text transform="matrix(1 0 0 1 511.136 880.7047)" class="st13 st14 st15">COTAÇÃO</text>
			<text transform="matrix(1 0 0 1 478.248 851.3713)"><tspan x="0" y="0" class="st13 st14 st15">ALL SPORTS</tspan><tspan x="0.1" y="12" class="st13 st14 st15">NUTRITION</tspan></text>
			<text transform="matrix(1 0 0 1 495.1585 820.7047)"><tspan x="0" y="0" class="st13 st14 st15">CARMELIA</tspan><tspan x="14.4" y="12" class="st13 st14 st15">ROSA</tspan></text>
			<text transform="matrix(1 0 0 1 471.9254 895.3713)"><tspan x="0" y="0" class="st13 st14 st15">CAMARIM DA</tspan><tspan x="-4.2" y="12" class="st13 st14 st15">SOBRANCELHA</tspan></text>
			<text transform="matrix(1 0 0 1 485.4443 1119.3713)"><tspan x="0" y="0" class="st13 st14 st15">DOCTOR</tspan><tspan x="10.9" y="12" class="st13 st14 st15">FEET</tspan></text>
			<text transform="matrix(1 0 0 1 349.3248 1144.7047)"><tspan x="0" y="0" class="st13 st14 st15">CASA PÃO QUEIJO</tspan><tspan x="8.5" y="12" class="st13 st14 st15">MELHOR BOLO</tspan></text>
			<text transform="matrix(1 0 0 1 397.9528 1088.038)"><tspan x="0" y="0" class="st13 st14 st15">KINGS</tspan><tspan x="-10.9" y="12" class="st13 st14 st15">SNEAKERS</tspan></text>
			<text transform="matrix(1 0 0 1 413.6956 1043.3713)"><tspan x="0" y="0" class="st13 st14 st15">ROSA &amp;</tspan><tspan x="-2.3" y="12" class="st13 st14 st15">CARVÃO</tspan></text>
			<text transform="matrix(1 0 0 1 439.3808 1007.3713)" class="st13 st14 st15">KID STOK </text>
			<text transform="matrix(1 0 0 1 436.0266 982.038)" class="st13 st14 st15">REI DO MATE </text>
			<text transform="matrix(1 0 0 1 514.0208 1144.7047)"><tspan x="0" y="0" class="st13 st14 st15">GRAND</tspan><tspan x="1.2" y="12" class="st13 st14 st15">STILLO</tspan></text>
			<text transform="matrix(1 0 0 1 533.0765 1255.0381)" class="st13 st14 st15">DORINHO’S</text>
			<text transform="matrix(1 0 0 1 643.4736 1350.0381)"><tspan x="0" y="0" class="st13 st14 st15">COR</tspan><tspan x="4" y="12" class="st13 st14 st15">DA</tspan><tspan x="-6.3" y="24" class="st13 st14 st15">PRATA</tspan></text>
			<text transform="matrix(1 0 0 1 708.1855 1337.0381)"><tspan x="0" y="0" class="st13 st14 st15">PINK</tspan><tspan x="2.9" y="12" class="st13 st14 st15">MIX</tspan></text>
			<text transform="matrix(1 0 0 1 756.3779 1342.0381)" class="st13 st14 st15">FÃ KIDS</text>
			<text transform="matrix(1 0 0 1 819.5956 1298.0381)" class="st13 st14 st15">BARREDS</text>
			<text transform="matrix(1 0 0 1 891.789 1281.0381)" class="st13 st14 st15">ITAÚ</text>
			<text transform="matrix(1 0 0 1 930.1347 1273.0381)" class="st13 st14 st15">TRENDS</text>
			<text transform="matrix(1 0 0 1 958.6562 1239.0381)"><tspan x="0" y="0" class="st13 st14 st15">CITY</tspan><tspan x="-6.3" y="12" class="st13 st14 st15">BEACH</tspan></text>
			<text transform="matrix(1 0 0 1 1047.9814 1203.0381)" class="st13 st14 st15">LUPO</text>
			<text transform="matrix(1 0 0 1 1093.5791 1215.0381)" class="st13 st14 st15">STARBUCKS</text>
			<text transform="matrix(1 0 0 1 1158.9932 1201.0381)" class="st13 st14 st15">MOMENTUM</text>
			<text transform="matrix(1 0 0 1 996.3369 1240.0381)"><tspan x="0" y="0" class="st13 st14 st15">AMERICAN</tspan><tspan x="12.7" y="12" class="st13 st14 st15">SHOES</tspan></text>
			<text transform="matrix(1 0 0 1 661.582 1324.0381)"><tspan x="0" y="0" class="st13 st14 st15">ÓTICAS</tspan><tspan x="1.8" y="12" class="st13 st14 st15">CAROL</tspan></text>
			<text transform="matrix(1 0 0 1 437.6698 1323.1527)"><tspan x="0" y="0" class="st13 st14 st16">HENRIQUE</tspan><tspan x="13.5" y="10" class="st13 st14 st16">TOYS</tspan></text>
			<text transform="matrix(1 0 0 1 472.7048 1072.4861)" class="st13 st14 st16">BOB’S</text>
			<text transform="matrix(1 0 0 1 615.3494 839.8194)"><tspan x="0" y="0" class="st13 st14 st16">A</tspan><tspan x="-23.2" y="12" class="st13 st14 st16">ROCHINHA</tspan></text>
			<text transform="matrix(1 0 0 1 644.7126 775.8194)" class="st13 st14 st16">YOGGI</text>
			<text transform="matrix(1 0 0 1 703.514 669.8194)"><tspan x="0" y="0" class="st13 st14 st16">MC</tspan><tspan x="-16.6" y="12" class="st13 st14 st16">DONALD’S</tspan></text>
			<text transform="matrix(1 0 0 1 745.1729 629.1527)" class="st13 st14 st16">MAYBELLINE</text>
			<text transform="matrix(1 0 0 1 520.4139 1319.1527)"><tspan x="0" y="0" class="st13 st14 st16">RILIX</tspan><tspan x="-8.7" y="10" class="st13 st14 st16">COASTER</tspan></text>
			<text transform="matrix(1 0 0 1 600.9797 1283.8195)"><tspan x="0" y="0" class="st13 st14 st16">LOUCOS</tspan><tspan x="9.7" y="10" class="st13 st14 st16">POR</tspan><tspan x="-3.5" y="20" class="st13 st14 st16">CHURROS</tspan></text>
			<text transform="matrix(1 0 0 1 689.4589 1262.1527)" class="st13 st14 st16">BRINCAR</text>
			<text transform="matrix(1 0 0 1 823.2172 1238.1527)" class="st13 st14 st16">VULT</text>
			<text transform="matrix(1 0 0 1 928.1249 1197.1527)"><tspan x="0" y="0" class="st13 st14 st16">MR.</tspan><tspan x="-13.3" y="10" class="st13 st14 st16">PRETZELS</tspan></text>
			<text transform="matrix(1 0 0 1 977.6635 1179.1527)"><tspan x="0" y="0" class="st13 st14 st16">ANIMAL</tspan><tspan x="6.4" y="10" class="st13 st14 st16">TOUR</tspan></text>
			<text transform="matrix(1 0 0 1 1012.2952 1027.1527)"><tspan x="0" y="0" class="st13 st14 st16">ART IN</tspan><tspan x="4.4" y="10" class="st13 st14 st16">CASE</tspan></text>
			<text transform="matrix(1 0 0 1 966.9219 882.4861)"><tspan x="0" y="0" class="st13 st14 st16">EMPÓRIO</tspan><tspan x="4.2" y="10" class="st13 st14 st16">DO AÇO</tspan></text>
			<text transform="matrix(1 0 0 1 948.9815 801.1527)"><tspan x="0" y="0" class="st13 st14 st16">BALCÃO DE</tspan><tspan x="-8.8" y="10" class="st13 st14 st16">INFORMACOES</tspan></text>
			<text transform="matrix(1 0 0 1 894.21 643.1527)" class="st13 st14 st16">MOTOROLA</text>
			<g>
				<g>
					<text transform="matrix(1 0 0 1 260.9853 1405.661)" class="st13 st14 st17">C&amp;A</text>
				</g>
				<text transform="matrix(1 0 0 1 260.9853 1405.661)" class="st13 st14 st17">C&amp;A</text>
				<g>
					<text transform="matrix(1 0 0 1 260.9853 1405.661)" class="st13 st14 st17">C&amp;A</text>
				</g>
			</g>
			<g>
				<g>
					<text transform="matrix(1 0 0 1 1283.4608 1150.6738)" class="st13 st14 st17">MARISA</text>
				</g>
				<text transform="matrix(1 0 0 1 1283.4608 1150.6738)" class="st13 st14 st17">MARISA</text>
				<g>
					<text transform="matrix(1 0 0 1 1283.4608 1150.6738)" class="st13 st14 st17">MARISA</text>
				</g>
			</g>
			<g>
				<g>
					<text transform="matrix(1 0 0 1 691.9625 1003.6812)" class="st13 st14 st17">FAST SHOP</text>
				</g>
				<text transform="matrix(1 0 0 1 691.9625 1003.6812)" class="st13 st14 st17">FAST SHOP</text>
				<g>
					<text transform="matrix(1 0 0 1 691.9625 1003.6812)" class="st13 st14 st17">FAST SHOP</text>
				</g>
			</g>
			<g>
				<g>
					<text transform="matrix(1 0 0 1 691.7513 468.7063)" class="st13 st14 st17">RIACHUELO</text>
				</g>
				<text transform="matrix(1 0 0 1 691.7513 468.7063)" class="st13 st14 st17">RIACHUELO</text>
				<g>
					<text transform="matrix(1 0 0 1 691.7513 468.7063)" class="st13 st14 st17">RIACHUELO</text>
				</g>
			</g>
		</g>
		<g>
			<text transform="matrix(1 0 0 1 281.0068 1234.0381)" class="st10 st14 st15">RI HAPPY</text>
			<text transform="matrix(1 0 0 1 475.9326 1385.0381)"><tspan x="0" y="0" class="st10 st14 st15">PODEROSO</tspan><tspan x="12.1" y="12" class="st10 st14 st15">TIMÃO</tspan></text>
			<text transform="matrix(1 0 0 1 537.3232 1420.0381)" class="st10 st14 st15">POLISHOP</text>
			<text transform="matrix(1 0 0 1 567.081 1374.0381)"><tspan x="0" y="0" class="st10 st14 st15">TENNIS</tspan><tspan x="8.9" y="12" class="st10 st14 st15">ONE</tspan></text>
			<text transform="matrix(1 0 0 1 599.3456 1345.0381)"><tspan x="0" y="0" class="st10 st14 st15">CHILLI</tspan><tspan x="0.3" y="12" class="st10 st14 st15">BEANS</tspan></text>
			<text transform="matrix(1 0 0 1 475.081 1258.3713)"><tspan x="0" y="0" class="st10 st14 st15">TENNIS</tspan><tspan x="-3.7" y="12" class="st10 st14 st15">STATION</tspan></text>
			<text transform="matrix(1 0 0 1 543.6214 1233.3713)" class="st10 st14 st15">MANTEIGARIA</text>
			<text transform="matrix(1 0 0 1 612.582 1250.0381)"><tspan x="0" y="0" class="st10 st14 st15">ÓTICAS</tspan><tspan x="-1.2" y="12" class="st10 st14 st15">VENEZA</tspan></text>
			<text transform="matrix(1 0 0 1 655.6702 1173.3713)"><tspan x="0" y="0" class="st10 st14 st15">AMERICAN</tspan><tspan x="11.6" y="12" class="st10 st14 st15">HOUSE</tspan><tspan x="0.5" y="24" class="st10 st14 st15">COLCHÕES</tspan></text>
			<text transform="matrix(1 0 0 1 725.9759 1193.3713)"><tspan x="0" y="0" class="st10 st14 st15">MR.</tspan><tspan x="0" y="12" class="st10 st14 st15">CAT</tspan></text>
			<text transform="matrix(1 0 0 1 778.0345 1171.3713)"><tspan x="0" y="0" class="st10 st14 st15">ALIANÇAS</tspan><tspan x="3.1" y="12" class="st10 st14 st15">FOREVER</tspan></text>
			<text transform="matrix(1 0 0 1 813.4599 1127.3713)" class="st10 st14 st15">KALUNGA</text>
			<text transform="matrix(1 0 0 1 949.9638 1136.0381)" class="st10 st14 st15">GREGORY</text>
			<text transform="matrix(1 0 0 1 956.7412 1087.3713)" class="st10 st14 st15">OI</text>
			<text transform="matrix(1 0 0 1 1134.0358 997.3713)"><tspan x="0" y="0" class="st10 st14 st15">PET</tspan><tspan x="-5.4" y="12" class="st10 st14 st15">SHOP</tspan><tspan x="-4.5" y="24" class="st10 st14 st15">LOVE</tspan></text>
			<text transform="matrix(1 0 0 1 1073.3092 994.7047)"><tspan x="0" y="0" class="st10 st14 st15">MR.</tspan><tspan x="-10.6" y="12" class="st10 st14 st15">TENNIS</tspan></text>
			<text transform="matrix(1 0 0 1 925.6966 1043.3713)" class="st10 st14 st15">CLARO</text>
			<text transform="matrix(1 0 0 1 905.9371 990.038)" class="st10 st14 st15">ZELO</text>
			<text transform="matrix(1 0 0 1 1006.7858 931.3713)" class="st10 st14 st15">MULTICOISAS</text>
			<text transform="matrix(1 0 0 1 1034.1621 852.7047)" class="st10 st14 st15">DROGASIL</text>
			<text transform="matrix(1 0 0 1 874.3854 920.7047)"><tspan x="0" y="0" class="st10 st14 st15">GABRIELLA</tspan><tspan x="1.4" y="12" class="st10 st14 st15">CALÇADOS</tspan></text>
			<text transform="matrix(1 0 0 1 881.2741 855.3714)" class="st10 st14 st15">SAMSUNG</text>
			<text transform="matrix(1 0 0 1 889.8467 811.3713)"><tspan x="0" y="0" class="st10 st14 st15">DENY</tspan><tspan x="2.3" y="12" class="st10 st14 st15">KIDS</tspan></text>
			<text transform="matrix(1 0 0 1 836.7878 774.038)" class="st10 st14 st15">TENT BEACH</text>
			<text transform="matrix(1 0 0 1 842.1032 720.038)"><tspan x="0" y="0" class="st10 st14 st15">TIM AQUILON</tspan><tspan x="8.1" y="12" class="st10 st14 st15">CELULARES</tspan></text>
			<text transform="matrix(1 0 0 1 863.9805 678.7047)" class="st10 st14 st15">COMMCENTER</text>
			<text transform="matrix(1 0 0 1 855.0589 646.7047)"><tspan x="0" y="0" class="st10 st14 st15">ÓTICA</tspan><tspan x="-10.1" y="12" class="st10 st14 st15">MARIANA</tspan></text>
			<text transform="matrix(1 0 0 1 824.944 695.3714)" class="st10 st14 st15">ROCKLASER</text>
			<text transform="matrix(1 0 0 1 777.4079 708.7047)" class="st10 st14 st15">MALWEE</text>
			<text transform="matrix(1 0 0 1 739.7067 717.3713)"><tspan x="0" y="0" class="st10 st14 st15">LE</tspan><tspan x="-21.9" y="12" class="st10 st14 st15">POSTICHE</tspan></text>
			<text transform="matrix(1 0 0 1 996.6846 736.7047)" class="st10 st14 st15">RAGAZZO</text>
			<text transform="matrix(1 0 0 1 976.999 693.3714)"><tspan x="0" y="0" class="st10 st14 st15">NUVEM DE</tspan><tspan x="-5.8" y="12" class="st10 st14 st15">BRIGADEIRO</tspan></text>
			<text transform="matrix(1 0 0 1 969.6575 658.038)"><tspan x="0" y="0" class="st10 st14 st15">WORLD</tspan><tspan x="-0.2" y="12" class="st10 st14 st15">TENNIS</tspan></text>
			<text transform="matrix(1 0 0 1 950.7204 611.3714)" class="st10 st14 st15">BALONE</text>
			<text transform="matrix(1 0 0 1 932.3525 578.038)"><tspan x="0" y="0" class="st10 st14 st15">CHIQUINHO</tspan><tspan x="7" y="12" class="st10 st14 st15">SORVETES</tspan></text>
			<text transform="matrix(1 0 0 1 754.4928 1202.038)" class="st10 st14 st15">HAVAIANAS</text>
			<text transform="matrix(1 0 0 1 638.2372 1223.3715)" class="st10 st14 st15">SPIKES</text>
			<text transform="matrix(1 0 0 1 460.164 1196.0381)" class="st10 st14 st15">LÍQUIDO</text>
			<text transform="matrix(1 0 0 1 485.6389 1162.0381)" class="st10 st14 st15">CVC</text>
			<text transform="matrix(1 0 0 1 504.4023 1092.7047)"><tspan x="0" y="0" class="st10 st14 st15">MUNDO</tspan><tspan x="4.8" y="12" class="st10 st14 st15">VERDE</tspan></text>
			<text transform="matrix(1 0 0 1 524.1989 1072.0381)" class="st10 st14 st15">MARTINEZ</text>
			<text transform="matrix(1 0 0 1 570.0856 1009.3713)" class="st10 st14 st15">TIP TOP</text>
			<text transform="matrix(1 0 0 1 670.3847 874.038)" class="st10 st14 st15">PONTAL</text>
			<text transform="matrix(1 0 0 1 692.5335 794.038)" class="st10 st14 st15">GARBO</text>
			<text transform="matrix(1 0 0 1 577.1709 805.3713)"><tspan x="0" y="0" class="st10 st14 st15">MARRY</tspan><tspan x="5.3" y="12" class="st10 st14 st15">BABY</tspan></text>
			<text transform="matrix(1 0 0 1 580.6396 784.7047)" class="st10 st14 st15">ARF</text>
			<text transform="matrix(1 0 0 1 560.8242 756.7047)"><tspan x="0" y="0" class="st10 st14 st15">CECILIA</tspan><tspan x="-0.2" y="12" class="st10 st14 st15">BARROS</tspan></text>
			<text transform="matrix(1 0 0 1 590.7291 741.3714)" class="st10 st14 st15">FOFINHAS</text>
			<text transform="matrix(1 0 0 1 581.2487 714.7047)"><tspan x="0" y="0" class="st10 st14 st15">ÓTICAS</tspan><tspan x="-2.6" y="12" class="st10 st14 st15">CARELLI</tspan></text>
			<text transform="matrix(1 0 0 1 638.4163 707.3714)"><tspan x="0" y="0" class="st10 st14 st15">PILHAS</tspan><tspan x="4.6" y="12" class="st10 st14 st15">&amp; CIA</tspan></text>
			<text transform="matrix(1 0 0 1 611.417 677.3714)"><tspan x="0" y="0" class="st10 st14 st15">MARIA DAS</tspan><tspan x="11.8" y="12" class="st10 st14 st15">UNHAS</tspan></text>
			<text transform="matrix(1 0 0 1 666.4134 605.3714)" class="st10 st14 st15">OVERCOME</text>
			<text transform="matrix(1 0 0 1 854.5934 444.7047)" class="st10 st14 st15">CENTAURO</text>
			<text transform="matrix(1 0 0 1 725.1556 752.7047)"><tspan x="0" y="0" class="st10 st14 st15">JK</tspan><tspan x="-23.1" y="12" class="st10 st14 st15">ALIANÇAS</tspan></text>
			<text transform="matrix(1 0 0 1 497.2044 923.3713)"><tspan x="0" y="0" class="st10 st14 st15">CACAU</tspan><tspan x="2.2" y="12" class="st10 st14 st15">SHOW</tspan></text>
			<text transform="matrix(1 0 0 1 511.136 880.7047)" class="st10 st14 st15">COTAÇÃO</text>
			<text transform="matrix(1 0 0 1 478.248 851.3713)"><tspan x="0" y="0" class="st10 st14 st15">ALL SPORTS</tspan><tspan x="0.1" y="12" class="st10 st14 st15">NUTRITION</tspan></text>
			<text transform="matrix(1 0 0 1 495.1585 820.7047)"><tspan x="0" y="0" class="st10 st14 st15">CARMELIA</tspan><tspan x="14.4" y="12" class="st10 st14 st15">ROSA</tspan></text>
			<text transform="matrix(1 0 0 1 471.9254 895.3713)"><tspan x="0" y="0" class="st10 st14 st15">CAMARIM DA</tspan><tspan x="-4.2" y="12" class="st10 st14 st15">SOBRANCELHA</tspan></text>
			<text transform="matrix(1 0 0 1 485.4443 1119.3713)"><tspan x="0" y="0" class="st10 st14 st15">DOCTOR</tspan><tspan x="10.9" y="12" class="st10 st14 st15">FEET</tspan></text>
			<text transform="matrix(1 0 0 1 349.3248 1144.7047)"><tspan x="0" y="0" class="st10 st14 st15">CASA PÃO QUEIJO</tspan><tspan x="8.5" y="12" class="st10 st14 st15">MELHOR BOLO</tspan></text>
			<text transform="matrix(1 0 0 1 397.9528 1088.038)"><tspan x="0" y="0" class="st10 st14 st15">KINGS</tspan><tspan x="-10.9" y="12" class="st10 st14 st15">SNEAKERS</tspan></text>
			<text transform="matrix(1 0 0 1 413.6956 1043.3713)"><tspan x="0" y="0" class="st10 st14 st15">ROSA &amp;</tspan><tspan x="-2.3" y="12" class="st10 st14 st15">CARVÃO</tspan></text>
			<text transform="matrix(1 0 0 1 439.3808 1007.3713)" class="st10 st14 st15">KID STOK </text>
			<text transform="matrix(1 0 0 1 436.0266 982.038)" class="st10 st14 st15">REI DO MATE </text>
			<text transform="matrix(1 0 0 1 514.0208 1144.7047)"><tspan x="0" y="0" class="st10 st14 st15">GRAND</tspan><tspan x="1.2" y="12" class="st10 st14 st15">STILLO</tspan></text>
			<text transform="matrix(1 0 0 1 533.0765 1255.0381)" class="st10 st14 st15">DORINHO’S</text>
			<text transform="matrix(1 0 0 1 643.4736 1350.0381)"><tspan x="0" y="0" class="st10 st14 st15">COR</tspan><tspan x="4" y="12" class="st10 st14 st15">DA</tspan><tspan x="-6.3" y="24" class="st10 st14 st15">PRATA</tspan></text>
			<text transform="matrix(1 0 0 1 708.1855 1337.0381)"><tspan x="0" y="0" class="st10 st14 st15">PINK</tspan><tspan x="2.9" y="12" class="st10 st14 st15">MIX</tspan></text>
			<text transform="matrix(1 0 0 1 756.3779 1342.0381)" class="st10 st14 st15">FÃ KIDS</text>
			<text transform="matrix(1 0 0 1 819.5956 1298.0381)" class="st10 st14 st15">BARREDS</text>
			<text transform="matrix(1 0 0 1 891.789 1281.0381)" class="st10 st14 st15">ITAÚ</text>
			<text transform="matrix(1 0 0 1 930.1347 1273.0381)" class="st10 st14 st15">TRENDS</text>
			<text transform="matrix(1 0 0 1 958.6562 1239.0381)"><tspan x="0" y="0" class="st10 st14 st15">CITY</tspan><tspan x="-6.3" y="12" class="st10 st14 st15">BEACH</tspan></text>
			<text transform="matrix(1 0 0 1 1047.9814 1203.0381)" class="st10 st14 st15">LUPO</text>
			<text transform="matrix(1 0 0 1 1093.5791 1215.0381)" class="st10 st14 st15">STARBUCKS</text>
			<text transform="matrix(1 0 0 1 1158.9932 1201.0381)" class="st10 st14 st15">MOMENTUM</text>
			<text transform="matrix(1 0 0 1 996.3369 1240.0381)"><tspan x="0" y="0" class="st10 st14 st15">AMERICAN</tspan><tspan x="12.7" y="12" class="st10 st14 st15">SHOES</tspan></text>
			<text transform="matrix(1 0 0 1 661.582 1324.0381)"><tspan x="0" y="0" class="st10 st14 st15">ÓTICAS</tspan><tspan x="1.8" y="12" class="st10 st14 st15">CAROL</tspan></text>
			<text transform="matrix(1 0 0 1 437.6698 1323.1527)"><tspan x="0" y="0" class="st10 st14 st16">HENRIQUE</tspan><tspan x="13.5" y="10" class="st10 st14 st16">TOYS</tspan></text>
			<text transform="matrix(1 0 0 1 472.7048 1072.4861)" class="st10 st14 st16">BOB’S</text>
			<text transform="matrix(1 0 0 1 615.3494 839.8194)"><tspan x="0" y="0" class="st10 st14 st16">A</tspan><tspan x="-23.2" y="12" class="st10 st14 st16">ROCHINHA</tspan></text>
			<text transform="matrix(1 0 0 1 644.7126 775.8194)" class="st10 st14 st16">YOGGI</text>
			<text transform="matrix(1 0 0 1 703.514 669.8194)"><tspan x="0" y="0" class="st10 st14 st16">MC</tspan><tspan x="-16.6" y="12" class="st10 st14 st16">DONALD’S</tspan></text>
			<text transform="matrix(1 0 0 1 745.1729 629.1527)" class="st10 st14 st16">MAYBELLINE</text>
			<text transform="matrix(1 0 0 1 520.4139 1319.1527)"><tspan x="0" y="0" class="st10 st14 st16">RILIX</tspan><tspan x="-8.7" y="10" class="st10 st14 st16">COASTER</tspan></text>
			<text transform="matrix(1 0 0 1 600.9797 1283.8195)"><tspan x="0" y="0" class="st10 st14 st16">LOUCOS</tspan><tspan x="9.7" y="10" class="st10 st14 st16">POR</tspan><tspan x="-3.5" y="20" class="st10 st14 st16">CHURROS</tspan></text>
			<text transform="matrix(1 0 0 1 689.4589 1262.1527)" class="st10 st14 st16">BRINCAR</text>
			<text transform="matrix(1 0 0 1 823.2172 1238.1527)" class="st10 st14 st16">VULT</text>
			<text transform="matrix(1 0 0 1 928.1249 1197.1527)"><tspan x="0" y="0" class="st10 st14 st16">MR.</tspan><tspan x="-13.3" y="10" class="st10 st14 st16">PRETZELS</tspan></text>
			<text transform="matrix(1 0 0 1 977.6635 1179.1527)"><tspan x="0" y="0" class="st10 st14 st16">ANIMAL</tspan><tspan x="6.4" y="10" class="st10 st14 st16">TOUR</tspan></text>
			<text transform="matrix(1 0 0 1 1012.2952 1027.1527)"><tspan x="0" y="0" class="st10 st14 st16">ART IN</tspan><tspan x="4.4" y="10" class="st10 st14 st16">CASE</tspan></text>
			<text transform="matrix(1 0 0 1 966.9219 882.4861)"><tspan x="0" y="0" class="st10 st14 st16">EMPÓRIO</tspan><tspan x="4.2" y="10" class="st10 st14 st16">DO AÇO</tspan></text>
			<text transform="matrix(1 0 0 1 948.9815 801.1527)"><tspan x="0" y="0" class="st10 st14 st16">BALCÃO DE</tspan><tspan x="-8.8" y="10" class="st10 st14 st16">INFORMACOES</tspan></text>
			<text transform="matrix(1 0 0 1 894.21 643.1527)" class="st10 st14 st16">MOTOROLA</text>
			<g>
				<text transform="matrix(1 0 0 1 260.9853 1405.661)" class="st10 st14 st17">C&amp;A</text>
			</g>
			<g>
				<text transform="matrix(1 0 0 1 1283.4608 1150.6738)" class="st10 st14 st17">MARISA</text>
			</g>
			<g>
				<text transform="matrix(1 0 0 1 691.9625 1003.6812)" class="st10 st14 st17">FAST SHOP</text>
			</g>
			<g>
				<text transform="matrix(1 0 0 1 691.7513 468.7063)" class="st10 st14 st17">RIACHUELO</text>
			</g>
		</g>
	</g>
</g>
</svg>
