<?xml version="1.0" encoding="utf-8"?>
<!-- Generator: Adobe Illustrator 21.1.0, SVG Export Plug-In . SVG Version: 6.00 Build 0)  -->
<svg version="1.1" xmlns="http://www.w3.org/2000/svg" xmlns:xlink="http://www.w3.org/1999/xlink" x="0px" y="0px"
	 viewBox="0 0 1473.9 1900" style="enable-background:new 0 0 1473.9 1900;" xml:space="preserve">
<style type="text/css">
	.st0{clip-path:url(#SVGID_2_);}
	.st1{fill:none;stroke:#FFFFFF;stroke-width:30;stroke-linecap:round;stroke-linejoin:round;stroke-miterlimit:10;}
	.st2{fill:#E7E8EA;stroke:#ADADAD;stroke-width:2;stroke-linecap:round;stroke-linejoin:round;stroke-miterlimit:10;}
	.st3{fill:#BDA9CD;}
	.st4{fill:#E6E6E6;}
	.st5{opacity:0.5;}
	.st6{fill:#8C61B3;}
	.st7{fill:#7F7F7F;}
	.st8{font-family:'DroidSans';}
	.st9{font-size:26px;}
	.st10{fill:#FFFFFF;stroke:#ADADAD;stroke-width:2;stroke-linecap:round;stroke-linejoin:round;stroke-miterlimit:10;}
	.st11{fill:#FFFFFF;}
	.st12{fill:none;stroke:#FFFFFF;stroke-width:3;stroke-linecap:round;stroke-linejoin:round;}
	.st13{font-family:'DroidSans-Bold';}
	.st14{font-size:16px;}
	.st15{font-size:12px;}
	.st16{font-size:10px;}
</style>
<g id="Piso_2_Base">
	<g>
		<defs>
			<rect id="SVGID_1_" x="-0.6" width="1475.2" height="1900"/>
		</defs>
		<use xlink:href="#SVGID_1_"  style="overflow:visible;fill:#E5E5E5;"/>
		<clipPath id="SVGID_2_">
			<use xlink:href="#SVGID_1_"  style="overflow:visible;"/>
		</clipPath>
		<g class="st0">
			<path class="st1" d="M1456.5,1286.4l-37.8-52.3c0,0,64.6-192,29.4-322.7s-70.4-273.1-101.1-311.2s-49.7-52.4-4.5-80.7
				c45.2-28.3,99.8-49.5,123.6-49.5s96.9,135.6,127.5,209.2s61.3,147.3,68.2,209s28.2,104.5,54.1,168.7
				c30.1,74.5,35.3,95,37.6,123.5c2.3,28.5,11.9,0,40.4-2.3c28.5-2.3,28.5-2.3,28.5-2.3"/>
			<path class="st1" d="M1766.6,741.5c0,0-50.3,161.2-52.7,168.3s141.4,344.5,141.4,344.5l-14.4,54.5c0,0-444.5,226.5-494.3,245.4
				c-49.9,18.8-168.5-5.2-246.9,27.8c-78.4,33-195.2,191.7-195.2,191.7L712,1875.2l-99.6-21.6l2.6-66.4"/>
			<path class="st1" d="M913.8,1863.9l43-92.4l100-97c0,0,109.4-66.1,164-75.5c54.6-9.3,125.9-44.7,125.9-44.7"/>
			<line class="st1" x1="1463" y1="1502.4" x2="1505.4" y2="1611.7"/>
			<path class="st1" d="M183,164.9l49.6,76.1l163.5,102.5c0,0,78.4-21.1,125.9-44.7c47.5-23.6,211.5-87.2,211.5-87.2l370.2-6
				l56.7,102.2"/>
			<path class="st1" d="M401.6,1715.3c0,0,57.2-87.6,33.7-170.8c-23.5-83.1-339.6-720.1-339.6-720.1S72.1,765,10.4,748.2
				c-61.7-16.8-90.1-26.4-90.1-26.4"/>
			<path class="st1" d="M-202.3,439.1l740.6,1575.6c0,0,61.6,52.4,80.6,43c19-9.4,1335.7-674.8,1335.7-674.8l42.9-68.7l21.7-111.5
				L1243-361.2L-161.6,330L-202.3,439.1z"/>
			<polyline class="st1" points="741.4,2376 689.3,2330.8 628,2195.3 666.1,2140.8 1916.2,1532.2 1989.7,1560.9 2032.1,1658.3 			
				"/>
			<path class="st1" d="M2759.1,1392.3l-163.6-55.1l-109-64.4l-94.4-190.1l-821-1666l-75.9-21.6l-306.6,146.2L-94.7,166.5
				l-168.6,42.2c0,0,26,28.6,47.3,47.6s35.4,83.2,35.4,83.2l-14.1-64.1l-68.6-66.7l-71.1-23.9l-73.7,30.6L-467.7,322l23.4,106.9
				l56.8,54.8l121,5.1l64.2-49.7"/>
			<line class="st1" x1="-991.4" y1="3301.3" x2="2809" y2="1397.2"/>
			<line class="st1" x1="-908.9" y1="3479.5" x2="2903.3" y2="1587.3"/>
			<line class="st1" x1="-2328" y1="190.8" x2="545.4" y2="-1229.5"/>
			<polyline class="st1" points="-1765.9,1132.2 -1670.7,1049.5 -582.2,521 -361.4,488.4 -269.1,578.9 445.6,2066.6 421.7,2149.6 
				499.8,2223.4 535.3,2235.4 628,2195.3 649.6,2119.4 618.9,2057.6 538.3,2014.7 450.4,2064.3 			"/>
			<polyline class="st1" points="-1813.5,1191.4 -1738.3,1426.6 -1068.3,2812.2 -990,2802.9 -759.5,2718.1 -362.7,2527.1 
				421.7,2149.6 			"/>
			<polyline class="st1" points="-628.5,1728.9 -571.1,1593.8 -64.9,1348.4 103.6,1365.5 			"/>
			<line class="st1" x1="-64.9" y1="1348.4" x2="23.4" y2="1192"/>
		</g>
		
			<use xlink:href="#SVGID_1_"  style="overflow:visible;fill:none;stroke:#FFFFFF;stroke-width:2;stroke-linecap:round;stroke-linejoin:round;stroke-miterlimit:10;"/>
	</g>
	<path class="st2" d="M46,575.7l244.7,524.7l212.8-51.2c0,0,3.9,19,9,47.5c7.8,44.2,26.3,109.8,59.1,173.7
		c19.6,38.1,43.6,75.9,75.3,107.4c105.5,116.3,241,168.9,350.4,169.2c51.1,0.9,115.6-16.2,115.6-16.2l1.3-20.7l184.7,22.3
		l33.7-205.5l8.3-47.7l-41.4-7.2l13.4-107.1l-10.3-36.2l-19.3-72l20.7-5.3l2.5-46.5c0,0,3.6-110.9-12.2-199.4
		c-9.4-52.5-27.5-96.5-47.1-139.6c-15.4-33.8-32.2-69.1-43.4-93c-25.4-54.4-147.3-317.3-147.3-317.3l-171.9,80.1l24.9,54l-101,46.4
		l-28-9.7l-72.8-158.7L46,575.7z"/>
	<path class="st3" d="M543.3,539.5l12,51l84.2,354l-151.3,35.8l14.3,68.3c0,0,22.8,101.3,28.8,129.8c6,28.5,73.5,94.5,73.5,94.5
		l391.5,198l217.5,6l45-97.5l22.5-139.5l30.6-75.4l-14.1-50.6l-37.5-7.5l-18-66l-24.4-206.3l77-17.9c0,0-10.6-69.8-19.6-87.8
		s-19.5-42-19.5-42L1173.2,580l-206.1-32.5c0,0-53.4-35-117.9-56c-14-4.6-91.5-27-139.5-27C661.8,464.5,543.3,539.5,543.3,539.5z"/>
	<path class="st4" d="M755.8,932.9l19.3-5.5l106,160.2l28.7-23.3l42.8-19.8l111-87.5l74.8,79.3l8,34.7l-53.3,27.3l-5.3-6.7
		l-27.3,13.4l-8.2-17.5l-94.6,44.1l20.4,45.4l23.7,26l-12.7,37.3l-16-0.8l-51.3-80.5l-75.3,22.7l-17.8-15.7L755.8,932.9z
		 M665.8,750.2l6.7,32l74.7,82.7l110.5-87l62.1-28.4l114.7,146l24.7-6l-80.5-239.2c0,0-9.5-8.8-12.8-10.2
		c-3.3-1.3-65.3,32.7-65.3,32.7l-63.3-89.5l-8-0.5l-5.3,40l32,69.3l-136,61.3l-12.2-21.7L665.8,750.2z"/>
	<g class="st5">
		<polygon class="st6" points="1111.2,792.2 1092.8,800.7 1083.3,780.3 1101.7,771.9 		"/>
		<polygon class="st6" points="1145.2,890.6 1128.5,898.9 1120,880.7 1137.2,872.9 		"/>
		
			<rect x="716.2" y="1048.2" transform="matrix(0.9063 -0.4226 0.4226 0.9063 -379.7134 405.0497)" class="st6" width="15" height="21.5"/>
		<polygon class="st6" points="687.7,943.9 671.3,951.9 661.2,930.9 678.2,922.9 		"/>
		
			<rect x="605.8" y="593.5" transform="matrix(0.9063 -0.4226 0.4226 0.9063 -198.0475 316.2624)" class="st6" width="17" height="22.5"/>
		<polygon class="st6" points="1209.6,1224.9 1194.5,1231.9 1184.5,1211.7 1199.6,1204.6 		"/>
	</g>
	<text transform="matrix(0.8017 -0.4091 0.4545 0.8907 1262.7656 1865.1456)" class="st7 st8 st9">Av. Carlos Zara</text>
	<text transform="matrix(0.8032 -0.4061 0.4513 0.8924 152.2003 188.0556)" class="st7 st8 st9">Av. José Wilker</text>
	<g>
		<polygon class="st10" points="458.2,382.6 542.2,558.4 706.2,482.9 690.6,449.8 773.5,413.2 706.5,267.2 		"/>
		<path class="st10" d="M248.2,1011.6l59-27.2c-4.5-12-9-21.5-9-21.5l142.5-65.5l43,93l8.5-2.5l10.3,60.8l-212.8,51.2L248.2,1011.6z
			"/>
		<polygon class="st10" points="542.6,883.2 617.2,847.9 625.5,883.9 579.2,904.9 588.8,927.6 568.8,937.6 		"/>
		<polygon class="st10" points="568.8,937.6 578.7,958.9 639.5,944.6 630.5,907.2 		"/>
		<polygon class="st10" points="567.2,961.9 376.5,550.9 389.2,544.4 383.2,532.4 88.8,669.2 231.8,975.6 441.2,880.4 488.2,980.4 
					"/>
		<polygon class="st10" points="538.7,818.4 516.7,828.4 542.6,883.2 617.2,847.9 602.7,788.9 		"/>
		<polygon class="st10" points="624.8,520.2 542.2,558.6 515.2,501.9 598.2,464.9 		"/>
		<path class="st10" d="M706.2,482.9l-15.6-33.1l27.6-11.9l16.5,38c0,0-6.1,0.4-11.8,1C717.7,477.4,706.2,482.9,706.2,482.9z"/>
		<path class="st10" d="M815.7,451.4l-6.2-16.8l33.7-15.7l12,25.5l-17,44.5c0,0-29.5-6.6-33.5-7.5
			C807.7,473.9,815.7,451.4,815.7,451.4z"/>
		<path class="st10" d="M846.7,490.9c0,0,22.6,7.3,35,12c28,10.5,77,40,77,40l37.5-81l-19.5-41.5l-29.1,12.5l-14.3-30.6l-5.6,3.1
			l-8-14l-66.5,30l10,23.5L846.7,490.9z"/>
		<path class="st10" d="M967.1,547.6l39.2-88.9l-35.9-76.1l43.4-20.3l-33-72.7l74.3-34.3l33.1,69.2l116.9,252.8l-87.1,38.9
			l-17.9-38.3l-65,30c0,0-30.1-31.7-43.3-42.1S967.1,547.6,967.1,547.6z"/>
		<path class="st10" d="M1035.2,607.9c0,0,7.7,9.7,16,20.3c4.2,5.4,10.7,14.3,10.7,14.3l56.3-26.3l-18-38.3L1035.2,607.9z"/>
		<path class="st10" d="M1061.5,642.6c0,0,3.3,5.7,8.3,13.4c3.7,5.6,7.2,11.7,7.2,11.7l43.1-20.1l-13.3-25.7L1061.5,642.6z"/>
		<polygon class="st10" points="1077.2,667.6 1092.4,694.3 1133.1,674.9 1120.3,647.5 		"/>
		<polygon class="st10" points="1104.5,720.9 1117.2,747.6 1172.5,733.6 1155.2,697.6 		"/>
		<path class="st10" d="M1201.8,726.2l64.1-15.3c0,0-15.4-36.4-22.7-52c-7.3-15.6-38.3-81.7-38.3-81.7l-46.5,20.8l25.6,54.3
			l-13.6,6.3L1201.8,726.2z"/>
		<path class="st10" d="M1294.8,816.3l-69,15.6l55.3,219l21.7-6c0,0,2.1-57.2,2.3-73.3c0.3-29-3-95.8-4.8-110.4
			C1298.5,846.6,1294.8,816.3,1294.8,816.3z"/>
		<polygon class="st10" points="1163.8,847.6 1217.8,834.2 1225.2,866.9 1171.2,879.2 		"/>
		<polygon class="st10" points="1170.8,878.9 1179.2,913.6 1233.8,900.9 1225.2,866.9 		"/>
		<polygon class="st10" points="1179.2,913.6 1186.2,943.2 1241.2,930.2 1233.8,900.9 		"/>
		<polygon class="st10" points="1192.8,972.6 1186.2,943.2 1241.2,930.2 1247.8,959.2 		"/>
		<polygon class="st10" points="1192.8,972.6 1200.5,1002.2 1254.8,988.9 1247.8,959.2 		"/>
		<polygon class="st10" points="1200.5,1002.2 1207.5,1030.9 1262.2,1018.6 1254.8,988.9 		"/>
		<polygon class="st10" points="1207.5,1030.9 1214.8,1060.9 1254.2,1051.6 1254.2,1051.6 1269.5,1048.2 1262.2,1018.6 		"/>
		<polygon class="st10" points="1214.8,1060.9 1221.5,1090.2 1261.2,1080.6 1254.2,1051.6 		"/>
		<polygon class="st10" points="1221.5,1090.6 1227.7,1115.4 1282.5,1101.6 1275.8,1076.9 		"/>
		<polygon class="st10" points="1227.5,1115.6 1237.2,1151.4 1300.2,1123.4 1294.2,1100.4 1290.2,1086.4 1279.2,1089.2 
			1282.2,1101.6 		"/>
		<polygon class="st10" points="1249.8,1208.9 1307.5,1195.2 1311.8,1164.6 1243.2,1180.6 		"/>
		<polygon class="st10" points="1262.5,1265.6 1185.2,1301.6 1204.8,1341.6 1264.2,1314.2 1331.5,1326.6 1339.8,1278.9 
			1298.5,1271.7 1304.8,1218.9 1254.8,1230.9 		"/>
		<polygon class="st10" points="1264.2,1314.2 1331.5,1326.6 1299.2,1526.4 1034.2,1494.2 1048.2,1431.2 1129.5,1394.9 
			1102.8,1339.2 1185.2,1301.6 1204.8,1341.6 		"/>
		<path class="st10" d="M1065.2,1345.9c0,0,17.1-0.1,22.7-0.3c6.1-0.3,15-6.3,15-6.3l22.7,48.3l-43.3,19.3l-20.7-45.7L1065.2,1345.9
			z"/>
		<path class="st10" d="M1023.5,1380.9l23.7-11.3l6-24c0,0-10.3-0.3-15-0.7c-2.4-0.2-14.3-1.3-14.3-1.3l-6.7,24.3L1023.5,1380.9z"/>
		<path class="st10" d="M1023.8,1343.6l-6.7,24.3l31,63.3l-25.5,114.2c0,0-66,9.5-159-22c-32.3-11-77-35-77-35l15.2-26.8l-36-21.3
			l-17.2,25.7c0,0-29.9-20.5-40.5-29c-10.6-8.5-31.4-28.9-39-36c-7.6-7.1-19.6-19.5-23.3-23.5c-3.7-4-11.2-11.5-11.2-11.5l-13-15
			l97.5-46l12.7,6.7l29.3-55.3l38.7-18c0,0,50.7,46,101.3,69.3C948.3,1329.3,1023.8,1343.6,1023.8,1343.6z"/>
		<path class="st10" d="M761.2,1256.2l38.7-18c0,0-21.5-22.6-26-28c-10.7-12.7-25.2-31.3-25.2-31.3l-46.3,22.4l-51.2,23.6l-19.5,9.5
			l-7-14.5l-64,30c0,0,20.2,40.3,35,64c9.5,15.2,26,37,26,37l97.5-46l12.7,6.7L761.2,1256.2z"/>
		<path class="st10" d="M702.2,1200.9l-18.5-40l42-19.5c0,0,8.9,16.7,12.5,22.5c3.6,5.8,10.5,15,10.5,15L702.2,1200.9z"/>
		<polygon class="st10" points="683.7,1160.9 661.2,1113.9 706.7,1102.9 725.7,1141.4 		"/>
		<path class="st10" d="M643.2,1210.4l-15.5-35l-20.5,9l-24.5-51.5l-59.2,14c0,0,8.9,34,15.7,52c6.7,18,16.1,39.9,21.5,51
			C577.7,1242.4,643.2,1210.4,643.2,1210.4z"/>
		<polygon class="st10" points="582.7,1132.9 616.2,1124.4 638.2,1170.4 607.2,1184.4 		"/>
		<polygon class="st10" points="616.2,1124.4 652.2,1115.9 670.2,1156.4 638.2,1170.4 		"/>
		<polygon class="st10" points="1085.7,1063.9 1095.2,1085.4 1144.2,1062.9 1136.2,1031.4 1105.2,1045.9 1108.7,1053.4 		"/>
		<polygon class="st10" points="1151.7,1092.9 1172.2,1182.9 1098.7,1216.9 1056.2,1235.9 1039.2,1200.9 1019.2,1157.9 
			1101.2,1121.4 1100.7,1114.9 		"/>
		<path class="st10" d="M981.7,1239.9l10.5-34l-14-29l41-19l37,78c0,0-19.5,5.5-43,5.5C998.2,1241.4,981.7,1239.9,981.7,1239.9z"/>
		<path class="st10" d="M928.7,1228.9l10.5-27l-13.5-30.5l33-15.5l24,51l-9.5,32.5c0,0-13.3-1.8-22-3.5
			C943.7,1234.4,928.7,1228.9,928.7,1228.9z"/>
		<polygon class="st10" points="795.2,993.9 743.2,1017.9 755.7,1046.4 807.7,1021.9 		"/>
		<polygon class="st10" points="783.7,967.4 731.7,991.4 743.2,1017.9 795.2,994.4 		"/>
		<polygon class="st10" points="731.7,991.9 713.7,952.9 717.7,941.4 737.7,936.9 757.7,979.9 		"/>
		<polygon class="st10" points="718.2,889.4 695.7,880.9 689.2,848.4 730.7,828.9 747.2,864.9 		"/>
		<polygon class="st10" points="689.2,848.4 681.7,818.4 718.2,801.9 730.7,828.9 		"/>
		<polygon class="st10" points="674.7,789.9 667.2,758.4 703.7,742.4 713.7,764.4 703.2,769.4 706.2,775.9 		"/>
		<polygon class="st10" points="757,689 753.7,681.7 746.7,684.9 761.2,716 766.1,713.7 768.1,712.7 847.5,675.7 836.4,651.9 		"/>
		
			<rect x="750.9" y="697.3" transform="matrix(0.9063 -0.4226 0.4226 0.9063 -223.1781 405.7856)" class="st10" width="105.4" height="17.8"/>
		<polygon class="st10" points="653.7,700.4 639.2,639.9 674.2,623.9 699.7,679.4 		"/>
		<path class="st10" d="M834.2,644.9l-10-22l5-40c0,0-23.3-3.3-34-3c-21,0.5-39,5.5-39,5.5l-82,38.5l35.5,77l44-19.2l2.1,4.5
			l34.9-17.3l-6.5-12l7.5-4l4.5,9L834.2,644.9z"/>
		<path class="st10" d="M837.2,583.4c0,0,17.4,2.4,24,4c8.5,2,21,6,21,6l-10,28l13.5,28.5l-32.5,16l-20-44L837.2,583.4z"/>
		<path class="st10" d="M872.2,621.4l10-28c0,0,13.5,4.5,21.5,8c8.2,3.6,19,8.5,19,8.5l-16.5,31l-20.5,9L872.2,621.4z"/>
		<path class="st10" d="M868.2,658.9l13,27l90.5-41.5c0,0-13.5-12.5-23-19c-9.5-6.5-26-15.5-26-15.5l-16.5,31L868.2,658.9z"/>
		<polygon class="st10" points="1069.2,804.4 1018.2,828.4 1004.7,799.9 1056.2,775.9 		"/>
		<polygon class="st10" points="1029.7,853.9 1081.2,830.4 1069.2,804.4 1018.2,828.4 		"/>
		<polygon class="st10" points="1063.7,956.9 1081.2,993.9 1122.7,973.9 1114.7,941.4 1094.2,932.9 		"/>
		<polygon class="st10" points="1081.2,993.9 1093.2,1019.9 1129.7,1003.4 1122.7,973.9 		"/>
		<polygon class="st10" points="1093.2,1019.9 1105.2,1045.9 1136.2,1031.4 1129.7,1003.4 		"/>
		
			<rect x="957" y="1108.6" transform="matrix(0.9063 -0.4226 0.4226 0.9063 -378.0362 531.2681)" class="st10" width="104.3" height="19.3"/>
		
			<rect x="966.5" y="1127.3" transform="matrix(0.9063 -0.4226 0.4226 0.9063 -386.848 535.6652)" class="st10" width="96.3" height="26"/>
		<polygon class="st10" points="1092.4,694.3 1104.5,720.9 1145.2,702.2 1133.1,674.9 		"/>
		<polygon class="st10" points="1249.8,1208.9 1254.8,1230.9 1304.8,1218.9 1307.5,1195.2 		"/>
		<polygon class="st10" points="625.7,883.4 630.5,907.6 588.5,927.2 579.2,904.9 		"/>
		<polygon class="st10" points="602.8,789.2 584.7,713.4 562.7,723.4 531.7,656.4 454.2,692.2 516.7,828.4 		"/>
		<polygon class="st10" points="545.2,685.6 574.7,671.4 584.7,713.4 563.2,722.9 		"/>
		<polygon class="st10" points="531.7,656.4 566.7,639.4 574.7,671.4 545.2,685.4 		"/>
		<polygon class="st10" points="454.2,692.4 392.2,559.4 504.2,507.9 536.7,576.9 550.2,570.9 566.8,639.6 		"/>
		<path class="st10" d="M718.2,437.9l16.5,38c0,0,14.7-0.3,18.8-0.3c7.5,0,21,1.3,21,1.3l17.7-46.3l-13-4.7l-5.7-12.7L718.2,437.9z"
			/>
		<polygon class="st10" points="792.2,430.6 807.2,435.6 809.5,434.6 815.7,451.4 804.7,481.4 774.2,476.9 		"/>
		<path class="st10" d="M889.7,1211.9c0,0,11.5,6,22,10s17,7,17,7l11-27.5l-14-30l-20.5,9L889.7,1211.9z"/>
		<path class="st10" d="M889.7,1211.9l15.5-31.5l33.5-15l-13-28l-86.5,40c0,0,15,13.5,25.5,20S889.7,1211.9,889.7,1211.9z"/>
		<polygon class="st10" points="1057.2,962.4 1064.7,979.4 1057.2,982.4 1084.2,1043.9 1054.2,1058.4 1021.7,988.9 		"/>
		<polygon class="st10" points="999.2,1007.9 1021.7,988.9 1054.2,1057.9 1029.7,1069.4 		"/>
		<polygon class="st10" points="977.7,1024.9 999.2,1007.9 1029.7,1069.4 1004.2,1081.4 		"/>
		<polygon class="st10" points="952.7,1044.4 977.7,1024.9 1004.2,1081.9 976.7,1094.9 		"/>
		<polygon class="st10" points="922.7,1058.4 952.7,1044.4 977.2,1094.9 954.2,1105.4 940.7,1076.9 932.7,1080.4 		"/>
		<polygon class="st10" points="916.7,1061.4 926.7,1084.4 918.7,1087.9 928.2,1109.4 901.2,1122.4 904.2,1128.4 874.2,1142.9 
			829.2,1044.4 871.7,1024.9 893.7,1072.4 		"/>
		<polygon class="st10" points="816.7,1017.4 829.2,1044.4 871.7,1024.9 859.7,997.9 		"/>
		<polygon class="st10" points="816.7,1017.4 804.2,990.9 847.7,970.9 859.7,997.9 		"/>
		<polygon class="st10" points="791.2,962.4 804.7,990.9 847.7,970.9 835.7,943.9 		"/>
		<polygon class="st10" points="775.2,927.4 823.2,916.9 835.2,943.9 791.7,962.9 		"/>
		<polygon class="st10" points="737.7,936.9 765.2,929.9 783.7,967.4 757.7,979.9 		"/>
		<polygon class="st10" points="755.7,1046.4 767.2,1072.9 820.2,1048.9 808.2,1021.9 		"/>
		<polygon class="st10" points="767.2,1072.9 779.2,1100.4 832.2,1076.4 820.2,1048.9 		"/>
		<path class="st10" d="M779.2,1100.4c0,0,3.5,6.5,7,13s7,11.5,7,11.5l51-22.5l-11.5-26L779.2,1100.4z"/>
		<path class="st10" d="M793.7,1124.9c0,0,5,7.5,10.5,14.5c5,6.4,8,10,8,10l44-20.5l-12-26.5L793.7,1124.9z"/>
		<path class="st10" d="M812.2,1149.4c0,0,11,11,16.5,16.5s5.5,5.5,5.5,5.5l27.5-12l-12.5-27.5L812.2,1149.4z"/>
		<polygon class="st10" points="674.7,789.9 681.7,818.9 717.7,802.4 705.7,775.9 		"/>
		<polygon class="st10" points="746.2,843.9 753.2,859.9 783.7,835.9 759.2,781.9 733.2,793.4 754.2,840.4 		"/>
		<polygon class="st10" points="726.2,777.4 733.2,793.4 759.2,782.4 783.7,835.9 812.2,813.9 782.7,751.9 		"/>
		<polygon class="st10" points="782.7,751.9 812.2,813.9 835.2,796.9 808.2,739.9 		"/>
		<polygon class="st10" points="834.7,796.4 857.7,777.9 835.2,727.4 807.7,739.9 		"/>
		<polygon class="st10" points="834.2,727.9 857.2,717.9 870.2,744.9 879.2,741.4 889.2,762.9 857.7,777.9 		"/>
		<polygon class="st10" points="886.2,736.9 896.7,760.4 919.7,749.9 941.2,797.4 984.2,776.4 938.2,679.4 908.7,693.4 911.2,698.9 
			884.2,711.4 894.7,733.9 		"/>
		<polygon class="st10" points="941.2,797.4 953.7,823.9 996.7,803.4 984.2,776.4 		"/>
		<polygon class="st10" points="953.7,823.9 978.7,877.4 1022.2,857.9 996.7,803.4 		"/>
		<polygon class="st10" points="978.7,877.4 991.7,905.4 1038.7,893.9 1022.2,857.9 		"/>
		<polygon class="st10" points="1029.7,854.4 1047.7,891.9 1076.2,885.4 1055.2,841.9 		"/>
		<polygon class="st10" points="1055.2,841.9 1081.2,829.9 1099.2,868.4 1095.7,880.9 1076.2,885.4 		"/>
		<polygon class="st10" points="1004.7,800.4 1056.2,776.9 1043.7,748.9 992.2,772.4 		"/>
		<path class="st10" d="M992.2,772.4l52-23c0,0-10.5-23-16-33c-5.5-10-9-19-10.5-19s-50.5,22-50.5,22L992.2,772.4z"/>
		<path class="st10" d="M950.7,662.4l28-12c0,0,14,12,23,24s16,22.5,16,22.5l-50.5,23l-22-45.5l9.5-5L950.7,662.4z"/>
		<polygon class="st10" points="653.7,700.4 660.2,730.9 712.7,706.9 699.7,679.9 		"/>
		<polygon class="st10" points="707.7,731.9 721.2,760.9 735.2,753.9 721.7,725.4 		"/>
	</g>
	<g>
		<g>
			<circle class="st6" cx="941.3" cy="384.3" r="24.2"/>
			<g>
				<g>
					<path class="st11" d="M930.7,398.6c-0.8,0-1.5-0.7-1.5-1.5v-7.4c0-0.8,0.7-1.5,1.5-1.5h6.6v-7.4c0-0.8,0.7-1.5,1.5-1.5h6.4V373
						c0-0.8,0.7-1.5,1.5-1.5h8.3c0.8,0,1.5,0.7,1.5,1.5s-0.7,1.5-1.5,1.5h-6.8v6.3c0,0.8-0.7,1.5-1.5,1.5h-6.4v7.4
						c0,0.8-0.7,1.5-1.5,1.5h-6.6v5.9C932.2,397.9,931.5,398.6,930.7,398.6z"/>
				</g>
			</g>
		</g>
		<g>
			<circle class="st6" cx="804.4" cy="689.4" r="24.2"/>
			<g>
				<g>
					<g>
						<path class="st11" d="M795,680c1.3,0,2.3-1,2.3-2.3c0-1.3-1-2.3-2.3-2.3c-1.3,0-2.3,1-2.3,2.3C792.7,678.9,793.7,680,795,680z
							 M797.5,680.5l-4.9,0c-1.7,0-3,1.4-3,3v7.2c0,1.4,2,1.4,2,0v-6.6h0.5v18c0,1.9,2.7,1.8,2.7,0v-10.5h0.5v10.5
							c0,1.8,2.7,1.9,2.7,0v-18h0.5v6.6c0,1.4,2,1.4,2,0v-7.1C800.5,682,799.3,680.5,797.5,680.5z"/>
					</g>
				</g>
				<g>
					<g>
						<path class="st11" d="M821.6,689.2l-2-6.6c-0.2-0.7-1.2-2.1-2.8-2.1h-3.2c-1.6,0-2.6,1.3-2.8,2.1l-2,6.6
							c-0.4,1.4,1.4,2,1.8,0.6l1.8-6.1h0.5l-3.1,10.8h2.9l0,7.9c0,1.4,2.2,1.4,2.2,0l0-7.9h0.6v8c0,1.4,2.2,1.4,2.2,0v-7.9h2.9
							l-3.1-10.8h0.5l1.8,6.1C820.2,691.2,822,690.6,821.6,689.2z M815.2,679.9c1.3,0,2.3-1,2.3-2.3c0-1.3-1-2.3-2.3-2.3
							c-1.3,0-2.3,1-2.3,2.3C812.9,678.9,813.9,679.9,815.2,679.9z"/>
					</g>
				</g>
				<g>
					<path class="st11" d="M804.6,705.1c-0.2,0-0.4-0.2-0.4-0.4v-30.5c0-0.2,0.2-0.4,0.4-0.4c0.2,0,0.4,0.2,0.4,0.4v30.5
						C805,704.9,804.8,705.1,804.6,705.1z"/>
				</g>
			</g>
		</g>
		<g>
			<circle class="st6" cx="1018.6" cy="1126" r="24.2"/>
			<g>
				<g>
					<g>
						<path class="st11" d="M1009.2,1116.6c1.3,0,2.3-1,2.3-2.3c0-1.3-1-2.3-2.3-2.3c-1.3,0-2.3,1-2.3,2.3
							C1006.9,1115.5,1007.9,1116.6,1009.2,1116.6z M1011.6,1117.1l-4.9,0c-1.7,0-3,1.4-3,3v7.2c0,1.4,2,1.4,2,0v-6.6h0.5v18
							c0,1.9,2.7,1.8,2.7,0v-10.5h0.5v10.5c0,1.8,2.7,1.9,2.7,0v-18h0.5v6.6c0,1.4,2,1.4,2,0v-7.1
							C1014.7,1118.6,1013.5,1117.1,1011.6,1117.1z"/>
					</g>
				</g>
				<g>
					<g>
						<path class="st11" d="M1035.7,1125.8l-2-6.6c-0.2-0.7-1.2-2.1-2.8-2.1h-3.2c-1.6,0-2.6,1.3-2.8,2.1l-2,6.6
							c-0.4,1.4,1.4,2,1.8,0.6l1.8-6.1h0.5l-3.1,10.8h2.9l0,7.9c0,1.4,2.2,1.4,2.2,0l0-7.9h0.6v8c0,1.4,2.2,1.4,2.2,0v-7.9h2.9
							l-3.1-10.8h0.5l1.8,6.1C1034.3,1127.8,1036.2,1127.2,1035.7,1125.8z M1029.3,1116.5c1.3,0,2.3-1,2.3-2.3c0-1.3-1-2.3-2.3-2.3
							c-1.3,0-2.3,1-2.3,2.3C1027.1,1115.5,1028.1,1116.5,1029.3,1116.5z"/>
					</g>
				</g>
				<g>
					<path class="st11" d="M1018.8,1141.7c-0.2,0-0.4-0.2-0.4-0.4v-30.5c0-0.2,0.2-0.4,0.4-0.4c0.2,0,0.4,0.2,0.4,0.4v30.5
						C1019.2,1141.5,1019,1141.7,1018.8,1141.7z"/>
				</g>
			</g>
		</g>
		<g>
			<circle class="st6" cx="1053.8" cy="1404.1" r="24.2"/>
			<g>
				<g>
					<path class="st11" d="M1043.2,1418.4c-0.8,0-1.5-0.7-1.5-1.5v-7.4c0-0.8,0.7-1.5,1.5-1.5h6.6v-7.4c0-0.8,0.7-1.5,1.5-1.5h6.4
						v-6.3c0-0.8,0.7-1.5,1.5-1.5h8.3c0.8,0,1.5,0.7,1.5,1.5s-0.7,1.5-1.5,1.5h-6.8v6.3c0,0.8-0.7,1.5-1.5,1.5h-6.4v7.4
						c0,0.8-0.7,1.5-1.5,1.5h-6.6v5.9C1044.7,1417.7,1044,1418.4,1043.2,1418.4z"/>
				</g>
			</g>
		</g>
		<g>
			<circle class="st6" cx="775.7" cy="1472.1" r="24.2"/>
			<g>
				<g>
					<path class="st11" d="M765.2,1486.4c-0.8,0-1.5-0.7-1.5-1.5v-7.4c0-0.8,0.7-1.5,1.5-1.5h6.6v-7.4c0-0.8,0.7-1.5,1.5-1.5h6.4
						v-6.3c0-0.8,0.7-1.5,1.5-1.5h8.3c0.8,0,1.5,0.7,1.5,1.5s-0.7,1.5-1.5,1.5h-6.8v6.3c0,0.8-0.7,1.5-1.5,1.5h-6.4v7.4
						c0,0.8-0.7,1.5-1.5,1.5h-6.6v5.9C766.6,1485.7,766,1486.4,765.2,1486.4z"/>
				</g>
			</g>
		</g>
		<g>
			<circle class="st6" cx="667.5" cy="1188.2" r="24.2"/>
			<g>
				<g>
					<path class="st11" d="M656.9,1202.5c-0.8,0-1.5-0.7-1.5-1.5v-7.4c0-0.8,0.7-1.5,1.5-1.5h6.6v-7.4c0-0.8,0.7-1.5,1.5-1.5h6.4
						v-6.3c0-0.8,0.7-1.5,1.5-1.5h8.3c0.8,0,1.5,0.7,1.5,1.5s-0.7,1.5-1.5,1.5h-6.8v6.3c0,0.8-0.7,1.5-1.5,1.5h-6.4v7.4
						c0,0.8-0.7,1.5-1.5,1.5h-6.6v5.9C658.4,1201.8,657.8,1202.5,656.9,1202.5z"/>
				</g>
			</g>
		</g>
		<g>
			<circle class="st6" cx="265.7" cy="983.8" r="24.2"/>
			<g>
				<g>
					<path class="st11" d="M255.1,998.1c-0.8,0-1.5-0.7-1.5-1.5v-7.4c0-0.8,0.7-1.5,1.5-1.5h6.6v-7.4c0-0.8,0.7-1.5,1.5-1.5h6.4
						v-6.3c0-0.8,0.7-1.5,1.5-1.5h8.3c0.8,0,1.5,0.7,1.5,1.5c0,0.8-0.7,1.5-1.5,1.5h-6.8v6.3c0,0.8-0.7,1.5-1.5,1.5h-6.4v7.4
						c0,0.8-0.7,1.5-1.5,1.5h-6.6v5.9C256.6,997.4,255.9,998.1,255.1,998.1z"/>
				</g>
			</g>
		</g>
		<g>
			<circle class="st6" cx="174.9" cy="601.9" r="24.2"/>
			<g>
				<g>
					<path class="st11" d="M164.3,616.2c-0.8,0-1.5-0.7-1.5-1.5v-7.4c0-0.8,0.7-1.5,1.5-1.5h6.6v-7.4c0-0.8,0.7-1.5,1.5-1.5h6.4
						v-6.3c0-0.8,0.7-1.5,1.5-1.5h8.3c0.8,0,1.5,0.7,1.5,1.5c0,0.8-0.7,1.5-1.5,1.5h-6.8v6.3c0,0.8-0.7,1.5-1.5,1.5h-6.4v7.4
						c0,0.8-0.7,1.5-1.5,1.5h-6.6v5.9C165.8,615.5,165.1,616.2,164.3,616.2z"/>
				</g>
			</g>
		</g>
		<g>
			<circle class="st6" cx="1155.2" cy="646.5" r="24.2"/>
			<g>
				<g>
					<path class="st11" d="M1144.6,660.8c-0.8,0-1.5-0.7-1.5-1.5v-7.4c0-0.8,0.7-1.5,1.5-1.5h6.6v-7.4c0-0.8,0.7-1.5,1.5-1.5h6.4
						v-6.3c0-0.8,0.7-1.5,1.5-1.5h8.3c0.8,0,1.5,0.7,1.5,1.5c0,0.8-0.7,1.5-1.5,1.5h-6.8v6.3c0,0.8-0.7,1.5-1.5,1.5h-6.4v7.4
						c0,0.8-0.7,1.5-1.5,1.5h-6.6v5.9C1146.1,660.1,1145.5,660.8,1144.6,660.8z"/>
				</g>
			</g>
		</g>
		<g>
			<circle class="st6" cx="1160.5" cy="803.2" r="24.2"/>
			<g>
				<g>
					<path class="st11" d="M1172.6,792.2h-4.9c-1,0-2.3,0.4-3.1,1.2l-4.5,4.5l-4.2,4.1h0l-3.9,3.9c-0.4,0.4-0.4,0.4-1.1,0.4
						c0,0-2.4,0-2.4,0c-2.4,0-3.9,2.2-3.9,4c0,1.8,1.4,4.2,4.1,4.2c0,0,3.3,0,4.3,0c1,0,2.2-0.4,3.2-1.3l12.5-12.5
						c0.3-0.2,0.4-0.3,0.9-0.3c0,0,1.7,0,3.1,0c1.5,0,3.6-1.7,3.6-4.1C1176.3,793.8,1174.2,792.2,1172.6,792.2z M1172.4,798.2h-2.6
						c-1.1,0-1.6,0.2-2.3,0.8l-12.6,12.6c-0.5,0.5-1.2,0.7-2,0.7h-4.2c-1.1,0-2-0.9-2-2.1c0-1.2,0.9-1.8,1.8-1.8h2.9
						c0.8,0,1.4-0.2,1.9-0.7l12.8-12.8c0.5-0.5,1-0.6,1.9-0.6h4.4c1.1,0,1.8,1.2,1.8,1.9C1174.2,796.9,1173.7,798.2,1172.4,798.2z"
						/>
				</g>
				<g>
					<g>
						<circle class="st11" cx="1158.1" cy="791.6" r="2.1"/>
					</g>
					<g>
						<path class="st11" d="M1160.2,797.9v-1.3c0-2.8-4.2-2.8-4.2,0v5.4h0L1160.2,797.9z"/>
					</g>
				</g>
			</g>
		</g>
		<g>
			<circle class="st6" cx="691.4" cy="555" r="24.2"/>
			<g>
				<g>
					<path class="st11" d="M703.5,544h-4.9c-1,0-2.3,0.4-3.1,1.2l-4.5,4.5l-4.2,4.1h0l-3.9,3.9c-0.4,0.4-0.4,0.4-1.1,0.4
						c0,0-2.4,0-2.4,0c-2.4,0-3.9,2.2-3.9,4c0,1.8,1.4,4.2,4.1,4.2c0,0,3.3,0,4.3,0c1,0,2.2-0.4,3.2-1.3l12.5-12.5
						c0.3-0.2,0.4-0.3,0.9-0.3c0,0,1.7,0,3.1,0c1.5,0,3.6-1.7,3.6-4.1C707.2,545.6,705.1,544,703.5,544z M703.3,550h-2.6
						c-1.1,0-1.6,0.2-2.3,0.8l-12.6,12.6c-0.5,0.5-1.2,0.7-2,0.7h-4.2c-1.1,0-2-0.9-2-2.1c0-1.2,0.9-1.8,1.8-1.8h2.9
						c0.8,0,1.4-0.2,1.9-0.7l12.8-12.8c0.5-0.5,1-0.6,1.9-0.6h4.4c1.1,0,1.8,1.2,1.8,1.9C705.1,548.7,704.6,550,703.3,550z"/>
				</g>
				<g>
					<g>
						<circle class="st11" cx="689" cy="543.3" r="2.1"/>
					</g>
					<g>
						<path class="st11" d="M691,549.7v-1.3c0-2.8-4.2-2.8-4.2,0v5.4h0L691,549.7z"/>
					</g>
				</g>
			</g>
		</g>
		<g>
			<circle class="st6" cx="1124.2" cy="1270.8" r="24.2"/>
			<g>
				<g>
					<path class="st11" d="M1136.3,1259.8h-4.9c-1,0-2.3,0.4-3.1,1.2l-4.5,4.5l-4.2,4.1h0l-3.9,3.9c-0.4,0.4-0.4,0.4-1.1,0.4
						c0,0-2.4,0-2.4,0c-2.4,0-3.9,2.2-3.9,4c0,1.8,1.4,4.2,4.1,4.2c0,0,3.3,0,4.3,0c1,0,2.2-0.4,3.2-1.3l12.5-12.5
						c0.3-0.2,0.4-0.3,0.9-0.3c0,0,1.7,0,3.1,0c1.5,0,3.6-1.7,3.6-4.1C1140,1261.4,1137.9,1259.8,1136.3,1259.8z M1136.1,1265.8
						h-2.6c-1.1,0-1.6,0.2-2.3,0.8l-12.6,12.6c-0.5,0.5-1.2,0.7-2,0.7h-4.2c-1.1,0-2-0.9-2-2.1c0-1.2,0.9-1.8,1.8-1.8h2.9
						c0.8,0,1.4-0.2,1.9-0.7l12.8-12.8c0.5-0.5,1-0.6,1.9-0.6h4.4c1.1,0,1.8,1.2,1.8,1.9C1137.9,1264.5,1137.4,1265.8,1136.1,1265.8
						z"/>
				</g>
				<g>
					<g>
						<circle class="st11" cx="1121.8" cy="1259.2" r="2.1"/>
					</g>
					<g>
						<path class="st11" d="M1123.8,1265.5v-1.3c0-2.8-4.2-2.8-4.2,0v5.4h0L1123.8,1265.5z"/>
					</g>
				</g>
			</g>
		</g>
		<g>
			<circle class="st6" cx="641.2" cy="1059" r="24.2"/>
			<g>
				<g>
					<path class="st11" d="M653.3,1048h-4.9c-1,0-2.3,0.4-3.1,1.2l-4.5,4.5l-4.2,4.1h0l-3.9,3.9c-0.4,0.4-0.4,0.4-1.1,0.4
						c0,0-2.4,0-2.4,0c-2.4,0-3.9,2.2-3.9,4c0,1.8,1.4,4.2,4.1,4.2c0,0,3.3,0,4.3,0c1,0,2.2-0.4,3.2-1.3l12.5-12.5
						c0.3-0.2,0.4-0.3,0.9-0.3c0,0,1.7,0,3.1,0c1.5,0,3.6-1.7,3.6-4.1C657,1049.6,654.9,1048,653.3,1048z M653.1,1054h-2.6
						c-1.1,0-1.6,0.2-2.3,0.8l-12.6,12.6c-0.5,0.5-1.2,0.7-2,0.7h-4.2c-1.1,0-2-0.9-2-2.1c0-1.2,0.9-1.8,1.8-1.8h2.9
						c0.8,0,1.4-0.2,1.9-0.7l12.8-12.8c0.5-0.5,1-0.6,1.9-0.6h4.4c1.1,0,1.8,1.2,1.8,1.9C654.9,1052.7,654.4,1054,653.1,1054z"/>
				</g>
				<g>
					<g>
						<circle class="st11" cx="638.8" cy="1047.4" r="2.1"/>
					</g>
					<g>
						<path class="st11" d="M640.8,1053.7v-1.3c0-2.8-4.2-2.8-4.2,0v5.4h0L640.8,1053.7z"/>
					</g>
				</g>
			</g>
		</g>
	</g>
</g>
<g id="PIso_2_Textos">
	<g>
		<g>
			<text transform="matrix(1 0 0 1 576.8936 403.1755)" class="st12 st13 st14">Riachuelo</text>
			<text transform="matrix(1 0 0 1 264.8936 769.1755)" class="st12 st13 st14">CINEMARK </text>
			<g>
				<g>
					<text transform="matrix(1 0 0 1 867.4592 906.8372)"><tspan x="0" y="0" class="st12 st13 st14">PRAÇA DE</tspan><tspan x="-19.1" y="16" class="st12 st13 st14">ALIMENTAÇãO</tspan></text>
				</g>
				<text transform="matrix(1 0 0 1 867.4592 906.8372)"><tspan x="0" y="0" class="st12 st13 st14">PRAÇA DE</tspan><tspan x="-19.1" y="16" class="st12 st13 st14">ALIMENTAÇãO</tspan></text>
				<g>
					<text transform="matrix(1 0 0 1 867.4592 906.8372)"><tspan x="0" y="0" class="st12 st13 st14">PRAÇA DE</tspan><tspan x="-19.1" y="16" class="st12 st13 st14">ALIMENTAÇãO</tspan></text>
				</g>
			</g>
			<g>
				<g>
					<text transform="matrix(1 0 0 1 456.7207 607.1755)" class="st12 st13 st15">LEITURA</text>
				</g>
				<text transform="matrix(1 0 0 1 456.7207 607.1755)" class="st12 st13 st15">LEITURA</text>
				<g>
					<text transform="matrix(1 0 0 1 456.7207 607.1755)" class="st12 st13 st15">LEITURA</text>
				</g>
			</g>
			<g>
				<g>
					<text transform="matrix(1 0 0 1 664.7353 938.5355)"><tspan x="0" y="0" class="st12 st13 st16">MR.</tspan><tspan x="-2.8" y="11" class="st12 st13 st16">BEER</tspan></text>
				</g>
				<text transform="matrix(1 0 0 1 664.7353 938.5355)"><tspan x="0" y="0" class="st12 st13 st16">MR.</tspan><tspan x="-2.8" y="11" class="st12 st13 st16">BEER</tspan></text>
				<g>
					<text transform="matrix(1 0 0 1 664.7353 938.5355)"><tspan x="0" y="0" class="st12 st13 st16">MR.</tspan><tspan x="-2.8" y="11" class="st12 st13 st16">BEER</tspan></text>
				</g>
			</g>
			<g>
				<g>
					<text transform="matrix(1 0 0 1 705.1655 1062.6923)" class="st12 st13 st16">VRUM</text>
				</g>
				<text transform="matrix(1 0 0 1 705.1655 1062.6923)" class="st12 st13 st16">VRUM</text>
				<g>
					<text transform="matrix(1 0 0 1 705.1655 1062.6923)" class="st12 st13 st16">VRUM</text>
				</g>
			</g>
			<text transform="matrix(1 0 0 1 645.7229 670.9135)" class="st12 st13 st15">VIVARA</text>
			<g>
				<g>
					<text transform="matrix(1 0 0 1 650.3768 708.1909)"><tspan x="0" y="0" class="st12 st13 st15">BUMBUM</tspan><tspan x="0" y="12" class="st12 st13 st15">IPANEMA</tspan></text>
				</g>
				<text transform="matrix(1 0 0 1 650.3768 708.1909)"><tspan x="0" y="0" class="st12 st13 st15">BUMBUM</tspan><tspan x="0" y="12" class="st12 st13 st15">IPANEMA</tspan></text>
				<g>
					<text transform="matrix(1 0 0 1 650.3768 708.1909)"><tspan x="0" y="0" class="st12 st13 st15">BUMBUM</tspan><tspan x="0" y="12" class="st12 st13 st15">IPANEMA</tspan></text>
				</g>
			</g>
			<g>
				<g>
					<text transform="matrix(1 0 0 1 664.5995 764.1909)"><tspan x="0" y="0" class="st12 st13 st15">ÓTICAS</tspan><tspan x="-6.5" y="12" class="st12 st13 st15">SOLVANG</tspan></text>
				</g>
				<text transform="matrix(1 0 0 1 664.5995 764.1909)"><tspan x="0" y="0" class="st12 st13 st15">ÓTICAS</tspan><tspan x="-6.5" y="12" class="st12 st13 st15">SOLVANG</tspan></text>
				<g>
					<text transform="matrix(1 0 0 1 664.5995 764.1909)"><tspan x="0" y="0" class="st12 st13 st15">ÓTICAS</tspan><tspan x="-6.5" y="12" class="st12 st13 st15">SOLVANG</tspan></text>
				</g>
			</g>
			<g>
				<g>
					<text transform="matrix(1 0 0 1 769.6249 790.1909)"><tspan x="0" y="0" class="st12 st13 st15">THE</tspan><tspan x="-4.2" y="12" class="st12 st13 st15">HUTT</tspan><tspan x="-16.7" y="24" class="st12 st13 st15">BURGUER</tspan></text>
				</g>
				<text transform="matrix(1 0 0 1 769.6249 790.1909)"><tspan x="0" y="0" class="st12 st13 st15">THE</tspan><tspan x="-4.2" y="12" class="st12 st13 st15">HUTT</tspan><tspan x="-16.7" y="24" class="st12 st13 st15">BURGUER</tspan></text>
				<g>
					<text transform="matrix(1 0 0 1 769.6249 790.1909)"><tspan x="0" y="0" class="st12 st13 st15">THE</tspan><tspan x="-4.2" y="12" class="st12 st13 st15">HUTT</tspan><tspan x="-16.7" y="24" class="st12 st13 st15">BURGUER</tspan></text>
				</g>
			</g>
			<g>
				<g>
					<text transform="matrix(1 0 0 1 743.9559 834.1909)" class="st12 st13 st15">BOB’S</text>
				</g>
				<text transform="matrix(1 0 0 1 743.9559 834.1909)" class="st12 st13 st15">BOB’S</text>
				<g>
					<text transform="matrix(1 0 0 1 743.9559 834.1909)" class="st12 st13 st15">BOB’S</text>
				</g>
			</g>
			<g>
				<g>
					<text transform="matrix(1 0 0 1 810.4559 777.1909)" class="st12 st13 st15">STAMBUL</text>
				</g>
				<text transform="matrix(1 0 0 1 810.4559 777.1909)" class="st12 st13 st15">STAMBUL</text>
				<g>
					<text transform="matrix(1 0 0 1 810.4559 777.1909)" class="st12 st13 st15">STAMBUL</text>
				</g>
			</g>
			<g>
				<g>
					<text transform="matrix(1 0 0 1 848.5155 735.1909)"><tspan x="0" y="0" class="st12 st13 st15">BILLY</tspan><tspan x="5.1" y="12" class="st12 st13 st15">THE</tspan><tspan x="-0.8" y="24" class="st12 st13 st15">GRILL</tspan></text>
				</g>
				<text transform="matrix(1 0 0 1 848.5155 735.1909)"><tspan x="0" y="0" class="st12 st13 st15">BILLY</tspan><tspan x="5.1" y="12" class="st12 st13 st15">THE</tspan><tspan x="-0.8" y="24" class="st12 st13 st15">GRILL</tspan></text>
				<g>
					<text transform="matrix(1 0 0 1 848.5155 735.1909)"><tspan x="0" y="0" class="st12 st13 st15">BILLY</tspan><tspan x="5.1" y="12" class="st12 st13 st15">THE</tspan><tspan x="-0.8" y="24" class="st12 st13 st15">GRILL</tspan></text>
				</g>
			</g>
			<g>
				<g>
					<text transform="matrix(1 0 0 1 765.6415 765.1909)" class="st12 st13 st15">GIRAFFAS</text>
				</g>
				<text transform="matrix(1 0 0 1 765.6415 765.1909)" class="st12 st13 st15">GIRAFFAS</text>
				<g>
					<text transform="matrix(1 0 0 1 765.6415 765.1909)" class="st12 st13 st15">GIRAFFAS</text>
				</g>
			</g>
			<g>
				<g>
					<text transform="matrix(1 0 0 1 681.2411 827.1909)"><tspan x="0" y="0" class="st12 st13 st15">UNHAS</tspan><tspan x="-3.8" y="12" class="st12 st13 st15">EXPRESS</tspan></text>
				</g>
				<text transform="matrix(1 0 0 1 681.2411 827.1909)"><tspan x="0" y="0" class="st12 st13 st15">UNHAS</tspan><tspan x="-3.8" y="12" class="st12 st13 st15">EXPRESS</tspan></text>
				<g>
					<text transform="matrix(1 0 0 1 681.2411 827.1909)"><tspan x="0" y="0" class="st12 st13 st15">UNHAS</tspan><tspan x="-3.8" y="12" class="st12 st13 st15">EXPRESS</tspan></text>
				</g>
			</g>
			<text transform="matrix(1 0 0 1 880.6398 622.0048)"><tspan x="0" y="0" class="st12 st13 st15">BED</tspan><tspan x="-6.7" y="12" class="st12 st13 st15">STORE</tspan></text>
			<text transform="matrix(1 0 0 1 529.152 702.0306)" class="st12 st13 st15">IMAGINARIUM</text>
			<text transform="matrix(1 0 0 1 544.8737 660.1121)"><tspan x="0" y="0" class="st12 st13 st15">CAFÉ</tspan><tspan x="0.3" y="12" class="st12 st13 st15">HUM</tspan></text>
			<text transform="matrix(1 0 0 1 513.5981 767.3894)" class="st12 st13 st15">CAMICADO</text>
			<text transform="matrix(1 0 0 1 330.5186 1024.1755)" class="st12 st13 st14">GAMESTATION</text>
			<text transform="matrix(1 0 0 1 576.136 1155.552)"><tspan x="0" y="0" class="st12 st13 st15">CALIFORNIA</tspan><tspan x="21.4" y="12" class="st12 st13 st15">CAFÉ</tspan></text>
			<text transform="matrix(1 0 0 1 625.9026 1138.5618)" class="st12 st13 st15">VEZPA</text>
			<text transform="matrix(1 0 0 1 546.4648 1201.9091)" class="st12 st13 st15">GULA GULA</text>
			<text transform="matrix(1 0 0 1 572.8702 946.6159)" class="st12 st13 st15">VIA TORINO</text>
			<text transform="matrix(1 0 0 1 596.8497 903.4403)"><tspan x="0" y="0" class="st12 st13 st15">DIVA</tspan><tspan x="-12" y="12" class="st12 st13 st15">CARIOCA</tspan></text>
			<text transform="matrix(1 0 0 1 682.9074 869.0815)" class="st12 st13 st15">MY PLACE</text>
			<text transform="matrix(1 0 0 1 686.4391 970.6948)" class="st12 st13 st15">MILENIUM</text>
			<text transform="matrix(1 0 0 1 743.2595 953.6948)" class="st12 st13 st15">KONI</text>
			<text transform="matrix(1 0 0 1 717.2897 1001.117)" class="st12 st13 st15">CHILI BEANS</text>
			<text transform="matrix(1 0 0 1 853.6202 1088.5624)"><tspan x="0" y="0" class="st12 st13 st15">BURGUER</tspan><tspan x="12.5" y="12" class="st12 st13 st15">KING</tspan></text>
			<text transform="matrix(1 0 0 1 819.4057 1155.5415)"><tspan x="0" y="0" class="st12 st13 st15">TRITON</tspan><tspan x="-4.9" y="12" class="st12 st13 st15">EYEWEAR</tspan></text>
			<text transform="matrix(1 0 0 1 800.8432 1134.5415)" class="st12 st13 st15">EUREKA</text>
			<text transform="matrix(1 0 0 1 763.2504 1078.5415)"><tspan x="0" y="0" class="st12 st13 st15">NICOLLE BY</tspan><tspan x="-2.2" y="12" class="st12 st13 st15">JULIA HADID</tspan></text>
			<text transform="matrix(1 0 0 1 759.7758 1056.5415)" class="st12 st13 st15">AVATIM</text>
			<text transform="matrix(1 0 0 1 729.061 1029.5415)" class="st12 st13 st15">QUICKSILVER</text>
			<text transform="matrix(1 0 0 1 923.9047 731.2466)"><tspan x="0" y="0" class="st12 st13 st15">MC</tspan><tspan x="-19.9" y="12" class="st12 st13 st15">DONALD’S</tspan></text>
			<text transform="matrix(1 0 0 1 938.9516 803.2466)" class="st12 st13 st15">SUBWAY</text>
			<text transform="matrix(1 0 0 1 983.3666 890.2466)" class="st12 st13 st15">GENDAI</text>
			<text transform="matrix(1 0 0 1 941.5711 1075.5801)"><tspan x="0" y="0" class="st12 st13 st15">MR.</tspan><tspan x="-5.3" y="12" class="st12 st13 st15">PIZZA</tspan></text>
			<text transform="matrix(1 0 0 1 991.1417 1055.9133)"><tspan x="0" y="0" class="st12 st13 st15">PORTO</tspan><tspan x="11" y="12" class="st12 st13 st15">DO</tspan><tspan x="0.5" y="24" class="st12 st13 st15">SABOR</tspan></text>
			<text transform="matrix(1 0 0 1 989.2338 1006.2466)"><tspan x="0" y="0" class="st12 st13 st15">HUNGRY</tspan><tspan x="9.8" y="12" class="st12 st13 st15">CLUB</tspan></text>
			<text transform="matrix(1 0 0 1 1028.8298 1025.9133)"><tspan x="0" y="0" class="st12 st13 st15">CHAMPION</tspan><tspan x="15.7" y="12" class="st12 st13 st15">FRIED</tspan><tspan x="10.3" y="24" class="st12 st13 st15">CHIKEN</tspan></text>
			<text transform="matrix(1 0 0 1 936.3416 1042.58)" class="st12 st13 st15">TREMBãO</text>
			<text transform="matrix(1 0 0 1 964.4418 845.2466)"><tspan x="0" y="0" class="st12 st13 st15">DIVINO</tspan><tspan x="1.2" y="12" class="st12 st13 st15">FOGãO</tspan></text>
			<text transform="matrix(1 0 0 1 787.8231 933.0662)"><tspan x="0" y="0" class="st12 st13 st15">BATATA</tspan><tspan x="-2.9" y="12" class="st12 st13 st15">INGLESA</tspan></text>
			<text transform="matrix(1 0 0 1 796.6453 967.0662)"><tspan x="0" y="0" class="st12 st13 st15">CAMARãO</tspan><tspan x="13.4" y="12" class="st12 st13 st15">&amp; CIA</tspan></text>
			<text transform="matrix(1 0 0 1 816.2928 998.0662)" class="st12 st13 st15">SPOLETO</text>
			<text transform="matrix(1 0 0 1 824.4559 1025.0662)"><tspan x="0" y="0" class="st12 st13 st15">MONTANA</tspan><tspan x="13.6" y="12" class="st12 st13 st15">GRILL</tspan></text>
			<text transform="matrix(1 0 0 1 1006.338 780.328)" class="st12 st13 st15">VIRAVOLTA</text>
			<text transform="matrix(1 0 0 1 1011.1885 832.9946)" class="st12 st13 st15">KOPENHAGEM</text>
			<text transform="matrix(1 0 0 1 1014.9274 875.6613)" class="st12 st13 st15">BALADINHA</text>
			<text transform="matrix(1 0 0 1 1058.1908 856.9946)" class="st12 st13 st15">STRAVAGANZA</text>
			<text transform="matrix(1 0 0 1 1002.1368 807.3958)" class="st12 st13 st15">SUNGLASSHUT</text>
			<text transform="matrix(1 0 0 1 1084.6384 967.272)" class="st12 st13 st15">TVZ</text>
			<text transform="matrix(1 0 0 1 1082.8241 1001.9946)" class="st12 st13 st15">MORANA</text>
			<text transform="matrix(1 0 0 1 1102.219 1029.328)" class="st12 st13 st15">KATZ</text>
			<text transform="matrix(1 0 0 1 1071.5936 642.3127)"><tspan x="0" y="0" class="st12 st13 st15">CORPO</tspan><tspan x="-1.1" y="12" class="st12 st13 st15">E ALMA</tspan></text>
			<text transform="matrix(1 0 0 1 1056.6903 614.9793)" class="st12 st13 st15">VIA MIA</text>
			<text transform="matrix(1 0 0 1 1190.7288 686.3127)"><tspan x="0" y="0" class="st12 st13 st15">GOURMIX-</tspan><tspan x="9" y="12" class="st12 st13 st15">BENKEI</tspan></text>
			<text transform="matrix(1 0 0 1 1088.7676 677.8751)" class="st12 st13 st15">HOPE</text>
			<text transform="matrix(1 0 0 1 1088.1514 705.3076)" class="st12 st13 st15">SAMELLO</text>
			<text transform="matrix(1 0 0 1 1102.9951 732.5315)" class="st12 st13 st15">ARMADILLO</text>
			<text transform="matrix(1 0 0 1 985.8306 732.2313)"><tspan x="0" y="0" class="st12 st13 st15">CARMEN</tspan><tspan x="-2.5" y="12" class="st12 st13 st15">STEFFENS</tspan></text>
			<text transform="matrix(1 0 0 1 1091.1426 775.9818)"><tspan x="0" y="0" class="st12 st13 st16">DON</tspan><tspan x="-7" y="12" class="st12 st13 st16">PALETO</tspan></text>
			<text transform="matrix(1 0 0 1 1164.2217 863.249)" class="st12 st13 st15">WOLLNER</text>
			<text transform="matrix(1 0 0 1 1171.8137 892.8571)" class="st12 st13 st15">MR. CAT</text>
			<text transform="matrix(1 0 0 1 1182.7744 927.5798)" class="st12 st13 st15">AREZZO</text>
			<text transform="matrix(1 0 0 1 1172.7833 955.5238)" class="st12 st13 st15">MARIA FILÔ</text>
			<text transform="matrix(1 0 0 1 1176.8336 984.9706)" class="st12 st13 st15">CÓDIGO GIRLS</text>
			<text transform="matrix(1 0 0 1 1202.2284 1017.6373)" class="st12 st13 st15">ENJOY</text>
			<text transform="matrix(1 0 0 1 1195.1942 1041.2101)" class="st12 st13 st15">CLUBE MELISSA</text>
			<text transform="matrix(1 0 0 1 1248.058 888.6636)"><tspan x="0" y="0" class="st12 st13 st15">DELÍRIO</tspan><tspan x="-4.7" y="12" class="st12 st13 st15">TROPICAL</tspan></text>
			<text transform="matrix(1 0 0 1 1188.2258 1105.132)" class="st12 st13 st15">JOSEFINA ROSA COR</text>
			<text transform="matrix(1 0 0 1 1200.8696 1068.9691)"><tspan x="0" y="0" class="st12 st13 st15">L’occitane</tspan><tspan x="-6.2" y="12" class="st12 st13 st15">EN PROVENCE</tspan></text>
			<g>
				<g>
					<text transform="matrix(1 0 0 1 1184.6001 1220.2058)"><tspan x="0" y="0" class="st12 st13 st16">KIDS</tspan><tspan x="-3.2" y="11" class="st12 st13 st16">DRIVE</tspan></text>
				</g>
				<text transform="matrix(1 0 0 1 1184.6001 1220.2058)"><tspan x="0" y="0" class="st12 st13 st16">KIDS</tspan><tspan x="-3.2" y="11" class="st12 st13 st16">DRIVE</tspan></text>
				<g>
					<text transform="matrix(1 0 0 1 1184.6001 1220.2058)"><tspan x="0" y="0" class="st12 st13 st16">KIDS</tspan><tspan x="-3.2" y="11" class="st12 st13 st16">DRIVE</tspan></text>
				</g>
			</g>
			<text transform="matrix(1 0 0 1 1193.5514 1134.5225)" class="st12 st13 st15">CAFÉ DO PONTO</text>
			<text transform="matrix(1 0 0 1 1241.4346 1192.951)" class="st12 st13 st15">DRESS TO</text>
			<text transform="matrix(1 0 0 1 1231.8563 1219.7152)" class="st12 st13 st15">SOBRANCELHAS</text>
			<text transform="matrix(1 0 0 1 1215.13 1304.3185)" class="st12 st13 st15">IN STORE</text>
			<text transform="matrix(1 0 0 1 1183.4891 1445.661)" class="st12 st13 st14">Renner</text>
			<text transform="matrix(1 0 0 1 1008.7123 1357.7689)"><tspan x="0" y="0" class="st12 st13 st15">MAMãE</tspan><tspan x="-4" y="12" class="st12 st13 st15">CARIOCA</tspan></text>
			<text transform="matrix(1 0 0 1 840.3513 1187.3124)"><tspan x="0" y="0" class="st12 st13 st15">ATELIÊ GUGU</tspan><tspan x="5.8" y="12" class="st12 st13 st15">FERNANDO</tspan></text>
			<text transform="matrix(1 0 0 1 656.1146 1264.1317)" class="st12 st13 st15">ZARA HOME</text>
			<text transform="matrix(1 0 0 1 802.3978 1394.1317)" class="st12 st13 st15">ZARA</text>
			<text transform="matrix(1 0 0 1 703.9968 1173.2155)" class="st12 st13 st15">CAPI</text>
			<text transform="matrix(1 0 0 1 662.3975 1120.4633)"><tspan x="0" y="0" class="st12 st13 st15">SALãO ATELIÊ</tspan><tspan x="14.4" y="12" class="st12 st13 st15">TATIANA</tspan><tspan x="17.3" y="24" class="st12 st13 st15">ARAÚJO</tspan></text>
			<text transform="matrix(1 0 0 1 985.9855 1216.3497)" class="st12 st13 st15">SHOULDER</text>
			<text transform="matrix(1 0 0 1 1089.8884 1064.384)" class="st12 st13 st15">NAIL BAR</text>
			<g>
				<g>
					<text transform="matrix(1 0 0 1 1109.4458 894.5365)"><tspan x="0" y="0" class="st12 st13 st16">EMPÓRIO</tspan><tspan x="9.6" y="11" class="st12 st13 st16">BODY</tspan><tspan x="7.9" y="22" class="st12 st13 st16">STORE</tspan></text>
				</g>
				<text transform="matrix(1 0 0 1 1109.4458 894.5365)"><tspan x="0" y="0" class="st12 st13 st16">EMPÓRIO</tspan><tspan x="9.6" y="11" class="st12 st13 st16">BODY</tspan><tspan x="7.9" y="22" class="st12 st13 st16">STORE</tspan></text>
				<g>
					<text transform="matrix(1 0 0 1 1109.4458 894.5365)"><tspan x="0" y="0" class="st12 st13 st16">EMPÓRIO</tspan><tspan x="9.6" y="11" class="st12 st13 st16">BODY</tspan><tspan x="7.9" y="22" class="st12 st13 st16">STORE</tspan></text>
				</g>
			</g>
			<text transform="matrix(1 0 0 1 542.8936 515.1755)" class="st12 st13 st15">ROMANZZA</text>
			<text transform="matrix(1 0 0 1 688.6979 471.022)" class="st12 st13 st15">SCALA</text>
			<text transform="matrix(1 0 0 1 732.76 443.1094)"><tspan x="0" y="0" class="st12 st13 st15">AD LIFE</tspan><tspan x="5.3" y="12" class="st12 st13 st15">STYLE</tspan></text>
			<text transform="matrix(1 0 0 1 773.0165 475.6487)" class="st12 st13 st15">PUKET</text>
			<text transform="matrix(1 0 0 1 894.4287 478.1728)" class="st12 st13 st15">HERING</text>
			<text transform="matrix(1 0 0 1 1014.3346 536.8395)" class="st12 st13 st15">ALÔ BEBÊ</text>
		</g>
		<g>
			<text transform="matrix(1 0 0 1 576.8936 403.1755)" class="st13 st14">Riachuelo</text>
			<text transform="matrix(1 0 0 1 264.8936 769.1755)" class="st13 st14">CINEMARK </text>
			<g>
				<text transform="matrix(1 0 0 1 867.4592 906.8372)"><tspan x="0" y="0" class="st13 st14">PRAÇA DE</tspan><tspan x="-19.1" y="16" class="st13 st14">ALIMENTAÇãO</tspan></text>
			</g>
			<g>
				<text transform="matrix(1 0 0 1 456.7207 607.1755)" class="st13 st15">LEITURA</text>
			</g>
			<g>
				<text transform="matrix(1 0 0 1 664.7353 938.5355)"><tspan x="0" y="0" class="st13 st16">MR.</tspan><tspan x="-2.8" y="11" class="st13 st16">BEER</tspan></text>
			</g>
			<g>
				<text transform="matrix(1 0 0 1 705.1655 1062.6923)" class="st13 st16">VRUM</text>
			</g>
			<text transform="matrix(1 0 0 1 645.7229 670.9135)" class="st13 st15">VIVARA</text>
			<g>
				<text transform="matrix(1 0 0 1 650.3768 708.1909)"><tspan x="0" y="0" class="st13 st15">BUMBUM</tspan><tspan x="0" y="12" class="st13 st15">IPANEMA</tspan></text>
			</g>
			<g>
				<text transform="matrix(1 0 0 1 664.5995 764.1909)"><tspan x="0" y="0" class="st13 st15">ÓTICAS</tspan><tspan x="-6.5" y="12" class="st13 st15">SOLVANG</tspan></text>
			</g>
			<g>
				<text transform="matrix(1 0 0 1 769.6249 790.1909)"><tspan x="0" y="0" class="st13 st15">THE</tspan><tspan x="-4.2" y="12" class="st13 st15">HUTT</tspan><tspan x="-16.7" y="24" class="st13 st15">BURGUER</tspan></text>
			</g>
			<g>
				<text transform="matrix(1 0 0 1 743.9559 834.1909)" class="st13 st15">BOB’S</text>
			</g>
			<g>
				<text transform="matrix(1 0 0 1 810.4559 777.1909)" class="st13 st15">STAMBUL</text>
			</g>
			<g>
				<text transform="matrix(1 0 0 1 848.5155 735.1909)"><tspan x="0" y="0" class="st13 st15">BILLY</tspan><tspan x="5.1" y="12" class="st13 st15">THE</tspan><tspan x="-0.8" y="24" class="st13 st15">GRILL</tspan></text>
			</g>
			<g>
				<text transform="matrix(1 0 0 1 765.6415 765.1909)" class="st13 st15">GIRAFFAS</text>
			</g>
			<g>
				<text transform="matrix(1 0 0 1 681.2411 827.1909)"><tspan x="0" y="0" class="st13 st15">UNHAS</tspan><tspan x="-3.8" y="12" class="st13 st15">EXPRESS</tspan></text>
			</g>
			<text transform="matrix(1 0 0 1 880.6398 622.0048)"><tspan x="0" y="0" class="st13 st15">BED</tspan><tspan x="-6.7" y="12" class="st13 st15">STORE</tspan></text>
			<text transform="matrix(1 0 0 1 529.152 702.0306)" class="st13 st15">IMAGINARIUM</text>
			<text transform="matrix(1 0 0 1 544.8737 660.1121)"><tspan x="0" y="0" class="st13 st15">CAFÉ</tspan><tspan x="0.3" y="12" class="st13 st15">HUM</tspan></text>
			<text transform="matrix(1 0 0 1 513.5981 767.3894)" class="st13 st15">CAMICADO</text>
			<text transform="matrix(1 0 0 1 330.5186 1024.1755)" class="st13 st14">GAMESTATION</text>
			<text transform="matrix(1 0 0 1 576.136 1155.552)"><tspan x="0" y="0" class="st13 st15">CALIFORNIA</tspan><tspan x="21.4" y="12" class="st13 st15">CAFÉ</tspan></text>
			<text transform="matrix(1 0 0 1 625.9026 1138.5618)" class="st13 st15">VEZPA</text>
			<text transform="matrix(1 0 0 1 546.4648 1201.9091)" class="st13 st15">GULA GULA</text>
			<text transform="matrix(1 0 0 1 572.8702 946.6159)" class="st13 st15">VIA TORINO</text>
			<text transform="matrix(1 0 0 1 596.8497 903.4403)"><tspan x="0" y="0" class="st13 st15">DIVA</tspan><tspan x="-12" y="12" class="st13 st15">CARIOCA</tspan></text>
			<text transform="matrix(1 0 0 1 682.9074 869.0815)" class="st13 st15">MY PLACE</text>
			<text transform="matrix(1 0 0 1 686.4391 970.6948)" class="st13 st15">MILENIUM</text>
			<text transform="matrix(1 0 0 1 743.2595 953.6948)" class="st13 st15">KONI</text>
			<text transform="matrix(1 0 0 1 717.2897 1001.117)" class="st13 st15">CHILI BEANS</text>
			<text transform="matrix(1 0 0 1 853.6202 1088.5624)"><tspan x="0" y="0" class="st13 st15">BURGUER</tspan><tspan x="12.5" y="12" class="st13 st15">KING</tspan></text>
			<text transform="matrix(1 0 0 1 819.4057 1155.5415)"><tspan x="0" y="0" class="st13 st15">TRITON</tspan><tspan x="-4.9" y="12" class="st13 st15">EYEWEAR</tspan></text>
			<text transform="matrix(1 0 0 1 800.8432 1134.5415)" class="st13 st15">EUREKA</text>
			<text transform="matrix(1 0 0 1 763.2504 1078.5415)"><tspan x="0" y="0" class="st13 st15">NICOLLE BY</tspan><tspan x="-2.2" y="12" class="st13 st15">JULIA HADID</tspan></text>
			<text transform="matrix(1 0 0 1 759.7758 1056.5415)" class="st13 st15">AVATIM</text>
			<text transform="matrix(1 0 0 1 729.061 1029.5415)" class="st13 st15">QUICKSILVER</text>
			<text transform="matrix(1 0 0 1 923.9047 731.2466)"><tspan x="0" y="0" class="st13 st15">MC</tspan><tspan x="-19.9" y="12" class="st13 st15">DONALD’S</tspan></text>
			<text transform="matrix(1 0 0 1 938.9516 803.2466)" class="st13 st15">SUBWAY</text>
			<text transform="matrix(1 0 0 1 983.3666 890.2466)" class="st13 st15">GENDAI</text>
			<text transform="matrix(1 0 0 1 941.5711 1075.5801)"><tspan x="0" y="0" class="st13 st15">MR.</tspan><tspan x="-5.3" y="12" class="st13 st15">PIZZA</tspan></text>
			<text transform="matrix(1 0 0 1 991.1417 1055.9133)"><tspan x="0" y="0" class="st13 st15">PORTO</tspan><tspan x="11" y="12" class="st13 st15">DO</tspan><tspan x="0.5" y="24" class="st13 st15">SABOR</tspan></text>
			<text transform="matrix(1 0 0 1 989.2338 1006.2466)"><tspan x="0" y="0" class="st13 st15">HUNGRY</tspan><tspan x="9.8" y="12" class="st13 st15">CLUB</tspan></text>
			<text transform="matrix(1 0 0 1 1028.8298 1025.9133)"><tspan x="0" y="0" class="st13 st15">CHAMPION</tspan><tspan x="15.7" y="12" class="st13 st15">FRIED</tspan><tspan x="10.3" y="24" class="st13 st15">CHIKEN</tspan></text>
			<text transform="matrix(1 0 0 1 936.3416 1042.58)" class="st13 st15">TREMBãO</text>
			<text transform="matrix(1 0 0 1 964.4418 845.2466)"><tspan x="0" y="0" class="st13 st15">DIVINO</tspan><tspan x="1.2" y="12" class="st13 st15">FOGãO</tspan></text>
			<text transform="matrix(1 0 0 1 787.8231 933.0662)"><tspan x="0" y="0" class="st13 st15">BATATA</tspan><tspan x="-2.9" y="12" class="st13 st15">INGLESA</tspan></text>
			<text transform="matrix(1 0 0 1 796.6453 967.0662)"><tspan x="0" y="0" class="st13 st15">CAMARãO</tspan><tspan x="13.4" y="12" class="st13 st15">&amp; CIA</tspan></text>
			<text transform="matrix(1 0 0 1 816.2928 998.0662)" class="st13 st15">SPOLETO</text>
			<text transform="matrix(1 0 0 1 824.4559 1025.0662)"><tspan x="0" y="0" class="st13 st15">MONTANA</tspan><tspan x="13.6" y="12" class="st13 st15">GRILL</tspan></text>
			<text transform="matrix(1 0 0 1 1006.338 780.328)" class="st13 st15">VIRAVOLTA</text>
			<text transform="matrix(1 0 0 1 1011.1885 832.9946)" class="st13 st15">KOPENHAGEM</text>
			<text transform="matrix(1 0 0 1 1014.9274 875.6613)" class="st13 st15">BALADINHA</text>
			<text transform="matrix(1 0 0 1 1058.1908 856.9946)" class="st13 st15">STRAVAGANZA</text>
			<text transform="matrix(1 0 0 1 1002.1368 807.3958)" class="st13 st15">SUNGLASSHUT</text>
			<text transform="matrix(1 0 0 1 1084.6384 967.272)" class="st13 st15">TVZ</text>
			<text transform="matrix(1 0 0 1 1082.8241 1001.9946)" class="st13 st15">MORANA</text>
			<text transform="matrix(1 0 0 1 1102.219 1029.328)" class="st13 st15">KATZ</text>
			<text transform="matrix(1 0 0 1 1071.5936 642.3127)"><tspan x="0" y="0" class="st13 st15">CORPO</tspan><tspan x="-1.1" y="12" class="st13 st15">E ALMA</tspan></text>
			<text transform="matrix(1 0 0 1 1056.6903 614.9793)" class="st13 st15">VIA MIA</text>
			<text transform="matrix(1 0 0 1 1190.7288 686.3127)"><tspan x="0" y="0" class="st13 st15">GOURMIX-</tspan><tspan x="9" y="12" class="st13 st15">BENKEI</tspan></text>
			<text transform="matrix(1 0 0 1 1088.7676 677.8751)" class="st13 st15">HOPE</text>
			<text transform="matrix(1 0 0 1 1088.1514 705.3076)" class="st13 st15">SAMELLO</text>
			<text transform="matrix(1 0 0 1 1102.9951 732.5315)" class="st13 st15">ARMADILLO</text>
			<text transform="matrix(1 0 0 1 985.8306 732.2313)"><tspan x="0" y="0" class="st13 st15">CARMEN</tspan><tspan x="-2.5" y="12" class="st13 st15">STEFFENS</tspan></text>
			<text transform="matrix(1 0 0 1 1091.1426 775.9818)"><tspan x="0" y="0" class="st13 st16">DON</tspan><tspan x="-7" y="12" class="st13 st16">PALETO</tspan></text>
			<text transform="matrix(1 0 0 1 1164.2217 863.249)" class="st13 st15">WOLLNER</text>
			<text transform="matrix(1 0 0 1 1171.8137 892.8571)" class="st13 st15">MR. CAT</text>
			<text transform="matrix(1 0 0 1 1182.7744 927.5798)" class="st13 st15">AREZZO</text>
			<text transform="matrix(1 0 0 1 1172.7833 955.5238)" class="st13 st15">MARIA FILÔ</text>
			<text transform="matrix(1 0 0 1 1176.8336 984.9706)" class="st13 st15">CÓDIGO GIRLS</text>
			<text transform="matrix(1 0 0 1 1202.2284 1017.6373)" class="st13 st15">ENJOY</text>
			<text transform="matrix(1 0 0 1 1195.1942 1041.2101)" class="st13 st15">CLUBE MELISSA</text>
			<text transform="matrix(1 0 0 1 1248.058 888.6636)"><tspan x="0" y="0" class="st13 st15">DELÍRIO</tspan><tspan x="-4.7" y="12" class="st13 st15">TROPICAL</tspan></text>
			<text transform="matrix(1 0 0 1 1188.2258 1105.132)" class="st13 st15">JOSEFINA ROSA COR</text>
			<text transform="matrix(1 0 0 1 1200.8696 1068.9691)"><tspan x="0" y="0" class="st13 st15">L’occitane</tspan><tspan x="-6.2" y="12" class="st13 st15">EN PROVENCE</tspan></text>
			<g>
				<text transform="matrix(1 0 0 1 1184.6001 1220.2058)"><tspan x="0" y="0" class="st13 st16">KIDS</tspan><tspan x="-3.2" y="11" class="st13 st16">DRIVE</tspan></text>
			</g>
			<text transform="matrix(1 0 0 1 1193.5514 1134.5225)" class="st13 st15">CAFÉ DO PONTO</text>
			<text transform="matrix(1 0 0 1 1241.4346 1192.951)" class="st13 st15">DRESS TO</text>
			<text transform="matrix(1 0 0 1 1231.8563 1219.7152)" class="st13 st15">SOBRANCELHAS</text>
			<text transform="matrix(1 0 0 1 1215.13 1304.3185)" class="st13 st15">IN STORE</text>
			<text transform="matrix(1 0 0 1 1183.4891 1445.661)" class="st13 st14">Renner</text>
			<text transform="matrix(1 0 0 1 1008.7123 1357.7689)"><tspan x="0" y="0" class="st13 st15">MAMãE</tspan><tspan x="-4" y="12" class="st13 st15">CARIOCA</tspan></text>
			<text transform="matrix(1 0 0 1 840.3513 1187.3124)"><tspan x="0" y="0" class="st13 st15">ATELIÊ GUGU</tspan><tspan x="5.8" y="12" class="st13 st15">FERNANDO</tspan></text>
			<text transform="matrix(1 0 0 1 656.1146 1264.1317)" class="st13 st15">ZARA HOME</text>
			<text transform="matrix(1 0 0 1 802.3978 1394.1317)" class="st13 st15">ZARA</text>
			<text transform="matrix(1 0 0 1 703.9968 1173.2155)" class="st13 st15">CAPI</text>
			<text transform="matrix(1 0 0 1 662.3975 1120.4633)"><tspan x="0" y="0" class="st13 st15">SALãO ATELIÊ</tspan><tspan x="14.4" y="12" class="st13 st15">TATIANA</tspan><tspan x="17.3" y="24" class="st13 st15">ARAÚJO</tspan></text>
			<text transform="matrix(1 0 0 1 985.9855 1216.3497)" class="st13 st15">SHOULDER</text>
			<text transform="matrix(1 0 0 1 1089.8884 1064.384)" class="st13 st15">NAIL BAR</text>
			<g>
				<text transform="matrix(1 0 0 1 1109.4458 894.5365)"><tspan x="0" y="0" class="st13 st16">EMPÓRIO</tspan><tspan x="9.6" y="11" class="st13 st16">BODY</tspan><tspan x="7.9" y="22" class="st13 st16">STORE</tspan></text>
			</g>
			<text transform="matrix(1 0 0 1 542.8936 515.1755)" class="st13 st15">ROMANZZA</text>
			<text transform="matrix(1 0 0 1 688.6979 471.022)" class="st13 st15">SCALA</text>
			<text transform="matrix(1 0 0 1 732.76 443.1094)"><tspan x="0" y="0" class="st13 st15">AD LIFE</tspan><tspan x="5.3" y="12" class="st13 st15">STYLE</tspan></text>
			<text transform="matrix(1 0 0 1 773.0165 475.6487)" class="st13 st15">PUKET</text>
			<text transform="matrix(1 0 0 1 894.4287 478.1728)" class="st13 st15">HERING</text>
			<text transform="matrix(1 0 0 1 1014.3346 536.8395)" class="st13 st15">ALÔ BEBÊ</text>
		</g>
		<g>
			<text transform="matrix(1 0 0 1 576.8936 403.1755)" class="st6 st13 st14">Riachuelo</text>
			<text transform="matrix(1 0 0 1 264.8936 769.1755)" class="st6 st13 st14">CINEMARK </text>
			<g>
				<g>
					<text transform="matrix(1 0 0 1 867.4592 906.8372)"><tspan x="0" y="0" class="st6 st13 st14">PRAÇA DE</tspan><tspan x="-19.1" y="16" class="st6 st13 st14">ALIMENTAÇãO</tspan></text>
				</g>
				<text transform="matrix(1 0 0 1 867.4592 906.8372)"><tspan x="0" y="0" class="st6 st13 st14">PRAÇA DE</tspan><tspan x="-19.1" y="16" class="st6 st13 st14">ALIMENTAÇãO</tspan></text>
				<g>
					<text transform="matrix(1 0 0 1 867.4592 906.8372)"><tspan x="0" y="0" class="st6 st13 st14">PRAÇA DE</tspan><tspan x="-19.1" y="16" class="st6 st13 st14">ALIMENTAÇãO</tspan></text>
				</g>
			</g>
			<g>
				<g>
					<text transform="matrix(1 0 0 1 456.7207 607.1755)" class="st6 st13 st15">LEITURA</text>
				</g>
				<text transform="matrix(1 0 0 1 456.7207 607.1755)" class="st6 st13 st15">LEITURA</text>
				<g>
					<text transform="matrix(1 0 0 1 456.7207 607.1755)" class="st6 st13 st15">LEITURA</text>
				</g>
			</g>
			<g>
				<g>
					<text transform="matrix(1 0 0 1 664.7353 938.5355)"><tspan x="0" y="0" class="st6 st13 st16">MR.</tspan><tspan x="-2.8" y="11" class="st6 st13 st16">BEER</tspan></text>
				</g>
				<text transform="matrix(1 0 0 1 664.7353 938.5355)"><tspan x="0" y="0" class="st6 st13 st16">MR.</tspan><tspan x="-2.8" y="11" class="st6 st13 st16">BEER</tspan></text>
				<g>
					<text transform="matrix(1 0 0 1 664.7353 938.5355)"><tspan x="0" y="0" class="st6 st13 st16">MR.</tspan><tspan x="-2.8" y="11" class="st6 st13 st16">BEER</tspan></text>
				</g>
			</g>
			<g>
				<g>
					<text transform="matrix(1 0 0 1 705.1655 1062.6923)" class="st6 st13 st16">VRUM</text>
				</g>
				<text transform="matrix(1 0 0 1 705.1655 1062.6923)" class="st6 st13 st16">VRUM</text>
				<g>
					<text transform="matrix(1 0 0 1 705.1655 1062.6923)" class="st6 st13 st16">VRUM</text>
				</g>
			</g>
			<text transform="matrix(1 0 0 1 645.7229 670.9135)" class="st6 st13 st15">VIVARA</text>
			<g>
				<g>
					<text transform="matrix(1 0 0 1 650.3768 708.1909)"><tspan x="0" y="0" class="st6 st13 st15">BUMBUM</tspan><tspan x="0" y="12" class="st6 st13 st15">IPANEMA</tspan></text>
				</g>
				<text transform="matrix(1 0 0 1 650.3768 708.1909)"><tspan x="0" y="0" class="st6 st13 st15">BUMBUM</tspan><tspan x="0" y="12" class="st6 st13 st15">IPANEMA</tspan></text>
				<g>
					<text transform="matrix(1 0 0 1 650.3768 708.1909)"><tspan x="0" y="0" class="st6 st13 st15">BUMBUM</tspan><tspan x="0" y="12" class="st6 st13 st15">IPANEMA</tspan></text>
				</g>
			</g>
			<g>
				<g>
					<text transform="matrix(1 0 0 1 664.5995 764.1909)"><tspan x="0" y="0" class="st6 st13 st15">ÓTICAS</tspan><tspan x="-6.5" y="12" class="st6 st13 st15">SOLVANG</tspan></text>
				</g>
				<text transform="matrix(1 0 0 1 664.5995 764.1909)"><tspan x="0" y="0" class="st6 st13 st15">ÓTICAS</tspan><tspan x="-6.5" y="12" class="st6 st13 st15">SOLVANG</tspan></text>
				<g>
					<text transform="matrix(1 0 0 1 664.5995 764.1909)"><tspan x="0" y="0" class="st6 st13 st15">ÓTICAS</tspan><tspan x="-6.5" y="12" class="st6 st13 st15">SOLVANG</tspan></text>
				</g>
			</g>
			<g>
				<g>
					<text transform="matrix(1 0 0 1 769.6249 790.1909)"><tspan x="0" y="0" class="st6 st13 st15">THE</tspan><tspan x="-4.2" y="12" class="st6 st13 st15">HUTT</tspan><tspan x="-16.7" y="24" class="st6 st13 st15">BURGUER</tspan></text>
				</g>
				<text transform="matrix(1 0 0 1 769.6249 790.1909)"><tspan x="0" y="0" class="st6 st13 st15">THE</tspan><tspan x="-4.2" y="12" class="st6 st13 st15">HUTT</tspan><tspan x="-16.7" y="24" class="st6 st13 st15">BURGUER</tspan></text>
				<g>
					<text transform="matrix(1 0 0 1 769.6249 790.1909)"><tspan x="0" y="0" class="st6 st13 st15">THE</tspan><tspan x="-4.2" y="12" class="st6 st13 st15">HUTT</tspan><tspan x="-16.7" y="24" class="st6 st13 st15">BURGUER</tspan></text>
				</g>
			</g>
			<g>
				<g>
					<text transform="matrix(1 0 0 1 743.9559 834.1909)" class="st6 st13 st15">BOB’S</text>
				</g>
				<text transform="matrix(1 0 0 1 743.9559 834.1909)" class="st6 st13 st15">BOB’S</text>
				<g>
					<text transform="matrix(1 0 0 1 743.9559 834.1909)" class="st6 st13 st15">BOB’S</text>
				</g>
			</g>
			<g>
				<g>
					<text transform="matrix(1 0 0 1 810.4559 777.1909)" class="st6 st13 st15">STAMBUL</text>
				</g>
				<text transform="matrix(1 0 0 1 810.4559 777.1909)" class="st6 st13 st15">STAMBUL</text>
				<g>
					<text transform="matrix(1 0 0 1 810.4559 777.1909)" class="st6 st13 st15">STAMBUL</text>
				</g>
			</g>
			<g>
				<g>
					<text transform="matrix(1 0 0 1 848.5155 735.1909)"><tspan x="0" y="0" class="st6 st13 st15">BILLY</tspan><tspan x="5.1" y="12" class="st6 st13 st15">THE</tspan><tspan x="-0.8" y="24" class="st6 st13 st15">GRILL</tspan></text>
				</g>
				<text transform="matrix(1 0 0 1 848.5155 735.1909)"><tspan x="0" y="0" class="st6 st13 st15">BILLY</tspan><tspan x="5.1" y="12" class="st6 st13 st15">THE</tspan><tspan x="-0.8" y="24" class="st6 st13 st15">GRILL</tspan></text>
				<g>
					<text transform="matrix(1 0 0 1 848.5155 735.1909)"><tspan x="0" y="0" class="st6 st13 st15">BILLY</tspan><tspan x="5.1" y="12" class="st6 st13 st15">THE</tspan><tspan x="-0.8" y="24" class="st6 st13 st15">GRILL</tspan></text>
				</g>
			</g>
			<g>
				<g>
					<text transform="matrix(1 0 0 1 765.6415 765.1909)" class="st6 st13 st15">GIRAFFAS</text>
				</g>
				<text transform="matrix(1 0 0 1 765.6415 765.1909)" class="st6 st13 st15">GIRAFFAS</text>
				<g>
					<text transform="matrix(1 0 0 1 765.6415 765.1909)" class="st6 st13 st15">GIRAFFAS</text>
				</g>
			</g>
			<g>
				<g>
					<text transform="matrix(1 0 0 1 681.2411 827.1909)"><tspan x="0" y="0" class="st6 st13 st15">UNHAS</tspan><tspan x="-3.8" y="12" class="st6 st13 st15">EXPRESS</tspan></text>
				</g>
				<text transform="matrix(1 0 0 1 681.2411 827.1909)"><tspan x="0" y="0" class="st6 st13 st15">UNHAS</tspan><tspan x="-3.8" y="12" class="st6 st13 st15">EXPRESS</tspan></text>
				<g>
					<text transform="matrix(1 0 0 1 681.2411 827.1909)"><tspan x="0" y="0" class="st6 st13 st15">UNHAS</tspan><tspan x="-3.8" y="12" class="st6 st13 st15">EXPRESS</tspan></text>
				</g>
			</g>
			<text transform="matrix(1 0 0 1 880.6398 622.0048)"><tspan x="0" y="0" class="st6 st13 st15">BED</tspan><tspan x="-6.7" y="12" class="st6 st13 st15">STORE</tspan></text>
			<text transform="matrix(1 0 0 1 529.152 702.0306)" class="st6 st13 st15">IMAGINARIUM</text>
			<text transform="matrix(1 0 0 1 544.8737 660.1121)"><tspan x="0" y="0" class="st6 st13 st15">CAFÉ</tspan><tspan x="0.3" y="12" class="st6 st13 st15">HUM</tspan></text>
			<text transform="matrix(1 0 0 1 513.5981 767.3894)" class="st6 st13 st15">CAMICADO</text>
			<text transform="matrix(1 0 0 1 330.5186 1024.1755)" class="st6 st13 st14">GAMESTATION</text>
			<text transform="matrix(1 0 0 1 576.136 1155.552)"><tspan x="0" y="0" class="st6 st13 st15">CALIFORNIA</tspan><tspan x="21.4" y="12" class="st6 st13 st15">CAFÉ</tspan></text>
			<text transform="matrix(1 0 0 1 625.9026 1138.5618)" class="st6 st13 st15">VEZPA</text>
			<text transform="matrix(1 0 0 1 546.4648 1201.9091)" class="st6 st13 st15">GULA GULA</text>
			<text transform="matrix(1 0 0 1 572.8702 946.6159)" class="st6 st13 st15">VIA TORINO</text>
			<text transform="matrix(1 0 0 1 596.8497 903.4403)"><tspan x="0" y="0" class="st6 st13 st15">DIVA</tspan><tspan x="-12" y="12" class="st6 st13 st15">CARIOCA</tspan></text>
			<text transform="matrix(1 0 0 1 682.9074 869.0815)" class="st6 st13 st15">MY PLACE</text>
			<text transform="matrix(1 0 0 1 686.4391 970.6948)" class="st6 st13 st15">MILENIUM</text>
			<text transform="matrix(1 0 0 1 743.2595 953.6948)" class="st6 st13 st15">KONI</text>
			<text transform="matrix(1 0 0 1 717.2897 1001.117)" class="st6 st13 st15">CHILI BEANS</text>
			<text transform="matrix(1 0 0 1 853.6202 1088.5624)"><tspan x="0" y="0" class="st6 st13 st15">BURGUER</tspan><tspan x="12.5" y="12" class="st6 st13 st15">KING</tspan></text>
			<text transform="matrix(1 0 0 1 819.4057 1155.5415)"><tspan x="0" y="0" class="st6 st13 st15">TRITON</tspan><tspan x="-4.9" y="12" class="st6 st13 st15">EYEWEAR</tspan></text>
			<text transform="matrix(1 0 0 1 800.8432 1134.5415)" class="st6 st13 st15">EUREKA</text>
			<text transform="matrix(1 0 0 1 763.2504 1078.5415)"><tspan x="0" y="0" class="st6 st13 st15">NICOLLE BY</tspan><tspan x="-2.2" y="12" class="st6 st13 st15">JULIA HADID</tspan></text>
			<text transform="matrix(1 0 0 1 759.7758 1056.5415)" class="st6 st13 st15">AVATIM</text>
			<text transform="matrix(1 0 0 1 729.061 1029.5415)" class="st6 st13 st15">QUICKSILVER</text>
			<text transform="matrix(1 0 0 1 923.9047 731.2466)"><tspan x="0" y="0" class="st6 st13 st15">MC</tspan><tspan x="-19.9" y="12" class="st6 st13 st15">DONALD’S</tspan></text>
			<text transform="matrix(1 0 0 1 938.9516 803.2466)" class="st6 st13 st15">SUBWAY</text>
			<text transform="matrix(1 0 0 1 983.3666 890.2466)" class="st6 st13 st15">GENDAI</text>
			<text transform="matrix(1 0 0 1 941.5711 1075.5801)"><tspan x="0" y="0" class="st6 st13 st15">MR.</tspan><tspan x="-5.3" y="12" class="st6 st13 st15">PIZZA</tspan></text>
			<text transform="matrix(1 0 0 1 991.1417 1055.9133)"><tspan x="0" y="0" class="st6 st13 st15">PORTO</tspan><tspan x="11" y="12" class="st6 st13 st15">DO</tspan><tspan x="0.5" y="24" class="st6 st13 st15">SABOR</tspan></text>
			<text transform="matrix(1 0 0 1 989.2338 1006.2466)"><tspan x="0" y="0" class="st6 st13 st15">HUNGRY</tspan><tspan x="9.8" y="12" class="st6 st13 st15">CLUB</tspan></text>
			<text transform="matrix(1 0 0 1 1028.8298 1025.9133)"><tspan x="0" y="0" class="st6 st13 st15">CHAMPION</tspan><tspan x="15.7" y="12" class="st6 st13 st15">FRIED</tspan><tspan x="10.3" y="24" class="st6 st13 st15">CHIKEN</tspan></text>
			<text transform="matrix(1 0 0 1 936.3416 1042.58)" class="st6 st13 st15">TREMBãO</text>
			<text transform="matrix(1 0 0 1 964.4418 845.2466)"><tspan x="0" y="0" class="st6 st13 st15">DIVINO</tspan><tspan x="1.2" y="12" class="st6 st13 st15">FOGãO</tspan></text>
			<text transform="matrix(1 0 0 1 787.8231 933.0662)"><tspan x="0" y="0" class="st6 st13 st15">BATATA</tspan><tspan x="-2.9" y="12" class="st6 st13 st15">INGLESA</tspan></text>
			<text transform="matrix(1 0 0 1 796.6453 967.0662)"><tspan x="0" y="0" class="st6 st13 st15">CAMARãO</tspan><tspan x="13.4" y="12" class="st6 st13 st15">&amp; CIA</tspan></text>
			<text transform="matrix(1 0 0 1 816.2928 998.0662)" class="st6 st13 st15">SPOLETO</text>
			<text transform="matrix(1 0 0 1 824.4559 1025.0662)"><tspan x="0" y="0" class="st6 st13 st15">MONTANA</tspan><tspan x="13.6" y="12" class="st6 st13 st15">GRILL</tspan></text>
			<text transform="matrix(1 0 0 1 1006.338 780.328)" class="st6 st13 st15">VIRAVOLTA</text>
			<text transform="matrix(1 0 0 1 1011.1885 832.9946)" class="st6 st13 st15">KOPENHAGEM</text>
			<text transform="matrix(1 0 0 1 1014.9274 875.6613)" class="st6 st13 st15">BALADINHA</text>
			<text transform="matrix(1 0 0 1 1058.1908 856.9946)" class="st6 st13 st15">STRAVAGANZA</text>
			<text transform="matrix(1 0 0 1 1002.1368 807.3958)" class="st6 st13 st15">SUNGLASSHUT</text>
			<text transform="matrix(1 0 0 1 1084.6384 967.272)" class="st6 st13 st15">TVZ</text>
			<text transform="matrix(1 0 0 1 1082.8241 1001.9946)" class="st6 st13 st15">MORANA</text>
			<text transform="matrix(1 0 0 1 1102.219 1029.328)" class="st6 st13 st15">KATZ</text>
			<text transform="matrix(1 0 0 1 1071.5936 642.3127)"><tspan x="0" y="0" class="st6 st13 st15">CORPO</tspan><tspan x="-1.1" y="12" class="st6 st13 st15">E ALMA</tspan></text>
			<text transform="matrix(1 0 0 1 1056.6903 614.9793)" class="st6 st13 st15">VIA MIA</text>
			<text transform="matrix(1 0 0 1 1190.7288 686.3127)"><tspan x="0" y="0" class="st6 st13 st15">GOURMIX-</tspan><tspan x="9" y="12" class="st6 st13 st15">BENKEI</tspan></text>
			<text transform="matrix(1 0 0 1 1088.7676 677.8751)" class="st6 st13 st15">HOPE</text>
			<text transform="matrix(1 0 0 1 1088.1514 705.3076)" class="st6 st13 st15">SAMELLO</text>
			<text transform="matrix(1 0 0 1 1102.9951 732.5315)" class="st6 st13 st15">ARMADILLO</text>
			<text transform="matrix(1 0 0 1 985.8306 732.2313)"><tspan x="0" y="0" class="st6 st13 st15">CARMEN</tspan><tspan x="-2.5" y="12" class="st6 st13 st15">STEFFENS</tspan></text>
			<text transform="matrix(1 0 0 1 1091.1426 775.9818)"><tspan x="0" y="0" class="st6 st13 st16">DON</tspan><tspan x="-7" y="12" class="st6 st13 st16">PALETO</tspan></text>
			<text transform="matrix(1 0 0 1 1164.2217 863.249)" class="st6 st13 st15">WOLLNER</text>
			<text transform="matrix(1 0 0 1 1171.8137 892.8571)" class="st6 st13 st15">MR. CAT</text>
			<text transform="matrix(1 0 0 1 1182.7744 927.5798)" class="st6 st13 st15">AREZZO</text>
			<text transform="matrix(1 0 0 1 1172.7833 955.5238)" class="st6 st13 st15">MARIA FILÔ</text>
			<text transform="matrix(1 0 0 1 1176.8336 984.9706)" class="st6 st13 st15">CÓDIGO GIRLS</text>
			<text transform="matrix(1 0 0 1 1202.2284 1017.6373)" class="st6 st13 st15">ENJOY</text>
			<text transform="matrix(1 0 0 1 1195.1942 1041.2101)" class="st6 st13 st15">CLUBE MELISSA</text>
			<text transform="matrix(1 0 0 1 1248.058 888.6636)"><tspan x="0" y="0" class="st6 st13 st15">DELÍRIO</tspan><tspan x="-4.7" y="12" class="st6 st13 st15">TROPICAL</tspan></text>
			<text transform="matrix(1 0 0 1 1188.2258 1105.132)" class="st6 st13 st15">JOSEFINA ROSA COR</text>
			<text transform="matrix(1 0 0 1 1200.8696 1068.9691)"><tspan x="0" y="0" class="st6 st13 st15">L’occitane</tspan><tspan x="-6.2" y="12" class="st6 st13 st15">EN PROVENCE</tspan></text>
			<g>
				<g>
					<text transform="matrix(1 0 0 1 1184.6001 1220.2058)"><tspan x="0" y="0" class="st6 st13 st16">KIDS</tspan><tspan x="-3.2" y="11" class="st6 st13 st16">DRIVE</tspan></text>
				</g>
				<text transform="matrix(1 0 0 1 1184.6001 1220.2058)"><tspan x="0" y="0" class="st6 st13 st16">KIDS</tspan><tspan x="-3.2" y="11" class="st6 st13 st16">DRIVE</tspan></text>
				<g>
					<text transform="matrix(1 0 0 1 1184.6001 1220.2058)"><tspan x="0" y="0" class="st6 st13 st16">KIDS</tspan><tspan x="-3.2" y="11" class="st6 st13 st16">DRIVE</tspan></text>
				</g>
			</g>
			<text transform="matrix(1 0 0 1 1193.5514 1134.5225)" class="st6 st13 st15">CAFÉ DO PONTO</text>
			<text transform="matrix(1 0 0 1 1241.4346 1192.951)" class="st6 st13 st15">DRESS TO</text>
			<text transform="matrix(1 0 0 1 1231.8563 1219.7152)" class="st6 st13 st15">SOBRANCELHAS</text>
			<text transform="matrix(1 0 0 1 1215.13 1304.3185)" class="st6 st13 st15">IN STORE</text>
			<text transform="matrix(1 0 0 1 1183.4891 1445.661)" class="st6 st13 st14">Renner</text>
			<text transform="matrix(1 0 0 1 1008.7123 1357.7689)"><tspan x="0" y="0" class="st6 st13 st15">MAMãE</tspan><tspan x="-4" y="12" class="st6 st13 st15">CARIOCA</tspan></text>
			<text transform="matrix(1 0 0 1 840.3513 1187.3124)"><tspan x="0" y="0" class="st6 st13 st15">ATELIÊ GUGU</tspan><tspan x="5.8" y="12" class="st6 st13 st15">FERNANDO</tspan></text>
			<text transform="matrix(1 0 0 1 656.1146 1264.1317)" class="st6 st13 st15">ZARA HOME</text>
			<text transform="matrix(1 0 0 1 802.3978 1394.1317)" class="st6 st13 st15">ZARA</text>
			<text transform="matrix(1 0 0 1 703.9968 1173.2155)" class="st6 st13 st15">CAPI</text>
			<text transform="matrix(1 0 0 1 662.3975 1120.4633)"><tspan x="0" y="0" class="st6 st13 st15">SALãO ATELIÊ</tspan><tspan x="14.4" y="12" class="st6 st13 st15">TATIANA</tspan><tspan x="17.3" y="24" class="st6 st13 st15">ARAÚJO</tspan></text>
			<text transform="matrix(1 0 0 1 985.9855 1216.3497)" class="st6 st13 st15">SHOULDER</text>
			<text transform="matrix(1 0 0 1 1089.8884 1064.384)" class="st6 st13 st15">NAIL BAR</text>
			<g>
				<g>
					<text transform="matrix(1 0 0 1 1109.4458 894.5365)"><tspan x="0" y="0" class="st6 st13 st16">EMPÓRIO</tspan><tspan x="9.6" y="11" class="st6 st13 st16">BODY</tspan><tspan x="7.9" y="22" class="st6 st13 st16">STORE</tspan></text>
				</g>
				<text transform="matrix(1 0 0 1 1109.4458 894.5365)"><tspan x="0" y="0" class="st6 st13 st16">EMPÓRIO</tspan><tspan x="9.6" y="11" class="st6 st13 st16">BODY</tspan><tspan x="7.9" y="22" class="st6 st13 st16">STORE</tspan></text>
				<g>
					<text transform="matrix(1 0 0 1 1109.4458 894.5365)"><tspan x="0" y="0" class="st6 st13 st16">EMPÓRIO</tspan><tspan x="9.6" y="11" class="st6 st13 st16">BODY</tspan><tspan x="7.9" y="22" class="st6 st13 st16">STORE</tspan></text>
				</g>
			</g>
			<text transform="matrix(1 0 0 1 542.8936 515.1755)" class="st6 st13 st15">ROMANZZA</text>
			<text transform="matrix(1 0 0 1 688.6979 471.022)" class="st6 st13 st15">SCALA</text>
			<text transform="matrix(1 0 0 1 732.76 443.1094)"><tspan x="0" y="0" class="st6 st13 st15">AD LIFE</tspan><tspan x="5.3" y="12" class="st6 st13 st15">STYLE</tspan></text>
			<text transform="matrix(1 0 0 1 773.0165 475.6487)" class="st6 st13 st15">PUKET</text>
			<text transform="matrix(1 0 0 1 894.4287 478.1728)" class="st6 st13 st15">HERING</text>
			<text transform="matrix(1 0 0 1 1014.3346 536.8395)" class="st6 st13 st15">ALÔ BEBÊ</text>
		</g>
	</g>
</g>
</svg>
