<?xml version="1.0" encoding="utf-8"?>
<!-- Generator: Adobe Illustrator 21.1.0, SVG Export Plug-In . SVG Version: 6.00 Build 0)  -->
<svg version="1.1" xmlns="http://www.w3.org/2000/svg" xmlns:xlink="http://www.w3.org/1999/xlink" x="0px" y="0px"
	 viewBox="0 0 1473.9 1900" style="enable-background:new 0 0 1473.9 1900;" xml:space="preserve">
<style type="text/css">
	.st0{clip-path:url(#SVGID_2_);}
	.st1{fill:none;stroke:#FFFFFF;stroke-width:30;stroke-linecap:round;stroke-linejoin:round;stroke-miterlimit:10;}
	.st2{fill:#7F7F7F;}
	.st3{font-family:'DroidSans';}
	.st4{font-size:26px;}
	.st5{fill:#E7E8EA;stroke:#ADADAD;stroke-width:2;stroke-linecap:round;stroke-linejoin:round;stroke-miterlimit:10;}
	.st6{fill:#BDA9CD;}
	.st7{fill:#FFFFFF;stroke:#ADADAD;stroke-width:2;stroke-linecap:round;stroke-linejoin:round;stroke-miterlimit:10;}
	.st8{fill:#8C61B3;}
	.st9{fill:#FFFFFF;}
	.st10{opacity:0.5;}
	.st11{fill:none;stroke:#FFFFFF;stroke-width:3;stroke-linecap:round;stroke-linejoin:round;}
	.st12{font-family:'DroidSans-Bold';}
	.st13{font-size:12px;}
	.st14{font-size:16px;}
	.st15{font-size:10px;}
</style>
<g id="Piso_2">
	<g>
		<g>
			<defs>
				<rect id="SVGID_1_" x="-0.6" width="1475.2" height="1900"/>
			</defs>
			<use xlink:href="#SVGID_1_"  style="overflow:visible;fill:#E5E5E5;"/>
			<clipPath id="SVGID_2_">
				<use xlink:href="#SVGID_1_"  style="overflow:visible;"/>
			</clipPath>
			<g class="st0">
				<line class="st1" x1="-332.2" y1="-436.4" x2="207.7" y2="2521"/>
				<path class="st1" d="M-20.3,1291.3c0,0,42-383.9,132-479.9s228-132,371.9-335.9S819.5-4.5,891.5-82.4s192-144,281.9-186"/>
				<path class="st1" d="M-266.2,409.5c0,0,126,305.9,281.9,275.9c156-30,359.9-60,353.9-323.9C363.6,97.5,63.7,61.5,63.7,61.5
					l-144-48"/>
				<path class="st1" d="M483.6,673.4c0,0-60-36-84-96c-24-60-48-96-48-96"/>
				<path class="st1" d="M75.7,1783.2c0,0,84,132,263.9,72c78.3-26.1,167.9-44.2,264.9-59.9c126-20.3,264.6-36.4,406.9-60.1
					c251.9-42,455.9-84,527.9-54s78,114,54,150c-24,36-443.9,90-593.9,114c-150,24-347.9,66-431.9,60c-84-6-210-36-263.9,0
					s-162,150-162,150"/>
				<path class="st1" d="M567.6,1801.2c0,0-144,42-102,126c42,84,102,84,102,84"/>
				<path class="st1" d="M1347.4,1687.2c0,0,30-66,12-126c-18-60,96-150,90-198S1185.5,199.5,1167.5,121.5c-18-78-12-144-24-174
					c-12-30,6-96,54-72s60,84,90,246c30,162,305.9,1301.7,311.9,1391.7c6,90-18,192-18,192"/>
			</g>
		</g>
		<text transform="matrix(0.8891 -0.1394 0.1549 0.9879 744.4449 1785.8362)" class="st2 st3 st4">Av. Projetada Canindé Pari</text>
		<text transform="matrix(-0.2184 -0.8731 0.9701 -0.2427 1396.5614 551.063)" class="st2 st3 st4">Rua Canindé</text>
		<text transform="matrix(0.8997 -2.148300e-02 2.387000e-02 0.9997 96.7171 376.2096)"><tspan x="0" y="0" class="st2 st3 st4">Praça Vereador</tspan><tspan x="-37.8" y="31.2" class="st2 st3 st4">Oswaldo Teixeira Duo</tspan></text>
	</g>
	<path class="st5" d="M208.3,1430.7l406.9-74.8l4.9,27.8c0,0,6.8,19.2,22.3,19.2s52.6-8.7,52.6-8.7l1.2,10.5l64.3-10.5l11.7,63.1
		l64.3-11.1l10.5,63.1l63.7-9.9l24.1,125.5l63.7-10.5l318.6-57.4l-58.9-319.8l-58.7-319.7l50.7-8.7l-33.4-190.5l-53.2,10.5
		l-51.3-286.9l-31.5-170.1l-10.5-52.6L751.8,278l11.1,62.5l-63.1,12.4l11.1,64.9l-63.1,11.7L672.7,555l-11.1,16.1
		c0,0-43.9-32.2-43.9-30.3c0,1.9-184.3,270.9-184.3,270.9l41.4,29.1L463,856.8l-125.5,23.5l11.1,61.8l-63.7,13.6l11.7,61.8
		l-64.3,12.4l13.7,65.1l-97.8,17.2l19.2,95.2L208.3,1430.7z"/>
	<polygon class="st6" points="1189,861.7 1199.5,917.4 1306.5,1504.9 1243.2,1516.2 1185.8,1473.6 911.2,1360.9 889.2,1370.2 
		764.8,1393.6 692.5,1323.6 333.8,1340.9 313.2,1327.6 258.5,1091.6 429.2,1052.2 412.5,986.9 357.8,996.9 351.2,957.6 430.5,943.6 
		539.2,956.9 583.2,888.9 589.2,850.9 543.4,834.5 549,870.4 495.6,879.9 500.1,903.8 476.2,908.5 469.2,866.7 531.1,854.3 
		518.7,782 474.2,751.7 489,728.8 579.3,598 701.2,680.9 807.8,450.2 1016.5,284.2 1079.8,271.6 	"/>
	<g>
		<polygon class="st7" points="659.2,823.6 705.8,752.2 766.5,741.6 812.5,987.6 751.8,998.9 682.5,950.2 676.5,912.2 671.2,913.6 
			663.4,859.9 665.8,860.2 		"/>
		<polygon class="st7" points="753.8,613.6 672.7,555 647.9,429.5 711,417.7 709.2,405.1 772.2,393.4 751.8,278 1007.2,231.6 
			1045.2,452.2 1085.8,444.9 1093.8,487.6 803.2,541.6 		"/>
		<path class="st7" d="M664.9,868.2l2.8,15.8c0,0,15.2-1.2,17.3-5.9c2.2-4.6-0.6-12.4-6.8-11.7C672.7,866.9,664.9,868.2,664.9,868.2
			z"/>
		<path class="st7" d="M668.7,886.8l2.8,15.8c0,0,15.2-1.2,17.3-5.9c2.2-4.6-0.6-12.4-6.8-11.7C676.4,885.5,668.7,886.8,668.7,886.8
			z"/>
	</g>
	<polygon class="st7" points="1041.2,278.9 1055.2,356.9 1095.2,349.6 1080.7,270.9 	"/>
	<polygon class="st7" points="1033.2,385.4 1045.2,451.9 1085.8,444.9 1074.5,377.6 	"/>
	<polygon class="st7" points="1035.7,521.4 1047.2,586.9 1135.2,570.9 1124.2,505.4 	"/>
	<polygon class="st7" points="1047.2,586.2 1048.5,594.9 1065.7,607.4 1067.7,615.4 1141.2,602.4 1135.7,570.9 	"/>
	<polygon class="st7" points="1067.8,615.6 1141.2,602.9 1146.7,634.9 1073.2,646.9 	"/>
	<polygon class="st7" points="1073.7,646.9 1079.2,679.6 1152.5,666.2 1146.7,634.4 	"/>
	<polygon class="st7" points="1090.5,736.2 1097.8,774.9 1169.2,760.9 1162.5,722.2 	"/>
	<polygon class="st7" points="1097.7,774.4 1103.8,806.9 1175.2,793.6 1169.7,760.9 	"/>
	<polygon class="st7" points="1104.2,806.4 1105.2,815.4 1093.2,833.4 1110.7,933.9 1199.5,917.4 1175.2,792.9 	"/>
	<polygon class="st7" points="1111.2,933.4 1118.2,976.4 1137.7,990.4 1152.2,1067.9 1224.2,1055.5 1199.5,917.4 	"/>
	<polygon class="st7" points="1162.2,1124.9 1236.2,1111 1264.7,1270 1176.2,1286.4 1163.2,1215.4 1175.7,1196.4 	"/>
	<path class="st7" d="M1238.2,1300.4l20,102.5l-58.5,11l9.5,55.5l25-4.5l18,104l-11.5,2c0,0-42.5-39-98-22.5s-67,52.5-67,52.5
		l-77.1,13.4l-10.4-49.9l-24.5,4l-2.5-13l119.5-22.5l-36.5-198L1238.2,1300.4z"/>
	<polygon class="st7" points="909.7,1359.4 1044.7,1334.9 1081.2,1532.9 961.2,1555.4 953.7,1514.9 940.2,1517.4 	"/>
	<polygon class="st7" points="889.7,1369.4 911.7,1498.9 847.2,1509.4 835.7,1446.4 772.2,1457.4 760.7,1395.4 787.2,1357.4 
		823.2,1381.9 	"/>
	<polygon class="st7" points="787.2,1356.9 750.7,1333.9 744.7,1299.4 697.2,1267.4 607.7,1284.4 621.2,1354.9 684.7,1344.4 
		693.7,1405.4 761.2,1394.4 	"/>
	<polygon class="st7" points="575.7,1290.4 607.7,1284.4 621.2,1354.9 589.2,1360.4 	"/>
	<polygon class="st7" points="508.2,1303.4 576.2,1290.9 589.2,1360.9 520.7,1373.4 	"/>
	<polygon class="st7" points="473.2,1315.9 477.7,1308.9 508.7,1302.9 521.2,1373.4 484.7,1379.9 	"/>
	<polygon class="st7" points="433.7,1322.4 444.2,1376.4 483.2,1369.4 473.2,1315.4 	"/>
	<polygon class="st7" points="393.7,1329.9 433.7,1322.4 443.7,1376.9 403.7,1383.9 	"/>
	<polygon class="st7" points="403.7,1383.9 393.2,1329.4 334.2,1340.4 324.7,1354.9 332.7,1397.4 	"/>
	<polygon class="st7" points="207.7,1366.9 297.7,1350.4 315.2,1325.9 306.2,1281.9 196.2,1301.9 	"/>
	<polygon class="st7" points="305.7,1282.4 282.7,1155.4 161.2,1177.4 199.2,1380.4 209.7,1377.9 195.7,1301.9 	"/>
	<polygon class="st7" points="176.7,1107.4 188.2,1172.4 283.7,1155.4 272.7,1092.9 255.2,1095.9 244.7,1040.9 234.7,1042.9 
		244.2,1095.9 	"/>
	<polygon class="st7" points="244.7,1040.9 254.2,1095.4 308.7,1086.4 298.2,1030.9 	"/>
	<polygon class="st7" points="298.7,1031.9 308.2,1086.9 348.2,1079.4 336.2,1014.9 306.7,1020.4 308.7,1029.9 	"/>
	<polygon class="st7" points="336.2,1014.9 376.2,1007.4 387.2,1072.9 348.2,1079.9 	"/>
	<polygon class="st7" points="387.2,1072.9 429.7,1065.4 428.7,1059.9 432.2,1055.4 429.2,1034.9 382.7,1043.9 	"/>
	<polygon class="st7" points="387.7,1004.9 394.2,1041.9 429.2,1034.9 425.7,1016.4 420.2,1011.9 418.2,999.4 	"/>
	<polygon class="st7" points="338.2,880.4 351.7,957.9 396.7,949.4 382.2,871.9 	"/>
	<polygon class="st7" points="382.2,871.9 396.2,949.4 430.7,942.9 428.7,930.4 454.7,925.9 441.7,860.9 	"/>
	
		<rect x="381" y="932.1" transform="matrix(0.9876 -0.1567 0.1567 0.9876 -142.7467 72.4082)" class="st7" width="13.8" height="19.2"/>
	
		<rect x="395" y="929.6" transform="matrix(0.9876 -0.1567 0.1567 0.9876 -142.1822 74.5705)" class="st7" width="13.8" height="19.2"/>
	<polygon class="st7" points="429.2,928.9 441.2,1001.4 488.2,992.9 475.7,920.9 	"/>
	<polygon class="st7" points="475.2,920.9 508.2,914.9 519.2,986.9 488.2,992.9 	"/>
	<polygon class="st7" points="506.7,915.9 539.2,909.9 551.2,980.9 519.2,986.9 	"/>
	<polygon class="st7" points="539.2,909.9 571.2,904.9 584.2,974.9 551.2,980.9 	"/>
	<polygon class="st7" points="571.2,904.4 610.2,897.4 621.7,958.9 612.2,969.9 584.2,973.9 	"/>
	<polygon class="st7" points="610.2,897.4 600.2,841.9 515.7,781.9 464.2,856.9 441.7,860.4 453.2,924.9 	"/>
	<polygon class="st7" points="623.7,627.4 645.2,593.9 727.2,651.4 701.2,687.9 660.2,660.4 664.2,654.9 	"/>
	<polygon class="st7" points="645.2,593.9 672.7,554.9 754.2,613.4 727.2,651.9 	"/>
	<polygon class="st7" points="808.2,629.9 841.2,582.9 904.7,571.9 923.7,674.9 820.2,694.9 	"/>
	<polygon class="st7" points="903.7,571.4 983.7,556.9 993.7,563.4 1000.7,603.4 986.8,623.7 1001.2,694.4 929.7,706.9 	"/>
	<polygon class="st7" points="820.2,694.4 924.2,675.4 929.7,706.4 825.7,725.9 	"/>
	<polygon class="st7" points="825.7,725.4 831.2,757.9 1006.7,726.4 1001.2,693.4 	"/>
	<polygon class="st7" points="831.2,757.9 837.2,789.9 940.7,770.4 935.2,738.9 	"/>
	<polygon class="st7" points="935.2,739.4 941.2,769.9 1012.7,757.4 1007.2,725.9 	"/>
	<polygon class="st7" points="837.7,789.4 843.7,821.4 946.7,802.9 940.2,770.4 	"/>
	<polygon class="st7" points="940.7,770.4 946.7,802.9 1018.2,788.9 1013.2,757.4 	"/>
	<polygon class="st7" points="844.2,820.9 849.7,853.4 952.7,833.9 946.7,802.9 	"/>
	<polygon class="st7" points="946.7,802.4 965.2,900.9 1031.2,887.9 1036.2,881.4 1018.2,788.9 	"/>
	<polygon class="st7" points="849.2,852.9 860.2,913.9 866.2,919.4 933.2,906.9 920.7,839.4 	"/>
	
		<rect x="927.1" y="836.3" transform="matrix(0.9828 -0.1847 0.1847 0.9828 -144.5115 189.26)" class="st7" width="32.6" height="67.7"/>
	<polygon class="st7" points="1254.7,1434.2 1262,1474.2 1300.7,1466.9 1294,1427.6 	"/>
	<polygon class="st7" points="1262,1474.2 1301.3,1467.6 1308,1505.6 1269.3,1512.2 	"/>
	<g>
		<g>
			<circle class="st8" cx="955.5" cy="1596.5" r="24.2"/>
			<g>
				<g>
					<path class="st9" d="M944.9,1610.8c-0.8,0-1.5-0.7-1.5-1.5v-7.4c0-0.8,0.7-1.5,1.5-1.5h6.6v-7.4c0-0.8,0.7-1.5,1.5-1.5h6.4
						v-6.3c0-0.8,0.7-1.5,1.5-1.5h8.3c0.8,0,1.5,0.7,1.5,1.5c0,0.8-0.7,1.5-1.5,1.5h-6.8v6.3c0,0.8-0.7,1.5-1.5,1.5h-6.4v7.4
						c0,0.8-0.7,1.5-1.5,1.5h-6.6v5.9C946.4,1610.1,945.7,1610.8,944.9,1610.8z"/>
				</g>
			</g>
		</g>
		<g>
			<circle class="st8" cx="1280.8" cy="1542.1" r="24.2"/>
			<g>
				<g>
					<path class="st9" d="M1270.2,1556.4c-0.8,0-1.5-0.7-1.5-1.5v-7.4c0-0.8,0.7-1.5,1.5-1.5h6.6v-7.4c0-0.8,0.7-1.5,1.5-1.5h6.4
						v-6.3c0-0.8,0.7-1.5,1.5-1.5h8.3c0.8,0,1.5,0.7,1.5,1.5s-0.7,1.5-1.5,1.5h-6.8v6.3c0,0.8-0.7,1.5-1.5,1.5h-6.4v7.4
						c0,0.8-0.7,1.5-1.5,1.5h-6.6v5.9C1271.7,1555.8,1271,1556.4,1270.2,1556.4z"/>
				</g>
			</g>
		</g>
		<g>
			<circle class="st8" cx="617.2" cy="582.9" r="24.2"/>
			<g>
				<g>
					<path class="st9" d="M606.6,597.2c-0.8,0-1.5-0.7-1.5-1.5v-7.4c0-0.8,0.7-1.5,1.5-1.5h6.6v-7.4c0-0.8,0.7-1.5,1.5-1.5h6.4v-6.3
						c0-0.8,0.7-1.5,1.5-1.5h8.3c0.8,0,1.5,0.7,1.5,1.5c0,0.8-0.7,1.5-1.5,1.5h-6.8v6.3c0,0.8-0.7,1.5-1.5,1.5h-6.4v7.4
						c0,0.8-0.7,1.5-1.5,1.5h-6.6v5.9C608.1,596.5,607.5,597.2,606.6,597.2z"/>
				</g>
			</g>
		</g>
		<g>
			<circle class="st8" cx="467.6" cy="797.5" r="24.2"/>
			<g>
				<g>
					<path class="st9" d="M457,811.8c-0.8,0-1.5-0.7-1.5-1.5v-7.4c0-0.8,0.7-1.5,1.5-1.5h6.6v-7.4c0-0.8,0.7-1.5,1.5-1.5h6.4v-6.3
						c0-0.8,0.7-1.5,1.5-1.5h8.3c0.8,0,1.5,0.7,1.5,1.5c0,0.8-0.7,1.5-1.5,1.5h-6.8v6.3c0,0.8-0.7,1.5-1.5,1.5h-6.4v7.4
						c0,0.8-0.7,1.5-1.5,1.5h-6.6v5.9C458.5,811.1,457.8,811.8,457,811.8z"/>
				</g>
			</g>
		</g>
		<g>
			<circle class="st8" cx="317.1" cy="978.1" r="24.2"/>
			<g>
				<g>
					<path class="st9" d="M306.5,992.4c-0.8,0-1.5-0.7-1.5-1.5v-7.4c0-0.8,0.7-1.5,1.5-1.5h6.6v-7.4c0-0.8,0.7-1.5,1.5-1.5h6.4v-6.3
						c0-0.8,0.7-1.5,1.5-1.5h8.3c0.8,0,1.5,0.7,1.5,1.5c0,0.8-0.7,1.5-1.5,1.5H324v6.3c0,0.8-0.7,1.5-1.5,1.5h-6.4v7.4
						c0,0.8-0.7,1.5-1.5,1.5H308v5.9C308,991.7,307.4,992.4,306.5,992.4z"/>
				</g>
			</g>
		</g>
		<g>
			<circle class="st8" cx="239.5" cy="1400.9" r="24.2"/>
			<g>
				<g>
					<path class="st9" d="M228.9,1415.2c-0.8,0-1.5-0.7-1.5-1.5v-7.4c0-0.8,0.7-1.5,1.5-1.5h6.6v-7.4c0-0.8,0.7-1.5,1.5-1.5h6.4
						v-6.3c0-0.8,0.7-1.5,1.5-1.5h8.3c0.8,0,1.5,0.7,1.5,1.5s-0.7,1.5-1.5,1.5h-6.8v6.3c0,0.8-0.7,1.5-1.5,1.5h-6.4v7.4
						c0,0.8-0.7,1.5-1.5,1.5h-6.6v5.9C230.4,1414.5,229.7,1415.2,228.9,1415.2z"/>
				</g>
			</g>
		</g>
		<g>
			<circle class="st8" cx="653.5" cy="1378.8" r="24.2"/>
			<g>
				<g>
					<path class="st9" d="M642.9,1393.1c-0.8,0-1.5-0.7-1.5-1.5v-7.4c0-0.8,0.7-1.5,1.5-1.5h6.6v-7.4c0-0.8,0.7-1.5,1.5-1.5h6.4
						v-6.3c0-0.8,0.7-1.5,1.5-1.5h8.3c0.8,0,1.5,0.7,1.5,1.5c0,0.8-0.7,1.5-1.5,1.5h-6.8v6.3c0,0.8-0.7,1.5-1.5,1.5h-6.4v7.4
						c0,0.8-0.7,1.5-1.5,1.5h-6.6v5.9C644.4,1392.4,643.8,1393.1,642.9,1393.1z"/>
				</g>
			</g>
		</g>
		<g>
			<circle class="st8" cx="1195.2" cy="1090.5" r="24.2"/>
			<g>
				<g>
					<path class="st9" d="M1184.6,1104.8c-0.8,0-1.5-0.7-1.5-1.5v-7.4c0-0.8,0.7-1.5,1.5-1.5h6.6v-7.4c0-0.8,0.7-1.5,1.5-1.5h6.4
						v-6.3c0-0.8,0.7-1.5,1.5-1.5h8.3c0.8,0,1.5,0.7,1.5,1.5s-0.7,1.5-1.5,1.5h-6.8v6.3c0,0.8-0.7,1.5-1.5,1.5h-6.4v7.4
						c0,0.8-0.7,1.5-1.5,1.5h-6.6v5.9C1186.1,1104.2,1185.4,1104.8,1184.6,1104.8z"/>
				</g>
			</g>
		</g>
		<g>
			<circle class="st8" cx="806.4" cy="1284.1" r="24.2"/>
			<g>
				<g>
					<path class="st9" d="M795.8,1298.4c-0.8,0-1.5-0.7-1.5-1.5v-7.4c0-0.8,0.7-1.5,1.5-1.5h6.6v-7.4c0-0.8,0.7-1.5,1.5-1.5h6.4
						v-6.3c0-0.8,0.7-1.5,1.5-1.5h8.3c0.8,0,1.5,0.7,1.5,1.5s-0.7,1.5-1.5,1.5h-6.8v6.3c0,0.8-0.7,1.5-1.5,1.5h-6.4v7.4
						c0,0.8-0.7,1.5-1.5,1.5h-6.6v5.9C797.3,1297.7,796.7,1298.4,795.8,1298.4z"/>
				</g>
			</g>
		</g>
		<g>
			<circle class="st8" cx="1122.3" cy="698.5" r="24.2"/>
			<g>
				<g>
					<path class="st9" d="M1111.7,712.8c-0.8,0-1.5-0.7-1.5-1.5v-7.4c0-0.8,0.7-1.5,1.5-1.5h6.6v-7.4c0-0.8,0.7-1.5,1.5-1.5h6.4
						v-6.3c0-0.8,0.7-1.5,1.5-1.5h8.3c0.8,0,1.5,0.7,1.5,1.5s-0.7,1.5-1.5,1.5h-6.8v6.3c0,0.8-0.7,1.5-1.5,1.5h-6.4v7.4
						c0,0.8-0.7,1.5-1.5,1.5h-6.6v5.9C1113.2,712.1,1112.6,712.8,1111.7,712.8z"/>
				</g>
			</g>
		</g>
		<g>
			<circle class="st8" cx="1041.2" cy="251.5" r="24.2"/>
			<g>
				<g>
					<path class="st9" d="M1030.7,265.8c-0.8,0-1.5-0.7-1.5-1.5v-7.4c0-0.8,0.7-1.5,1.5-1.5h6.6v-7.4c0-0.8,0.7-1.5,1.5-1.5h6.4
						v-6.3c0-0.8,0.7-1.5,1.5-1.5h8.3c0.8,0,1.5,0.7,1.5,1.5c0,0.8-0.7,1.5-1.5,1.5h-6.8v6.3c0,0.8-0.7,1.5-1.5,1.5h-6.4v7.4
						c0,0.8-0.7,1.5-1.5,1.5h-6.6v5.9C1032.2,265.1,1031.5,265.8,1030.7,265.8z"/>
				</g>
			</g>
		</g>
		<g>
			<circle class="st8" cx="734.7" cy="372" r="24.2"/>
			<g>
				<g>
					<path class="st9" d="M724.1,386.3c-0.8,0-1.5-0.7-1.5-1.5v-7.4c0-0.8,0.7-1.5,1.5-1.5h6.6v-7.4c0-0.8,0.7-1.5,1.5-1.5h6.4v-6.3
						c0-0.8,0.7-1.5,1.5-1.5h8.3c0.8,0,1.5,0.7,1.5,1.5s-0.7,1.5-1.5,1.5h-6.8v6.3c0,0.8-0.7,1.5-1.5,1.5h-6.4v7.4
						c0,0.8-0.7,1.5-1.5,1.5h-6.6v5.9C725.6,385.7,724.9,386.3,724.1,386.3z"/>
				</g>
			</g>
		</g>
		<g>
			<circle class="st8" cx="702.3" cy="783" r="24.2"/>
			<g>
				<g>
					<path class="st9" d="M714.4,772h-4.9c-1,0-2.3,0.4-3.1,1.2l-4.5,4.5l-4.2,4.1h0l-3.9,3.9c-0.4,0.4-0.4,0.4-1.1,0.4h-2.4
						c-2.4,0-3.9,2.2-3.9,4c0,1.8,1.4,4.2,4.1,4.2c0,0,3.3,0,4.3,0c1,0,2.2-0.4,3.2-1.3l12.5-12.5c0.3-0.2,0.4-0.3,0.9-0.3
						c0,0,1.7,0,3.1,0c1.5,0,3.6-1.7,3.6-4.1C718.2,773.6,716,772,714.4,772z M714.2,778h-2.6c-1.1,0-1.6,0.2-2.3,0.8l-12.6,12.6
						c-0.5,0.5-1.2,0.7-2,0.7h-4.2c-1.1,0-2-0.9-2-2.1c0-1.2,0.9-1.8,1.8-1.8h2.9c0.8,0,1.4-0.2,1.9-0.7l12.8-12.8
						c0.5-0.5,1-0.6,1.9-0.6h4.4c1.1,0,1.8,1.2,1.8,1.9C716,776.7,715.5,778,714.2,778z"/>
				</g>
				<g>
					<g>
						<circle class="st9" cx="699.9" cy="771.3" r="2.1"/>
					</g>
					<g>
						<path class="st9" d="M702,777.7v-1.3c0-2.8-4.2-2.8-4.2,0v5.4h0L702,777.7z"/>
					</g>
				</g>
			</g>
		</g>
		<g>
			<circle class="st8" cx="392" cy="912.8" r="24.2"/>
			<g>
				<g>
					<g>
						<path class="st9" d="M382.7,903.3c1.3,0,2.3-1,2.3-2.3c0-1.3-1-2.3-2.3-2.3c-1.3,0-2.3,1-2.3,2.3
							C380.3,902.3,381.4,903.3,382.7,903.3z M385.1,903.9l-4.9,0c-1.7,0-3,1.4-3,3v7.2c0,1.4,2,1.4,2,0v-6.6h0.5v18
							c0,1.9,2.7,1.8,2.7,0v-10.5h0.5v10.5c0,1.8,2.7,1.9,2.7,0v-18h0.5v6.6c0,1.4,2,1.4,2,0v-7.1
							C388.1,905.4,386.9,903.9,385.1,903.9z"/>
					</g>
				</g>
				<g>
					<g>
						<path class="st9" d="M409.2,912.6l-2-6.6c-0.2-0.7-1.2-2.1-2.8-2.1h-3.2c-1.6,0-2.6,1.3-2.8,2.1l-2,6.6
							c-0.4,1.4,1.4,2,1.8,0.6l1.8-6.1h0.5l-3.1,10.8h2.9l0,7.9c0,1.4,2.2,1.4,2.2,0l0-7.9h0.6v8c0,1.4,2.2,1.4,2.2,0v-7.9h2.9
							l-3.1-10.8h0.5l1.8,6.1C407.8,914.6,409.6,914,409.2,912.6z M402.8,903.3c1.3,0,2.3-1,2.3-2.3c0-1.3-1-2.3-2.3-2.3
							c-1.3,0-2.3,1-2.3,2.3C400.5,902.3,401.5,903.3,402.8,903.3z"/>
					</g>
				</g>
				<g>
					<path class="st9" d="M392.2,928.5c-0.2,0-0.4-0.2-0.4-0.4v-30.5c0-0.2,0.2-0.4,0.4-0.4c0.2,0,0.4,0.2,0.4,0.4V928
						C392.7,928.3,392.5,928.5,392.2,928.5z"/>
				</g>
			</g>
		</g>
		<g>
			<circle class="st8" cx="1274" cy="1472.3" r="24.2"/>
			<g>
				<g>
					<g>
						<path class="st9" d="M1264.6,1462.8c1.3,0,2.3-1,2.3-2.3c0-1.3-1-2.3-2.3-2.3c-1.3,0-2.3,1-2.3,2.3
							C1262.3,1461.8,1263.3,1462.8,1264.6,1462.8z M1267.1,1463.3l-4.9,0c-1.7,0-3,1.4-3,3v7.2c0,1.4,2,1.4,2,0v-6.6h0.5v18
							c0,1.9,2.7,1.8,2.7,0v-10.5h0.5v10.5c0,1.8,2.7,1.9,2.7,0v-18h0.5v6.6c0,1.4,2,1.4,2,0v-7.1
							C1270.1,1464.9,1268.9,1463.3,1267.1,1463.3z"/>
					</g>
				</g>
				<g>
					<g>
						<path class="st9" d="M1291.2,1472l-2-6.6c-0.2-0.7-1.2-2.1-2.8-2.1h-3.2c-1.6,0-2.6,1.3-2.8,2.1l-2,6.6
							c-0.4,1.4,1.4,2,1.8,0.6l1.8-6.1h0.5l-3.1,10.8h2.9l0,7.9c0,1.4,2.2,1.4,2.2,0l0-7.9h0.6v8c0,1.4,2.2,1.4,2.2,0v-7.9h2.9
							l-3.1-10.8h0.5l1.8,6.1C1289.8,1474,1291.6,1473.4,1291.2,1472z M1284.8,1462.8c1.3,0,2.3-1,2.3-2.3c0-1.3-1-2.3-2.3-2.3
							c-1.3,0-2.3,1-2.3,2.3C1282.5,1461.7,1283.5,1462.8,1284.8,1462.8z"/>
					</g>
				</g>
				<g>
					<path class="st9" d="M1274.2,1487.9c-0.2,0-0.4-0.2-0.4-0.4V1457c0-0.2,0.2-0.4,0.4-0.4c0.2,0,0.4,0.2,0.4,0.4v30.5
						C1274.6,1487.7,1274.4,1487.9,1274.2,1487.9z"/>
				</g>
			</g>
		</g>
		<g>
			<circle class="st8" cx="1066.4" cy="365.2" r="24.2"/>
			<g>
				<g>
					<g>
						<path class="st9" d="M1057,355.7c1.3,0,2.3-1,2.3-2.3c0-1.3-1-2.3-2.3-2.3c-1.3,0-2.3,1-2.3,2.3
							C1054.7,354.7,1055.7,355.7,1057,355.7z M1059.5,356.2l-4.9,0c-1.7,0-3,1.4-3,3v7.2c0,1.4,2,1.4,2,0v-6.6h0.5v18
							c0,1.9,2.7,1.8,2.7,0v-10.5h0.5v10.5c0,1.8,2.7,1.9,2.7,0v-18h0.5v6.6c0,1.4,2,1.4,2,0v-7.1
							C1062.5,357.8,1061.3,356.2,1059.5,356.2z"/>
					</g>
				</g>
				<g>
					<g>
						<path class="st9" d="M1083.6,364.9l-2-6.6c-0.2-0.7-1.2-2.1-2.8-2.1h-3.2c-1.6,0-2.6,1.3-2.8,2.1l-2,6.6
							c-0.4,1.4,1.4,2,1.8,0.6l1.8-6.1h0.5l-3.1,10.8h2.9l0,7.9c0,1.4,2.2,1.4,2.2,0l0-7.9h0.6v8c0,1.4,2.2,1.4,2.2,0v-7.9h2.9
							l-3.1-10.8h0.5l1.8,6.1C1082.2,366.9,1084,366.3,1083.6,364.9z M1077.2,355.7c1.3,0,2.3-1,2.3-2.3c0-1.3-1-2.3-2.3-2.3
							c-1.3,0-2.3,1-2.3,2.3C1074.9,354.6,1075.9,355.7,1077.2,355.7z"/>
					</g>
				</g>
				<g>
					<path class="st9" d="M1066.6,380.8c-0.2,0-0.4-0.2-0.4-0.4v-30.5c0-0.2,0.2-0.4,0.4-0.4c0.2,0,0.4,0.2,0.4,0.4v30.5
						C1067.1,380.6,1066.9,380.8,1066.6,380.8z"/>
				</g>
			</g>
		</g>
		<g>
			<circle class="st8" cx="700.6" cy="875" r="24.2"/>
			<g>
				<g>
					<path class="st9" d="M708.4,890.9h-15.6c-0.5,0-0.9-0.4-0.9-0.9v-22.6c0-0.5,0.4-0.9,0.9-0.9h15.6c0.5,0,0.9,0.4,0.9,0.9V890
						C709.3,890.5,708.9,890.9,708.4,890.9z M693.7,889.1h13.8v-20.8h-13.8V889.1z"/>
				</g>
				<g>
					<path class="st9" d="M712.3,891.3c-0.5,0-0.9-0.4-0.9-0.9v-26.3h-21.5v26.3c0,0.5-0.4,0.9-0.9,0.9s-0.9-0.4-0.9-0.9v-27.2
						c0-0.5,0.4-0.9,0.9-0.9h23.3c0.5,0,0.9,0.4,0.9,0.9v27.2C713.1,890.9,712.7,891.3,712.3,891.3z"/>
				</g>
				<g>
					<path class="st9" d="M700.6,890.7c-0.5,0-0.9-0.4-0.9-0.9v-22.3c0-0.5,0.4-0.9,0.9-0.9c0.5,0,0.9,0.4,0.9,0.9v22.3
						C701.5,890.4,701.1,890.7,700.6,890.7z"/>
				</g>
				<g>
					<g>
						<g>
							<path class="st9" d="M704.5,860.7c-0.3,0-0.5-0.2-0.5-0.5v-3.5c0-0.3,0.2-0.5,0.5-0.5c0.3,0,0.5,0.2,0.5,0.5v3.5
								C705.1,860.5,704.8,860.7,704.5,860.7z"/>
						</g>
						<g>
							<g>
								<path class="st9" d="M702.4,859c-0.1,0-0.3-0.1-0.4-0.2c-0.2-0.2-0.2-0.6,0-0.8l2-1.8c0.2-0.2,0.6-0.2,0.8,0
									c0.2,0.2,0.2,0.6,0,0.8l-2,1.8C702.7,858.9,702.5,859,702.4,859z"/>
							</g>
							<g>
								<path class="st9" d="M706.7,859c-0.1,0-0.3,0-0.4-0.1l-2-1.8c-0.2-0.2-0.2-0.5,0-0.8c0.2-0.2,0.5-0.2,0.8,0l2,1.8
									c0.2,0.2,0.2,0.5,0,0.8C707,858.9,706.8,859,706.7,859z"/>
							</g>
						</g>
					</g>
					<g>
						<g>
							<path class="st9" d="M696.7,860.7c-0.3,0-0.5-0.2-0.5-0.5v-3.5c0-0.3,0.2-0.5,0.5-0.5c0.3,0,0.5,0.2,0.5,0.5v3.5
								C697.3,860.4,697,860.7,696.7,860.7z"/>
						</g>
						<g>
							<g>
								<path class="st9" d="M696.9,860.7c-0.1,0-0.3-0.1-0.4-0.2c-0.2-0.2-0.2-0.6,0-0.8l2-1.8c0.2-0.2,0.6-0.2,0.8,0
									c0.2,0.2,0.2,0.6,0,0.8l-2,1.8C697.1,860.7,697,860.7,696.9,860.7z"/>
							</g>
							<g>
								<path class="st9" d="M696.6,860.7c-0.1,0-0.3,0-0.4-0.1l-2-1.8c-0.2-0.2-0.2-0.5,0-0.8c0.2-0.2,0.5-0.2,0.8,0l2,1.8
									c0.2,0.2,0.2,0.5,0,0.8C696.9,860.7,696.8,860.7,696.6,860.7z"/>
							</g>
						</g>
					</g>
				</g>
			</g>
		</g>
	</g>
	<polygon class="st7" points="471.2,1080.9 497.2,1040.9 561.8,1029.6 579.8,1132.9 548.5,1139.6 554.5,1171.6 521.8,1177.6 
		524.5,1192.9 493.8,1198.9 	"/>
	<polygon class="st7" points="493.2,1198.9 499.8,1234.9 521.8,1250.9 599.2,1236.2 580.2,1132.9 547.8,1139.6 553.8,1171.6 
		521.2,1177.6 524.5,1192.9 	"/>
	<polygon class="st7" points="561.2,1029.6 592.5,1024.2 611.8,1126.9 579.8,1132.9 	"/>
	<polygon class="st7" points="592.5,1024.2 656.5,1012.2 675.8,1115.6 612.5,1127.2 	"/>
	<polygon class="st7" points="656.2,1012.6 685.2,1006.6 726.8,1035.9 738.8,1103.9 675.5,1115.6 	"/>
	<polygon class="st7" points="726.8,1035.9 742.2,1046.2 792.2,1036.9 808.5,1123.9 744.8,1135.6 	"/>
	<polygon class="st7" points="792.5,1037.2 810.5,1033.6 835.8,1051.2 841.2,1080.9 801.5,1088.2 	"/>
	<polygon class="st7" points="802.2,1088.2 808.5,1124.2 848.2,1116.9 841.5,1081.2 	"/>
	<polygon class="st7" points="808.5,1123.9 815.8,1163.9 855.5,1156.6 848.2,1116.9 	"/>
	<polygon class="st7" points="815.8,1163.9 825.5,1217.2 844.2,1213.9 861.5,1188.6 855.2,1156.6 	"/>
	<polygon class="st7" points="808.2,1124.2 825.8,1216.9 783.5,1224.9 757.5,1207.2 745.2,1135.6 	"/>
	<polygon class="st7" points="580.2,1133.2 738.8,1104.2 757.8,1207.9 598.8,1236.6 	"/>
	<polygon class="st7" points="872.5,983.9 877.8,976.6 975.5,959.2 987.5,1024.9 884.5,1044.9 	"/>
	<polygon class="st7" points="884.2,1044.6 890.2,1075.9 993.8,1056.6 987.8,1024.9 	"/>
	<polygon class="st7" points="890.5,1076.2 993.8,1056.9 999.8,1088.9 896.5,1108.6 	"/>
	<polygon class="st7" points="896.5,1108.2 902.2,1139.9 1005.5,1121.2 999.2,1088.2 	"/>
	<polygon class="st7" points="901.8,1139.9 907.5,1171.9 1011.2,1152.6 1005.5,1120.9 	"/>
	<polygon class="st7" points="907.8,1171.6 919.5,1234.9 1023.2,1216.2 1011.2,1152.2 	"/>
	<polygon class="st7" points="919.8,1234.9 925.2,1267.2 1028.8,1248.2 1022.2,1215.6 	"/>
	<polygon class="st7" points="925.8,1266.9 931.2,1298.6 940.8,1305.6 981.2,1297.9 973.8,1258.2 	"/>
	<polygon class="st7" points="973.5,1258.2 1029.2,1248.2 1036.2,1288.2 981.5,1298.2 	"/>
	<polygon class="st7" points="1036.2,1287.9 1115.8,1273.6 1122.5,1263.6 1115.5,1224.2 1095.8,1211.2 1048.5,951.2 1041.8,946.2 
		975.2,958.9 	"/>
	<g class="st10">
		
			<rect x="721" y="1245.3" transform="matrix(0.184 0.9829 -0.9829 0.184 1830.7611 302.5224)" class="st8" width="24.3" height="17.3"/>
		
			<rect x="862" y="1269.3" transform="matrix(0.184 0.9829 -0.9829 0.184 1969.4055 183.5138)" class="st8" width="24.3" height="17.3"/>
		
			<rect x="773.9" y="993.4" transform="matrix(0.9838 -0.1794 0.1794 0.9838 -166.9757 157.2442)" class="st8" width="23.6" height="16.4"/>
		
			<rect x="959.7" y="920.7" transform="matrix(0.9836 -0.1802 0.1802 0.9836 -151.4638 190.3835)" class="st8" width="25.3" height="16.6"/>
		
			<rect x="891.7" y="934.2" transform="matrix(0.9836 -0.1802 0.1802 0.9836 -155.0086 178.3536)" class="st8" width="25.3" height="16.6"/>
		
			<rect x="803.7" y="950.2" transform="matrix(0.1706 0.9853 -0.9853 0.1706 1621.6483 -9.36)" class="st8" width="25.3" height="16.6"/>
		
			<rect x="792.2" y="885.8" transform="matrix(0.1706 0.9853 -0.9853 0.1706 1548.5581 -51.5283)" class="st8" width="25.3" height="16.6"/>
		
			<rect x="707.2" y="978.3" transform="matrix(0.8282 0.5604 -0.5604 0.8282 676.4944 -233.9572)" class="st8" width="25.3" height="16.6"/>
		
			<rect x="659" y="922.5" transform="matrix(0.1706 0.9853 -0.9853 0.1706 1474.2654 110.2892)" class="st8" width="25.3" height="16.6"/>
		
			<rect x="640.2" y="836.3" transform="matrix(0.1706 0.9853 -0.9853 0.1706 1373.707 57.187)" class="st8" width="25.3" height="16.6"/>
		
			<rect x="767.2" y="753.3" transform="matrix(0.1706 0.9853 -0.9853 0.1706 1397.2632 -136.7966)" class="st8" width="25.3" height="16.6"/>
		
			<rect x="723.2" y="729.3" transform="matrix(0.9821 -0.1886 0.1886 0.9821 -125.8856 152.0106)" class="st8" width="25.3" height="16.6"/>
		
			<rect x="1019.7" y="646.8" transform="matrix(0.1706 0.9853 -0.9853 0.1706 1501.7631 -473.9339)" class="st8" width="25.3" height="16.6"/>
		
			<rect x="667.2" y="708.9" transform="matrix(0.5638 -0.8259 0.8259 0.5638 -295.2157 869.3641)" class="st8" width="16.5" height="10.5"/>
		
			<rect x="603.2" y="802.9" transform="matrix(0.5638 -0.8259 0.8259 0.5638 -400.7693 857.5111)" class="st8" width="16.5" height="10.5"/>
	</g>
</g>
<g id="Texto_2">
	<g>
		<g>
			<text transform="matrix(1 0 0 1 1109.3165 1421.36)" class="st11 st12 st13">RI HAPPY</text>
			<text transform="matrix(1 0 0 1 971.7015 1451.3585)" class="st11 st12 st13">PONTAL</text>
			<text transform="matrix(1 0 0 1 1016.3239 1112.684)"><tspan x="0" y="0" class="st11 st12 st13">CRUZEIROS</tspan><tspan x="20.8" y="12" class="st11 st12 st13">BAR</tspan></text>
			<text transform="matrix(1 0 0 1 898.0552 1001.6895)" class="st11 st12 st13">LE POSTICHE</text>
			<text transform="matrix(1 0 0 1 928.0081 1054.1869)" class="st11 st12 st13">TIM</text>
			<text transform="matrix(1 0 0 1 934.745 1196.6798)" class="st11 st12 st13">DORINHO’S</text>
			<text transform="matrix(1 0 0 1 940.1644 1246.1772)" class="st11 st12 st13">DROGA VALE</text>
			<text transform="matrix(1 0 0 1 922.8632 1286.6753)" class="st11 st12 st13">DHANDA</text>
			<text transform="matrix(1 0 0 1 811.4264 1421.6685)" class="st11 st12 st13">BUNNYS</text>
			<text transform="matrix(1 0 0 1 833.4746 1186.1802)"><tspan x="0" y="0" class="st11 st12 st13">LINA</tspan><tspan x="-2.1" y="12" class="st11 st12 st13">GOLD</tspan></text>
			<text transform="matrix(1 0 0 1 826.0043 1138.1826)"><tspan x="0" y="0" class="st11 st12 st13">STAR</tspan><tspan x="-9.8" y="12" class="st11 st12 st13">CÂMBIO</tspan></text>
			<text transform="matrix(1 0 0 1 816.4099 1100.6844)"><tspan x="0" y="0" class="st11 st12 st13">LIZZIE</tspan><tspan x="2.6" y="12" class="st11 st12 st13">BABY</tspan></text>
			<text transform="matrix(1 0 0 1 807.2346 1060.1865)"><tspan x="0" y="0" class="st11 st12 st13">ÓTICA</tspan><tspan x="3.2" y="12" class="st11 st12 st13">VERA</tspan></text>
			<text transform="matrix(1 0 0 1 747.6854 1087.1852)"><tspan x="0" y="0" class="st11 st12 st13">MARÍLIA</tspan><tspan x="-3.6" y="12" class="st11 st12 st13">MARQUES</tspan></text>
			<text transform="matrix(1 0 0 1 667.6882 1069.186)" class="st11 st12 st13">STARBELA</text>
			<text transform="matrix(1 0 0 1 617.2957 1075.186)"><tspan x="0" y="0" class="st11 st12 st13">TENIS</tspan><tspan x="4.2" y="12" class="st11 st12 st13">ONE</tspan></text>
			<text transform="matrix(1 0 0 1 492.5252 1102.186)" class="st11 st12 st13">OVERBOARD</text>
			<text transform="matrix(1 0 0 1 505.3201 1218.186)" class="st11 st12 st13">DENY SPORTS</text>
			<text transform="matrix(1 0 0 1 650.7791 1322.186)" class="st11 st12 st13">TAKA TAKA</text>
			<text transform="matrix(1 0 0 1 585.9451 1321.186)"><tspan x="0" y="0" class="st11 st12 st13">KING</tspan><tspan x="-5" y="12" class="st11 st12 st13">GAMES</tspan></text>
			<text transform="matrix(1 0 0 1 535.073 1333.186)"><tspan x="0" y="0" class="st11 st12 st13">VENI</tspan><tspan x="1.9" y="12" class="st11 st12 st13">VICI</tspan></text>
			<text transform="matrix(1 0 0 1 482.8347 1339.186)"><tspan x="0" y="0" class="st11 st12 st13">PIZZA</tspan><tspan x="4.4" y="12" class="st11 st12 st13">HUT</tspan></text>
			<text transform="matrix(1 0 0 1 587.8787 922.186)" class="st11 st12 st13">CLARO</text>
			<text transform="matrix(1 0 0 1 554.072 950.186)"><tspan x="0" y="0" class="st11 st12 st13">CHILI</tspan><tspan x="-2.9" y="12" class="st11 st12 st13">BEANS</tspan></text>
			<text transform="matrix(1 0 0 1 509.3865 938.186)"><tspan x="0" y="0" class="st11 st12 st13">CACAU</tspan><tspan x="2.2" y="12" class="st11 st12 st13">SHOW</tspan></text>
			<text transform="matrix(1 0 0 1 478.448 981.186)"><tspan x="0" y="0" class="st11 st12 st13">PODEROSO</tspan><tspan x="12.1" y="12" class="st11 st12 st13">TIMÃO</tspan></text>
			<text transform="matrix(1 0 0 1 430.1228 954.186)" class="st11 st12 st13">SAMSUNG</text>
			<text transform="matrix(1 0 0 1 414.6082 1016.186)"><tspan x="0" y="0" class="st11 st12 st13">ICE</tspan><tspan x="-15.8" y="12" class="st11 st12 st13">MELLOW</tspan></text>
			<text transform="matrix(1 0 0 1 402.5681 1056.186)"><tspan x="0" y="0" class="st11 st12 st13">GRÃO</tspan><tspan x="-12.1" y="12" class="st11 st12 st13">EXPRESSO</tspan></text>
			<text transform="matrix(1 0 0 1 310.9754 1064.186)" class="st11 st12 st13">GRILETTO</text>
			<text transform="matrix(1 0 0 1 260.2742 1063.186)"><tspan x="0" y="0" class="st11 st12 st13">BIG X</tspan><tspan x="-10.7" y="12" class="st11 st12 st13">PICANHA</tspan></text>
			<text transform="matrix(1 0 0 1 206.4207 1131.186)"><tspan x="0" y="0" class="st11 st12 st13">BURGUER</tspan><tspan x="12.5" y="12" class="st11 st12 st13">KING</tspan></text>
			<text transform="matrix(1 0 0 1 200.0867 1230.186)" class="st11 st12 st13">MC DONALD’S</text>
			<text transform="matrix(1 0 0 1 229.3621 1322.186)"><tspan x="0" y="0" class="st11 st12 st13">DIVINO</tspan><tspan x="1.2" y="12" class="st11 st12 st13">FOGÃO</tspan></text>
			<text transform="matrix(1 0 0 1 341.075 1030.186)"><tspan x="0" y="0" class="st11 st12 st13">PLANET</tspan><tspan x="-4.1" y="12" class="st11 st12 st13">CHICKEN</tspan></text>
			<text transform="matrix(1 0 0 1 450.1062 1337.186)"><tspan x="0" y="0" class="st11 st12 st13">JIN</tspan><tspan x="0" y="12" class="st11 st12 st13">JIN</tspan><tspan x="-4.9" y="24" class="st11 st12 st13">WOK</tspan></text>
			<text transform="matrix(1 0 0 1 390.9969 1344.186)"><tspan x="0" y="0" class="st11 st12 st13">PATRONI</tspan><tspan x="9.8" y="12" class="st11 st12 st13">PIZZA</tspan></text>
			<text transform="matrix(1 0 0 1 333.1394 1372.186)" class="st11 st12 st13">GIRAFFAS</text>
			<text transform="matrix(1 0 0 1 637.8389 1176.1812)" class="st11 st12 st13">POLISHOP</text>
			<text transform="matrix(1 0 0 1 739.8366 1175.6807)"><tspan x="0" y="0" class="st11 st12 st13">MADRINHAS</tspan><tspan x="31.5" y="12" class="st11 st12 st13">&amp;</tspan><tspan x="-3.2" y="24" class="st11 st12 st13">CONVIDADOS</tspan></text>
			<text transform="matrix(1 0 0 1 867.0698 397.2198)" class="st11 st12 st14">MARISA</text>
			<text transform="matrix(1 0 0 1 1190.4005 1199.6797)"><tspan x="0" y="0" class="st11 st12 st13">MOCOTÓ</tspan><tspan x="11.8" y="12" class="st11 st12 st13">CAFÉ</tspan></text>
			<text transform="matrix(1 0 0 1 1156.4127 979.1907)"><tspan x="0" y="0" class="st11 st12 st13">QUE</tspan><tspan x="-20.4" y="12" class="st11 st12 st13">VANTAGEM</tspan><tspan x="-22.9" y="24" class="st11 st12 st13">MARIA LEVA</tspan></text>
			<text transform="matrix(1 0 0 1 1115.1113 863.6965)"><tspan x="0" y="0" class="st11 st12 st13">LA PASTA</tspan><tspan x="5.6" y="12" class="st11 st12 st13">GIALLA</tspan></text>
			<text transform="matrix(1 0 0 1 1108.4757 787.2003)"><tspan x="0" y="0" class="st11 st12 st13">GIARDINO</tspan><tspan x="10" y="12" class="st11 st12 st13">FESTAS</tspan></text>
			<text transform="matrix(1 0 0 1 1091.8562 754.202)" class="st11 st12 st13">FRANS CAFÉ</text>
			<text transform="matrix(1 0 0 1 943.8864 609.2019)"><tspan x="0" y="0" class="st11 st12 st13">CAIXA</tspan><tspan x="-18.8" y="12" class="st11 st12 st13">ECONÔMICA</tspan><tspan x="-7.4" y="24" class="st11 st12 st13">FEDERAL</tspan></text>
			<text transform="matrix(1 0 0 1 858.2682 631.2019)" class="st11 st12 st13">TNG</text>
			<text transform="matrix(1 0 0 1 631.0313 649.201)" class="st11 st12 st13">SIMULASSÃO</text>
			<text transform="matrix(1 0 0 1 856.9753 706.202)" class="st11 st12 st13">LUPO</text>
			<text transform="matrix(1 0 0 1 874.8317 730.202)" class="st11 st12 st13">AMIGA MODAS</text>
			<text transform="matrix(1 0 0 1 956.4587 753.202)" class="st11 st12 st13">ZEN ZEN</text>
			<text transform="matrix(1 0 0 1 952.3024 782.2019)" class="st11 st12 st13">ESPAÇO LASER</text>
			<text transform="matrix(1 0 0 1 970.6745 839.2019)"><tspan x="0" y="0" class="st11 st12 st13">RENATA</tspan><tspan x="6.4" y="12" class="st11 st12 st13">STYLE</tspan></text>
			<text transform="matrix(1 0 0 1 865.3005 881.2019)" class="st11 st12 st13">BARRED’S</text>
			<text transform="matrix(1 0 0 1 865.3298 833.2019)" class="st11 st12 st13">MR. KISTCH</text>
			<text transform="matrix(1 0 0 1 831.8522 802.2019)" class="st11 st12 st13">AIZA COLLECTION</text>
			<text transform="matrix(1 0 0 1 834.6657 769.2019)" class="st11 st12 st13">MANGA PITANGA</text>
			<text transform="matrix(1 0 0 1 938.069 894.2019)" class="st11 st12 st13">MONTEBELLO</text>
			<text transform="matrix(1 0 0 1 852.5196 1284.823)"><tspan x="0" y="0" class="st11 st12 st15">BURGUER</tspan><tspan x="10.4" y="10" class="st11 st12 st15">KING</tspan></text>
			<text transform="matrix(1 0 0 1 1036.6744 662.6465)"><tspan x="0" y="0" class="st11 st12 st15">MC</tspan><tspan x="-17.9" y="10" class="st11 st12 st15">DONALD’ S</tspan></text>
			<text transform="matrix(1 0 0 1 886.5324 945.6465)"><tspan x="0" y="0" class="st11 st12 st15">QUALITY</tspan><tspan x="11.2" y="10" class="st11 st12 st15">MIX</tspan></text>
			<text transform="matrix(1 0 0 1 820.2144 957.6465)"><tspan x="0" y="0" class="st11 st12 st15">LAS</tspan><tspan x="-11.3" y="10" class="st11 st12 st15">CONDES</tspan></text>
			<text transform="matrix(1 0 0 1 812.2853 895.6465)"><tspan x="0" y="0" class="st11 st12 st15">MR.</tspan><tspan x="-13.3" y="10" class="st11 st12 st15">PRETZELS</tspan></text>
			<text transform="matrix(1 0 0 1 758.2612 768.3132)" class="st11 st12 st15">SMARTOUCH</text>
			<text transform="matrix(1 0 0 1 724.2441 734.9799)" class="st11 st12 st15">MOMENTUM</text>
			<text transform="matrix(1 0 0 1 676.4728 720.9799)" class="st11 st12 st15">PLENITUDE</text>
			<text transform="matrix(1 0 0 1 589.8062 807.6465)" class="st11 st12 st15">PLENITUDE</text>
			<text transform="matrix(1 0 0 1 635.0472 934.3132)"><tspan x="0" y="0" class="st11 st12 st15">FUTURA</tspan><tspan x="1.6" y="10" class="st11 st12 st15">MOTOS</tspan></text>
			<text transform="matrix(1 0 0 1 670.3327 986.3132)" class="st11 st12 st15">SHOWCOLATE</text>
			<text transform="matrix(1 0 0 1 774.21 1008.6169)" class="st11 st12 st15">NEXTEL</text>
			<g>
				<g>
					<text transform="matrix(1 0 0 1 348.071 1189.6703)"><tspan x="0" y="0" class="st11 st12 st14">PRAÇA DE</tspan><tspan x="-19.1" y="16" class="st11 st12 st14">ALIMENTAÇÃO</tspan></text>
				</g>
				<text transform="matrix(1 0 0 1 348.071 1189.6703)"><tspan x="0" y="0" class="st11 st12 st14">PRAÇA DE</tspan><tspan x="-19.1" y="16" class="st11 st12 st14">ALIMENTAÇÃO</tspan></text>
				<g>
					<text transform="matrix(1 0 0 1 348.071 1189.6703)"><tspan x="0" y="0" class="st11 st12 st14">PRAÇA DE</tspan><tspan x="-19.1" y="16" class="st11 st12 st14">ALIMENTAÇÃO</tspan></text>
				</g>
			</g>
		</g>
		<g>
			<text transform="matrix(1 0 0 1 1109.3165 1421.36)" class="st8 st12 st13">RI HAPPY</text>
			<text transform="matrix(1 0 0 1 971.7015 1451.3585)" class="st8 st12 st13">PONTAL</text>
			<text transform="matrix(1 0 0 1 1016.3239 1112.684)"><tspan x="0" y="0" class="st8 st12 st13">CRUZEIROS</tspan><tspan x="20.8" y="12" class="st8 st12 st13">BAR</tspan></text>
			<text transform="matrix(1 0 0 1 898.0552 1001.6895)" class="st8 st12 st13">LE POSTICHE</text>
			<text transform="matrix(1 0 0 1 928.0081 1054.1869)" class="st8 st12 st13">TIM</text>
			<text transform="matrix(1 0 0 1 934.745 1196.6798)" class="st8 st12 st13">DORINHO’S</text>
			<text transform="matrix(1 0 0 1 940.1644 1246.1772)" class="st8 st12 st13">DROGA VALE</text>
			<text transform="matrix(1 0 0 1 922.8632 1286.6753)" class="st8 st12 st13">DHANDA</text>
			<text transform="matrix(1 0 0 1 811.4264 1421.6685)" class="st8 st12 st13">BUNNYS</text>
			<text transform="matrix(1 0 0 1 833.4746 1186.1802)"><tspan x="0" y="0" class="st8 st12 st13">LINA</tspan><tspan x="-2.1" y="12" class="st8 st12 st13">GOLD</tspan></text>
			<text transform="matrix(1 0 0 1 826.0043 1138.1826)"><tspan x="0" y="0" class="st8 st12 st13">STAR</tspan><tspan x="-9.8" y="12" class="st8 st12 st13">CÂMBIO</tspan></text>
			<text transform="matrix(1 0 0 1 816.4099 1100.6844)"><tspan x="0" y="0" class="st8 st12 st13">LIZZIE</tspan><tspan x="2.6" y="12" class="st8 st12 st13">BABY</tspan></text>
			<text transform="matrix(1 0 0 1 807.2346 1060.1865)"><tspan x="0" y="0" class="st8 st12 st13">ÓTICA</tspan><tspan x="3.2" y="12" class="st8 st12 st13">VERA</tspan></text>
			<text transform="matrix(1 0 0 1 747.6854 1087.1852)"><tspan x="0" y="0" class="st8 st12 st13">MARÍLIA</tspan><tspan x="-3.6" y="12" class="st8 st12 st13">MARQUES</tspan></text>
			<text transform="matrix(1 0 0 1 667.6882 1069.186)" class="st8 st12 st13">STARBELA</text>
			<text transform="matrix(1 0 0 1 617.2957 1075.186)"><tspan x="0" y="0" class="st8 st12 st13">TENIS</tspan><tspan x="4.2" y="12" class="st8 st12 st13">ONE</tspan></text>
			<text transform="matrix(1 0 0 1 492.5252 1102.186)" class="st8 st12 st13">OVERBOARD</text>
			<text transform="matrix(1 0 0 1 505.3201 1218.186)" class="st8 st12 st13">DENY SPORTS</text>
			<text transform="matrix(1 0 0 1 650.7791 1322.186)" class="st8 st12 st13">TAKA TAKA</text>
			<text transform="matrix(1 0 0 1 585.9451 1321.186)"><tspan x="0" y="0" class="st8 st12 st13">KING</tspan><tspan x="-5" y="12" class="st8 st12 st13">GAMES</tspan></text>
			<text transform="matrix(1 0 0 1 535.073 1333.186)"><tspan x="0" y="0" class="st8 st12 st13">VENI</tspan><tspan x="1.9" y="12" class="st8 st12 st13">VICI</tspan></text>
			<text transform="matrix(1 0 0 1 482.8347 1339.186)"><tspan x="0" y="0" class="st8 st12 st13">PIZZA</tspan><tspan x="4.4" y="12" class="st8 st12 st13">HUT</tspan></text>
			<text transform="matrix(1 0 0 1 587.8787 922.186)" class="st8 st12 st13">CLARO</text>
			<text transform="matrix(1 0 0 1 554.072 950.186)"><tspan x="0" y="0" class="st8 st12 st13">CHILI</tspan><tspan x="-2.9" y="12" class="st8 st12 st13">BEANS</tspan></text>
			<text transform="matrix(1 0 0 1 509.3865 938.186)"><tspan x="0" y="0" class="st8 st12 st13">CACAU</tspan><tspan x="2.2" y="12" class="st8 st12 st13">SHOW</tspan></text>
			<text transform="matrix(1 0 0 1 478.448 981.186)"><tspan x="0" y="0" class="st8 st12 st13">PODEROSO</tspan><tspan x="12.1" y="12" class="st8 st12 st13">TIMÃO</tspan></text>
			<text transform="matrix(1 0 0 1 430.1228 954.186)" class="st8 st12 st13">SAMSUNG</text>
			<text transform="matrix(1 0 0 1 414.6082 1016.186)"><tspan x="0" y="0" class="st8 st12 st13">ICE</tspan><tspan x="-15.8" y="12" class="st8 st12 st13">MELLOW</tspan></text>
			<text transform="matrix(1 0 0 1 402.5681 1056.186)"><tspan x="0" y="0" class="st8 st12 st13">GRÃO</tspan><tspan x="-12.1" y="12" class="st8 st12 st13">EXPRESSO</tspan></text>
			<text transform="matrix(1 0 0 1 310.9754 1064.186)" class="st8 st12 st13">GRILETTO</text>
			<text transform="matrix(1 0 0 1 260.2742 1063.186)"><tspan x="0" y="0" class="st8 st12 st13">BIG X</tspan><tspan x="-10.7" y="12" class="st8 st12 st13">PICANHA</tspan></text>
			<text transform="matrix(1 0 0 1 206.4207 1131.186)"><tspan x="0" y="0" class="st8 st12 st13">BURGUER</tspan><tspan x="12.5" y="12" class="st8 st12 st13">KING</tspan></text>
			<text transform="matrix(1 0 0 1 200.0867 1230.186)" class="st8 st12 st13">MC DONALD’S</text>
			<text transform="matrix(1 0 0 1 229.3621 1322.186)"><tspan x="0" y="0" class="st8 st12 st13">DIVINO</tspan><tspan x="1.2" y="12" class="st8 st12 st13">FOGÃO</tspan></text>
			<text transform="matrix(1 0 0 1 341.075 1030.186)"><tspan x="0" y="0" class="st8 st12 st13">PLANET</tspan><tspan x="-4.1" y="12" class="st8 st12 st13">CHICKEN</tspan></text>
			<text transform="matrix(1 0 0 1 450.1062 1337.186)"><tspan x="0" y="0" class="st8 st12 st13">JIN</tspan><tspan x="0" y="12" class="st8 st12 st13">JIN</tspan><tspan x="-4.9" y="24" class="st8 st12 st13">WOK</tspan></text>
			<text transform="matrix(1 0 0 1 390.9969 1344.186)"><tspan x="0" y="0" class="st8 st12 st13">PATRONI</tspan><tspan x="9.8" y="12" class="st8 st12 st13">PIZZA</tspan></text>
			<text transform="matrix(1 0 0 1 333.1394 1372.186)" class="st8 st12 st13">GIRAFFAS</text>
			<text transform="matrix(1 0 0 1 637.8389 1176.1812)" class="st8 st12 st13">POLISHOP</text>
			<text transform="matrix(1 0 0 1 739.8366 1175.6807)"><tspan x="0" y="0" class="st8 st12 st13">MADRINHAS</tspan><tspan x="31.5" y="12" class="st8 st12 st13">&amp;</tspan><tspan x="-3.2" y="24" class="st8 st12 st13">CONVIDADOS</tspan></text>
			<text transform="matrix(1 0 0 1 867.0698 397.2198)" class="st8 st12 st14">MARISA</text>
			<text transform="matrix(1 0 0 1 1190.4005 1199.6797)"><tspan x="0" y="0" class="st8 st12 st13">MOCOTÓ</tspan><tspan x="11.8" y="12" class="st8 st12 st13">CAFÉ</tspan></text>
			<text transform="matrix(1 0 0 1 1156.4127 979.1907)"><tspan x="0" y="0" class="st8 st12 st13">QUE</tspan><tspan x="-20.4" y="12" class="st8 st12 st13">VANTAGEM</tspan><tspan x="-22.9" y="24" class="st8 st12 st13">MARIA LEVA</tspan></text>
			<text transform="matrix(1 0 0 1 1115.1113 863.6965)"><tspan x="0" y="0" class="st8 st12 st13">LA PASTA</tspan><tspan x="5.6" y="12" class="st8 st12 st13">GIALLA</tspan></text>
			<text transform="matrix(1 0 0 1 1108.4757 787.2003)"><tspan x="0" y="0" class="st8 st12 st13">GIARDINO</tspan><tspan x="10" y="12" class="st8 st12 st13">FESTAS</tspan></text>
			<text transform="matrix(1 0 0 1 1091.8562 754.202)" class="st8 st12 st13">FRANS CAFÉ</text>
			<text transform="matrix(1 0 0 1 943.8864 609.2019)"><tspan x="0" y="0" class="st8 st12 st13">CAIXA</tspan><tspan x="-18.8" y="12" class="st8 st12 st13">ECONÔMICA</tspan><tspan x="-7.4" y="24" class="st8 st12 st13">FEDERAL</tspan></text>
			<text transform="matrix(1 0 0 1 858.2682 631.2019)" class="st8 st12 st13">TNG</text>
			<text transform="matrix(1 0 0 1 631.0313 649.201)" class="st8 st12 st13">SIMULASSÃO</text>
			<text transform="matrix(1 0 0 1 856.9753 706.202)" class="st8 st12 st13">LUPO</text>
			<text transform="matrix(1 0 0 1 874.8317 730.202)" class="st8 st12 st13">AMIGA MODAS</text>
			<text transform="matrix(1 0 0 1 956.4587 753.202)" class="st8 st12 st13">ZEN ZEN</text>
			<text transform="matrix(1 0 0 1 952.3024 782.2019)" class="st8 st12 st13">ESPAÇO LASER</text>
			<text transform="matrix(1 0 0 1 970.6745 839.2019)"><tspan x="0" y="0" class="st8 st12 st13">RENATA</tspan><tspan x="6.4" y="12" class="st8 st12 st13">STYLE</tspan></text>
			<text transform="matrix(1 0 0 1 865.3005 881.2019)" class="st8 st12 st13">BARRED’S</text>
			<text transform="matrix(1 0 0 1 865.3298 833.2019)" class="st8 st12 st13">MR. KISTCH</text>
			<text transform="matrix(1 0 0 1 831.8522 802.2019)" class="st8 st12 st13">AIZA COLLECTION</text>
			<text transform="matrix(1 0 0 1 834.6657 769.2019)" class="st8 st12 st13">MANGA PITANGA</text>
			<text transform="matrix(1 0 0 1 938.069 894.2019)" class="st8 st12 st13">MONTEBELLO</text>
			<text transform="matrix(1 0 0 1 852.5196 1284.823)"><tspan x="0" y="0" class="st8 st12 st15">BURGUER</tspan><tspan x="10.4" y="10" class="st8 st12 st15">KING</tspan></text>
			<text transform="matrix(1 0 0 1 1036.6744 662.6465)"><tspan x="0" y="0" class="st8 st12 st15">MC</tspan><tspan x="-17.9" y="10" class="st8 st12 st15">DONALD’ S</tspan></text>
			<text transform="matrix(1 0 0 1 886.5324 945.6465)"><tspan x="0" y="0" class="st8 st12 st15">QUALITY</tspan><tspan x="11.2" y="10" class="st8 st12 st15">MIX</tspan></text>
			<text transform="matrix(1 0 0 1 820.2144 957.6465)"><tspan x="0" y="0" class="st8 st12 st15">LAS</tspan><tspan x="-11.3" y="10" class="st8 st12 st15">CONDES</tspan></text>
			<text transform="matrix(1 0 0 1 812.2853 895.6465)"><tspan x="0" y="0" class="st8 st12 st15">MR.</tspan><tspan x="-13.3" y="10" class="st8 st12 st15">PRETZELS</tspan></text>
			<text transform="matrix(1 0 0 1 758.2612 768.3132)" class="st8 st12 st15">SMARTOUCH</text>
			<text transform="matrix(1 0 0 1 724.2441 734.9799)" class="st8 st12 st15">MOMENTUM</text>
			<text transform="matrix(1 0 0 1 676.4728 720.9799)" class="st8 st12 st15">PLENITUDE</text>
			<text transform="matrix(1 0 0 1 589.8062 807.6465)" class="st8 st12 st15">PLENITUDE</text>
			<text transform="matrix(1 0 0 1 635.0472 934.3132)"><tspan x="0" y="0" class="st8 st12 st15">FUTURA</tspan><tspan x="1.6" y="10" class="st8 st12 st15">MOTOS</tspan></text>
			<text transform="matrix(1 0 0 1 670.3327 986.3132)" class="st8 st12 st15">SHOWCOLATE</text>
			<text transform="matrix(1 0 0 1 774.21 1008.6169)" class="st8 st12 st15">NEXTEL</text>
			<g>
				<text transform="matrix(1 0 0 1 348.071 1189.6703)"><tspan x="0" y="0" class="st8 st12 st14">PRAÇA DE</tspan><tspan x="-19.1" y="16" class="st8 st12 st14">ALIMENTAÇÃO</tspan></text>
			</g>
		</g>
	</g>
</g>
</svg>
