<?xml version="1.0" encoding="utf-8"?>
<!-- Generator: Adobe Illustrator 21.1.0, SVG Export Plug-In . SVG Version: 6.00 Build 0)  -->
<svg version="1.1" xmlns="http://www.w3.org/2000/svg" xmlns:xlink="http://www.w3.org/1999/xlink" x="0px" y="0px"
	 viewBox="0 0 1473.9 1900" style="enable-background:new 0 0 1473.9 1900;" xml:space="preserve">
<style type="text/css">
	.st0{fill:#E6E6E6;}
	.st1{fill:#E5E6E8;stroke:#ABABAB;stroke-width:2;stroke-linecap:round;stroke-linejoin:round;stroke-miterlimit:10;}
	.st2{fill:#BBA7CB;}
	.st3{clip-path:url(#SVGID_2_);}
	.st4{fill:none;stroke:#FFFFFF;stroke-width:50;stroke-linecap:round;stroke-linejoin:round;stroke-miterlimit:10;}
	.st5{fill:none;stroke:#FFFFFF;stroke-width:30;stroke-linecap:round;stroke-linejoin:round;stroke-miterlimit:10;}
	.st6{fill:#7F7F7F;}
	.st7{font-family:'DroidSans';}
	.st8{font-size:26px;}
	.st9{opacity:0.5;}
	.st10{fill:#8A61B1;}
	.st11{fill:#FFFFFF;stroke:#ABABAB;stroke-width:2;stroke-linecap:round;stroke-linejoin:round;stroke-miterlimit:10;}
	.st12{opacity:0.5;fill:#8A61B1;}
	.st13{fill:#FFFFFF;}
	.st14{fill:#8C61B3;}
	.st15{fill:none;stroke:#FFFFFF;stroke-width:3;stroke-linecap:round;stroke-linejoin:round;}
	.st16{font-family:'DroidSans-Bold';}
	.st17{font-size:12px;}
	.st18{font-size:10px;}
</style>
<g id="Piso_2">
	<g id="mapa_copy_2">
		<rect x="-0.5" class="st0" width="1475" height="1900"/>
		<g id="PIso_1_Base_copy_2">
		</g>
	</g>
	<polygon class="st1" points="508.2,1449.9 561.6,1437.3 560.2,1424.9 940.2,1342.9 943.2,1356.9 992.2,1346.9 990.3,1335.7 
		1018.2,1329.9 1331.2,1416.9 1297.2,1255.9 1334.2,1248.9 1245.2,827.9 1206.2,836.4 1179.2,700.9 1215.2,692.9 1147.2,373.9 
		275.2,560.9 378.2,956.9 405.2,950.9 	"/>
	<path class="st2" d="M1251.8,1269.6l-98.7-346.7l45.5-122l-19.5-100l-24.7,5.3l-112.7-233.3l-86-9.3l-220,56l-288,56l-33.3,94.7
		l-57.3,11.3l44.7,20l34.7,159.3l1.3,7.3l99.3,193.2l-80.5,140l51.8,248.2l52.7-12v-13.3l378.7-80.7l3.3,13.3l49.3-9.3l-0.7-20.7
		l33.3-4l11,11.5l216.6,60.1L1251.8,1269.6z M581.2,1174.2l-43.3-200.7l174.7-36.7l82-1.3l22.7,109.3l33.3-6l17.3,74.7L581.2,1174.2
		z M921.8,1021.6l-22-100l67.3-14l20.7,99.3L921.8,1021.6z"/>
	<g>
		<defs>
			<rect id="SVGID_1_" x="-0.5" width="1475" height="1900"/>
		</defs>
		<clipPath id="SVGID_2_">
			<use xlink:href="#SVGID_1_"  style="overflow:visible;"/>
		</clipPath>
		<g class="st3">
			<line class="st4" x1="-710.3" y1="2017.4" x2="2392.6" y2="1423.5"/>
			<line class="st4" x1="-717.3" y1="2102.4" x2="2381" y2="1508.5"/>
			<line class="st5" x1="2113.7" y1="-34.5" x2="-1131.9" y2="605.5"/>
			<line class="st5" x1="-164.3" y1="-196.4" x2="341.3" y2="2341.1"/>
		</g>
		<g class="st3">
			<text transform="matrix(0.8851 -0.1633 0.1815 0.9834 768.1768 1740.969)" class="st6 st7 st8">Av Paulista</text>
		</g>
		<g class="st3">
			<text transform="matrix(0.8832 -0.1731 0.1924 0.9813 480.2779 296.5968)" class="st6 st7 st8">Rua São Carlos do Pinhal</text>
		</g>
		<g class="st3">
			<text transform="matrix(-0.1778 -0.8823 0.9803 -0.1975 131.4247 1232.2744)" class="st6 st7 st8">Rua Pamplona</text>
		</g>
	</g>
	<g class="st9">
		<g>
			<polygon class="st10" points="1104.7,1230.9 1157.2,1219.9 1170.2,1278.4 1117.7,1288.9 			"/>
			
				<rect x="1076.8" y="752" transform="matrix(0.9817 -0.1905 0.1905 0.9817 -125.3637 222.1406)" class="st10" width="31.3" height="22"/>
			
				<rect x="461.4" y="715.3" transform="matrix(0.9755 -0.2201 0.2201 0.9755 -149.416 121.8675)" class="st10" width="21.5" height="32.2"/>
			
				<rect x="603.4" y="849.8" transform="matrix(0.9755 -0.2201 0.2201 0.9755 -175.5408 156.4261)" class="st10" width="21.5" height="32.2"/>
			
				<rect x="688.6" y="823.7" transform="matrix(0.9755 -0.2201 0.2201 0.9755 -167.4084 173.6341)" class="st10" width="13.6" height="28.6"/>
			
				<rect x="479.2" y="778.9" transform="matrix(0.9755 -0.2201 0.2201 0.9755 -163.7068 127.1177)" class="st10" width="18.6" height="38.5"/>
		</g>
		<polygon class="st10" points="536.7,667.9 649.7,643.4 661.2,692.9 622.2,701.9 646.2,810.9 570.7,826.4 		"/>
	</g>
	<g>
		<g>
			<g>
				<polygon class="st11" points="797.8,946.9 829.8,940.2 846.5,1024.9 814.5,1031.2 				"/>
				<line class="st11" x1="803.8" y1="974.2" x2="835.8" y2="968.2"/>
				<line class="st11" x1="810.2" y1="1002.9" x2="840.8" y2="997.9"/>
			</g>
			<g>
				<polygon class="st11" points="866.5,932.9 900.7,926.2 918.5,1009.9 883.8,1017.6 				"/>
				<line class="st11" x1="872.9" y1="961.3" x2="907.1" y2="954"/>
				<line class="st11" x1="878.2" y1="989.9" x2="912.1" y2="981.8"/>
			</g>
			<g>
				<polygon class="st11" points="901.2,929.9 938,921.6 956.5,1013.7 920.5,1021.6 				"/>
				<line class="st11" x1="909.2" y1="960" x2="944.2" y2="951.9"/>
				<line class="st11" x1="914.3" y1="989.8" x2="949.8" y2="982.5"/>
			</g>
			<polygon class="st11" points="970.5,1242.6 989.8,1335.6 1017.2,1329.4 1036.2,1334.4 1039.2,1326.4 1059.2,1331.9 
				1080.7,1327.4 1077.7,1311.4 1083.7,1309.9 1064.2,1221.9 			"/>
		</g>
		<polygon class="st11" points="970.5,1242.9 1064.2,1221.9 1046.5,1142.9 951.8,1163.6 		"/>
		<polygon class="st11" points="1031.2,1064.9 935.2,1084.9 951.8,1163.6 1046.5,1142.9 		"/>
		<polygon class="st11" points="935.2,1085.4 1030.5,1064.9 1022.7,1027.4 1055.7,976.9 985.2,991.9 987.8,1006.9 921.8,1021.6 		
			"/>
		<polygon class="st11" points="966.2,901.9 985.2,992.4 1055.7,976.9 1038.7,897.4 1025.2,888.9 		"/>
		<polygon class="st12" points="865.7,906.4 918.7,895.4 923.7,916.4 870.2,927.4 		"/>
		<polygon class="st11" points="705.7,937.9 784.7,920.9 793.7,926.4 808.7,1000.9 786.7,1005.9 788.2,1013.4 753.2,1020.9 
			757.2,1040.9 706.2,1050.9 693.2,994.9 716.7,989.4 		"/>
		<polygon class="st11" points="633.2,989.4 693.7,976.9 686.2,942.4 626.2,955.9 		"/>
		<polygon class="st11" points="607.7,959.4 617.7,1010.9 640.7,1005.9 652.2,1065.4 561.7,1084.9 537.2,973.9 		"/>
		<polygon class="st11" points="456.7,1201.4 564.2,1177.9 552.7,1124.9 521.2,1131.4 524.2,1145.4 448.7,1161.4 		"/>
		<polygon class="st11" points="433.2,1083.4 448.7,1161.4 523.2,1144.9 510.2,1082.4 540.2,1076.4 537.2,1061.4 		"/>
		<polygon class="st11" points="509.7,1082.6 514.7,1107.1 536.7,1102.6 531.2,1078.1 		"/>
		<g>
			<polygon class="st11" points="595.7,1240.4 603.7,1278.9 724.7,1251.9 716.7,1214.4 			"/>
			<line class="st11" x1="629.2" y1="1233.4" x2="637.2" y2="1270.4"/>
			<line class="st11" x1="656.2" y1="1226.9" x2="664.2" y2="1263.9"/>
			<line class="st11" x1="684.7" y1="1222.4" x2="692.7" y2="1259.4"/>
		</g>
		<g>
			<polygon class="st11" points="722.5,1180.4 715.1,1146.4 603,1170.3 610.4,1203.4 			"/>
			<line class="st11" x1="691.5" y1="1186.6" x2="684.1" y2="1153.9"/>
			<line class="st11" x1="666.5" y1="1192.4" x2="659.1" y2="1159.7"/>
			<line class="st11" x1="640.1" y1="1196.3" x2="632.7" y2="1163.6"/>
		</g>
		<polygon class="st11" points="1231.2,1389.7 1287.2,1404.2 1274.2,1345.9 1301.7,1339.9 1300.2,1330.4 1312.5,1328.2 
			1297.8,1256.2 1333.8,1249.6 1284.2,1009.9 1149.2,1038.4 1217.7,1358.4 1223.7,1356.9 		"/>
		<polygon class="st11" points="1132.7,960.4 1213.7,942.4 1215.7,951.4 1269.2,939.9 1284.2,1009.9 1148.5,1038.9 		"/>
		<polygon class="st11" points="1115.2,881.4 1196.7,863.9 1213.2,942.2 1132.7,960.4 		"/>
		<polygon class="st11" points="1098.2,798.9 1163.7,784.9 1168.7,806.9 1198.7,800.9 1210.7,861.4 1115.2,881.4 		"/>
		<polygon class="st11" points="1082.2,728.9 1164.7,709.9 1145.7,628.4 1064.7,645.4 		"/>
		<polygon class="st11" points="1048.2,568.9 1064.5,644.9 1158.7,624.9 1161.7,635.9 1192.2,628.4 1173.2,541.9 		"/>
		<polygon class="st11" points="953.7,415.4 1147.2,374.2 1153.2,402.4 1099.7,414.9 1129.2,551.4 1048.2,569.4 1032.7,496.4 
			973.7,508.4 		"/>
		<polygon class="st11" points="887.2,429.6 953.2,415.6 973.7,508.4 907.7,521.9 		"/>
		<polygon class="st11" points="863.7,531.9 907.2,522.4 887.2,429.6 843.7,438.9 		"/>
		<polygon class="st11" points="820.2,541.4 863.8,532.2 843.8,439.6 801.8,447.6 		"/>
		<polygon class="st11" points="776.7,550.4 820.7,540.9 801.8,448.2 756.7,457.9 		"/>
		<polygon class="st11" points="732.7,560.4 776.7,550.4 756.7,458.4 712.7,467.4 		"/>
		<polygon class="st11" points="688.7,569.9 732.5,560.2 712.2,467.4 669.2,476.9 		"/>
		<polygon class="st11" points="645.8,579.6 688.5,570.2 669.2,477.4 624.5,486.2 		"/>
		<polygon class="st11" points="575.2,594.9 645.8,579.6 624.5,486.9 554.5,501.6 		"/>
		<polygon class="st11" points="514.2,606.9 575.2,594.9 554.5,500.9 493.2,514.2 		"/>
		<polygon class="st11" points="275.8,560.2 281.7,588.4 333.7,576.9 356.7,682.4 414.2,668.9 445.2,621.4 514.2,606.9 492.5,514.2 
					"/>
		<polygon class="st11" points="707.7,642.4 715.2,629.9 747.2,622.9 766.7,709.9 724.2,718.9 		"/>
		<polygon class="st11" points="747.7,622.4 790.5,613.6 809.2,700.9 765.7,709.4 		"/>
		<polygon class="st11" points="789.8,613.2 834.2,604.2 852.2,690.6 809.5,700.6 		"/>
		<polygon class="st11" points="833.5,603.9 877.8,594.9 904.2,719.6 860.5,729.2 		"/>
		<polygon class="st11" points="877.5,594.9 921.2,585.2 940.2,671.6 896.2,681.9 		"/>
		<polygon class="st11" points="921.5,585.2 972.8,574.6 985.8,583.2 1001.5,658.6 940.2,671.9 		"/>
		<polygon class="st11" points="896.2,681.2 1001.5,658.9 1018.5,736.6 912.8,759.2 		"/>
		<polygon class="st11" points="1018.2,736.2 1034.5,812.9 1026.5,825.6 974.8,836.6 956.8,749.9 		"/>
		<polygon class="st11" points="912.8,759.2 931.8,845.9 975.5,836.6 957.2,749.6 		"/>
		<polygon class="st11" points="860.2,729.2 904.2,719.9 931.5,845.6 887.8,854.6 		"/>
		<polygon class="st11" points="868.8,768.6 887.5,854.9 856.8,861.6 840.8,851.2 825.5,777.9 		"/>
		<polygon class="st11" points="740.2,795.9 825.2,777.6 840.8,851.2 830.8,844.9 764.8,858.9 751.8,850.6 		"/>
		<polygon class="st11" points="723.8,718.6 852.2,690.9 868.8,767.9 740.5,795.9 		"/>
		<polygon class="st11" points="356.2,872.9 435.2,855.9 438.2,866.9 471.2,859.9 498.2,877.9 538.2,1061.9 433.2,1083.4 
			404.2,951.9 378.2,956.9 		"/>
	</g>
	<g>
		<g>
			<circle class="st10" cx="1145.8" cy="473" r="24.2"/>
			<g>
				<g>
					<path class="st13" d="M1135.2,487.3c-0.8,0-1.5-0.7-1.5-1.5v-7.4c0-0.8,0.7-1.5,1.5-1.5h6.6v-7.4c0-0.8,0.7-1.5,1.5-1.5h6.4
						v-6.3c0-0.8,0.7-1.5,1.5-1.5h8.3c0.8,0,1.5,0.7,1.5,1.5s-0.7,1.5-1.5,1.5h-6.8v6.3c0,0.8-0.7,1.5-1.5,1.5h-6.4v7.4
						c0,0.8-0.7,1.5-1.5,1.5h-6.6v5.9C1136.7,486.6,1136.1,487.3,1135.2,487.3z"/>
				</g>
			</g>
		</g>
		<g>
			<circle class="st10" cx="670.2" cy="1018" r="24.2"/>
			<g>
				<g>
					<path class="st13" d="M659.6,1032.3c-0.8,0-1.5-0.7-1.5-1.5v-7.4c0-0.8,0.7-1.5,1.5-1.5h6.6v-7.4c0-0.8,0.7-1.5,1.5-1.5h6.4
						v-6.3c0-0.8,0.7-1.5,1.5-1.5h8.3c0.8,0,1.5,0.7,1.5,1.5c0,0.8-0.7,1.5-1.5,1.5H677v6.3c0,0.8-0.7,1.5-1.5,1.5h-6.4v7.4
						c0,0.8-0.7,1.5-1.5,1.5h-6.6v5.9C661.1,1031.6,660.4,1032.3,659.6,1032.3z"/>
				</g>
			</g>
		</g>
		<g>
			<circle class="st10" cx="1241.2" cy="898" r="24.2"/>
			<g>
				<g>
					<path class="st13" d="M1230.6,912.3c-0.8,0-1.5-0.7-1.5-1.5v-7.4c0-0.8,0.7-1.5,1.5-1.5h6.6v-7.4c0-0.8,0.7-1.5,1.5-1.5h6.4
						v-6.3c0-0.8,0.7-1.5,1.5-1.5h8.3c0.8,0,1.5,0.7,1.5,1.5c0,0.8-0.7,1.5-1.5,1.5h-6.8v6.3c0,0.8-0.7,1.5-1.5,1.5h-6.4v7.4
						c0,0.8-0.7,1.5-1.5,1.5h-6.6v5.9C1232.1,911.6,1231.4,912.3,1230.6,912.3z"/>
				</g>
			</g>
		</g>
		<g>
			<circle class="st10" cx="1185.2" cy="664.9" r="24.2"/>
			<g>
				<g>
					<path class="st13" d="M1174.6,679.2c-0.8,0-1.5-0.7-1.5-1.5v-7.4c0-0.8,0.7-1.5,1.5-1.5h6.6v-7.4c0-0.8,0.7-1.5,1.5-1.5h6.4
						v-6.3c0-0.8,0.7-1.5,1.5-1.5h8.3c0.8,0,1.5,0.7,1.5,1.5s-0.7,1.5-1.5,1.5h-6.8v6.3c0,0.8-0.7,1.5-1.5,1.5h-6.4v7.4
						c0,0.8-0.7,1.5-1.5,1.5h-6.6v5.9C1176.1,678.5,1175.4,679.2,1174.6,679.2z"/>
				</g>
			</g>
		</g>
		<g>
			<circle class="st10" cx="779.2" cy="1216" r="24.2"/>
			<g>
				<g>
					<path class="st13" d="M768.6,1230.3c-0.8,0-1.5-0.7-1.5-1.5v-7.4c0-0.8,0.7-1.5,1.5-1.5h6.6v-7.4c0-0.8,0.7-1.5,1.5-1.5h6.4
						v-6.3c0-0.8,0.7-1.5,1.5-1.5h8.3c0.8,0,1.5,0.7,1.5,1.5s-0.7,1.5-1.5,1.5H786v6.3c0,0.8-0.7,1.5-1.5,1.5h-6.4v7.4
						c0,0.8-0.7,1.5-1.5,1.5h-6.6v5.9C770.1,1229.6,769.4,1230.3,768.6,1230.3z"/>
				</g>
			</g>
		</g>
		<g>
			<circle class="st10" cx="1288.2" cy="1413" r="24.2"/>
			<g>
				<g>
					<path class="st13" d="M1277.6,1427.3c-0.8,0-1.5-0.7-1.5-1.5v-7.4c0-0.8,0.7-1.5,1.5-1.5h6.6v-7.4c0-0.8,0.7-1.5,1.5-1.5h6.4
						v-6.3c0-0.8,0.7-1.5,1.5-1.5h8.3c0.8,0,1.5,0.7,1.5,1.5s-0.7,1.5-1.5,1.5h-6.8v6.3c0,0.8-0.7,1.5-1.5,1.5h-6.4v7.4
						c0,0.8-0.7,1.5-1.5,1.5h-6.6v5.9C1279.1,1426.6,1278.4,1427.3,1277.6,1427.3z"/>
				</g>
			</g>
		</g>
		<g>
			<circle class="st10" cx="317.2" cy="632.5" r="24.2"/>
			<g>
				<g>
					<path class="st13" d="M306.6,646.8c-0.8,0-1.5-0.7-1.5-1.5v-7.4c0-0.8,0.7-1.5,1.5-1.5h6.6v-7.4c0-0.8,0.7-1.5,1.5-1.5h6.4
						v-6.3c0-0.8,0.7-1.5,1.5-1.5h8.3c0.8,0,1.5,0.7,1.5,1.5c0,0.8-0.7,1.5-1.5,1.5H324v6.3c0,0.8-0.7,1.5-1.5,1.5h-6.4v7.4
						c0,0.8-0.7,1.5-1.5,1.5h-6.6v5.9C308.1,646.1,307.4,646.8,306.6,646.8z"/>
				</g>
			</g>
		</g>
		<g>
			<circle class="st10" cx="1105.6" cy="1111.7" r="24.2"/>
			<g>
				<g>
					<path class="st13" d="M1117.7,1100.7h-4.9c-1,0-2.3,0.4-3.1,1.2l-4.5,4.5l-4.2,4.1h0l-3.9,3.9c-0.4,0.4-0.4,0.4-1.1,0.4
						c0,0-2.4,0-2.4,0c-2.4,0-3.9,2.2-3.9,4s1.4,4.2,4.1,4.2c0,0,3.3,0,4.3,0c1,0,2.2-0.4,3.2-1.3l12.5-12.5
						c0.3-0.2,0.4-0.3,0.9-0.3c0,0,1.7,0,3.1,0c1.5,0,3.6-1.7,3.6-4.1C1121.4,1102.3,1119.2,1100.7,1117.7,1100.7z M1117.4,1106.7
						h-2.6c-1.1,0-1.6,0.2-2.3,0.8l-12.6,12.6c-0.5,0.5-1.2,0.7-2,0.7h-4.2c-1.1,0-2-0.9-2-2.1c0-1.2,0.9-1.8,1.8-1.8h2.9
						c0.8,0,1.4-0.2,1.9-0.7l12.8-12.8c0.5-0.5,1-0.6,1.9-0.6h4.4c1.1,0,1.8,1.2,1.8,1.9C1119.2,1105.4,1118.7,1106.7,1117.4,1106.7
						z"/>
				</g>
				<g>
					<g>
						<circle class="st13" cx="1103.1" cy="1100" r="2.1"/>
					</g>
					<g>
						<path class="st13" d="M1105.2,1106.4v-1.3c0-2.8-4.2-2.8-4.2,0v5.4h0L1105.2,1106.4z"/>
					</g>
				</g>
			</g>
		</g>
		<g>
			<circle class="st10" cx="394.3" cy="782.7" r="24.2"/>
			<g>
				<g>
					<path class="st13" d="M406.4,771.7h-4.9c-1,0-2.3,0.4-3.1,1.2l-4.5,4.5l-4.2,4.1h0l-3.9,3.9c-0.4,0.4-0.4,0.4-1.1,0.4
						c0,0-2.4,0-2.4,0c-2.4,0-3.9,2.2-3.9,4c0,1.8,1.4,4.2,4.1,4.2c0,0,3.3,0,4.3,0c1,0,2.2-0.4,3.2-1.3l12.5-12.5
						c0.3-0.2,0.4-0.3,0.9-0.3c0,0,1.7,0,3.1,0c1.5,0,3.6-1.7,3.6-4.1C410.1,773.3,408,771.7,406.4,771.7z M406.2,777.7h-2.6
						c-1.1,0-1.6,0.2-2.3,0.8l-12.6,12.6c-0.5,0.5-1.2,0.7-2,0.7h-4.2c-1.1,0-2-0.9-2-2.1c0-1.2,0.9-1.8,1.8-1.8h2.9
						c0.8,0,1.4-0.2,1.9-0.7l12.8-12.8c0.5-0.5,1-0.6,1.9-0.6h4.4c1.1,0,1.8,1.2,1.8,1.9C408,776.4,407.5,777.7,406.2,777.7z"/>
				</g>
				<g>
					<g>
						<circle class="st13" cx="391.9" cy="771.1" r="2.1"/>
					</g>
					<g>
						<path class="st13" d="M393.9,777.4v-1.3c0-2.8-4.2-2.8-4.2,0v5.4h0L393.9,777.4z"/>
					</g>
				</g>
			</g>
		</g>
		<g>
			<circle class="st10" cx="658.7" cy="823.2" r="24.2"/>
			<g>
				<g>
					<path class="st13" d="M670.8,812.2h-4.9c-1,0-2.3,0.4-3.1,1.2l-4.5,4.5l-4.2,4.1h0l-3.9,3.9c-0.4,0.4-0.4,0.4-1.1,0.4h-2.4
						c-2.4,0-3.9,2.2-3.9,4c0,1.8,1.4,4.2,4.1,4.2c0,0,3.3,0,4.3,0c1,0,2.2-0.4,3.2-1.3l12.5-12.5c0.3-0.2,0.4-0.3,0.9-0.3
						c0,0,1.7,0,3.1,0c1.5,0,3.6-1.7,3.6-4.1C674.5,813.8,672.4,812.2,670.8,812.2z M670.6,818.2h-2.6c-1.1,0-1.6,0.2-2.3,0.8
						l-12.6,12.6c-0.5,0.5-1.2,0.7-2,0.7h-4.2c-1.1,0-2-0.9-2-2.1c0-1.2,0.9-1.8,1.8-1.8h2.9c0.8,0,1.4-0.2,1.9-0.7l12.8-12.8
						c0.5-0.5,1-0.6,1.9-0.6h4.4c1.1,0,1.8,1.2,1.8,1.9C672.4,816.8,671.9,818.2,670.6,818.2z"/>
				</g>
				<g>
					<g>
						<circle class="st13" cx="656.2" cy="811.5" r="2.1"/>
					</g>
					<g>
						<path class="st13" d="M658.3,817.8v-1.3c0-2.8-4.2-2.8-4.2,0v5.4h0L658.3,817.8z"/>
					</g>
				</g>
			</g>
		</g>
		<g>
			<circle class="st14" cx="860.6" cy="979" r="24.2"/>
			<g>
				<g>
					<path class="st13" d="M868.4,994.9h-15.6c-0.5,0-0.9-0.4-0.9-0.9v-22.6c0-0.5,0.4-0.9,0.9-0.9h15.6c0.5,0,0.9,0.4,0.9,0.9V994
						C869.3,994.5,868.9,994.9,868.4,994.9z M853.7,993.1h13.8v-20.8h-13.8V993.1z"/>
				</g>
				<g>
					<path class="st13" d="M872.3,995.3c-0.5,0-0.9-0.4-0.9-0.9v-26.3h-21.5v26.3c0,0.5-0.4,0.9-0.9,0.9s-0.9-0.4-0.9-0.9v-27.2
						c0-0.5,0.4-0.9,0.9-0.9h23.3c0.5,0,0.9,0.4,0.9,0.9v27.2C873.1,994.9,872.7,995.3,872.3,995.3z"/>
				</g>
				<g>
					<path class="st13" d="M860.6,994.7c-0.5,0-0.9-0.4-0.9-0.9v-22.3c0-0.5,0.4-0.9,0.9-0.9c0.5,0,0.9,0.4,0.9,0.9v22.3
						C861.5,994.4,861.1,994.7,860.6,994.7z"/>
				</g>
				<g>
					<g>
						<g>
							<path class="st13" d="M864.5,964.7c-0.3,0-0.5-0.2-0.5-0.5v-3.5c0-0.3,0.2-0.5,0.5-0.5c0.3,0,0.5,0.2,0.5,0.5v3.5
								C865.1,964.5,864.8,964.7,864.5,964.7z"/>
						</g>
						<g>
							<g>
								<path class="st13" d="M862.4,963c-0.1,0-0.3-0.1-0.4-0.2c-0.2-0.2-0.2-0.6,0-0.8l2-1.8c0.2-0.2,0.6-0.2,0.8,0
									c0.2,0.2,0.2,0.6,0,0.8l-2,1.8C862.7,962.9,862.5,963,862.4,963z"/>
							</g>
							<g>
								<path class="st13" d="M866.7,963c-0.1,0-0.3,0-0.4-0.1l-2-1.8c-0.2-0.2-0.2-0.5,0-0.8c0.2-0.2,0.5-0.2,0.8,0l2,1.8
									c0.2,0.2,0.2,0.5,0,0.8C867,962.9,866.8,963,866.7,963z"/>
							</g>
						</g>
					</g>
					<g>
						<g>
							<path class="st13" d="M856.7,964.7c-0.3,0-0.5-0.2-0.5-0.5v-3.5c0-0.3,0.2-0.5,0.5-0.5c0.3,0,0.5,0.2,0.5,0.5v3.5
								C857.3,964.4,857,964.7,856.7,964.7z"/>
						</g>
						<g>
							<g>
								<path class="st13" d="M856.9,964.7c-0.1,0-0.3-0.1-0.4-0.2c-0.2-0.2-0.2-0.6,0-0.8l2-1.8c0.2-0.2,0.6-0.2,0.8,0
									c0.2,0.2,0.2,0.6,0,0.8l-2,1.8C857.1,964.7,857,964.7,856.9,964.7z"/>
							</g>
							<g>
								<path class="st13" d="M856.6,964.7c-0.1,0-0.3,0-0.4-0.1l-2-1.8c-0.2-0.2-0.2-0.5,0-0.8c0.2-0.2,0.5-0.2,0.8,0l2,1.8
									c0.2,0.2,0.2,0.5,0,0.8C856.9,964.7,856.8,964.7,856.6,964.7z"/>
							</g>
						</g>
					</g>
				</g>
			</g>
		</g>
		<g>
			<circle class="st14" cx="657.6" cy="1210" r="24.2"/>
			<g>
				<g>
					<path class="st13" d="M665.4,1225.9h-15.6c-0.5,0-0.9-0.4-0.9-0.9v-22.6c0-0.5,0.4-0.9,0.9-0.9h15.6c0.5,0,0.9,0.4,0.9,0.9
						v22.6C666.3,1225.5,665.9,1225.9,665.4,1225.9z M650.7,1224.1h13.8v-20.8h-13.8V1224.1z"/>
				</g>
				<g>
					<path class="st13" d="M669.3,1226.3c-0.5,0-0.9-0.4-0.9-0.9v-26.3h-21.5v26.3c0,0.5-0.4,0.9-0.9,0.9s-0.9-0.4-0.9-0.9v-27.2
						c0-0.5,0.4-0.9,0.9-0.9h23.3c0.5,0,0.9,0.4,0.9,0.9v27.2C670.1,1225.9,669.7,1226.3,669.3,1226.3z"/>
				</g>
				<g>
					<path class="st13" d="M657.6,1225.7c-0.5,0-0.9-0.4-0.9-0.9v-22.3c0-0.5,0.4-0.9,0.9-0.9c0.5,0,0.9,0.4,0.9,0.9v22.3
						C658.5,1225.4,658.1,1225.7,657.6,1225.7z"/>
				</g>
				<g>
					<g>
						<g>
							<path class="st13" d="M661.5,1195.7c-0.3,0-0.5-0.2-0.5-0.5v-3.5c0-0.3,0.2-0.5,0.5-0.5c0.3,0,0.5,0.2,0.5,0.5v3.5
								C662.1,1195.5,661.8,1195.7,661.5,1195.7z"/>
						</g>
						<g>
							<g>
								<path class="st13" d="M659.4,1194c-0.1,0-0.3-0.1-0.4-0.2c-0.2-0.2-0.2-0.6,0-0.8l2-1.8c0.2-0.2,0.6-0.2,0.8,0
									c0.2,0.2,0.2,0.6,0,0.8l-2,1.8C659.7,1193.9,659.5,1194,659.4,1194z"/>
							</g>
							<g>
								<path class="st13" d="M663.7,1194c-0.1,0-0.3,0-0.4-0.1l-2-1.8c-0.2-0.2-0.2-0.5,0-0.8c0.2-0.2,0.5-0.2,0.8,0l2,1.8
									c0.2,0.2,0.2,0.5,0,0.8C664,1193.9,663.8,1194,663.7,1194z"/>
							</g>
						</g>
					</g>
					<g>
						<g>
							<path class="st13" d="M653.7,1195.7c-0.3,0-0.5-0.2-0.5-0.5v-3.5c0-0.3,0.2-0.5,0.5-0.5c0.3,0,0.5,0.2,0.5,0.5v3.5
								C654.3,1195.4,654,1195.7,653.7,1195.7z"/>
						</g>
						<g>
							<g>
								<path class="st13" d="M653.9,1195.7c-0.1,0-0.3-0.1-0.4-0.2c-0.2-0.2-0.2-0.6,0-0.8l2-1.8c0.2-0.2,0.6-0.2,0.8,0
									c0.2,0.2,0.2,0.6,0,0.8l-2,1.8C654.1,1195.7,654,1195.7,653.9,1195.7z"/>
							</g>
							<g>
								<path class="st13" d="M653.6,1195.7c-0.1,0-0.3,0-0.4-0.1l-2-1.8c-0.2-0.2-0.2-0.5,0-0.8c0.2-0.2,0.5-0.2,0.8,0l2,1.8
									c0.2,0.2,0.2,0.5,0,0.8C653.9,1195.7,653.8,1195.7,653.6,1195.7z"/>
							</g>
						</g>
					</g>
				</g>
			</g>
		</g>
		<g>
			<circle class="st14" cx="498.1" cy="1130.5" r="24.2"/>
			<g>
				<g>
					<g>
						<path class="st13" d="M488.8,1121c1.3,0,2.3-1,2.3-2.3c0-1.3-1-2.3-2.3-2.3c-1.3,0-2.3,1-2.3,2.3
							C486.4,1120,487.5,1121,488.8,1121z M491.2,1121.6l-4.9,0c-1.7,0-3,1.4-3,3v7.2c0,1.4,2,1.4,2,0v-6.6h0.5v18
							c0,1.9,2.7,1.8,2.7,0v-10.5h0.5v10.5c0,1.8,2.7,1.9,2.7,0v-18h0.5v6.6c0,1.4,2,1.4,2,0v-7.1
							C494.3,1123.1,493.1,1121.6,491.2,1121.6z"/>
					</g>
				</g>
				<g>
					<g>
						<path class="st13" d="M515.3,1130.2l-2-6.6c-0.2-0.7-1.2-2.1-2.8-2.1h-3.2c-1.6,0-2.6,1.3-2.8,2.1l-2,6.6
							c-0.4,1.4,1.4,2,1.8,0.6l1.8-6.1h0.5l-3.1,10.8h2.9l0,7.9c0,1.4,2.2,1.4,2.2,0l0-7.9h0.6v8c0,1.4,2.2,1.4,2.2,0v-7.9h2.9
							l-3.1-10.8h0.5l1.8,6.1C513.9,1132.2,515.7,1131.7,515.3,1130.2z M508.9,1121c1.3,0,2.3-1,2.3-2.3c0-1.3-1-2.3-2.3-2.3
							c-1.3,0-2.3,1-2.3,2.3C506.6,1119.9,507.7,1121,508.9,1121z"/>
					</g>
				</g>
				<g>
					<path class="st13" d="M498.4,1146.2c-0.2,0-0.4-0.2-0.4-0.4v-30.5c0-0.2,0.2-0.4,0.4-0.4c0.2,0,0.4,0.2,0.4,0.4v30.5
						C498.8,1146,498.6,1146.2,498.4,1146.2z"/>
				</g>
			</g>
		</g>
	</g>
</g>
<g id="Texto_2">
	<g>
		<g>
			<text transform="matrix(1 0 0 1 1218.8018 1150.0381)"><tspan x="0" y="0" class="st15 st16 st17">BANCO</tspan><tspan x="-9.7" y="12" class="st15 st16 st17">DO BRASIL</tspan></text>
			<text transform="matrix(1 0 0 1 1013.872 1282.0381)" class="st15 st16 st17">LINDT</text>
			<text transform="matrix(1 0 0 1 971.1298 1197.0381)" class="st15 st16 st17">O BOTICÁRIO</text>
			<text transform="matrix(1 0 0 1 968.5722 1120.0381)" class="st15 st16 st17">PUNKET</text>
			<text transform="matrix(1 0 0 1 945.539 1049.0381)" class="st15 st16 st17">SIDE WALK</text>
			<text transform="matrix(1 0 0 1 987.2314 945.038)" class="st15 st16 st17">CAPODARTE</text>
			<text transform="matrix(1 0 0 1 684.0668 1311.0198)"><tspan x="0" y="0" class="st15 st16 st17">TORRE MATARAZZO</tspan><tspan x="13.4" y="12" class="st15 st16 st17">(ESCRITÓRIOS)</tspan></text>
			<text transform="matrix(1 0 0 1 1129.3633 841.038)" class="st15 st16 st17">CLARO</text>
			<text transform="matrix(1 0 0 1 872.9296 907.038)"><tspan x="0" y="0" class="st15 st16 st17">PRÉMIER</tspan><tspan x="-11.8" y="12" class="st15 st16 st17">COSMÉTICOS</tspan></text>
			<text transform="matrix(1 0 0 1 747.4247 975.038)" class="st15 st16 st17">TVZ</text>
			<text transform="matrix(1 0 0 1 625.3427 964.038)"><tspan x="0" y="0" class="st15 st16 st17">L’OCCITANE</tspan><tspan x="4.8" y="12" class="st15 st16 st17">AU BRÉSIL</tspan></text>
			<text transform="matrix(1 0 0 1 561.7529 1023.038)" class="st15 st16 st17">SWAROVSKI</text>
			<text transform="matrix(1 0 0 1 448.7353 1032.0381)" class="st15 st16 st17">SHOULDER</text>
			<text transform="matrix(1 0 0 1 974.0136 769.038)"><tspan x="0" y="0" class="st15 st16 st17">TRACK</tspan><tspan x="14.3" y="12" class="st15 st16 st17">&amp;</tspan><tspan x="2.2" y="24" class="st15 st16 st17">FIELD</tspan></text>
			<text transform="matrix(1 0 0 1 930.7314 824.038)"><tspan x="0" y="0" class="st15 st16 st17">SUNGLASS</tspan><tspan x="17.9" y="12" class="st15 st16 st17">HUT</tspan></text>
			<text transform="matrix(1 0 0 1 880.0693 790.038)"><tspan x="0" y="0" class="st15 st16 st17">CLUBE</tspan><tspan x="-6" y="12" class="st15 st16 st17">MELISSA</tspan></text>
			<text transform="matrix(1 0 0 1 837.5937 822.038)" class="st15 st16 st17">PAPOULA</text>
			<text transform="matrix(1 0 0 1 933.7421 718.038)" class="st15 st16 st17">HERING</text>
			<text transform="matrix(1 0 0 1 760.579 748.038)" class="st15 st16 st17">STARBUCKS</text>
			<text transform="matrix(1 0 0 1 762.2011 825.038)" class="st15 st16 st17">DUMOND</text>
			<text transform="matrix(1 0 0 1 1086.3066 683.038)" class="st15 st16 st17">BARRED’S</text>
			<text transform="matrix(1 0 0 1 1086.9639 600.038)" class="st15 st16 st17">GREGORY</text>
			<text transform="matrix(1 0 0 1 1022.8515 461.0381)"><tspan x="0" y="0" class="st15 st16 st17">DROGA</tspan><tspan x="6.8" y="12" class="st15 st16 st17">RAIA</tspan></text>
			<text transform="matrix(1 0 0 1 911.4579 466.0381)"><tspan x="0" y="0" class="st15 st16 st17">REMO</tspan><tspan x="-1.8" y="12" class="st15 st16 st17">FENUT</tspan></text>
			<text transform="matrix(1 0 0 1 862.8456 492.0381)"><tspan x="0" y="0" class="st15 st16 st17">CASA</tspan><tspan x="10.9" y="12" class="st15 st16 st17">B</tspan></text>
			<text transform="matrix(1 0 0 1 811.582 480.0381)"><tspan x="0" y="0" class="st15 st16 st17">ÓTICAS</tspan><tspan x="1.8" y="12" class="st15 st16 st17">CAROL</tspan></text>
			<text transform="matrix(1 0 0 1 782.2861 510.0381)"><tspan x="0" y="0" class="st15 st16 st17">KINGS</tspan><tspan x="-10.9" y="12" class="st15 st16 st17">SNEAKERS</tspan></text>
			<text transform="matrix(1 0 0 1 387.583 586.038)" class="st15 st16 st17">POLO WEAR</text>
			<text transform="matrix(1 0 0 1 518.4892 556.038)" class="st15 st16 st17">RAPHY</text>
			<text transform="matrix(1 0 0 1 581.3017 546.038)" class="st15 st16 st17">SESTINI</text>
			<text transform="matrix(1 0 0 1 636.0536 520.038)" class="st15 st16 st17">BALONÈ</text>
			<text transform="matrix(1 0 0 1 694.3945 526.038)"><tspan x="0" y="0" class="st15 st16 st17">TIP</tspan><tspan x="-2.2" y="12" class="st15 st16 st17">TOP</tspan></text>
			<text transform="matrix(1 0 0 1 725.7763 500.0381)" class="st15 st16 st17">HOPE</text>
			<text transform="matrix(1 0 0 1 937.1298 618.038)" class="st15 st16 st17">ALEATORY</text>
			<text transform="matrix(1 0 0 1 893.2607 639.038)"><tspan x="0" y="0" class="st15 st16 st17">ESPAÇO</tspan><tspan x="5" y="12" class="st15 st16 st17">LASER</tspan></text>
			<text transform="matrix(1 0 0 1 854.9814 670.038)" class="st15 st16 st17">LUPO</text>
			<text transform="matrix(1 0 0 1 779.7324 640.038)" class="st15 st16 st17">IMAGINARIUM</text>
			<text transform="matrix(1 0 0 1 759.3906 660.038)"><tspan x="0" y="0" class="st15 st16 st17">BRASIL</tspan><tspan x="0.5" y="12" class="st15 st16 st17">CACAU</tspan></text>
			<text transform="matrix(1 0 0 1 717.5292 670.038)" class="st15 st16 st17">ARYA</text>
			<text transform="matrix(1 0 0 1 1177.8477 990.038)" class="st15 st16 st17">ANY ANY</text>
			<text transform="matrix(1 0 0 1 1135.6074 917.038)" class="st15 st16 st17">SAMSUNG</text>
			<text transform="matrix(1 0 0 1 1118.9921 1259.1527)" class="st15 st16 st18">JACK SIR</text>
			<text transform="matrix(1 0 0 1 1087.9921 766.1527)" class="st15 st16 st18">JACK SIR</text>
			<text transform="matrix(1 0 0 1 695.4818 843.1527)"><tspan x="0" y="0" class="st15 st16 st18">SUCRA</tspan><tspan x="3.4" y="10" class="st15 st16 st18">CAKE</tspan></text>
			<text transform="matrix(1 0 0 1 603.5433 870.1527)" class="st15 st16 st18">MOTOROLA</text>
			<text transform="matrix(1 0 0 1 473.2108 797.1527)"><tspan x="0" y="0" class="st15 st16 st18">CHILLI</tspan><tspan x="0.3" y="10" class="st15 st16 st18">BEANS</tspan></text>
			<text transform="matrix(1 0 0 1 456.7113 734.1527)" class="st15 st16 st18">GO CASE</text>
		</g>
		<g>
			<text transform="matrix(1 0 0 1 1218.8018 1150.0381)"><tspan x="0" y="0" class="st10 st16 st17">BANCO</tspan><tspan x="-9.7" y="12" class="st10 st16 st17">DO BRASIL</tspan></text>
			<text transform="matrix(1 0 0 1 1013.872 1282.0381)" class="st10 st16 st17">LINDT</text>
			<text transform="matrix(1 0 0 1 971.1298 1197.0381)" class="st10 st16 st17">O BOTICÁRIO</text>
			<text transform="matrix(1 0 0 1 968.5722 1120.0381)" class="st10 st16 st17">PUNKET</text>
			<text transform="matrix(1 0 0 1 945.539 1049.0381)" class="st10 st16 st17">SIDE WALK</text>
			<text transform="matrix(1 0 0 1 987.2314 945.038)" class="st10 st16 st17">CAPODARTE</text>
			<text transform="matrix(1 0 0 1 684.0668 1311.0198)"><tspan x="0" y="0" class="st10 st16 st17">TORRE MATARAZZO</tspan><tspan x="13.4" y="12" class="st10 st16 st17">(ESCRITÓRIOS)</tspan></text>
			<text transform="matrix(1 0 0 1 1129.3633 841.038)" class="st10 st16 st17">CLARO</text>
			<text transform="matrix(1 0 0 1 872.9296 907.038)"><tspan x="0" y="0" class="st10 st16 st17">PRÉMIER</tspan><tspan x="-11.8" y="12" class="st10 st16 st17">COSMÉTICOS</tspan></text>
			<text transform="matrix(1 0 0 1 747.4247 975.038)" class="st10 st16 st17">TVZ</text>
			<text transform="matrix(1 0 0 1 625.3427 964.038)"><tspan x="0" y="0" class="st10 st16 st17">L’OCCITANE</tspan><tspan x="4.8" y="12" class="st10 st16 st17">AU BRÉSIL</tspan></text>
			<text transform="matrix(1 0 0 1 561.7529 1023.038)" class="st10 st16 st17">SWAROVSKI</text>
			<text transform="matrix(1 0 0 1 448.7353 1032.0381)" class="st10 st16 st17">SHOULDER</text>
			<text transform="matrix(1 0 0 1 974.0136 769.038)"><tspan x="0" y="0" class="st10 st16 st17">TRACK</tspan><tspan x="14.3" y="12" class="st10 st16 st17">&amp;</tspan><tspan x="2.2" y="24" class="st10 st16 st17">FIELD</tspan></text>
			<text transform="matrix(1 0 0 1 930.7314 824.038)"><tspan x="0" y="0" class="st10 st16 st17">SUNGLASS</tspan><tspan x="17.9" y="12" class="st10 st16 st17">HUT</tspan></text>
			<text transform="matrix(1 0 0 1 880.0693 790.038)"><tspan x="0" y="0" class="st10 st16 st17">CLUBE</tspan><tspan x="-6" y="12" class="st10 st16 st17">MELISSA</tspan></text>
			<text transform="matrix(1 0 0 1 837.5937 822.038)" class="st10 st16 st17">PAPOULA</text>
			<text transform="matrix(1 0 0 1 933.7421 718.038)" class="st10 st16 st17">HERING</text>
			<text transform="matrix(1 0 0 1 760.579 748.038)" class="st10 st16 st17">STARBUCKS</text>
			<text transform="matrix(1 0 0 1 762.2011 825.038)" class="st10 st16 st17">DUMOND</text>
			<text transform="matrix(1 0 0 1 1086.3066 683.038)" class="st10 st16 st17">BARRED’S</text>
			<text transform="matrix(1 0 0 1 1086.9639 600.038)" class="st10 st16 st17">GREGORY</text>
			<text transform="matrix(1 0 0 1 1022.8515 461.0381)"><tspan x="0" y="0" class="st10 st16 st17">DROGA</tspan><tspan x="6.8" y="12" class="st10 st16 st17">RAIA</tspan></text>
			<text transform="matrix(1 0 0 1 911.4579 466.0381)"><tspan x="0" y="0" class="st10 st16 st17">REMO</tspan><tspan x="-1.8" y="12" class="st10 st16 st17">FENUT</tspan></text>
			<text transform="matrix(1 0 0 1 862.8456 492.0381)"><tspan x="0" y="0" class="st10 st16 st17">CASA</tspan><tspan x="10.9" y="12" class="st10 st16 st17">B</tspan></text>
			<text transform="matrix(1 0 0 1 811.582 480.0381)"><tspan x="0" y="0" class="st10 st16 st17">ÓTICAS</tspan><tspan x="1.8" y="12" class="st10 st16 st17">CAROL</tspan></text>
			<text transform="matrix(1 0 0 1 782.2861 510.0381)"><tspan x="0" y="0" class="st10 st16 st17">KINGS</tspan><tspan x="-10.9" y="12" class="st10 st16 st17">SNEAKERS</tspan></text>
			<text transform="matrix(1 0 0 1 387.583 586.038)" class="st10 st16 st17">POLO WEAR</text>
			<text transform="matrix(1 0 0 1 518.4892 556.038)" class="st10 st16 st17">RAPHY</text>
			<text transform="matrix(1 0 0 1 581.3017 546.038)" class="st10 st16 st17">SESTINI</text>
			<text transform="matrix(1 0 0 1 636.0536 520.038)" class="st10 st16 st17">BALONÈ</text>
			<text transform="matrix(1 0 0 1 694.3945 526.038)"><tspan x="0" y="0" class="st10 st16 st17">TIP</tspan><tspan x="-2.2" y="12" class="st10 st16 st17">TOP</tspan></text>
			<text transform="matrix(1 0 0 1 725.7763 500.0381)" class="st10 st16 st17">HOPE</text>
			<text transform="matrix(1 0 0 1 937.1298 618.038)" class="st10 st16 st17">ALEATORY</text>
			<text transform="matrix(1 0 0 1 893.2607 639.038)"><tspan x="0" y="0" class="st10 st16 st17">ESPAÇO</tspan><tspan x="5" y="12" class="st10 st16 st17">LASER</tspan></text>
			<text transform="matrix(1 0 0 1 854.9814 670.038)" class="st10 st16 st17">LUPO</text>
			<text transform="matrix(1 0 0 1 779.7324 640.038)" class="st10 st16 st17">IMAGINARIUM</text>
			<text transform="matrix(1 0 0 1 759.3906 660.038)"><tspan x="0" y="0" class="st10 st16 st17">BRASIL</tspan><tspan x="0.5" y="12" class="st10 st16 st17">CACAU</tspan></text>
			<text transform="matrix(1 0 0 1 717.5292 670.038)" class="st10 st16 st17">ARYA</text>
			<text transform="matrix(1 0 0 1 1177.8477 990.038)" class="st10 st16 st17">ANY ANY</text>
			<text transform="matrix(1 0 0 1 1135.6074 917.038)" class="st10 st16 st17">SAMSUNG</text>
			<text transform="matrix(1 0 0 1 1118.9921 1259.1527)" class="st10 st16 st18">JACK SIR</text>
			<text transform="matrix(1 0 0 1 1087.9921 766.1527)" class="st10 st16 st18">JACK SIR</text>
			<text transform="matrix(1 0 0 1 695.4818 843.1527)"><tspan x="0" y="0" class="st10 st16 st18">SUCRA</tspan><tspan x="3.4" y="10" class="st10 st16 st18">CAKE</tspan></text>
			<text transform="matrix(1 0 0 1 603.5433 870.1527)" class="st10 st16 st18">MOTOROLA</text>
			<text transform="matrix(1 0 0 1 473.2108 797.1527)"><tspan x="0" y="0" class="st10 st16 st18">CHILLI</tspan><tspan x="0.3" y="10" class="st10 st16 st18">BEANS</tspan></text>
			<text transform="matrix(1 0 0 1 456.7113 734.1527)" class="st10 st16 st18">GO CASE</text>
		</g>
	</g>
</g>
</svg>
