<?xml version="1.0" encoding="utf-8"?>
<!-- Generator: Adobe Illustrator 21.1.0, SVG Export Plug-In . SVG Version: 6.00 Build 0)  -->
<svg version="1.1" xmlns="http://www.w3.org/2000/svg" xmlns:xlink="http://www.w3.org/1999/xlink" x="0px" y="0px"
	 viewBox="0 0 1473.9 1900" style="enable-background:new 0 0 1473.9 1900;" xml:space="preserve">
<style type="text/css">
	.st0{clip-path:url(#SVGID_2_);}
	.st1{fill:none;stroke:#FFFFFF;stroke-width:30;stroke-linecap:round;stroke-linejoin:round;stroke-miterlimit:10;}
	.st2{fill:#7F7F7F;}
	.st3{font-family:'DroidSans';}
	.st4{font-size:26px;}
	.st5{fill:#E7E8EA;stroke:#ADADAD;stroke-width:2;stroke-linecap:round;stroke-linejoin:round;stroke-miterlimit:10;}
	.st6{fill:#BDA9CD;}
	.st7{fill:#FFFFFF;stroke:#ADADAD;stroke-width:2;stroke-linecap:round;stroke-linejoin:round;stroke-miterlimit:10;}
	.st8{opacity:0.5;}
	.st9{fill:#8C61B3;}
	.st10{fill:#FFFFFF;}
	.st11{fill:none;stroke:#FFFFFF;stroke-width:3;stroke-linecap:round;stroke-linejoin:round;}
	.st12{font-family:'DroidSans-Bold';}
	.st13{font-size:12px;}
	.st14{font-size:16px;}
</style>
<g id="Piso_2_Base_2_">
	<g id="PIso_1_Base_copy">
		<g>
			<defs>
				<rect id="SVGID_1_" x="-0.6" width="1475.2" height="1900"/>
			</defs>
			<use xlink:href="#SVGID_1_"  style="overflow:visible;fill:#E5E5E5;"/>
			<clipPath id="SVGID_2_">
				<use xlink:href="#SVGID_1_"  style="overflow:visible;"/>
			</clipPath>
			<g class="st0">
				<g>
					<line class="st1" x1="-1686.8" y1="1839.7" x2="2561.8" y2="1590.1"/>
					<line class="st1" x1="-1663.7" y1="1904.3" x2="2584.9" y2="1654.7"/>
				</g>
				<text transform="matrix(0.8984 -5.434200e-02 6.038000e-02 0.9982 862.6888 1697.3296)" class="st2 st3 st4">Av. Anhanguera</text>
				<path class="st1" d="M-764.8,592.9c12-4,452-32,452-32l1444-436l1544-132"/>
				<path class="st1" d="M375.2-851.1c-4,12,8,1188,8,1188"/>
				<polyline class="st1" points="675.2,-831.1 675.2,108.9 707.2,232.9 				"/>
				<path class="st1" d="M975.2-807.1c4,16,8,968,8,968"/>
				<text transform="matrix(0.8602 -0.2646 0.294 0.9558 287.8929 389.2112)" class="st2 st3 st4">Av. 24 de Outubro</text>
			</g>
		</g>
	</g>
	<g>
		<g id="Piso_2_Base_1_">
			<polygon class="st5" points="70.3,1584.5 284.7,1571.4 285.6,1585.1 852.7,1546.4 886.3,1575.9 1095.7,1337.8 1176.6,1246.3 
				1382.6,1010.5 1349.7,981 1332.3,722.1 1317.2,477.5 1353.3,475.5 1334.8,195 987.5,218.2 1002.5,451.7 288.8,1266.7 
				50.1,1282.4 			"/>
			<path class="st6" d="M1060.3,1320.6l-31.1-38.8l-47.6-42.5L824.4,1404l-66.4,58.8l-14.5,7.8l-158.8,27.7l-24.3-15.6
				c0,0-11.5-78.5-10.1-77.9s17-1.4,17-1.4l151.9-16.6l68.9-67.1l81.2-92.6l31-71.9l-24-26.2l-11.4-10l-86.6,60.5l-43.4,9.7
				l-149.6-122.1l-21.1-21.7l79.6-93.7l-26.5-20L501.6,1049l-108.8,123.4l16.3,33L420,1193l41.9-48.6l13.9,12.2l-70.2,79.4
				l-31.1-27.2l-11.5,13.2l-18.1-19.2l586-669l50.9,43.7l-28.6,32.6l7.1,6.2L936.8,643l-18.4-16.1l35.5-41.6l-24.4-21.4L918,577.1
				l-92.5,105.4l24.8,21.1l47-52.5l18.4,16.1l-51.4,58.7l-3.1,16.2L827,780.9l161.4,122.6l-86.2,102.8l-5,16l48.1,42.5l160.9-108
				l17-19.8l45.1-89.1l-16.7-127.7l59.1-69.7l50.7,37.3l-11.6,42.5l9.7,151.5l-6.5,15.2L1117,1072.4l-55.9,71.9l37.5,36.8l14.6,12.8
				l61.4,53.9l-79.5,91L1060.3,1320.6z"/>
			
				<rect x="769.3" y="1442.9" transform="matrix(0.6592 -0.752 0.752 0.6592 -834.1398 1090.1166)" class="st7" width="32.6" height="44.7"/>
			<polygon class="st7" points="835,1530.5 877.1,1483 800.5,1414.4 779.5,1438.3 813.1,1467.8 791.6,1492.2 			"/>
			
				<rect x="854.5" y="1347.7" transform="matrix(0.6592 -0.752 0.752 0.6592 -735.458 1121.9534)" class="st7" width="31" height="49.2"/>
			
				<rect x="875.2" y="1324.1" transform="matrix(0.6592 -0.752 0.752 0.6592 -710.689 1129.4576)" class="st7" width="31" height="49.2"/>
			
				<rect x="895.6" y="1300.8" transform="matrix(0.6592 -0.752 0.752 0.6592 -686.2081 1136.8746)" class="st7" width="31" height="49.2"/>
			
				<rect x="924.1" y="1273.9" transform="matrix(0.6592 -0.752 0.752 0.6592 -664.3169 1152.8357)" class="st7" width="31" height="70.8"/>
			<path class="st7" d="M950.7,1255.7c-9.3,6.7-18,12.3-25.3,16.1l-1.9,2.2l53.3,46.7l20.9-23.8L950.7,1255.7z"/>
			<path class="st7" d="M997.6,1296.9l21.6-24.7l-42.2-37c-8.7,7.3-17.8,14.3-26.4,20.5L997.6,1296.9z"/>
			<polygon class="st7" points="1029.2,1281.9 904.5,1423.6 841.5,1367.5 800.5,1413.9 928.9,1527.9 1095.2,1338.7 			"/>
			<g class="st8">
				
					<rect x="731.7" y="1417.1" transform="matrix(0.6592 -0.752 0.752 0.6592 -820.3223 1043.9911)" class="st9" width="19.7" height="19.7"/>
				
					<rect x="560.5" y="1432.8" transform="matrix(0.9978 -6.563210e-02 6.563210e-02 0.9978 -93.4525 40.5407)" class="st9" width="19.7" height="19.7"/>
				
					<rect x="866" y="1263.9" transform="matrix(0.6592 -0.752 0.752 0.6592 -659.3218 1092.7697)" class="st9" width="19.7" height="19.7"/>
				
					<rect x="1072.2" y="1028.7" transform="matrix(0.6592 -0.752 0.752 0.6592 -412.2081 1167.6378)" class="st9" width="19.7" height="19.7"/>
				
					<rect x="1207.7" y="873.6" transform="matrix(0.1949 -0.9808 0.9808 0.1949 113.7283 1905.4565)" class="st9" width="19.7" height="19.7"/>
			</g>
			
				<rect x="1239.3" y="903.3" transform="matrix(0.6592 -0.752 0.752 0.6592 -285.071 1281.467)" class="st7" width="63.8" height="103.9"/>
			
				<rect x="1199.5" y="950.2" transform="matrix(0.6592 -0.752 0.752 0.6592 -322.9716 1253.4757)" class="st7" width="43.7" height="65.6"/>
			
				<rect x="1134.6" y="1035.9" transform="matrix(0.6592 -0.752 0.752 0.6592 -418.7 1232.6484)" class="st7" width="31.7" height="84.6"/>
			
				<rect x="1109" y="1061.8" transform="matrix(0.6592 -0.752 0.752 0.6592 -441.8983 1219.96)" class="st7" width="31.7" height="71.4"/>
			
				<rect x="1173.5" y="1182.6" transform="matrix(0.752 0.6592 -0.6592 0.752 1095.0964 -480.6879)" class="st7" width="25.7" height="64.7"/>
			
				<rect x="1154" y="1165.6" transform="matrix(0.752 0.6592 -0.6592 0.752 1079.025 -472.0904)" class="st7" width="25.7" height="64.7"/>
			
				<rect x="1126" y="1145.3" transform="matrix(0.752 0.6592 -0.6592 0.752 1059.8977 -461.8582)" class="st7" width="35.5" height="64.7"/>
			<polygon class="st7" points="1289.2,1013.4 1340.5,1058.4 1217.3,1199.1 1151.7,1141.6 1192.7,1094.2 1129.1,1038.4 
				1182.2,977.9 1231.6,1021.1 1260.4,988.2 			"/>
			<polygon class="st7" points="1348.1,958.9 1259.6,881.8 1252.4,760.7 1334.4,755 			"/>
			<polygon class="st7" points="1249.9,730.3 1252.4,760.7 1319.5,756 1317.8,725.9 			"/>
			<polygon class="st7" points="1248.4,711.1 1249.9,730.3 1332.5,724.7 1317.3,478.2 1353.3,475.8 1335.4,195.5 987.4,218.1 
				1002.7,451.6 930.9,533.6 1143.5,718 			"/>
			<polygon class="st7" points="1176,796.9 1170.4,715.9 1143.5,718 1045.3,632 921.5,774.9 977.8,823.4 1019,777.1 1077.1,828 
				1100.1,801.7 			"/>
			<polygon class="st7" points="1179.2,840.9 1176.5,796.9 1100.1,801.7 1077.1,828 1113.8,860.2 1128.2,843.7 			"/>
			<polygon class="st7" points="1066.7,818.9 1024.9,866.6 1060.8,898 1071.7,907.6 1115.6,946.1 1140.6,917.6 1096.7,879.1 
				1113.5,859.9 			"/>
			
				<rect x="1114.4" y="859.7" transform="matrix(0.6592 -0.752 0.752 0.6592 -284.3538 1150.4022)" class="st7" width="25.2" height="58.3"/>
			<polygon class="st7" points="1181.1,870.7 1179.2,840.9 1128.2,843.7 1113.6,860.5 1157.1,898.7 			"/>
			
				<rect x="1065.4" y="915.8" transform="matrix(0.6592 -0.752 0.752 0.6592 -344.1293 1131.8203)" class="st7" width="22.2" height="59.4"/>
			
				<rect x="1049" y="933.4" transform="matrix(0.6592 -0.752 0.752 0.6592 -362.5614 1126.2358)" class="st7" width="24.4" height="59.4"/>
			
				<rect x="1027.1" y="954.4" transform="matrix(0.6592 -0.752 0.752 0.6592 -384.5943 1119.5605)" class="st7" width="31.3" height="59.4"/>
			
				<rect x="1006.7" y="977.7" transform="matrix(0.6592 -0.752 0.752 0.6592 -409.0753 1112.1436)" class="st7" width="31.3" height="59.4"/>
			<path class="st7" d="M956.3,1037.7l34.7,30.4c16.2-13.3,31.3-23.2,42.3-28.1l1.3-1.5l-44.7-39.2L956.3,1037.7z"/>
			<path class="st7" d="M956.3,1037.7l-18.5,21.1l31.9,28c2.4-2.2,4.8-4.5,7.3-6.8c4.7-4.2,9.4-8.2,13.9-12L956.3,1037.7z"/>
			
				<rect x="767.7" y="1241.7" transform="matrix(-0.6592 0.752 -0.752 -0.6592 2268.3049 1514.8403)" class="st7" width="46.3" height="59.4"/>
			
				<rect x="800.8" y="1212.6" transform="matrix(-0.6592 0.752 -0.752 -0.6592 2288.8086 1447.165)" class="st7" width="31.3" height="59.4"/>
			
				<rect x="821.2" y="1189.3" transform="matrix(-0.6592 0.752 -0.752 -0.6592 2305.1733 1393.1509)" class="st7" width="31.3" height="59.4"/>
			<path class="st7" d="M858.3,1149.5l34.7,30.4c-11,17.8-18.9,34.1-22.3,45.7l-1.3,1.5l-44.7-39.2L858.3,1149.5z"/>
			<path class="st7" d="M858.3,1149.5l18.5-21.1l31.9,28c-1.9,2.6-3.8,5.4-5.7,8.1c-3.6,5.2-6.9,10.3-10,15.4L858.3,1149.5z"/>
			<polygon class="st7" points="743.5,1470.6 831,1547.8 677.5,1558.6 672.5,1474.8 			"/>
			<polygon class="st7" points="622.9,1478.8 672.5,1474.8 677.5,1558.6 627.8,1561.1 			"/>
			<polygon class="st7" points="596.5,1548.7 591.8,1481.1 622.9,1478.8 627.1,1547 			"/>
			<polygon class="st7" points="560.4,1482.7 591.8,1481.1 596,1548.3 564.9,1551.1 			"/>
			<polygon class="st7" points="552.3,1383.5 565.6,1566.3 285.6,1585.1 284.7,1571.4 70.3,1584.5 50.1,1282.4 288.8,1266.7 
				344.9,1202.6 			"/>
			<polygon class="st7" points="567.3,1403.4 565.5,1376.2 468.3,1291.4 593,1149.6 631.9,1183.2 625.2,1190.9 631.7,1196.7 
				621.4,1208.5 631.8,1217.6 608.1,1245.2 666.5,1296.4 643.9,1322.2 648.6,1398.6 			"/>
			<polygon class="st7" points="648.9,1398.3 692.6,1396 688.8,1345.1 703.2,1328.6 666.2,1296.2 643.6,1322.5 			"/>
			<polygon class="st7" points="692.2,1396.5 722,1394.5 746.5,1366.1 703.2,1328.6 688.8,1345.1 			"/>
			
				<rect x="720.3" y="1308.4" transform="matrix(0.6592 -0.752 0.752 0.6592 -755.8414 1007.0835)" class="st7" width="25.5" height="58"/>
			<polygon class="st7" points="696.9,1240.2 788.1,1319.7 763.3,1346.9 719.7,1308.7 702.9,1327.9 656,1287.3 			"/>
			<polygon class="st7" points="897.2,1022.2 895.8,1006 919.1,979.4 958.3,1013.3 927.5,1048.3 			"/>
			
				<rect x="933.1" y="958.5" transform="matrix(0.6592 -0.752 0.752 0.6592 -416.7594 1049.2842)" class="st7" width="32.1" height="51.8"/>
			<polygon class="st7" points="1015.5,877.2 1051.1,908 979.2,989.4 940.3,955.3 977.8,912.5 981.3,915.6 			"/>
			
				<rect x="960.8" y="870.8" transform="matrix(0.6592 -0.752 0.752 0.6592 -330.2878 1044.1)" class="st7" width="51.8" height="31.2"/>
			
				<rect x="937.3" y="850.2" transform="matrix(0.6592 -0.752 0.752 0.6592 -322.818 1019.4451)" class="st7" width="51.8" height="31.2"/>
			
				<rect x="913.9" y="829.7" transform="matrix(0.6592 -0.752 0.752 0.6592 -315.3483 994.7902)" class="st7" width="51.8" height="31.2"/>
			
				<rect x="890.2" y="808.9" transform="matrix(0.6592 -0.752 0.752 0.6592 -307.7927 969.8519)" class="st7" width="51.8" height="31.2"/>
			
				<rect x="866.7" y="788.3" transform="matrix(0.6592 -0.752 0.752 0.6592 -300.3233 945.1981)" class="st7" width="51.8" height="31.2"/>
			
				<rect x="836.6" y="753.1" transform="matrix(0.6592 -0.752 0.752 0.6592 -290.7421 913.5739)" class="st7" width="51.8" height="48.8"/>
			<polygon class="st7" points="835.9,1092.2 819,1093.6 801.7,1113.4 795.7,1120.2 774.6,1144.3 813.5,1178.4 840.7,1147.5 
				840.6,1147.5 865.6,1118.8 			"/>
			
				<rect x="674.6" y="1157.5" transform="matrix(-0.6592 0.752 -0.752 -0.6592 2056.3176 1445.8734)" class="st7" width="51.8" height="62.8"/>
			
				<rect x="638.9" y="1142" transform="matrix(-0.6592 0.752 -0.752 -0.6592 1973.5558 1420.799)" class="st7" width="51.8" height="31.2"/>
			
				<rect x="615.5" y="1121.5" transform="matrix(-0.6592 0.752 -0.752 -0.6592 1919.1578 1404.318)" class="st7" width="51.8" height="31.2"/>
			
				<rect x="591.7" y="1100.7" transform="matrix(-0.6592 0.752 -0.752 -0.6592 1864.1345 1387.6476)" class="st7" width="51.8" height="31.2"/>
			
				<rect x="568.3" y="1080.1" transform="matrix(-0.6592 0.752 -0.752 -0.6592 1809.739 1371.1672)" class="st7" width="51.8" height="31.2"/>
			
				<rect x="544.4" y="1058.6" transform="matrix(-0.6592 0.752 -0.752 -0.6592 1754.368 1354.3915)" class="st7" width="51.8" height="32.3"/>
			
				<rect x="502.7" y="999" transform="matrix(-0.6592 0.752 -0.752 -0.6592 1695.5881 1282.0048)" class="st7" width="109.1" height="52.5"/>
			
				<rect x="587.3" y="946.6" transform="matrix(-0.6592 0.752 -0.752 -0.6592 1732.4253 1160.4183)" class="st7" width="31.8" height="52.5"/>
			<polygon class="st7" points="633.6,978 649.5,949.5 615.1,919.4 594.2,943.4 			"/>
			<polygon class="st7" points="828.6,755.6 777.7,813.6 738.2,779 778.5,733 796.8,749 807.4,737 			"/>
			
				<rect x="732" y="781.5" transform="matrix(0.6592 -0.752 0.752 0.6592 -352.4611 837.7501)" class="st7" width="31.8" height="52.5"/>
			<polygon class="st7" points="757,837.2 730.9,856.6 696.6,826.5 717.6,802.6 			"/>
			
				<rect x="927.2" y="564.9" transform="matrix(0.6592 -0.752 0.752 0.6592 -118.0348 901.9089)" class="st7" width="17.5" height="32.4"/>
			
				<rect x="879.6" y="699.1" transform="matrix(0.6592 -0.752 0.752 0.6592 -241.3134 926.3482)" class="st7" width="43.4" height="60.5"/>
			<polygon class="st7" points="897.3,651 915.6,667.1 892.1,694 937.3,733.6 960.9,706.7 963,704.3 971.4,694.7 907.9,638.9 			"/>
			<polygon class="st7" points="918.4,626.9 936.8,643 960.3,616.1 1005.6,655.8 982,682.6 979.9,685.1 971.4,694.7 907.9,638.9 			
				"/>
			
				<rect x="971.9" y="581.8" transform="matrix(0.6592 -0.752 0.752 0.6592 -124.8872 957.2197)" class="st7" width="43.4" height="69.3"/>
			<polygon class="st7" points="776.4,1221.1 795.2,1199.4 756.2,1165.2 737.3,1186.8 			"/>
			<polygon class="st7" points="756.2,1165.2 795.2,1199.4 813.5,1178.4 774.6,1144.3 			"/>
			
				<rect x="393.5" y="1171" transform="matrix(0.6592 -0.752 0.752 0.6592 -756.4221 706.9764)" class="st7" width="16.5" height="34"/>
			
				<rect x="460.6" y="1107.1" transform="matrix(0.6592 -0.752 0.752 0.6592 -674.2646 761.0066)" class="st7" width="83.6" height="34.5"/>
			
				<rect x="451.9" y="1172" transform="matrix(0.6592 -0.752 0.752 0.6592 -744.4679 769.9241)" class="st7" width="50.5" height="68.5"/>
			
				<rect x="423.8" y="1207.6" transform="matrix(0.6592 -0.752 0.752 0.6592 -781.9094 758.5804)" class="st7" width="44.2" height="68.5"/>
			<path class="st7" d="M1087.5,1085.3l32.2,28.2l-20.5,23.4l-24.3-21.3c-0.3,0.6-0.5,1.1-0.8,1.7c-5,10.3-10.3,19.7-15.7,27.8
				l40.9,35.9l42.6-48.6l-54.1-47.4L1087.5,1085.3z"/>
			<path class="st7" d="M1086.7,1086.3c-3,9.1-7,19.1-11.8,29.4l24.3,21.3l20.5-23.4l-32.2-28.2L1086.7,1086.3z"/>
		</g>
		<g>
			<g>
				<circle class="st9" cx="467.1" cy="1223.1" r="24.2"/>
				<g>
					<g>
						<g>
							<path class="st10" d="M457.8,1213.6c1.3,0,2.3-1,2.3-2.3c0-1.3-1-2.3-2.3-2.3c-1.3,0-2.3,1-2.3,2.3
								C455.4,1212.6,456.5,1213.6,457.8,1213.6z M460.2,1214.2l-4.9,0c-1.7,0-3,1.4-3,3v7.2c0,1.4,2,1.4,2,0v-6.6h0.5v18
								c0,1.9,2.7,1.8,2.7,0v-10.5h0.5v10.5c0,1.8,2.7,1.9,2.7,0v-18h0.5v6.6c0,1.4,2,1.4,2,0v-7.1
								C463.2,1215.7,462,1214.2,460.2,1214.2z"/>
						</g>
					</g>
					<g>
						<g>
							<path class="st10" d="M484.3,1222.8l-2-6.6c-0.2-0.7-1.2-2.1-2.8-2.1h-3.2c-1.6,0-2.6,1.3-2.8,2.1l-2,6.6
								c-0.4,1.4,1.4,2,1.8,0.6l1.8-6.1h0.5l-3.1,10.8h2.9l0,7.9c0,1.4,2.2,1.4,2.2,0l0-7.9h0.6v8c0,1.4,2.2,1.4,2.2,0v-7.9h2.9
								l-3.1-10.8h0.5l1.8,6.1C482.9,1224.8,484.7,1224.3,484.3,1222.8z M477.9,1213.6c1.3,0,2.3-1,2.3-2.3c0-1.3-1-2.3-2.3-2.3
								c-1.3,0-2.3,1-2.3,2.3C475.6,1212.5,476.7,1213.6,477.9,1213.6z"/>
						</g>
					</g>
					<g>
						<path class="st10" d="M467.3,1238.8c-0.2,0-0.4-0.2-0.4-0.4v-30.5c0-0.2,0.2-0.4,0.4-0.4c0.2,0,0.4,0.2,0.4,0.4v30.5
							C467.8,1238.6,467.6,1238.8,467.3,1238.8z"/>
					</g>
				</g>
			</g>
			<g>
				<circle class="st9" cx="983.6" cy="635.6" r="24.2"/>
				<g>
					<g>
						<g>
							<path class="st10" d="M974.3,626.1c1.3,0,2.3-1,2.3-2.3c0-1.3-1-2.3-2.3-2.3c-1.3,0-2.3,1-2.3,2.3
								C971.9,625.1,973,626.1,974.3,626.1z M976.7,626.7l-4.9,0c-1.7,0-3,1.4-3,3v7.2c0,1.4,2,1.4,2,0v-6.6h0.5v18
								c0,1.9,2.7,1.8,2.7,0v-10.5h0.5v10.5c0,1.8,2.7,1.9,2.7,0v-18h0.5v6.6c0,1.4,2,1.4,2,0v-7.1
								C979.7,628.2,978.5,626.7,976.7,626.7z"/>
						</g>
					</g>
					<g>
						<g>
							<path class="st10" d="M1000.8,635.3l-2-6.6c-0.2-0.7-1.2-2.1-2.8-2.1h-3.2c-1.6,0-2.6,1.3-2.8,2.1l-2,6.6
								c-0.4,1.4,1.4,2,1.8,0.6l1.8-6.1h0.5l-3.1,10.8h2.9l0,7.9c0,1.4,2.2,1.4,2.2,0l0-7.9h0.6v8c0,1.4,2.2,1.4,2.2,0v-7.9h2.9
								l-3.1-10.8h0.5l1.8,6.1C999.4,637.4,1001.2,636.8,1000.8,635.3z M994.4,626.1c1.3,0,2.3-1,2.3-2.3c0-1.3-1-2.3-2.3-2.3
								c-1.3,0-2.3,1-2.3,2.3C992.1,625,993.2,626.1,994.4,626.1z"/>
						</g>
					</g>
					<g>
						<path class="st10" d="M983.8,651.3c-0.2,0-0.4-0.2-0.4-0.4v-30.5c0-0.2,0.2-0.4,0.4-0.4c0.2,0,0.4,0.2,0.4,0.4v30.5
							C984.3,651.1,984.1,651.3,983.8,651.3z"/>
					</g>
				</g>
			</g>
			<g>
				<circle class="st9" cx="920.6" cy="712.1" r="24.2"/>
				<g>
					<g>
						<g>
							<path class="st10" d="M911.3,702.6c1.3,0,2.3-1,2.3-2.3c0-1.3-1-2.3-2.3-2.3c-1.3,0-2.3,1-2.3,2.3
								C908.9,701.6,910,702.6,911.3,702.6z M913.7,703.2l-4.9,0c-1.7,0-3,1.4-3,3v7.2c0,1.4,2,1.4,2,0v-6.6h0.5v18
								c0,1.9,2.7,1.8,2.7,0v-10.5h0.5v10.5c0,1.8,2.7,1.9,2.7,0v-18h0.5v6.6c0,1.4,2,1.4,2,0v-7.1
								C916.7,704.7,915.5,703.2,913.7,703.2z"/>
						</g>
					</g>
					<g>
						<g>
							<path class="st10" d="M937.8,711.8l-2-6.6c-0.2-0.7-1.2-2.1-2.8-2.1h-3.2c-1.6,0-2.6,1.3-2.8,2.1l-2,6.6
								c-0.4,1.4,1.4,2,1.8,0.6l1.8-6.1h0.5l-3.1,10.8h2.9l0,7.9c0,1.4,2.2,1.4,2.2,0l0-7.9h0.6v8c0,1.4,2.2,1.4,2.2,0v-7.9h2.9
								l-3.1-10.8h0.5l1.8,6.1C936.4,713.8,938.2,713.3,937.8,711.8z M931.4,702.6c1.3,0,2.3-1,2.3-2.3c0-1.3-1-2.3-2.3-2.3
								c-1.3,0-2.3,1-2.3,2.3C929.1,701.5,930.2,702.6,931.4,702.6z"/>
						</g>
					</g>
					<g>
						<path class="st10" d="M920.8,727.8c-0.2,0-0.4-0.2-0.4-0.4v-30.5c0-0.2,0.2-0.4,0.4-0.4c0.2,0,0.4,0.2,0.4,0.4v30.5
							C921.3,727.6,921.1,727.8,920.8,727.8z"/>
					</g>
				</g>
			</g>
			<g>
				<circle class="st9" cx="883.3" cy="1533.1" r="24.2"/>
				<g>
					<g>
						<path class="st10" d="M872.7,1547.4c-0.8,0-1.5-0.7-1.5-1.5v-7.4c0-0.8,0.7-1.5,1.5-1.5h6.6v-7.4c0-0.8,0.7-1.5,1.5-1.5h6.4
							v-6.3c0-0.8,0.7-1.5,1.5-1.5h8.3c0.8,0,1.5,0.7,1.5,1.5c0,0.8-0.7,1.5-1.5,1.5h-6.8v6.3c0,0.8-0.7,1.5-1.5,1.5h-6.4v7.4
							c0,0.8-0.7,1.5-1.5,1.5h-6.6v5.9C874.2,1546.8,873.5,1547.4,872.7,1547.4z"/>
					</g>
				</g>
			</g>
			<g>
				<circle class="st9" cx="665.4" cy="1440.1" r="24.2"/>
				<g>
					<g>
						<path class="st10" d="M654.8,1454.4c-0.8,0-1.5-0.7-1.5-1.5v-7.4c0-0.8,0.7-1.5,1.5-1.5h6.6v-7.4c0-0.8,0.7-1.5,1.5-1.5h6.4
							v-6.3c0-0.8,0.7-1.5,1.5-1.5h8.3c0.8,0,1.5,0.7,1.5,1.5s-0.7,1.5-1.5,1.5h-6.8v6.3c0,0.8-0.7,1.5-1.5,1.5h-6.4v7.4
							c0,0.8-0.7,1.5-1.5,1.5h-6.6v5.9C656.3,1453.7,655.7,1454.4,654.8,1454.4z"/>
					</g>
				</g>
			</g>
			<g>
				<circle class="st9" cx="649.3" cy="1237.6" r="24.2"/>
				<g>
					<g>
						<path class="st10" d="M638.7,1251.9c-0.8,0-1.5-0.7-1.5-1.5v-7.4c0-0.8,0.7-1.5,1.5-1.5h6.6v-7.4c0-0.8,0.7-1.5,1.5-1.5h6.4
							v-6.3c0-0.8,0.7-1.5,1.5-1.5h8.3c0.8,0,1.5,0.7,1.5,1.5c0,0.8-0.7,1.5-1.5,1.5h-6.8v6.3c0,0.8-0.7,1.5-1.5,1.5h-6.4v7.4
							c0,0.8-0.7,1.5-1.5,1.5h-6.6v5.9C640.2,1251.3,639.5,1251.9,638.7,1251.9z"/>
					</g>
				</g>
			</g>
			<g>
				<circle class="st9" cx="1024.8" cy="824" r="24.2"/>
				<g>
					<g>
						<path class="st10" d="M1014.2,838.3c-0.8,0-1.5-0.7-1.5-1.5v-7.4c0-0.8,0.7-1.5,1.5-1.5h6.6v-7.4c0-0.8,0.7-1.5,1.5-1.5h6.4
							v-6.3c0-0.8,0.7-1.5,1.5-1.5h8.3c0.8,0,1.5,0.7,1.5,1.5c0,0.8-0.7,1.5-1.5,1.5h-6.8v6.3c0,0.8-0.7,1.5-1.5,1.5h-6.4v7.4
							c0,0.8-0.7,1.5-1.5,1.5h-6.6v5.9C1015.7,837.6,1015.1,838.3,1014.2,838.3z"/>
					</g>
				</g>
			</g>
			<g>
				<circle class="st9" cx="1333.7" cy="1014.5" r="24.2"/>
				<g>
					<g>
						<path class="st10" d="M1323.1,1028.8c-0.8,0-1.5-0.7-1.5-1.5v-7.4c0-0.8,0.7-1.5,1.5-1.5h6.6v-7.4c0-0.8,0.7-1.5,1.5-1.5h6.4
							v-6.3c0-0.8,0.7-1.5,1.5-1.5h8.3c0.8,0,1.5,0.7,1.5,1.5s-0.7,1.5-1.5,1.5h-6.8v6.3c0,0.8-0.7,1.5-1.5,1.5h-6.4v7.4
							c0,0.8-0.7,1.5-1.5,1.5h-6.6v5.9C1324.6,1028.2,1323.9,1028.8,1323.1,1028.8z"/>
					</g>
				</g>
			</g>
			<g>
				<circle class="st9" cx="1214.8" cy="783.2" r="24.2"/>
				<g>
					<g>
						<path class="st10" d="M1204.2,797.5c-0.8,0-1.5-0.7-1.5-1.5v-7.4c0-0.8,0.7-1.5,1.5-1.5h6.6v-7.4c0-0.8,0.7-1.5,1.5-1.5h6.4
							v-6.3c0-0.8,0.7-1.5,1.5-1.5h8.3c0.8,0,1.5,0.7,1.5,1.5s-0.7,1.5-1.5,1.5h-6.8v6.3c0,0.8-0.7,1.5-1.5,1.5h-6.4v7.4
							c0,0.8-0.7,1.5-1.5,1.5h-6.6v5.9C1205.7,796.8,1205,797.5,1204.2,797.5z"/>
					</g>
				</g>
			</g>
			<g>
				<circle class="st9" cx="1080.3" cy="1244.3" r="24.2"/>
				<g>
					<g>
						<path class="st10" d="M1092.4,1233.2h-4.9c-1,0-2.3,0.4-3.1,1.2l-4.5,4.5l-4.2,4.1h0l-3.9,3.9c-0.4,0.4-0.4,0.4-1.1,0.4
							c0,0-2.4,0-2.4,0c-2.4,0-3.9,2.2-3.9,4c0,1.8,1.4,4.2,4.1,4.2c0,0,3.3,0,4.3,0c1,0,2.2-0.4,3.2-1.3l12.5-12.5
							c0.3-0.2,0.4-0.3,0.9-0.3c0,0,1.7,0,3.1,0c1.5,0,3.6-1.7,3.6-4.1C1096.1,1234.9,1094,1233.3,1092.4,1233.2z M1092.1,1239.3
							h-2.6c-1.1,0-1.6,0.2-2.3,0.8l-12.6,12.6c-0.5,0.5-1.2,0.7-2,0.7h-4.2c-1.1,0-2-0.9-2-2.1c0-1.2,0.9-1.8,1.8-1.8h2.9
							c0.8,0,1.4-0.2,1.9-0.7l12.8-12.8c0.5-0.5,1-0.6,1.9-0.6h4.4c1.1,0,1.8,1.2,1.8,1.9C1094,1237.9,1093.4,1239.3,1092.1,1239.3z
							"/>
					</g>
					<g>
						<g>
							<circle class="st10" cx="1077.8" cy="1232.6" r="2.1"/>
						</g>
						<g>
							<path class="st10" d="M1079.9,1238.9v-1.3c0-2.8-4.2-2.8-4.2,0v5.4h0L1079.9,1238.9z"/>
						</g>
					</g>
				</g>
			</g>
			<g>
				<circle class="st9" cx="412.3" cy="1166.1" r="24.2"/>
				<g>
					<g>
						<path class="st10" d="M420,1182h-15.6c-0.5,0-0.9-0.4-0.9-0.9v-22.6c0-0.5,0.4-0.9,0.9-0.9H420c0.5,0,0.9,0.4,0.9,0.9v22.6
							C420.9,1181.6,420.5,1182,420,1182z M405.3,1180.3h13.8v-20.8h-13.8V1180.3z"/>
					</g>
					<g>
						<path class="st10" d="M423.9,1182.4c-0.5,0-0.9-0.4-0.9-0.9v-26.3h-21.5v26.3c0,0.5-0.4,0.9-0.9,0.9c-0.5,0-0.9-0.4-0.9-0.9
							v-27.2c0-0.5,0.4-0.9,0.9-0.9h23.3c0.5,0,0.9,0.4,0.9,0.9v27.2C424.7,1182,424.4,1182.4,423.9,1182.4z"/>
					</g>
					<g>
						<path class="st10" d="M412.3,1181.9c-0.5,0-0.9-0.4-0.9-0.9v-22.3c0-0.5,0.4-0.9,0.9-0.9c0.5,0,0.9,0.4,0.9,0.9v22.3
							C413.1,1181.5,412.7,1181.9,412.3,1181.9z"/>
					</g>
					<g>
						<g>
							<g>
								<path class="st10" d="M416.2,1151.8c-0.3,0-0.5-0.2-0.5-0.5v-3.5c0-0.3,0.2-0.5,0.5-0.5c0.3,0,0.5,0.2,0.5,0.5v3.5
									C416.7,1151.6,416.4,1151.8,416.2,1151.8z"/>
							</g>
							<g>
								<g>
									<path class="st10" d="M414,1150.1c-0.1,0-0.3-0.1-0.4-0.2c-0.2-0.2-0.2-0.6,0-0.8l2-1.8c0.2-0.2,0.6-0.2,0.8,0
										c0.2,0.2,0.2,0.6,0,0.8l-2,1.8C414.3,1150.1,414.2,1150.1,414,1150.1z"/>
								</g>
								<g>
									<path class="st10" d="M418.3,1150.1c-0.1,0-0.3,0-0.4-0.1l-2-1.8c-0.2-0.2-0.2-0.5,0-0.8c0.2-0.2,0.5-0.2,0.8,0l2,1.8
										c0.2,0.2,0.2,0.5,0,0.8C418.6,1150,418.4,1150.1,418.3,1150.1z"/>
								</g>
							</g>
						</g>
						<g>
							<g>
								<path class="st10" d="M408.4,1151.8c-0.3,0-0.5-0.2-0.5-0.5v-3.5c0-0.3,0.2-0.5,0.5-0.5s0.5,0.2,0.5,0.5v3.5
									C408.9,1151.5,408.7,1151.8,408.4,1151.8z"/>
							</g>
							<g>
								<g>
									<path class="st10" d="M408.5,1151.8c-0.1,0-0.3-0.1-0.4-0.2c-0.2-0.2-0.2-0.6,0-0.8l2-1.8c0.2-0.2,0.6-0.2,0.8,0
										c0.2,0.2,0.2,0.6,0,0.8l-2,1.8C408.7,1151.8,408.6,1151.8,408.5,1151.8z"/>
								</g>
								<g>
									<path class="st10" d="M408.2,1151.8c-0.1,0-0.3,0-0.4-0.1l-2-1.8c-0.2-0.2-0.2-0.5,0-0.8c0.2-0.2,0.5-0.2,0.8,0l2,1.8
										c0.2,0.2,0.2,0.5,0,0.8C408.5,1151.8,408.4,1151.8,408.2,1151.8z"/>
								</g>
							</g>
						</g>
					</g>
				</g>
			</g>
			<g>
				<circle class="st9" cx="919.1" cy="598" r="24.2"/>
				<g>
					<g>
						<path class="st10" d="M926.9,613.9h-15.6c-0.5,0-0.9-0.4-0.9-0.9v-22.6c0-0.5,0.4-0.9,0.9-0.9h15.6c0.5,0,0.9,0.4,0.9,0.9V613
							C927.8,613.5,927.4,613.9,926.9,613.9z M912.2,612.1H926v-20.8h-13.8V612.1z"/>
					</g>
					<g>
						<path class="st10" d="M930.8,614.3c-0.5,0-0.9-0.4-0.9-0.9v-26.3h-21.5v26.3c0,0.5-0.4,0.9-0.9,0.9c-0.5,0-0.9-0.4-0.9-0.9
							v-27.2c0-0.5,0.4-0.9,0.9-0.9h23.3c0.5,0,0.9,0.4,0.9,0.9v27.2C931.6,613.9,931.2,614.3,930.8,614.3z"/>
					</g>
					<g>
						<path class="st10" d="M919.1,613.7c-0.5,0-0.9-0.4-0.9-0.9v-22.3c0-0.5,0.4-0.9,0.9-0.9c0.5,0,0.9,0.4,0.9,0.9v22.3
							C920,613.3,919.6,613.7,919.1,613.7z"/>
					</g>
					<g>
						<g>
							<g>
								<path class="st10" d="M923,583.7c-0.3,0-0.5-0.2-0.5-0.5v-3.5c0-0.3,0.2-0.5,0.5-0.5c0.3,0,0.5,0.2,0.5,0.5v3.5
									C923.6,583.5,923.3,583.7,923,583.7z"/>
							</g>
							<g>
								<g>
									<path class="st10" d="M920.9,582c-0.1,0-0.3-0.1-0.4-0.2c-0.2-0.2-0.2-0.6,0-0.8l2-1.8c0.2-0.2,0.6-0.2,0.8,0
										c0.2,0.2,0.2,0.6,0,0.8l-2,1.8C921.1,581.9,921,582,920.9,582z"/>
								</g>
								<g>
									<path class="st10" d="M925.1,582c-0.1,0-0.3,0-0.4-0.1l-2-1.8c-0.2-0.2-0.2-0.5,0-0.8c0.2-0.2,0.5-0.2,0.8,0l2,1.8
										c0.2,0.2,0.2,0.5,0,0.8C925.4,581.9,925.3,582,925.1,582z"/>
								</g>
							</g>
						</g>
						<g>
							<g>
								<path class="st10" d="M915.2,583.6c-0.3,0-0.5-0.2-0.5-0.5v-3.5c0-0.3,0.2-0.5,0.5-0.5c0.3,0,0.5,0.2,0.5,0.5v3.5
									C915.8,583.4,915.5,583.6,915.2,583.6z"/>
							</g>
							<g>
								<g>
									<path class="st10" d="M915.3,583.7c-0.1,0-0.3-0.1-0.4-0.2c-0.2-0.2-0.2-0.6,0-0.8l2-1.8c0.2-0.2,0.6-0.2,0.8,0
										c0.2,0.2,0.2,0.6,0,0.8l-2,1.8C915.6,583.7,915.5,583.7,915.3,583.7z"/>
								</g>
								<g>
									<path class="st10" d="M915.1,583.7c-0.1,0-0.3,0-0.4-0.1l-2-1.8c-0.2-0.2-0.2-0.5,0-0.8c0.2-0.2,0.5-0.2,0.8,0l2,1.8
										c0.2,0.2,0.2,0.5,0,0.8C915.4,583.6,915.3,583.7,915.1,583.7z"/>
								</g>
							</g>
						</g>
					</g>
				</g>
			</g>
			<g>
				<circle class="st9" cx="513.9" cy="1136.6" r="24.2"/>
				<g>
					<g>
						<g>
							<path class="st10" d="M502.1,1127.2c1.3,0,2.3-1,2.3-2.3c0-1.3-1-2.3-2.3-2.3c-1.3,0-2.3,1-2.3,2.3
								C499.8,1126.2,500.8,1127.2,502.1,1127.2z M504.5,1127.7l-4.9,0c-1.7,0-3,1.4-3,3v7.2c0,1.4,2,1.4,2,0v-6.6h0.5v18
								c0,1.9,2.7,1.8,2.7,0v-10.5h0.5v10.5c0,1.8,2.7,1.9,2.7,0v-18h0.5v6.6c0,1.4,2,1.4,2,0v-7.1
								C507.6,1129.2,506.4,1127.7,504.5,1127.7z"/>
						</g>
					</g>
					<g>
						<g>
							<path class="st10" d="M532.3,1136.4l-2-6.6c-0.2-0.7-1.2-2.1-2.8-2.1h-3.2c-1.6,0-2.6,1.3-2.8,2.1l-2,6.6
								c-0.4,1.4,1.4,2,1.8,0.6l1.8-6.1h0.5l-3.1,10.8h2.9l0,7.9c0,1.4,2.2,1.4,2.2,0l0-7.9h0.6v8c0,1.4,2.2,1.4,2.2,0v-7.9h2.9
								l-3.1-10.8h0.5l1.8,6.1C530.9,1138.4,532.7,1137.9,532.3,1136.4z M525.9,1127.2c1.3,0,2.3-1,2.3-2.3c0-1.3-1-2.3-2.3-2.3
								c-1.3,0-2.3,1-2.3,2.3C523.6,1126.1,524.7,1127.2,525.9,1127.2z"/>
						</g>
					</g>
					<g>
						<path class="st10" d="M509.5,1136.8c0,0.1,0,5,0,5c0,0.4,0.3,0.7,0.7,0.7c0.4,0,0.7-0.3,0.7-0.7l0-4.4c0,0,0-0.1,0.1-0.1h0.3
							c0,0,0.1,0,0.1,0.1c0,0,0,12.4,0,12.4c0,0.5,0.4,0.9,0.9,0.9c0.5,0,0.9-0.4,0.9-0.9c0,0,0-7.3,0-7.3c0-0.1,0-0.1,0.1-0.1h0.3
							c0.1,0,0.1,0,0.1,0.1c0,0,0,7.3,0,7.3c0,0.5,0.4,0.9,0.9,0.9c0.5,0,0.9-0.4,0.9-0.9c0,0,0-12.4,0-12.4c0,0,0-0.1,0.1-0.1h0.3
							c0,0,0.1,0,0.1,0.1l0,4.4c0,0.4,0.3,0.7,0.7,0.7c0.4,0,0.7-0.3,0.7-0.7c0,0,0-5,0-5c0-1-0.9-1.8-1.9-1.8c0,0-4.2,0-4.3,0
							C510.4,1135,509.5,1135.8,509.5,1136.8z"/>
						<path class="st10" d="M512.8,1132c-0.5,0.3-0.8,0.8-0.8,1.3c0,0.8,0.7,1.5,1.5,1.5s1.5-0.7,1.5-1.5c0-0.5-0.3-1-0.6-1.2v-0.9
							l-0.4,0.7c0,0-0.1,0-0.1,0v-0.6l-0.4,0.6c-0.1,0-0.1,0-0.2,0v-0.6L512.8,1132z"/>
					</g>
				</g>
			</g>
		</g>
	</g>
</g>
<g id="Piso_2_Texto_copy">
	<g>
		<g>
			<text transform="matrix(1 0 0 1 704.9777 1362.4403)"><tspan x="0" y="0" class="st11 st12 st13">CS</tspan><tspan x="-8.2" y="12" class="st11 st12 st13">CLUB</tspan></text>
			<text transform="matrix(1 0 0 1 770.6964 1272.4403)" class="st11 st12 st13">CLARO</text>
			<text transform="matrix(1 0 0 1 817.6925 1223.7737)" class="st11 st12 st13">HI FLY</text>
			<text transform="matrix(1 0 0 1 878.4259 1148.4403)"><tspan x="0" y="0" class="st11 st12 st13">ICE</tspan><tspan x="-15.8" y="12" class="st11 st12 st13">MELLOW</tspan></text>
			<text transform="matrix(1 0 0 1 812.6427 1130.4403)"><tspan x="0" y="0" class="st11 st12 st13">MC</tspan><tspan x="-18.6" y="12" class="st11 st12 st13">DONALDS</tspan></text>
			<text transform="matrix(1 0 0 1 672.9096 1204.4403)" class="st11 st12 st13">SALPIQUÉ</text>
			<text transform="matrix(1 0 0 1 655.1056 1165.1069)"><tspan x="0" y="0" class="st11 st12 st13">ME</tspan><tspan x="-14.8" y="12" class="st11 st12 st13">BELISCA</tspan></text>
			<text transform="matrix(1 0 0 1 584.1352 1090.4403)" class="st11 st12 st13">KOMIKETO</text>
			<text transform="matrix(1 0 0 1 588.3979 1045.1069)"><tspan x="0" y="0" class="st11 st12 st13">QG</tspan><tspan x="-18" y="12" class="st11 st12 st13">JEITINHO</tspan><tspan x="-16" y="24" class="st11 st12 st13">CASEIRO</tspan></text>
			<text transform="matrix(1 0 0 1 593.7931 982.4403)" class="st11 st12 st13">GRILETTO</text>
			<text transform="matrix(1 0 0 1 618.6049 953.1069)" class="st11 st12 st13">BOB’S</text>
			<text transform="matrix(1 0 0 1 704.8048 836.4403)"><tspan x="0" y="0" class="st11 st12 st13">MAX</tspan><tspan x="-4.1" y="12" class="st11 st12 st13">SUSHI</tspan></text>
			<text transform="matrix(1 0 0 1 711.1121 807.7736)"><tspan x="0" y="0" class="st11 st12 st13">HELLENITOS</tspan><tspan x="18.6" y="12" class="st11 st12 st13">GRILL</tspan></text>
			<text transform="matrix(1 0 0 1 755.5717 771.7736)"><tspan x="0" y="0" class="st11 st12 st13">BURGUER</tspan><tspan x="12.5" y="12" class="st11 st12 st13">KING</tspan></text>
			<text transform="matrix(1 0 0 1 846.6209 775.7736)"><tspan x="0" y="0" class="st11 st12 st13">GALO</tspan><tspan x="-8.6" y="12" class="st11 st12 st13">BRANCO</tspan></text>
			<text transform="matrix(1 0 0 1 872.1795 805.7736)" class="st11 st12 st13">BEBELU</text>
			<text transform="matrix(1 0 0 1 879.3768 827.7736)"><tspan x="0" y="0" class="st11 st12 st13">FABBRICA</tspan><tspan x="3.3" y="12" class="st11 st12 st13">DE PIZZA</tspan></text>
			<text transform="matrix(1 0 0 1 915.4442 854.2736)" class="st11 st12 st13">SPOLETO</text>
			<text transform="matrix(1 0 0 1 925.1043 879.2736)" class="st11 st12 st13">MR. FIT </text>
			<text transform="matrix(1 0 0 1 974.448 892.2736)"><tspan x="0" y="0" class="st11 st12 st13">TIO</tspan><tspan x="-15.5" y="12" class="st11 st12 st13">BAKINAS</tspan></text>
			<text transform="matrix(1 0 0 1 922.9871 986.7736)" class="st11 st12 st13">FIORELLA</text>
			<text transform="matrix(1 0 0 1 897.6238 1017.7736)" class="st11 st12 st13">GIRAFFAS</text>
			<text transform="matrix(1 0 0 1 927.4294 1068.2737)"><tspan x="0" y="0" class="st11 st12 st13">AQUARIUS</tspan><tspan x="0.5" y="12" class="st11 st12 st13">CHOPERIA</tspan></text>
			<text transform="matrix(1 0 0 1 972.3376 1040.7737)" class="st11 st12 st13">SKETCH</text>
			<text transform="matrix(1 0 0 1 1163.2224 1225.7737)"><tspan x="0" y="0" class="st11 st12 st13">spuntini</tspan><tspan x="14" y="12" class="st11 st12 st13">café</tspan></text>
			<text transform="matrix(1 0 0 1 1072.4929 1152.7737)"><tspan x="0" y="0" class="st11 st12 st13">omega</tspan><tspan x="-5.1" y="12" class="st11 st12 st13">dornier</tspan></text>
			<text transform="matrix(1 0 0 1 1083.3054 1116.2737)" class="st11 st12 st13">cvc</text>
			<text transform="matrix(1 0 0 1 1059.3152 1081.2737)" class="st11 st12 st13">bambinos</text>
			<text transform="matrix(1 0 0 1 1058.5841 949.2726)"><tspan x="0" y="0" class="st11 st12 st13">empório mais</tspan><tspan x="-2.3" y="12" class="st11 st12 st13">cor por favor</tspan></text>
			<text transform="matrix(1 0 0 1 1128.2362 905.2724)" class="st11 st12 st13">artesa</text>
			<text transform="matrix(1 0 0 1 1281.7732 832.2759)" class="st11 st12 st13">tng</text>
			<text transform="matrix(1 0 0 1 986.7159 1005.274)" class="st11 st12 st13">MARESIA</text>
			<text transform="matrix(1 0 0 1 995.0123 983.7738)" class="st11 st12 st13">FEMININA</text>
			<text transform="matrix(1 0 0 1 1064.6559 980.2722)"><tspan x="0" y="0" class="st11 st12 st13">LINDYSE</tspan><tspan x="8.6" y="12" class="st11 st12 st13">JÓIAS</tspan></text>
			<text transform="matrix(1 0 0 1 618.3563 1107.7737)" class="st11 st12 st13">SUBWAY</text>
			<text transform="matrix(1 0 0 1 615.8292 1134.4403)"><tspan x="0" y="0" class="st11 st12 st13">YAKISSOBA</tspan><tspan x="6" y="12" class="st11 st12 st13">FACTORY</tspan></text>
			<text transform="matrix(1 0 0 1 763.4093 1191.7737)"><tspan x="0" y="0" class="st11 st12 st13">Q</tspan><tspan x="-14.7" y="12" class="st11 st12 st13">SABOR</tspan></text>
			<text transform="matrix(1 0 0 1 837.2195 1178.4403)"><tspan x="0" y="0" class="st11 st12 st13">MARIA</tspan><tspan x="1.3" y="12" class="st11 st12 st13">MODA</tspan><tspan x="-10.7" y="24" class="st11 st12 st13">FEMININA</tspan></text>
			<text transform="matrix(1 0 0 1 784.1593 1247.7737)" class="st11 st12 st13">HAVAIANAS</text>
			<text transform="matrix(1 0 0 1 760.0121 1465.7737)"><tspan x="0" y="0" class="st11 st12 st13">CHILLI</tspan><tspan x="0.3" y="12" class="st11 st12 st13">BEANS</tspan></text>
			<text transform="matrix(1 0 0 1 923.3969 1435.7737)"><tspan x="0" y="0" class="st11 st12 st13">MAGIC</tspan><tspan x="-0.3" y="12" class="st11 st12 st13">GAMES</tspan></text>
			<text transform="matrix(1 0 0 1 843.3784 1375.7737)"><tspan x="0" y="0" class="st11 st12 st13">WHITE</tspan><tspan x="-0.1" y="12" class="st11 st12 st13">SHARK</tspan></text>
			<text transform="matrix(1 0 0 1 896.4428 1330.4403)" class="st11 st12 st13">HOPE</text>
			<text transform="matrix(1 0 0 1 951.5681 1301.7737)" class="st11 st12 st13">PACTUS</text>
			<text transform="matrix(1 0 0 1 913.7309 1298.4403)"><tspan x="0" y="0" class="st11 st12 st13">SALT</tspan><tspan x="-5" y="12" class="st11 st12 st13">SHOES</tspan></text>
			<text transform="matrix(1 0 0 1 957.9399 1259.7737)"><tspan x="0" y="0" class="st11 st12 st13">DEVILLE</tspan><tspan x="7.4" y="12" class="st11 st12 st13">JÓIAS</tspan></text>
			<g>
				<g>
					<text transform="matrix(1 0 0 1 737.7973 985.7736)"><tspan x="0" y="0" class="st11 st12 st14">PRAÇA DE</tspan><tspan x="-19.1" y="17" class="st11 st12 st14">ALIMENTAÇãO</tspan></text>
				</g>
				<text transform="matrix(1 0 0 1 737.7973 985.7736)"><tspan x="0" y="0" class="st11 st12 st14">PRAÇA DE</tspan><tspan x="-19.1" y="17" class="st11 st12 st14">ALIMENTAÇãO</tspan></text>
				<g>
					<text transform="matrix(1 0 0 1 737.7973 985.7736)"><tspan x="0" y="0" class="st11 st12 st14">PRAÇA DE</tspan><tspan x="-19.1" y="17" class="st11 st12 st14">ALIMENTAÇãO</tspan></text>
				</g>
			</g>
			<text transform="matrix(1 0 0 1 231.8759 1429.661)" class="st11 st12 st14">EXPANSãO</text>
			<text transform="matrix(1 0 0 1 1111.8759 531.661)" class="st11 st12 st14">EXPANSãO</text>
		</g>
		<g>
			<text transform="matrix(1 0 0 1 704.9777 1362.4403)"><tspan x="0" y="0" class="st12 st13">CS</tspan><tspan x="-8.2" y="12" class="st12 st13">CLUB</tspan></text>
			<text transform="matrix(1 0 0 1 770.6964 1272.4403)" class="st12 st13">CLARO</text>
			<text transform="matrix(1 0 0 1 817.6925 1223.7737)" class="st12 st13">HI FLY</text>
			<text transform="matrix(1 0 0 1 878.4259 1148.4403)"><tspan x="0" y="0" class="st12 st13">ICE</tspan><tspan x="-15.8" y="12" class="st12 st13">MELLOW</tspan></text>
			<text transform="matrix(1 0 0 1 812.6427 1130.4403)"><tspan x="0" y="0" class="st12 st13">MC</tspan><tspan x="-18.6" y="12" class="st12 st13">DONALDS</tspan></text>
			<text transform="matrix(1 0 0 1 672.9096 1204.4403)" class="st12 st13">SALPIQUÉ</text>
			<text transform="matrix(1 0 0 1 655.1056 1165.1069)"><tspan x="0" y="0" class="st12 st13">ME</tspan><tspan x="-14.8" y="12" class="st12 st13">BELISCA</tspan></text>
			<text transform="matrix(1 0 0 1 584.1352 1090.4403)" class="st12 st13">KOMIKETO</text>
			<text transform="matrix(1 0 0 1 588.3979 1045.1069)"><tspan x="0" y="0" class="st12 st13">QG</tspan><tspan x="-18" y="12" class="st12 st13">JEITINHO</tspan><tspan x="-16" y="24" class="st12 st13">CASEIRO</tspan></text>
			<text transform="matrix(1 0 0 1 593.7931 982.4403)" class="st12 st13">GRILETTO</text>
			<text transform="matrix(1 0 0 1 618.6049 953.1069)" class="st12 st13">BOB’S</text>
			<text transform="matrix(1 0 0 1 704.8048 836.4403)"><tspan x="0" y="0" class="st12 st13">MAX</tspan><tspan x="-4.1" y="12" class="st12 st13">SUSHI</tspan></text>
			<text transform="matrix(1 0 0 1 711.1121 807.7736)"><tspan x="0" y="0" class="st12 st13">HELLENITOS</tspan><tspan x="18.6" y="12" class="st12 st13">GRILL</tspan></text>
			<text transform="matrix(1 0 0 1 755.5717 771.7736)"><tspan x="0" y="0" class="st12 st13">BURGUER</tspan><tspan x="12.5" y="12" class="st12 st13">KING</tspan></text>
			<text transform="matrix(1 0 0 1 846.6209 775.7736)"><tspan x="0" y="0" class="st12 st13">GALO</tspan><tspan x="-8.6" y="12" class="st12 st13">BRANCO</tspan></text>
			<text transform="matrix(1 0 0 1 872.1795 805.7736)" class="st12 st13">BEBELU</text>
			<text transform="matrix(1 0 0 1 879.3768 827.7736)"><tspan x="0" y="0" class="st12 st13">FABBRICA</tspan><tspan x="3.3" y="12" class="st12 st13">DE PIZZA</tspan></text>
			<text transform="matrix(1 0 0 1 915.4442 854.2736)" class="st12 st13">SPOLETO</text>
			<text transform="matrix(1 0 0 1 925.1043 879.2736)" class="st12 st13">MR. FIT </text>
			<text transform="matrix(1 0 0 1 974.448 892.2736)"><tspan x="0" y="0" class="st12 st13">TIO</tspan><tspan x="-15.5" y="12" class="st12 st13">BAKINAS</tspan></text>
			<text transform="matrix(1 0 0 1 922.9871 986.7736)" class="st12 st13">FIORELLA</text>
			<text transform="matrix(1 0 0 1 897.6238 1017.7736)" class="st12 st13">GIRAFFAS</text>
			<text transform="matrix(1 0 0 1 927.4294 1068.2737)"><tspan x="0" y="0" class="st12 st13">AQUARIUS</tspan><tspan x="0.5" y="12" class="st12 st13">CHOPERIA</tspan></text>
			<text transform="matrix(1 0 0 1 972.3376 1040.7737)" class="st12 st13">SKETCH</text>
			<text transform="matrix(1 0 0 1 1163.2224 1225.7737)"><tspan x="0" y="0" class="st12 st13">spuntini</tspan><tspan x="14" y="12" class="st12 st13">café</tspan></text>
			<text transform="matrix(1 0 0 1 1072.4929 1152.7737)"><tspan x="0" y="0" class="st12 st13">omega</tspan><tspan x="-5.1" y="12" class="st12 st13">dornier</tspan></text>
			<text transform="matrix(1 0 0 1 1083.3054 1116.2737)" class="st12 st13">cvc</text>
			<text transform="matrix(1 0 0 1 1059.3152 1081.2737)" class="st12 st13">bambinos</text>
			<text transform="matrix(1 0 0 1 1058.5841 949.2726)"><tspan x="0" y="0" class="st12 st13">empório mais</tspan><tspan x="-2.3" y="12" class="st12 st13">cor por favor</tspan></text>
			<text transform="matrix(1 0 0 1 1128.2362 905.2724)" class="st12 st13">artesa</text>
			<text transform="matrix(1 0 0 1 1281.7732 832.2759)" class="st12 st13">tng</text>
			<text transform="matrix(1 0 0 1 986.7159 1005.274)" class="st12 st13">MARESIA</text>
			<text transform="matrix(1 0 0 1 995.0123 983.7738)" class="st12 st13">FEMININA</text>
			<text transform="matrix(1 0 0 1 1064.6559 980.2722)"><tspan x="0" y="0" class="st12 st13">LINDYSE</tspan><tspan x="8.6" y="12" class="st12 st13">JÓIAS</tspan></text>
			<text transform="matrix(1 0 0 1 618.3563 1107.7737)" class="st12 st13">SUBWAY</text>
			<text transform="matrix(1 0 0 1 615.8292 1134.4403)"><tspan x="0" y="0" class="st12 st13">YAKISSOBA</tspan><tspan x="6" y="12" class="st12 st13">FACTORY</tspan></text>
			<text transform="matrix(1 0 0 1 763.4093 1191.7737)"><tspan x="0" y="0" class="st12 st13">Q</tspan><tspan x="-14.7" y="12" class="st12 st13">SABOR</tspan></text>
			<text transform="matrix(1 0 0 1 837.2195 1178.4403)"><tspan x="0" y="0" class="st12 st13">MARIA</tspan><tspan x="1.3" y="12" class="st12 st13">MODA</tspan><tspan x="-10.7" y="24" class="st12 st13">FEMININA</tspan></text>
			<text transform="matrix(1 0 0 1 784.1593 1247.7737)" class="st12 st13">HAVAIANAS</text>
			<text transform="matrix(1 0 0 1 760.0121 1465.7737)"><tspan x="0" y="0" class="st12 st13">CHILLI</tspan><tspan x="0.3" y="12" class="st12 st13">BEANS</tspan></text>
			<text transform="matrix(1 0 0 1 923.3969 1435.7737)"><tspan x="0" y="0" class="st12 st13">MAGIC</tspan><tspan x="-0.3" y="12" class="st12 st13">GAMES</tspan></text>
			<text transform="matrix(1 0 0 1 843.3784 1375.7737)"><tspan x="0" y="0" class="st12 st13">WHITE</tspan><tspan x="-0.1" y="12" class="st12 st13">SHARK</tspan></text>
			<text transform="matrix(1 0 0 1 896.4428 1330.4403)" class="st12 st13">HOPE</text>
			<text transform="matrix(1 0 0 1 951.5681 1301.7737)" class="st12 st13">PACTUS</text>
			<text transform="matrix(1 0 0 1 913.7309 1298.4403)"><tspan x="0" y="0" class="st12 st13">SALT</tspan><tspan x="-5" y="12" class="st12 st13">SHOES</tspan></text>
			<text transform="matrix(1 0 0 1 957.9399 1259.7737)"><tspan x="0" y="0" class="st12 st13">DEVILLE</tspan><tspan x="7.4" y="12" class="st12 st13">JÓIAS</tspan></text>
			<g>
				<text transform="matrix(1 0 0 1 737.7973 985.7736)"><tspan x="0" y="0" class="st12 st14">PRAÇA DE</tspan><tspan x="-19.1" y="17" class="st12 st14">ALIMENTAÇãO</tspan></text>
			</g>
			<text transform="matrix(1 0 0 1 231.8759 1429.661)" class="st12 st14">EXPANSãO</text>
			<text transform="matrix(1 0 0 1 1111.8759 531.661)" class="st12 st14">EXPANSãO</text>
		</g>
		<g>
			<text transform="matrix(1 0 0 1 704.9777 1362.4403)"><tspan x="0" y="0" class="st9 st12 st13">CS</tspan><tspan x="-8.2" y="12" class="st9 st12 st13">CLUB</tspan></text>
			<text transform="matrix(1 0 0 1 770.6964 1272.4403)" class="st9 st12 st13">CLARO</text>
			<text transform="matrix(1 0 0 1 817.6925 1223.7737)" class="st9 st12 st13">HI FLY</text>
			<text transform="matrix(1 0 0 1 878.4259 1148.4403)"><tspan x="0" y="0" class="st9 st12 st13">ICE</tspan><tspan x="-15.8" y="12" class="st9 st12 st13">MELLOW</tspan></text>
			<text transform="matrix(1 0 0 1 812.6427 1130.4403)"><tspan x="0" y="0" class="st9 st12 st13">MC</tspan><tspan x="-18.6" y="12" class="st9 st12 st13">DONALDS</tspan></text>
			<text transform="matrix(1 0 0 1 672.9096 1204.4403)" class="st9 st12 st13">SALPIQUÉ</text>
			<text transform="matrix(1 0 0 1 655.1056 1165.1069)"><tspan x="0" y="0" class="st9 st12 st13">ME</tspan><tspan x="-14.8" y="12" class="st9 st12 st13">BELISCA</tspan></text>
			<text transform="matrix(1 0 0 1 584.1352 1090.4403)" class="st9 st12 st13">KOMIKETO</text>
			<text transform="matrix(1 0 0 1 588.3979 1045.1069)"><tspan x="0" y="0" class="st9 st12 st13">QG</tspan><tspan x="-18" y="12" class="st9 st12 st13">JEITINHO</tspan><tspan x="-16" y="24" class="st9 st12 st13">CASEIRO</tspan></text>
			<text transform="matrix(1 0 0 1 593.7931 982.4403)" class="st9 st12 st13">GRILETTO</text>
			<text transform="matrix(1 0 0 1 618.6049 953.1069)" class="st9 st12 st13">BOB’S</text>
			<text transform="matrix(1 0 0 1 704.8048 836.4403)"><tspan x="0" y="0" class="st9 st12 st13">MAX</tspan><tspan x="-4.1" y="12" class="st9 st12 st13">SUSHI</tspan></text>
			<text transform="matrix(1 0 0 1 711.1121 807.7736)"><tspan x="0" y="0" class="st9 st12 st13">HELLENITOS</tspan><tspan x="18.6" y="12" class="st9 st12 st13">GRILL</tspan></text>
			<text transform="matrix(1 0 0 1 755.5717 771.7736)"><tspan x="0" y="0" class="st9 st12 st13">BURGUER</tspan><tspan x="12.5" y="12" class="st9 st12 st13">KING</tspan></text>
			<text transform="matrix(1 0 0 1 846.6209 775.7736)"><tspan x="0" y="0" class="st9 st12 st13">GALO</tspan><tspan x="-8.6" y="12" class="st9 st12 st13">BRANCO</tspan></text>
			<text transform="matrix(1 0 0 1 872.1795 805.7736)" class="st9 st12 st13">BEBELU</text>
			<text transform="matrix(1 0 0 1 879.3768 827.7736)"><tspan x="0" y="0" class="st9 st12 st13">FABBRICA</tspan><tspan x="3.3" y="12" class="st9 st12 st13">DE PIZZA</tspan></text>
			<text transform="matrix(1 0 0 1 915.4442 854.2736)" class="st9 st12 st13">SPOLETO</text>
			<text transform="matrix(1 0 0 1 925.1043 879.2736)" class="st9 st12 st13">MR. FIT </text>
			<text transform="matrix(1 0 0 1 974.448 892.2736)"><tspan x="0" y="0" class="st9 st12 st13">TIO</tspan><tspan x="-15.5" y="12" class="st9 st12 st13">BAKINAS</tspan></text>
			<text transform="matrix(1 0 0 1 922.9871 986.7736)" class="st9 st12 st13">FIORELLA</text>
			<text transform="matrix(1 0 0 1 897.6238 1017.7736)" class="st9 st12 st13">GIRAFFAS</text>
			<text transform="matrix(1 0 0 1 927.4294 1068.2737)"><tspan x="0" y="0" class="st9 st12 st13">AQUARIUS</tspan><tspan x="0.5" y="12" class="st9 st12 st13">CHOPERIA</tspan></text>
			<text transform="matrix(1 0 0 1 972.3376 1040.7737)" class="st9 st12 st13">SKETCH</text>
			<text transform="matrix(1 0 0 1 1163.2224 1225.7737)"><tspan x="0" y="0" class="st9 st12 st13">spuntini</tspan><tspan x="14" y="12" class="st9 st12 st13">café</tspan></text>
			<text transform="matrix(1 0 0 1 1072.4929 1152.7737)"><tspan x="0" y="0" class="st9 st12 st13">omega</tspan><tspan x="-5.1" y="12" class="st9 st12 st13">dornier</tspan></text>
			<text transform="matrix(1 0 0 1 1083.3054 1116.2737)" class="st9 st12 st13">cvc</text>
			<text transform="matrix(1 0 0 1 1059.3152 1081.2737)" class="st9 st12 st13">bambinos</text>
			<text transform="matrix(1 0 0 1 1058.5841 949.2726)"><tspan x="0" y="0" class="st9 st12 st13">empório mais</tspan><tspan x="-2.3" y="12" class="st9 st12 st13">cor por favor</tspan></text>
			<text transform="matrix(1 0 0 1 1128.2362 905.2724)" class="st9 st12 st13">artesa</text>
			<text transform="matrix(1 0 0 1 1281.7732 832.2759)" class="st9 st12 st13">tng</text>
			<text transform="matrix(1 0 0 1 986.7159 1005.274)" class="st9 st12 st13">MARESIA</text>
			<text transform="matrix(1 0 0 1 995.0123 983.7738)" class="st9 st12 st13">FEMININA</text>
			<text transform="matrix(1 0 0 1 1064.6559 980.2722)"><tspan x="0" y="0" class="st9 st12 st13">LINDYSE</tspan><tspan x="8.6" y="12" class="st9 st12 st13">JÓIAS</tspan></text>
			<text transform="matrix(1 0 0 1 618.3563 1107.7737)" class="st9 st12 st13">SUBWAY</text>
			<text transform="matrix(1 0 0 1 615.8292 1134.4403)"><tspan x="0" y="0" class="st9 st12 st13">YAKISSOBA</tspan><tspan x="6" y="12" class="st9 st12 st13">FACTORY</tspan></text>
			<text transform="matrix(1 0 0 1 763.4093 1191.7737)"><tspan x="0" y="0" class="st9 st12 st13">Q</tspan><tspan x="-14.7" y="12" class="st9 st12 st13">SABOR</tspan></text>
			<text transform="matrix(1 0 0 1 837.2195 1178.4403)"><tspan x="0" y="0" class="st9 st12 st13">MARIA</tspan><tspan x="1.3" y="12" class="st9 st12 st13">MODA</tspan><tspan x="-10.7" y="24" class="st9 st12 st13">FEMININA</tspan></text>
			<text transform="matrix(1 0 0 1 784.1593 1247.7737)" class="st9 st12 st13">HAVAIANAS</text>
			<text transform="matrix(1 0 0 1 760.0121 1465.7737)"><tspan x="0" y="0" class="st9 st12 st13">CHILLI</tspan><tspan x="0.3" y="12" class="st9 st12 st13">BEANS</tspan></text>
			<text transform="matrix(1 0 0 1 923.3969 1435.7737)"><tspan x="0" y="0" class="st9 st12 st13">MAGIC</tspan><tspan x="-0.3" y="12" class="st9 st12 st13">GAMES</tspan></text>
			<text transform="matrix(1 0 0 1 843.3784 1375.7737)"><tspan x="0" y="0" class="st9 st12 st13">WHITE</tspan><tspan x="-0.1" y="12" class="st9 st12 st13">SHARK</tspan></text>
			<text transform="matrix(1 0 0 1 896.4428 1330.4403)" class="st9 st12 st13">HOPE</text>
			<text transform="matrix(1 0 0 1 951.5681 1301.7737)" class="st9 st12 st13">PACTUS</text>
			<text transform="matrix(1 0 0 1 913.7309 1298.4403)"><tspan x="0" y="0" class="st9 st12 st13">SALT</tspan><tspan x="-5" y="12" class="st9 st12 st13">SHOES</tspan></text>
			<text transform="matrix(1 0 0 1 957.9399 1259.7737)"><tspan x="0" y="0" class="st9 st12 st13">DEVILLE</tspan><tspan x="7.4" y="12" class="st9 st12 st13">JÓIAS</tspan></text>
			<g>
				<g>
					<text transform="matrix(1 0 0 1 737.7973 985.7736)"><tspan x="0" y="0" class="st9 st12 st14">PRAÇA DE</tspan><tspan x="-19.1" y="17" class="st9 st12 st14">ALIMENTAÇãO</tspan></text>
				</g>
				<text transform="matrix(1 0 0 1 737.7973 985.7736)"><tspan x="0" y="0" class="st9 st12 st14">PRAÇA DE</tspan><tspan x="-19.1" y="17" class="st9 st12 st14">ALIMENTAÇãO</tspan></text>
				<g>
					<text transform="matrix(1 0 0 1 737.7973 985.7736)"><tspan x="0" y="0" class="st9 st12 st14">PRAÇA DE</tspan><tspan x="-19.1" y="17" class="st9 st12 st14">ALIMENTAÇãO</tspan></text>
				</g>
			</g>
			<text transform="matrix(1 0 0 1 231.8759 1429.661)" class="st9 st12 st14">EXPANSãO</text>
			<text transform="matrix(1 0 0 1 1111.8759 531.661)" class="st9 st12 st14">EXPANSãO</text>
		</g>
	</g>
</g>
</svg>
